G04*
G04 #@! TF.GenerationSoftware,Altium Limited,Altium Designer,18.1.8 (232)*
G04*
G04 Layer_Color=2752767*
%FSLAX25Y25*%
%MOIN*%
G70*
G01*
G75*
%ADD86C,0.00200*%
%ADD87C,0.00267*%
D86*
X9700Y9700D02*
Y11300D01*
X11300D01*
Y9700D01*
X9700D01*
X185700Y185700D02*
Y187300D01*
X187300D01*
Y185700D01*
X185700D01*
X184821Y10200D02*
Y11800D01*
X186421D01*
Y10200D01*
X184821D01*
X9700Y185200D02*
Y186800D01*
X11300D01*
Y185200D01*
X9700D01*
X159000Y155700D02*
X158200Y157300D01*
X159800D01*
X159000Y155700D01*
Y165700D02*
X158200Y167300D01*
X159800D01*
X159000Y165700D01*
Y175700D02*
X158200Y177300D01*
X159800D01*
X159000Y175700D01*
Y185700D02*
X158200Y187300D01*
X159800D01*
X159000Y185700D01*
X111500Y181200D02*
X111900Y181600D01*
X112300D01*
X111900Y182000D01*
X112300Y182400D01*
X111900D01*
X111500Y182800D01*
X111100Y182400D01*
X110700D01*
X111100Y182000D01*
X110700Y181600D01*
X111100D01*
X111500Y181200D01*
Y191200D02*
X111900Y191600D01*
X112300D01*
X111900Y192000D01*
X112300Y192400D01*
X111900D01*
X111500Y192800D01*
X111100Y192400D01*
X110700D01*
X111100Y192000D01*
X110700Y191600D01*
X111100D01*
X111500Y191200D01*
X87200Y106200D02*
X87600Y107000D01*
X87200Y107800D01*
X88000Y107400D01*
X88800Y107800D01*
X88400Y107000D01*
X88800Y106200D01*
X88000Y106600D01*
X87200Y106200D01*
X94200Y52104D02*
X94600Y52904D01*
X94200Y53704D01*
X95000Y53304D01*
X95800Y53704D01*
X95400Y52904D01*
X95800Y52104D01*
X95000Y52504D01*
X94200Y52104D01*
X93200Y61200D02*
X93600Y62000D01*
X93200Y62800D01*
X94000Y62400D01*
X94800Y62800D01*
X94400Y62000D01*
X94800Y61200D01*
X94000Y61600D01*
X93200Y61200D01*
X104700Y51145D02*
X105100Y51945D01*
X104700Y52745D01*
X105500Y52345D01*
X106300Y52745D01*
X105900Y51945D01*
X106300Y51145D01*
X105500Y51545D01*
X104700Y51145D01*
X104200Y56798D02*
X104600Y57598D01*
X104200Y58398D01*
X105000Y57998D01*
X105800Y58398D01*
X105400Y57598D01*
X105800Y56798D01*
X105000Y57198D01*
X104200Y56798D01*
X162094Y65921D02*
X162494Y66720D01*
X162094Y67520D01*
X162894Y67120D01*
X163694Y67520D01*
X163294Y66720D01*
X163694Y65921D01*
X162894Y66321D01*
X162094Y65921D01*
X162427Y70949D02*
X162828Y71749D01*
X162427Y72549D01*
X163227Y72149D01*
X164028Y72549D01*
X163628Y71749D01*
X164028Y70949D01*
X163227Y71349D01*
X162427Y70949D01*
X162506Y78200D02*
X162906Y79000D01*
X162506Y79800D01*
X163306Y79400D01*
X164106Y79800D01*
X163706Y79000D01*
X164106Y78200D01*
X163306Y78600D01*
X162506Y78200D01*
X155535Y56599D02*
X155935Y57399D01*
X155535Y58199D01*
X156335Y57799D01*
X157135Y58199D01*
X156735Y57399D01*
X157135Y56599D01*
X156335Y56999D01*
X155535Y56599D01*
X152644Y56472D02*
X153044Y57272D01*
X152644Y58072D01*
X153444Y57672D01*
X154244Y58072D01*
X153844Y57272D01*
X154244Y56472D01*
X153444Y56872D01*
X152644Y56472D01*
X172121Y75200D02*
X172521Y76000D01*
X172121Y76800D01*
X172921Y76400D01*
X173721Y76800D01*
X173321Y76000D01*
X173721Y75200D01*
X172921Y75600D01*
X172121Y75200D01*
X182376Y75807D02*
X182776Y76607D01*
X182376Y77407D01*
X183176Y77007D01*
X183976Y77407D01*
X183576Y76607D01*
X183976Y75807D01*
X183176Y76207D01*
X182376Y75807D01*
X188700Y75700D02*
X189100Y76500D01*
X188700Y77300D01*
X189500Y76900D01*
X190300Y77300D01*
X189900Y76500D01*
X190300Y75700D01*
X189500Y76100D01*
X188700Y75700D01*
X184956Y80857D02*
X185356Y81657D01*
X184956Y82457D01*
X185756Y82057D01*
X186556Y82457D01*
X186156Y81657D01*
X186556Y80857D01*
X185756Y81257D01*
X184956Y80857D01*
X190700D02*
X191100Y81657D01*
X190700Y82457D01*
X191500Y82057D01*
X192300Y82457D01*
X191900Y81657D01*
X192300Y80857D01*
X191500Y81257D01*
X190700Y80857D01*
X189200Y151097D02*
X189600Y151897D01*
X189200Y152697D01*
X190000Y152297D01*
X190800Y152697D01*
X190400Y151897D01*
X190800Y151097D01*
X190000Y151497D01*
X189200Y151097D01*
X187647Y168545D02*
X188047Y169345D01*
X187647Y170145D01*
X188447Y169745D01*
X189247Y170145D01*
X188847Y169345D01*
X189247Y168545D01*
X188447Y168945D01*
X187647Y168545D01*
X184195Y157200D02*
X184595Y158000D01*
X184195Y158800D01*
X184995Y158400D01*
X185795Y158800D01*
X185395Y158000D01*
X185795Y157200D01*
X184995Y157600D01*
X184195Y157200D01*
X179828Y151216D02*
X180228Y152016D01*
X179828Y152816D01*
X180628Y152416D01*
X181428Y152816D01*
X181028Y152016D01*
X181428Y151216D01*
X180628Y151616D01*
X179828Y151216D01*
X181200Y160448D02*
X181600Y161248D01*
X181200Y162048D01*
X182000Y161648D01*
X182800Y162048D01*
X182400Y161248D01*
X182800Y160448D01*
X182000Y160848D01*
X181200Y160448D01*
X170200Y187933D02*
X170600Y188733D01*
X170200Y189533D01*
X171000Y189133D01*
X171800Y189533D01*
X171400Y188733D01*
X171800Y187933D01*
X171000Y188333D01*
X170200Y187933D01*
X135700Y183556D02*
X136100Y184356D01*
X135700Y185156D01*
X136500Y184756D01*
X137300Y185156D01*
X136900Y184356D01*
X137300Y183556D01*
X136500Y183956D01*
X135700Y183556D01*
X133700Y189700D02*
X134100Y190500D01*
X133700Y191300D01*
X134500Y190900D01*
X135300Y191300D01*
X134900Y190500D01*
X135300Y189700D01*
X134500Y190100D01*
X133700Y189700D01*
X81200Y2573D02*
X81600Y3373D01*
X81200Y4173D01*
X82000Y3773D01*
X82800Y4173D01*
X82400Y3373D01*
X82800Y2573D01*
X82000Y2973D01*
X81200Y2573D01*
X81653Y7694D02*
X82053Y8494D01*
X81653Y9294D01*
X82453Y8894D01*
X83253Y9294D01*
X82853Y8494D01*
X83253Y7694D01*
X82453Y8094D01*
X81653Y7694D01*
X23200Y18200D02*
X23600Y19000D01*
X23200Y19800D01*
X24000Y19400D01*
X24800Y19800D01*
X24400Y19000D01*
X24800Y18200D01*
X24000Y18600D01*
X23200Y18200D01*
X17036Y23200D02*
X17436Y24000D01*
X17036Y24800D01*
X17836Y24400D01*
X18636Y24800D01*
X18236Y24000D01*
X18636Y23200D01*
X17836Y23600D01*
X17036Y23200D01*
X49894Y5700D02*
X50293Y6500D01*
X49894Y7300D01*
X50694Y6900D01*
X51494Y7300D01*
X51094Y6500D01*
X51494Y5700D01*
X50694Y6100D01*
X49894Y5700D01*
X44831D02*
X45231Y6500D01*
X44831Y7300D01*
X45631Y6900D01*
X46431Y7300D01*
X46031Y6500D01*
X46431Y5700D01*
X45631Y6100D01*
X44831Y5700D01*
X62638Y33897D02*
X63038Y34697D01*
X62638Y35497D01*
X63438Y35097D01*
X64238Y35497D01*
X63838Y34697D01*
X64238Y33897D01*
X63438Y34297D01*
X62638Y33897D01*
X66700Y31700D02*
X67100Y32500D01*
X66700Y33300D01*
X67500Y32900D01*
X68300Y33300D01*
X67900Y32500D01*
X68300Y31700D01*
X67500Y32100D01*
X66700Y31700D01*
X64991Y36922D02*
X65390Y37723D01*
X64991Y38522D01*
X65790Y38122D01*
X66590Y38522D01*
X66190Y37723D01*
X66590Y36922D01*
X65790Y37323D01*
X64991Y36922D01*
X68288Y40500D02*
X68688Y41300D01*
X68288Y42100D01*
X69088Y41700D01*
X69888Y42100D01*
X69488Y41300D01*
X69888Y40500D01*
X69088Y40900D01*
X68288Y40500D01*
X27700Y38207D02*
X28100Y39007D01*
X27700Y39807D01*
X28500Y39407D01*
X29300Y39807D01*
X28900Y39007D01*
X29300Y38207D01*
X28500Y38607D01*
X27700Y38207D01*
X66603Y49512D02*
X67003Y50311D01*
X66603Y51112D01*
X67403Y50712D01*
X68203Y51112D01*
X67803Y50311D01*
X68203Y49512D01*
X67403Y49911D01*
X66603Y49512D01*
X63352Y47760D02*
X63752Y48559D01*
X63352Y49360D01*
X64152Y48959D01*
X64951Y49360D01*
X64552Y48559D01*
X64951Y47760D01*
X64152Y48160D01*
X63352Y47760D01*
X70200Y78329D02*
X70600Y79129D01*
X70200Y79929D01*
X71000Y79529D01*
X71800Y79929D01*
X71400Y79129D01*
X71800Y78329D01*
X71000Y78729D01*
X70200Y78329D01*
X66076D02*
X66477Y79129D01*
X66076Y79929D01*
X66877Y79529D01*
X67677Y79929D01*
X67277Y79129D01*
X67677Y78329D01*
X66877Y78729D01*
X66076Y78329D01*
X48753Y77200D02*
X49153Y78000D01*
X48753Y78800D01*
X49553Y78400D01*
X50353Y78800D01*
X49953Y78000D01*
X50353Y77200D01*
X49553Y77600D01*
X48753Y77200D01*
X38710Y63399D02*
X39110Y64199D01*
X38710Y64999D01*
X39510Y64599D01*
X40310Y64999D01*
X39910Y64199D01*
X40310Y63399D01*
X39510Y63799D01*
X38710Y63399D01*
Y67811D02*
X39110Y68611D01*
X38710Y69411D01*
X39510Y69011D01*
X40310Y69411D01*
X39910Y68611D01*
X40310Y67811D01*
X39510Y68211D01*
X38710Y67811D01*
X30384Y88200D02*
X30784Y89000D01*
X30384Y89800D01*
X31185Y89400D01*
X31984Y89800D01*
X31585Y89000D01*
X31984Y88200D01*
X31185Y88600D01*
X30384Y88200D01*
X3700Y90700D02*
X4100Y91500D01*
X3700Y92300D01*
X4500Y91900D01*
X5300Y92300D01*
X4900Y91500D01*
X5300Y90700D01*
X4500Y91100D01*
X3700Y90700D01*
X29801Y74506D02*
X30201Y75306D01*
X29801Y76107D01*
X30601Y75706D01*
X31401Y76107D01*
X31001Y75306D01*
X31401Y74506D01*
X30601Y74906D01*
X29801Y74506D01*
X31700Y83200D02*
X32100Y84000D01*
X31700Y84800D01*
X32500Y84400D01*
X33300Y84800D01*
X32900Y84000D01*
X33300Y83200D01*
X32500Y83600D01*
X31700Y83200D01*
X4700Y74200D02*
X5100Y75000D01*
X4700Y75800D01*
X5500Y75400D01*
X6300Y75800D01*
X5900Y75000D01*
X6300Y74200D01*
X5500Y74600D01*
X4700Y74200D01*
Y83647D02*
X5100Y84447D01*
X4700Y85247D01*
X5500Y84847D01*
X6300Y85247D01*
X5900Y84447D01*
X6300Y83647D01*
X5500Y84047D01*
X4700Y83647D01*
X18641Y113878D02*
X19041Y114678D01*
X18641Y115478D01*
X19441Y115078D01*
X20241Y115478D01*
X19841Y114678D01*
X20241Y113878D01*
X19441Y114278D01*
X18641Y113878D01*
X14200Y115200D02*
X14600Y116000D01*
X14200Y116800D01*
X15000Y116400D01*
X15800Y116800D01*
X15400Y116000D01*
X15800Y115200D01*
X15000Y115600D01*
X14200Y115200D01*
X9613D02*
X10013Y116000D01*
X9613Y116800D01*
X10413Y116400D01*
X11213Y116800D01*
X10813Y116000D01*
X11213Y115200D01*
X10413Y115600D01*
X9613Y115200D01*
X44040Y122364D02*
X44440Y123164D01*
X44040Y123964D01*
X44840Y123564D01*
X45640Y123964D01*
X45240Y123164D01*
X45640Y122364D01*
X44840Y122764D01*
X44040Y122364D01*
X49200Y148268D02*
X49600Y149068D01*
X49200Y149868D01*
X50000Y149468D01*
X50800Y149868D01*
X50400Y149068D01*
X50800Y148268D01*
X50000Y148668D01*
X49200Y148268D01*
X44700D02*
X45100Y149068D01*
X44700Y149868D01*
X45500Y149468D01*
X46300Y149868D01*
X45900Y149068D01*
X46300Y148268D01*
X45500Y148668D01*
X44700Y148268D01*
X40194D02*
X40594Y149068D01*
X40194Y149868D01*
X40994Y149468D01*
X41794Y149868D01*
X41394Y149068D01*
X41794Y148268D01*
X40994Y148668D01*
X40194Y148268D01*
X43589Y127263D02*
X43989Y128063D01*
X43589Y128863D01*
X44389Y128463D01*
X45189Y128863D01*
X44789Y128063D01*
X45189Y127263D01*
X44389Y127663D01*
X43589Y127263D01*
X44200Y132700D02*
X44600Y133500D01*
X44200Y134300D01*
X45000Y133900D01*
X45800Y134300D01*
X45400Y133500D01*
X45800Y132700D01*
X45000Y133100D01*
X44200Y132700D01*
X71273Y137750D02*
X71673Y138550D01*
X71273Y139350D01*
X72073Y138950D01*
X72873Y139350D01*
X72473Y138550D01*
X72873Y137750D01*
X72073Y138150D01*
X71273Y137750D01*
X75951Y137600D02*
X76351Y138400D01*
X75951Y139200D01*
X76751Y138800D01*
X77551Y139200D01*
X77151Y138400D01*
X77551Y137600D01*
X76751Y138000D01*
X75951Y137600D01*
Y141288D02*
X76351Y142088D01*
X75951Y142888D01*
X76751Y142488D01*
X77551Y142888D01*
X77151Y142088D01*
X77551Y141288D01*
X76751Y141688D01*
X75951Y141288D01*
X11213Y134801D02*
X11613Y135601D01*
X11213Y136401D01*
X12013Y136001D01*
X12813Y136401D01*
X12413Y135601D01*
X12813Y134801D01*
X12013Y135201D01*
X11213Y134801D01*
X5980Y135093D02*
X6380Y135893D01*
X5980Y136693D01*
X6780Y136293D01*
X7580Y136693D01*
X7180Y135893D01*
X7580Y135093D01*
X6780Y135493D01*
X5980Y135093D01*
X10809Y141480D02*
X11209Y142280D01*
X10809Y143080D01*
X11609Y142680D01*
X12409Y143080D01*
X12009Y142280D01*
X12409Y141480D01*
X11609Y141880D01*
X10809Y141480D01*
X5414D02*
X5814Y142280D01*
X5414Y143080D01*
X6214Y142680D01*
X7014Y143080D01*
X6614Y142280D01*
X7014Y141480D01*
X6214Y141880D01*
X5414Y141480D01*
X68479Y150678D02*
X68879Y151478D01*
X68479Y152278D01*
X69279Y151878D01*
X70079Y152278D01*
X69679Y151478D01*
X70079Y150678D01*
X69279Y151078D01*
X68479Y150678D01*
X68902Y156307D02*
X69302Y157107D01*
X68902Y157907D01*
X69702Y157507D01*
X70502Y157907D01*
X70102Y157107D01*
X70502Y156307D01*
X69702Y156707D01*
X68902Y156307D01*
X68638Y161741D02*
X69037Y162541D01*
X68638Y163341D01*
X69437Y162941D01*
X70237Y163341D01*
X69837Y162541D01*
X70237Y161741D01*
X69437Y162141D01*
X68638Y161741D01*
X73200Y166656D02*
X73600Y167456D01*
X73200Y168256D01*
X74000Y167856D01*
X74800Y168256D01*
X74400Y167456D01*
X74800Y166656D01*
X74000Y167056D01*
X73200Y166656D01*
X68288Y166980D02*
X68688Y167780D01*
X68288Y168579D01*
X69088Y168180D01*
X69888Y168579D01*
X69488Y167780D01*
X69888Y166980D01*
X69088Y167379D01*
X68288Y166980D01*
X43700Y178533D02*
X44100Y179332D01*
X43700Y180132D01*
X44500Y179733D01*
X45300Y180132D01*
X44900Y179332D01*
X45300Y178533D01*
X44500Y178932D01*
X43700Y178533D01*
X34162Y178964D02*
X34562Y179764D01*
X34162Y180564D01*
X34962Y180164D01*
X35762Y180564D01*
X35362Y179764D01*
X35762Y178964D01*
X34962Y179364D01*
X34162Y178964D01*
X24600Y179200D02*
X25000Y180000D01*
X24600Y180800D01*
X25400Y180400D01*
X26200Y180800D01*
X25800Y180000D01*
X26200Y179200D01*
X25400Y179600D01*
X24600Y179200D01*
X42919Y187112D02*
X43319Y187912D01*
X42919Y188712D01*
X43719Y188312D01*
X44519Y188712D01*
X44119Y187912D01*
X44519Y187112D01*
X43719Y187512D01*
X42919Y187112D01*
X34162Y187200D02*
X34562Y188000D01*
X34162Y188800D01*
X34962Y188400D01*
X35762Y188800D01*
X35362Y188000D01*
X35762Y187200D01*
X34962Y187600D01*
X34162Y187200D01*
X24700Y187428D02*
X25100Y188228D01*
X24700Y189028D01*
X25500Y188628D01*
X26300Y189028D01*
X25900Y188228D01*
X26300Y187428D01*
X25500Y187828D01*
X24700Y187428D01*
X162200Y87700D02*
X162600Y88500D01*
X162200Y89300D01*
X163000Y88900D01*
X163800Y89300D01*
X163400Y88500D01*
X163800Y87700D01*
X163000Y88100D01*
X162200Y87700D01*
X132700Y170200D02*
X133100Y171000D01*
X132700Y171800D01*
X133500Y171400D01*
X134300Y171800D01*
X133900Y171000D01*
X134300Y170200D01*
X133500Y170600D01*
X132700Y170200D01*
X87558Y163027D02*
X87958Y163827D01*
X87558Y164627D01*
X88358Y164227D01*
X89158Y164627D01*
X88758Y163827D01*
X89158Y163027D01*
X88358Y163427D01*
X87558Y163027D01*
X80700Y162700D02*
X81100Y163500D01*
X80700Y164300D01*
X81500Y163900D01*
X82300Y164300D01*
X81900Y163500D01*
X82300Y162700D01*
X81500Y163100D01*
X80700Y162700D01*
X76200Y161700D02*
X76600Y162500D01*
X76200Y163300D01*
X77000Y162900D01*
X77800Y163300D01*
X77400Y162500D01*
X77800Y161700D01*
X77000Y162100D01*
X76200Y161700D01*
X86200Y157700D02*
X86600Y158500D01*
X86200Y159300D01*
X87000Y158900D01*
X87800Y159300D01*
X87400Y158500D01*
X87800Y157700D01*
X87000Y158100D01*
X86200Y157700D01*
X81613Y142287D02*
X82013Y143087D01*
X81613Y143887D01*
X82413Y143487D01*
X83213Y143887D01*
X82813Y143087D01*
X83213Y142287D01*
X82413Y142687D01*
X81613Y142287D01*
X89700Y154200D02*
X90100Y155000D01*
X89700Y155800D01*
X90500Y155400D01*
X91300Y155800D01*
X90900Y155000D01*
X91300Y154200D01*
X90500Y154600D01*
X89700Y154200D01*
X158960Y42440D02*
X159360Y43240D01*
X158960Y44040D01*
X159760Y43640D01*
X160560Y44040D01*
X160160Y43240D01*
X160560Y42440D01*
X159760Y42840D01*
X158960Y42440D01*
X148953Y42565D02*
X149353Y43365D01*
X148953Y44165D01*
X149753Y43765D01*
X150553Y44165D01*
X150153Y43365D01*
X150553Y42565D01*
X149753Y42965D01*
X148953Y42565D01*
X128953Y43447D02*
X129353Y44247D01*
X128953Y45047D01*
X129753Y44647D01*
X130553Y45047D01*
X130153Y44247D01*
X130553Y43447D01*
X129753Y43847D01*
X128953Y43447D01*
X118953Y43694D02*
X119353Y44494D01*
X118953Y45294D01*
X119753Y44894D01*
X120553Y45294D01*
X120153Y44494D01*
X120553Y43694D01*
X119753Y44094D01*
X118953Y43694D01*
X108960D02*
X109360Y44494D01*
X108960Y45294D01*
X109760Y44894D01*
X110560Y45294D01*
X110160Y44494D01*
X110560Y43694D01*
X109760Y44094D01*
X108960Y43694D01*
X98953Y43312D02*
X99353Y44112D01*
X98953Y44912D01*
X99753Y44512D01*
X100553Y44912D01*
X100153Y44112D01*
X100553Y43312D01*
X99753Y43712D01*
X98953Y43312D01*
X149654Y144700D02*
X150054Y145500D01*
X149654Y146300D01*
X150454Y145900D01*
X151254Y146300D01*
X150854Y145500D01*
X151254Y144700D01*
X150454Y145100D01*
X149654Y144700D01*
X140700D02*
X141100Y145500D01*
X140700Y146300D01*
X141500Y145900D01*
X142300Y146300D01*
X141900Y145500D01*
X142300Y144700D01*
X141500Y145100D01*
X140700Y144700D01*
X43700Y165700D02*
X44100Y166500D01*
X43700Y167300D01*
X44500Y166900D01*
X45300Y167300D01*
X44900Y166500D01*
X45300Y165700D01*
X44500Y166100D01*
X43700Y165700D01*
X39700Y162700D02*
X40100Y163500D01*
X39700Y164300D01*
X40500Y163900D01*
X41300Y164300D01*
X40900Y163500D01*
X41300Y162700D01*
X40500Y163100D01*
X39700Y162700D01*
X62700Y13700D02*
X63100Y14500D01*
X62700Y15300D01*
X63500Y14900D01*
X64300Y15300D01*
X63900Y14500D01*
X64300Y13700D01*
X63500Y14100D01*
X62700Y13700D01*
X65797Y55308D02*
X66197Y56108D01*
X65797Y56908D01*
X66597Y56508D01*
X67397Y56908D01*
X66997Y56108D01*
X67397Y55308D01*
X66597Y55708D01*
X65797Y55308D01*
X84200Y73700D02*
X84600Y74500D01*
X84200Y75300D01*
X85000Y74900D01*
X85800Y75300D01*
X85400Y74500D01*
X85800Y73700D01*
X85000Y74100D01*
X84200Y73700D01*
X75747Y66200D02*
X76147Y67000D01*
X75747Y67800D01*
X76547Y67400D01*
X77347Y67800D01*
X76947Y67000D01*
X77347Y66200D01*
X76547Y66600D01*
X75747Y66200D01*
X78700Y81700D02*
X79100Y82500D01*
X78700Y83300D01*
X79500Y82900D01*
X80300Y83300D01*
X79900Y82500D01*
X80300Y81700D01*
X79500Y82100D01*
X78700Y81700D01*
X54200Y25700D02*
X54600Y26500D01*
X54200Y27300D01*
X55000Y26900D01*
X55800Y27300D01*
X55400Y26500D01*
X55800Y25700D01*
X55000Y26100D01*
X54200Y25700D01*
X63700Y103700D02*
X64100Y104500D01*
X63700Y105300D01*
X64500Y104900D01*
X65300Y105300D01*
X64900Y104500D01*
X65300Y103700D01*
X64500Y104100D01*
X63700Y103700D01*
X81200Y103613D02*
X81600Y104413D01*
X81200Y105213D01*
X82000Y104813D01*
X82800Y105213D01*
X82400Y104413D01*
X82800Y103613D01*
X82000Y104013D01*
X81200Y103613D01*
X33811Y48239D02*
X34211Y49039D01*
X33811Y49839D01*
X34611Y49439D01*
X35411Y49839D01*
X35011Y49039D01*
X35411Y48239D01*
X34611Y48639D01*
X33811Y48239D01*
X59105Y71200D02*
X59505Y72000D01*
X59105Y72800D01*
X59905Y72400D01*
X60706Y72800D01*
X60306Y72000D01*
X60706Y71200D01*
X59905Y71600D01*
X59105Y71200D01*
X55092Y71700D02*
X55492Y72500D01*
X55092Y73300D01*
X55892Y72900D01*
X56692Y73300D01*
X56292Y72500D01*
X56692Y71700D01*
X55892Y72100D01*
X55092Y71700D01*
X50700Y42700D02*
X51100Y43500D01*
X50700Y44300D01*
X51500Y43900D01*
X52300Y44300D01*
X51900Y43500D01*
X52300Y42700D01*
X51500Y43100D01*
X50700Y42700D01*
X53517Y46017D02*
X53917Y46817D01*
X53517Y47617D01*
X54317Y47217D01*
X55117Y47617D01*
X54717Y46817D01*
X55117Y46017D01*
X54317Y46417D01*
X53517Y46017D01*
X56200Y40000D02*
X56600Y40800D01*
X56200Y41600D01*
X57000Y41200D01*
X57800Y41600D01*
X57400Y40800D01*
X57800Y40000D01*
X57000Y40400D01*
X56200Y40000D01*
X55092Y21338D02*
X55492Y22138D01*
X55092Y22938D01*
X55892Y22538D01*
X56692Y22938D01*
X56292Y22138D01*
X56692Y21338D01*
X55892Y21738D01*
X55092Y21338D01*
X40200Y143400D02*
X40600Y144200D01*
X40200Y145000D01*
X41000Y144600D01*
X41800Y145000D01*
X41400Y144200D01*
X41800Y143400D01*
X41000Y143800D01*
X40200Y143400D01*
X27700Y131200D02*
X28100Y132000D01*
X27700Y132800D01*
X28500Y132400D01*
X29300Y132800D01*
X28900Y132000D01*
X29300Y131200D01*
X28500Y131600D01*
X27700Y131200D01*
X185700Y117200D02*
X186100Y118000D01*
X185700Y118800D01*
X186500Y118400D01*
X187300Y118800D01*
X186900Y118000D01*
X187300Y117200D01*
X186500Y117600D01*
X185700Y117200D01*
Y113200D02*
X186100Y114000D01*
X185700Y114800D01*
X186500Y114400D01*
X187300Y114800D01*
X186900Y114000D01*
X187300Y113200D01*
X186500Y113600D01*
X185700Y113200D01*
X145757Y122700D02*
X146157Y123500D01*
X145757Y124300D01*
X146557Y123900D01*
X147357Y124300D01*
X146957Y123500D01*
X147357Y122700D01*
X146557Y123100D01*
X145757Y122700D01*
Y126700D02*
X146157Y127500D01*
X145757Y128300D01*
X146557Y127900D01*
X147357Y128300D01*
X146957Y127500D01*
X147357Y126700D01*
X146557Y127100D01*
X145757Y126700D01*
D87*
X129300Y74500D02*
G03*
X129300Y74500I-800J0D01*
G01*
X119300D02*
G03*
X119300Y74500I-800J0D01*
G01*
X109300D02*
G03*
X109300Y74500I-800J0D01*
G01*
X160553Y13500D02*
G03*
X160553Y13500I-800J0D01*
G01*
Y23500D02*
G03*
X160553Y23500I-800J0D01*
G01*
Y3500D02*
G03*
X160553Y3500I-800J0D01*
G01*
X150553D02*
G03*
X150553Y3500I-800J0D01*
G01*
X140553D02*
G03*
X140553Y3500I-800J0D01*
G01*
X130553D02*
G03*
X130553Y3500I-800J0D01*
G01*
X120553D02*
G03*
X120553Y3500I-800J0D01*
G01*
X110553D02*
G03*
X110553Y3500I-800J0D01*
G01*
X100553D02*
G03*
X100553Y3500I-800J0D01*
G01*
X90553D02*
G03*
X90553Y3500I-800J0D01*
G01*
X150553Y13500D02*
G03*
X150553Y13500I-800J0D01*
G01*
X140553D02*
G03*
X140553Y13500I-800J0D01*
G01*
X130553D02*
G03*
X130553Y13500I-800J0D01*
G01*
X120553D02*
G03*
X120553Y13500I-800J0D01*
G01*
X110553D02*
G03*
X110553Y13500I-800J0D01*
G01*
X100553D02*
G03*
X100553Y13500I-800J0D01*
G01*
X90553D02*
G03*
X90553Y13500I-800J0D01*
G01*
X150553Y23500D02*
G03*
X150553Y23500I-800J0D01*
G01*
X140553D02*
G03*
X140553Y23500I-800J0D01*
G01*
X130553D02*
G03*
X130553Y23500I-800J0D01*
G01*
X120553D02*
G03*
X120553Y23500I-800J0D01*
G01*
X110553D02*
G03*
X110553Y23500I-800J0D01*
G01*
X100553D02*
G03*
X100553Y23500I-800J0D01*
G01*
X90553D02*
G03*
X90553Y23500I-800J0D01*
G01*
M02*
