G04*
G04 #@! TF.GenerationSoftware,Altium Limited,Altium Designer,18.1.8 (232)*
G04*
G04 Layer_Color=65535*
%FSLAX25Y25*%
%MOIN*%
G70*
G01*
G75*
%ADD10C,0.00984*%
%ADD11C,0.00787*%
%ADD12C,0.00394*%
%ADD13C,0.00500*%
%ADD14C,0.02362*%
%ADD15C,0.00709*%
%ADD16C,0.00039*%
%ADD17C,0.01968*%
%ADD18C,0.00800*%
%ADD19C,0.01000*%
D10*
X108792Y80208D02*
G03*
X108792Y80208I-492J0D01*
G01*
X58142Y170520D02*
G03*
X58142Y170520I-492J0D01*
G01*
X4300Y101404D02*
Y95500D01*
X7252D01*
X8236Y96484D01*
Y100420D01*
X7252Y101404D01*
X4300D01*
X14139D02*
X10204D01*
Y95500D01*
X14139D01*
X10204Y98452D02*
X12172D01*
X20043Y100420D02*
X19059Y101404D01*
X17091D01*
X16107Y100420D01*
Y99436D01*
X17091Y98452D01*
X19059D01*
X20043Y97468D01*
Y96484D01*
X19059Y95500D01*
X17091D01*
X16107Y96484D01*
X22011Y101404D02*
X23979D01*
X22995D01*
Y95500D01*
X22011D01*
X23979D01*
X30866Y100420D02*
X29882Y101404D01*
X27914D01*
X26930Y100420D01*
Y96484D01*
X27914Y95500D01*
X29882D01*
X30866Y96484D01*
Y98452D01*
X28898D01*
X32834Y95500D02*
Y101404D01*
X36770Y95500D01*
Y101404D01*
X42673D02*
X38738D01*
Y95500D01*
X42673D01*
X38738Y98452D02*
X40705D01*
X44641Y101404D02*
Y95500D01*
X47593D01*
X48577Y96484D01*
Y100420D01*
X47593Y101404D01*
X44641D01*
X56449D02*
Y95500D01*
X59400D01*
X60384Y96484D01*
Y97468D01*
X59400Y98452D01*
X56449D01*
X59400D01*
X60384Y99436D01*
Y100420D01*
X59400Y101404D01*
X56449D01*
X62352D02*
Y100420D01*
X64320Y98452D01*
X66288Y100420D01*
Y101404D01*
X64320Y98452D02*
Y95500D01*
X74159Y101404D02*
X78095D01*
Y100420D01*
X74159Y96484D01*
Y95500D01*
X78095D01*
X80063Y101404D02*
X83999D01*
Y100420D01*
X80063Y96484D01*
Y95500D01*
X83999D01*
X85966Y101404D02*
Y100420D01*
X87934Y98452D01*
X89902Y100420D01*
Y101404D01*
X87934Y98452D02*
Y95500D01*
D11*
X173765Y109699D02*
G03*
X173765Y109699I-394J0D01*
G01*
X117118Y93421D02*
X117118Y87024D01*
X106882Y93421D02*
X106882Y87024D01*
X106882Y93421D02*
X108654Y93421D01*
X115347D02*
X117118Y93421D01*
X62768Y136268D02*
X96232D01*
X62768Y169732D02*
X96232D01*
Y136268D02*
Y169732D01*
X62768Y136268D02*
Y169732D01*
X127098Y59861D02*
X126508Y59271D01*
Y58090D01*
X127098Y57500D01*
X127689D01*
X128279Y58090D01*
Y59271D01*
X128869Y59861D01*
X129460D01*
X130050Y59271D01*
Y58090D01*
X129460Y57500D01*
X126508Y61042D02*
X130050D01*
Y62813D01*
X129460Y63404D01*
X128869D01*
X128279Y62813D01*
Y61042D01*
Y62813D01*
X127689Y63404D01*
X127098D01*
X126508Y62813D01*
Y61042D01*
Y64584D02*
X129460D01*
X130050Y65175D01*
Y66355D01*
X129460Y66946D01*
X126508D01*
X127098Y70488D02*
X126508Y69898D01*
Y68717D01*
X127098Y68126D01*
X127689D01*
X128279Y68717D01*
Y69898D01*
X128869Y70488D01*
X129460D01*
X130050Y69898D01*
Y68717D01*
X129460Y68126D01*
X118579Y60500D02*
Y62861D01*
X117398Y61681D02*
X119760D01*
X116808Y66404D02*
Y64042D01*
X118579D01*
X117989Y65223D01*
Y65813D01*
X118579Y66404D01*
X119760D01*
X120350Y65813D01*
Y64632D01*
X119760Y64042D01*
X116808Y67584D02*
X119169D01*
X120350Y68765D01*
X119169Y69946D01*
X116808D01*
X106802Y63861D02*
X106211Y63271D01*
Y62090D01*
X106802Y61500D01*
X109163D01*
X109753Y62090D01*
Y63271D01*
X109163Y63861D01*
X107982D01*
Y62681D01*
X109753Y65042D02*
X106211D01*
X109753Y67404D01*
X106211D01*
Y68584D02*
X109753D01*
Y70355D01*
X109163Y70946D01*
X106802D01*
X106211Y70355D01*
Y68584D01*
X83500Y24452D02*
X84090Y25042D01*
X85271D01*
X85861Y24452D01*
Y23861D01*
X85271Y23271D01*
X85861Y22681D01*
Y22090D01*
X85271Y21500D01*
X84090D01*
X83500Y22090D01*
Y22681D01*
X84090Y23271D01*
X83500Y23861D01*
Y24452D01*
X84090Y23271D02*
X85271D01*
X163856Y22000D02*
X165037D01*
X164447D01*
Y25542D01*
X163856Y24952D01*
X119000Y125500D02*
Y129042D01*
X121361Y125500D01*
Y129042D01*
X124904Y128452D02*
X124313Y129042D01*
X123133D01*
X122542Y128452D01*
Y127861D01*
X123133Y127271D01*
X124313D01*
X124904Y126681D01*
Y126090D01*
X124313Y125500D01*
X123133D01*
X122542Y126090D01*
X128446Y128452D02*
X127855Y129042D01*
X126675D01*
X126084Y128452D01*
Y127861D01*
X126675Y127271D01*
X127855D01*
X128446Y126681D01*
Y126090D01*
X127855Y125500D01*
X126675D01*
X126084Y126090D01*
X121361Y134952D02*
X120771Y135542D01*
X119590D01*
X119000Y134952D01*
Y134361D01*
X119590Y133771D01*
X120771D01*
X121361Y133181D01*
Y132590D01*
X120771Y132000D01*
X119590D01*
X119000Y132590D01*
X124904Y134952D02*
X124313Y135542D01*
X123133D01*
X122542Y134952D01*
Y132590D01*
X123133Y132000D01*
X124313D01*
X124904Y132590D01*
X126084Y135542D02*
Y132000D01*
Y133181D01*
X128446Y135542D01*
X126675Y133771D01*
X128446Y132000D01*
X119000Y138500D02*
Y142042D01*
X120181Y140861D01*
X121361Y142042D01*
Y138500D01*
X122542Y142042D02*
X123723D01*
X123133D01*
Y138500D01*
X122542D01*
X123723D01*
X127855Y141452D02*
X127265Y142042D01*
X126084D01*
X125494Y141452D01*
Y140861D01*
X126084Y140271D01*
X127265D01*
X127855Y139681D01*
Y139090D01*
X127265Y138500D01*
X126084D01*
X125494Y139090D01*
X130807Y142042D02*
X129627D01*
X129036Y141452D01*
Y139090D01*
X129627Y138500D01*
X130807D01*
X131398Y139090D01*
Y141452D01*
X130807Y142042D01*
X119000Y145500D02*
Y149042D01*
X120181Y147861D01*
X121361Y149042D01*
Y145500D01*
X124313Y149042D02*
X123133D01*
X122542Y148452D01*
Y146090D01*
X123133Y145500D01*
X124313D01*
X124904Y146090D01*
Y148452D01*
X124313Y149042D01*
X128446Y148452D02*
X127855Y149042D01*
X126675D01*
X126084Y148452D01*
Y147861D01*
X126675Y147271D01*
X127855D01*
X128446Y146681D01*
Y146090D01*
X127855Y145500D01*
X126675D01*
X126084Y146090D01*
X129627Y149042D02*
X130807D01*
X130217D01*
Y145500D01*
X129627D01*
X130807D01*
X40000Y123542D02*
X42361D01*
X41181D01*
Y120000D01*
X43542Y123542D02*
X45904Y120000D01*
Y123542D02*
X43542Y120000D01*
X40500Y113150D02*
Y116692D01*
X42271D01*
X42861Y116102D01*
Y114921D01*
X42271Y114331D01*
X40500D01*
X41681D02*
X42861Y113150D01*
X44042Y116692D02*
X46404Y113150D01*
Y116692D02*
X44042Y113150D01*
X37500Y109952D02*
X38090Y110542D01*
X39271D01*
X39861Y109952D01*
Y109361D01*
X39271Y108771D01*
X38681D01*
X39271D01*
X39861Y108181D01*
Y107590D01*
X39271Y107000D01*
X38090D01*
X37500Y107590D01*
X41042Y110542D02*
Y108181D01*
X42223Y107000D01*
X43404Y108181D01*
Y110542D01*
X44584Y109952D02*
X45175Y110542D01*
X46355D01*
X46946Y109952D01*
Y109361D01*
X46355Y108771D01*
X45765D01*
X46355D01*
X46946Y108181D01*
Y107590D01*
X46355Y107000D01*
X45175D01*
X44584Y107590D01*
X75452Y185139D02*
X76042Y185729D01*
Y186910D01*
X75452Y187500D01*
X74861D01*
X74271Y186910D01*
Y185729D01*
X73681Y185139D01*
X73090D01*
X72500Y185729D01*
Y186910D01*
X73090Y187500D01*
X75452Y181596D02*
X76042Y182187D01*
Y183368D01*
X75452Y183958D01*
X73090D01*
X72500Y183368D01*
Y182187D01*
X73090Y181596D01*
X76042Y180416D02*
X72500D01*
Y178054D01*
X68452Y185139D02*
X69042Y185729D01*
Y186910D01*
X68452Y187500D01*
X67861D01*
X67271Y186910D01*
Y185729D01*
X66681Y185139D01*
X66090D01*
X65500Y185729D01*
Y186910D01*
X66090Y187500D01*
X69042Y183958D02*
X65500D01*
Y182187D01*
X66090Y181596D01*
X68452D01*
X69042Y182187D01*
Y183958D01*
X65500Y180416D02*
X67861D01*
X69042Y179235D01*
X67861Y178054D01*
X65500D01*
X67271D01*
Y180416D01*
X59348Y177500D02*
X58758Y178090D01*
Y179271D01*
X59348Y179861D01*
X59939D01*
X60529Y179271D01*
Y178681D01*
Y179271D01*
X61119Y179861D01*
X61710D01*
X62300Y179271D01*
Y178090D01*
X61710Y177500D01*
X58758Y181042D02*
X61119D01*
X62300Y182223D01*
X61119Y183404D01*
X58758D01*
X59348Y184584D02*
X58758Y185175D01*
Y186355D01*
X59348Y186946D01*
X59939D01*
X60529Y186355D01*
Y185765D01*
Y186355D01*
X61119Y186946D01*
X61710D01*
X62300Y186355D01*
Y185175D01*
X61710Y184584D01*
X166500Y157452D02*
X167090Y158042D01*
X168271D01*
X168861Y157452D01*
Y156861D01*
X168271Y156271D01*
X167681D01*
X168271D01*
X168861Y155681D01*
Y155090D01*
X168271Y154500D01*
X167090D01*
X166500Y155090D01*
X170042Y158042D02*
Y155681D01*
X171223Y154500D01*
X172404Y155681D01*
Y158042D01*
X173584Y157452D02*
X174175Y158042D01*
X175355D01*
X175946Y157452D01*
Y156861D01*
X175355Y156271D01*
X174765D01*
X175355D01*
X175946Y155681D01*
Y155090D01*
X175355Y154500D01*
X174175D01*
X173584Y155090D01*
X168861Y167152D02*
X168271Y167742D01*
X167090D01*
X166500Y167152D01*
Y166561D01*
X167090Y165971D01*
X168271D01*
X168861Y165381D01*
Y164790D01*
X168271Y164200D01*
X167090D01*
X166500Y164790D01*
X170042Y167742D02*
Y164200D01*
X171223Y165381D01*
X172404Y164200D01*
Y167742D01*
X173584D02*
Y164200D01*
X175355D01*
X175946Y164790D01*
Y167152D01*
X175355Y167742D01*
X173584D01*
X177127D02*
X178307D01*
X177717D01*
Y164200D01*
X177127D01*
X178307D01*
X181849Y167742D02*
X180669D01*
X180078Y167152D01*
Y164790D01*
X180669Y164200D01*
X181849D01*
X182440Y164790D01*
Y167152D01*
X181849Y167742D01*
X168361Y177452D02*
X167771Y178042D01*
X166590D01*
X166000Y177452D01*
Y176861D01*
X166590Y176271D01*
X167771D01*
X168361Y175681D01*
Y175090D01*
X167771Y174500D01*
X166590D01*
X166000Y175090D01*
X169542Y178042D02*
Y174500D01*
X170723Y175681D01*
X171904Y174500D01*
Y178042D01*
X173084D02*
Y174500D01*
X174855D01*
X175446Y175090D01*
Y177452D01*
X174855Y178042D01*
X173084D01*
X178988Y177452D02*
X178398Y178042D01*
X177217D01*
X176627Y177452D01*
Y175090D01*
X177217Y174500D01*
X178398D01*
X178988Y175090D01*
X180169Y178042D02*
Y174500D01*
X182530D01*
X186072Y177452D02*
X185482Y178042D01*
X184301D01*
X183711Y177452D01*
Y175090D01*
X184301Y174500D01*
X185482D01*
X186072Y175090D01*
X115500Y183542D02*
Y180000D01*
X117271D01*
X117861Y180590D01*
Y181181D01*
X117271Y181771D01*
X115500D01*
X117271D01*
X117861Y182361D01*
Y182952D01*
X117271Y183542D01*
X115500D01*
X120813D02*
X119632D01*
X119042Y182952D01*
Y180590D01*
X119632Y180000D01*
X120813D01*
X121404Y180590D01*
Y182952D01*
X120813Y183542D01*
X124355D02*
X123175D01*
X122584Y182952D01*
Y180590D01*
X123175Y180000D01*
X124355D01*
X124946Y180590D01*
Y182952D01*
X124355Y183542D01*
X126127D02*
X128488D01*
X127307D01*
Y180000D01*
X115500Y193542D02*
Y191181D01*
X116681Y190000D01*
X117861Y191181D01*
Y193542D01*
X121404Y192952D02*
X120813Y193542D01*
X119632D01*
X119042Y192952D01*
Y190590D01*
X119632Y190000D01*
X120813D01*
X121404Y190590D01*
X124946Y192952D02*
X124355Y193542D01*
X123175D01*
X122584Y192952D01*
Y190590D01*
X123175Y190000D01*
X124355D01*
X124946Y190590D01*
X19500Y170463D02*
X21861Y166921D01*
Y170463D02*
X19500Y166921D01*
X23042D02*
X24223D01*
X23632D01*
Y170463D01*
X23042Y169873D01*
X159564Y54000D02*
X162844D01*
X163500Y54656D01*
Y55968D01*
X162844Y56624D01*
X159564D01*
Y60560D02*
X160220Y59248D01*
X161532Y57936D01*
X162844D01*
X163500Y58592D01*
Y59904D01*
X162844Y60560D01*
X162188D01*
X161532Y59904D01*
Y57936D01*
X71500Y167936D02*
Y164656D01*
X72156Y164000D01*
X73468D01*
X74124Y164656D01*
Y167936D01*
X77404Y164000D02*
Y167936D01*
X75436Y165968D01*
X78060D01*
X18064Y48000D02*
X21344D01*
X22000Y48656D01*
Y49968D01*
X21344Y50624D01*
X18064D01*
X18720Y51936D02*
X18064Y52592D01*
Y53904D01*
X18720Y54560D01*
X19376D01*
X20032Y53904D01*
Y53248D01*
Y53904D01*
X20688Y54560D01*
X21344D01*
X22000Y53904D01*
Y52592D01*
X21344Y51936D01*
X53994Y26074D02*
Y22794D01*
X54650Y22138D01*
X55962D01*
X56617Y22794D01*
Y26074D01*
X60553Y22138D02*
X57929D01*
X60553Y24762D01*
Y25418D01*
X59897Y26074D01*
X58585D01*
X57929Y25418D01*
X55500Y72786D02*
Y69506D01*
X56156Y68850D01*
X57468D01*
X58124Y69506D01*
Y72786D01*
X59436Y68850D02*
X60748D01*
X60092D01*
Y72786D01*
X59436Y72130D01*
X166500Y41500D02*
Y45042D01*
X168271D01*
X168861Y44452D01*
Y43271D01*
X168271Y42681D01*
X166500D01*
X167681D02*
X168861Y41500D01*
X172404D02*
X170042D01*
X172404Y43861D01*
Y44452D01*
X171813Y45042D01*
X170633D01*
X170042Y44452D01*
X175355Y41500D02*
Y45042D01*
X173584Y43271D01*
X175946D01*
X150923Y105000D02*
Y101458D01*
X149152D01*
X148561Y102048D01*
Y103229D01*
X149152Y103819D01*
X150923D01*
X149742D02*
X148561Y105000D01*
X145019D02*
X147381D01*
X145019Y102639D01*
Y102048D01*
X145609Y101458D01*
X146790D01*
X147381Y102048D01*
X143838D02*
X143248Y101458D01*
X142067D01*
X141477Y102048D01*
Y102639D01*
X142067Y103229D01*
X142658D01*
X142067D01*
X141477Y103819D01*
Y104410D01*
X142067Y105000D01*
X143248D01*
X143838Y104410D01*
X19500Y127800D02*
X15958D01*
Y129571D01*
X16548Y130161D01*
X17729D01*
X18319Y129571D01*
Y127800D01*
Y128981D02*
X19500Y130161D01*
Y133704D02*
Y131342D01*
X17139Y133704D01*
X16548D01*
X15958Y133113D01*
Y131932D01*
X16548Y131342D01*
X19500Y137246D02*
Y134884D01*
X17139Y137246D01*
X16548D01*
X15958Y136655D01*
Y135475D01*
X16548Y134884D01*
X86253Y29950D02*
X82711D01*
Y31721D01*
X83302Y32311D01*
X84482D01*
X85073Y31721D01*
Y29950D01*
Y31131D02*
X86253Y32311D01*
Y35854D02*
Y33492D01*
X83892Y35854D01*
X83302D01*
X82711Y35263D01*
Y34082D01*
X83302Y33492D01*
X86253Y37034D02*
Y38215D01*
Y37625D01*
X82711D01*
X83302Y37034D01*
X96253Y29200D02*
X92711D01*
Y30971D01*
X93302Y31561D01*
X94482D01*
X95073Y30971D01*
Y29200D01*
Y30381D02*
X96253Y31561D01*
Y35104D02*
Y32742D01*
X93892Y35104D01*
X93302D01*
X92711Y34513D01*
Y33332D01*
X93302Y32742D01*
Y36284D02*
X92711Y36875D01*
Y38055D01*
X93302Y38646D01*
X95663D01*
X96253Y38055D01*
Y36875D01*
X95663Y36284D01*
X93302D01*
X106260Y29500D02*
X102718D01*
Y31271D01*
X103308Y31861D01*
X104489D01*
X105079Y31271D01*
Y29500D01*
Y30681D02*
X106260Y31861D01*
Y33042D02*
Y34223D01*
Y33632D01*
X102718D01*
X103308Y33042D01*
X105669Y35994D02*
X106260Y36584D01*
Y37765D01*
X105669Y38355D01*
X103308D01*
X102718Y37765D01*
Y36584D01*
X103308Y35994D01*
X103898D01*
X104489Y36584D01*
Y38355D01*
X116260Y29700D02*
X112718D01*
Y31471D01*
X113308Y32061D01*
X114489D01*
X115079Y31471D01*
Y29700D01*
Y30881D02*
X116260Y32061D01*
Y33242D02*
Y34423D01*
Y33832D01*
X112718D01*
X113308Y33242D01*
Y36194D02*
X112718Y36784D01*
Y37965D01*
X113308Y38555D01*
X113898D01*
X114489Y37965D01*
X115079Y38555D01*
X115669D01*
X116260Y37965D01*
Y36784D01*
X115669Y36194D01*
X115079D01*
X114489Y36784D01*
X113898Y36194D01*
X113308D01*
X114489Y36784D02*
Y37965D01*
X126760Y29500D02*
X123218D01*
Y31271D01*
X123808Y31861D01*
X124989D01*
X125579Y31271D01*
Y29500D01*
Y30681D02*
X126760Y31861D01*
Y33042D02*
Y34223D01*
Y33632D01*
X123218D01*
X123808Y33042D01*
X123218Y35994D02*
Y38355D01*
X123808D01*
X126169Y35994D01*
X126760D01*
X136562Y29500D02*
X133019D01*
Y31271D01*
X133610Y31861D01*
X134790D01*
X135381Y31271D01*
Y29500D01*
Y30681D02*
X136562Y31861D01*
Y33042D02*
Y34223D01*
Y33632D01*
X133019D01*
X133610Y33042D01*
X133019Y38355D02*
X133610Y37175D01*
X134790Y35994D01*
X135971D01*
X136562Y36584D01*
Y37765D01*
X135971Y38355D01*
X135381D01*
X134790Y37765D01*
Y35994D01*
X146760Y29500D02*
X143218D01*
Y31271D01*
X143808Y31861D01*
X144989D01*
X145579Y31271D01*
Y29500D01*
Y30681D02*
X146760Y31861D01*
Y33042D02*
Y34223D01*
Y33632D01*
X143218D01*
X143808Y33042D01*
X143218Y38355D02*
Y35994D01*
X144989D01*
X144398Y37175D01*
Y37765D01*
X144989Y38355D01*
X146169D01*
X146760Y37765D01*
Y36584D01*
X146169Y35994D01*
X156760Y29500D02*
X153218D01*
Y31271D01*
X153808Y31861D01*
X154989D01*
X155579Y31271D01*
Y29500D01*
Y30681D02*
X156760Y31861D01*
Y33042D02*
Y34223D01*
Y33632D01*
X153218D01*
X153808Y33042D01*
X156760Y37765D02*
X153218D01*
X154989Y35994D01*
Y38355D01*
X83494Y111500D02*
X79951D01*
Y113271D01*
X80542Y113861D01*
X81722D01*
X82313Y113271D01*
Y111500D01*
Y112681D02*
X83494Y113861D01*
X79951Y115042D02*
Y117404D01*
X80542D01*
X82903Y115042D01*
X83494D01*
X101000Y178500D02*
X97458D01*
Y180271D01*
X98048Y180861D01*
X99229D01*
X99819Y180271D01*
Y178500D01*
Y179681D02*
X101000Y180861D01*
X97458Y184404D02*
X98048Y183223D01*
X99229Y182042D01*
X100410D01*
X101000Y182633D01*
Y183813D01*
X100410Y184404D01*
X99819D01*
X99229Y183813D01*
Y182042D01*
X95500Y87024D02*
Y90566D01*
X97271D01*
X97861Y89975D01*
Y88795D01*
X97271Y88204D01*
X95500D01*
X96681D02*
X97861Y87024D01*
X101404Y90566D02*
X99042D01*
Y88795D01*
X100223Y89385D01*
X100813D01*
X101404Y88795D01*
Y87614D01*
X100813Y87024D01*
X99633D01*
X99042Y87614D01*
X6600Y111500D02*
Y115042D01*
X8371D01*
X8961Y114452D01*
Y113271D01*
X8371Y112681D01*
X6600D01*
X7781D02*
X8961Y111500D01*
X11913D02*
Y115042D01*
X10142Y113271D01*
X12504D01*
X122350Y98500D02*
Y102042D01*
X124121D01*
X124711Y101452D01*
Y100271D01*
X124121Y99681D01*
X122350D01*
X123531D02*
X124711Y98500D01*
X125892Y101452D02*
X126482Y102042D01*
X127663D01*
X128254Y101452D01*
Y100861D01*
X127663Y100271D01*
X127073D01*
X127663D01*
X128254Y99681D01*
Y99090D01*
X127663Y98500D01*
X126482D01*
X125892Y99090D01*
X122350Y87000D02*
Y90542D01*
X124121D01*
X124711Y89952D01*
Y88771D01*
X124121Y88181D01*
X122350D01*
X123531D02*
X124711Y87000D01*
X128254D02*
X125892D01*
X128254Y89361D01*
Y89952D01*
X127663Y90542D01*
X126482D01*
X125892Y89952D01*
X7000Y124500D02*
Y128042D01*
X8771D01*
X9361Y127452D01*
Y126271D01*
X8771Y125681D01*
X7000D01*
X8181D02*
X9361Y124500D01*
X10542D02*
X11723D01*
X11133D01*
Y128042D01*
X10542Y127452D01*
X105500Y96000D02*
Y99542D01*
X106681Y98361D01*
X107861Y99542D01*
Y96000D01*
X110813Y99542D02*
X109633D01*
X109042Y98952D01*
Y96590D01*
X109633Y96000D01*
X110813D01*
X111404Y96590D01*
Y98952D01*
X110813Y99542D01*
X114946Y98952D02*
X114355Y99542D01*
X113175D01*
X112584Y98952D01*
Y98361D01*
X113175Y97771D01*
X114355D01*
X114946Y97181D01*
Y96590D01*
X114355Y96000D01*
X113175D01*
X112584Y96590D01*
X116127Y96000D02*
X117307D01*
X116717D01*
Y99542D01*
X116127Y98952D01*
X114117Y154609D02*
X112805D01*
X113461D01*
Y151329D01*
X112805Y150673D01*
X112150D01*
X111494Y151329D01*
X118053Y154609D02*
X116741Y153953D01*
X115429Y152641D01*
Y151329D01*
X116085Y150673D01*
X117397D01*
X118053Y151329D01*
Y151985D01*
X117397Y152641D01*
X115429D01*
X53124Y191436D02*
X51812D01*
X52468D01*
Y188156D01*
X51812Y187500D01*
X51156D01*
X50500Y188156D01*
X56404Y187500D02*
Y191436D01*
X54436Y189468D01*
X57060D01*
X48624Y135936D02*
X47312D01*
X47968D01*
Y132656D01*
X47312Y132000D01*
X46656D01*
X46000Y132656D01*
X49936Y135280D02*
X50592Y135936D01*
X51904D01*
X52560Y135280D01*
Y134624D01*
X51904Y133968D01*
X51248D01*
X51904D01*
X52560Y133312D01*
Y132656D01*
X51904Y132000D01*
X50592D01*
X49936Y132656D01*
X103267Y193042D02*
X102086D01*
X102676D01*
Y190090D01*
X102086Y189500D01*
X101496D01*
X100905Y190090D01*
X106809Y189500D02*
X104447D01*
X106809Y191861D01*
Y192452D01*
X106218Y193042D01*
X105038D01*
X104447Y192452D01*
X101124Y76436D02*
X99812D01*
X100468D01*
Y73156D01*
X99812Y72500D01*
X99156D01*
X98500Y73156D01*
X102436Y72500D02*
X103748D01*
X103092D01*
Y76436D01*
X102436Y75780D01*
X188042Y33910D02*
X184500D01*
Y32139D01*
X185090Y31549D01*
X187452D01*
X188042Y32139D01*
Y33910D01*
X187452Y30368D02*
X188042Y29778D01*
Y28597D01*
X187452Y28007D01*
X186861D01*
X186271Y28597D01*
Y29187D01*
Y28597D01*
X185681Y28007D01*
X185090D01*
X184500Y28597D01*
Y29778D01*
X185090Y30368D01*
X28000Y102891D02*
Y106433D01*
X26229D01*
X25639Y105843D01*
Y103481D01*
X26229Y102891D01*
X28000D01*
X22096Y106433D02*
X24458D01*
X22096Y104072D01*
Y103481D01*
X22687Y102891D01*
X23867D01*
X24458Y103481D01*
X28000Y115891D02*
Y119433D01*
X26229D01*
X25639Y118843D01*
Y116481D01*
X26229Y115891D01*
X28000D01*
X24458Y119433D02*
X23277D01*
X23867D01*
Y115891D01*
X24458Y116481D01*
X129652Y165139D02*
X130242Y165729D01*
Y166910D01*
X129652Y167500D01*
X127290D01*
X126700Y166910D01*
Y165729D01*
X127290Y165139D01*
X126700Y161596D02*
Y163958D01*
X129061Y161596D01*
X129652D01*
X130242Y162187D01*
Y163367D01*
X129652Y163958D01*
X126700Y158645D02*
X130242D01*
X128471Y160416D01*
Y158054D01*
X47548Y176161D02*
X46958Y175571D01*
Y174390D01*
X47548Y173800D01*
X49910D01*
X50500Y174390D01*
Y175571D01*
X49910Y176161D01*
X50500Y179704D02*
Y177342D01*
X48139Y179704D01*
X47548D01*
X46958Y179113D01*
Y177933D01*
X47548Y177342D01*
Y180884D02*
X46958Y181475D01*
Y182655D01*
X47548Y183246D01*
X48139D01*
X48729Y182655D01*
Y182065D01*
Y182655D01*
X49319Y183246D01*
X49910D01*
X50500Y182655D01*
Y181475D01*
X49910Y180884D01*
X60048Y117311D02*
X59458Y116721D01*
Y115540D01*
X60048Y114950D01*
X62410D01*
X63000Y115540D01*
Y116721D01*
X62410Y117311D01*
X63000Y120854D02*
Y118492D01*
X60639Y120854D01*
X60048D01*
X59458Y120263D01*
Y119082D01*
X60048Y118492D01*
X63000Y124396D02*
Y122034D01*
X60639Y124396D01*
X60048D01*
X59458Y123805D01*
Y122625D01*
X60048Y122034D01*
X39548Y139861D02*
X38958Y139271D01*
Y138090D01*
X39548Y137500D01*
X41910D01*
X42500Y138090D01*
Y139271D01*
X41910Y139861D01*
X42500Y143404D02*
Y141042D01*
X40139Y143404D01*
X39548D01*
X38958Y142813D01*
Y141632D01*
X39548Y141042D01*
X42500Y144584D02*
Y145765D01*
Y145175D01*
X38958D01*
X39548Y144584D01*
X149508Y97639D02*
X150099Y98229D01*
Y99410D01*
X149508Y100000D01*
X147147D01*
X146557Y99410D01*
Y98229D01*
X147147Y97639D01*
X146557Y94096D02*
Y96458D01*
X148918Y94096D01*
X149508D01*
X150099Y94687D01*
Y95868D01*
X149508Y96458D01*
Y92916D02*
X150099Y92325D01*
Y91145D01*
X149508Y90554D01*
X147147D01*
X146557Y91145D01*
Y92325D01*
X147147Y92916D01*
X149508D01*
X184181Y53539D02*
X184771Y54129D01*
Y55310D01*
X184181Y55900D01*
X181819D01*
X181229Y55310D01*
Y54129D01*
X181819Y53539D01*
X181229Y52358D02*
Y51177D01*
Y51767D01*
X184771D01*
X184181Y52358D01*
X181819Y49406D02*
X181229Y48816D01*
Y47635D01*
X181819Y47045D01*
X184181D01*
X184771Y47635D01*
Y48816D01*
X184181Y49406D01*
X183591D01*
X183000Y48816D01*
Y47045D01*
X16442Y142361D02*
X15851Y141771D01*
Y140590D01*
X16442Y140000D01*
X18803D01*
X19394Y140590D01*
Y141771D01*
X18803Y142361D01*
X19394Y143542D02*
Y144723D01*
Y144132D01*
X15851D01*
X16442Y143542D01*
Y146494D02*
X15851Y147084D01*
Y148265D01*
X16442Y148855D01*
X17032D01*
X17623Y148265D01*
X18213Y148855D01*
X18803D01*
X19394Y148265D01*
Y147084D01*
X18803Y146494D01*
X18213D01*
X17623Y147084D01*
X17032Y146494D01*
X16442D01*
X17623Y147084D02*
Y148265D01*
X180548Y65361D02*
X179958Y64771D01*
Y63590D01*
X180548Y63000D01*
X182910D01*
X183500Y63590D01*
Y64771D01*
X182910Y65361D01*
X183500Y66542D02*
Y67723D01*
Y67133D01*
X179958D01*
X180548Y66542D01*
X179958Y69494D02*
Y71855D01*
X180548D01*
X182910Y69494D01*
X183500D01*
X138802Y55861D02*
X138211Y55271D01*
Y54090D01*
X138802Y53500D01*
X141163D01*
X141753Y54090D01*
Y55271D01*
X141163Y55861D01*
X141753Y57042D02*
Y58223D01*
Y57632D01*
X138211D01*
X138802Y57042D01*
X138211Y62355D02*
X138802Y61175D01*
X139982Y59994D01*
X141163D01*
X141753Y60584D01*
Y61765D01*
X141163Y62355D01*
X140573D01*
X139982Y61765D01*
Y59994D01*
X150548Y69861D02*
X149958Y69271D01*
Y68090D01*
X150548Y67500D01*
X152910D01*
X153500Y68090D01*
Y69271D01*
X152910Y69861D01*
X153500Y71042D02*
Y72223D01*
Y71632D01*
X149958D01*
X150548Y71042D01*
X149958Y76355D02*
Y73994D01*
X151729D01*
X151139Y75175D01*
Y75765D01*
X151729Y76355D01*
X152910D01*
X153500Y75765D01*
Y74584D01*
X152910Y73994D01*
X161548Y103567D02*
X160958Y102977D01*
Y101796D01*
X161548Y101206D01*
X163910D01*
X164500Y101796D01*
Y102977D01*
X163910Y103567D01*
X164500Y104748D02*
Y105928D01*
Y105338D01*
X160958D01*
X161548Y104748D01*
X164500Y109471D02*
X160958D01*
X162729Y107700D01*
Y110061D01*
X126555Y117945D02*
X125964Y117354D01*
Y116173D01*
X126555Y115583D01*
X128916D01*
X129506Y116173D01*
Y117354D01*
X128916Y117945D01*
X129506Y119125D02*
Y120306D01*
Y119716D01*
X125964D01*
X126555Y119125D01*
Y122077D02*
X125964Y122667D01*
Y123848D01*
X126555Y124439D01*
X127145D01*
X127735Y123848D01*
Y123258D01*
Y123848D01*
X128326Y124439D01*
X128916D01*
X129506Y123848D01*
Y122667D01*
X128916Y122077D01*
X119452Y164634D02*
X120042Y165224D01*
Y166405D01*
X119452Y166995D01*
X117090D01*
X116500Y166405D01*
Y165224D01*
X117090Y164634D01*
X116500Y163453D02*
Y162272D01*
Y162863D01*
X120042D01*
X119452Y163453D01*
X116500Y158140D02*
Y160501D01*
X118861Y158140D01*
X119452D01*
X120042Y158730D01*
Y159911D01*
X119452Y160501D01*
X101452Y115839D02*
X102042Y116429D01*
Y117610D01*
X101452Y118200D01*
X99090D01*
X98500Y117610D01*
Y116429D01*
X99090Y115839D01*
X98500Y114658D02*
Y113477D01*
Y114067D01*
X102042D01*
X101452Y114658D01*
X98500Y111706D02*
Y110525D01*
Y111116D01*
X102042D01*
X101452Y111706D01*
X8861Y160590D02*
X8271Y161180D01*
X7090D01*
X6500Y160590D01*
Y158228D01*
X7090Y157638D01*
X8271D01*
X8861Y158228D01*
X10042Y157638D02*
X11223D01*
X10633D01*
Y161180D01*
X10042Y160590D01*
X12994D02*
X13584Y161180D01*
X14765D01*
X15355Y160590D01*
Y158228D01*
X14765Y157638D01*
X13584D01*
X12994Y158228D01*
Y160590D01*
X10361Y169956D02*
X9771Y170546D01*
X8590D01*
X8000Y169956D01*
Y167594D01*
X8590Y167004D01*
X9771D01*
X10361Y167594D01*
X11542D02*
X12133Y167004D01*
X13313D01*
X13904Y167594D01*
Y169956D01*
X13313Y170546D01*
X12133D01*
X11542Y169956D01*
Y169365D01*
X12133Y168775D01*
X13904D01*
X19286Y68939D02*
X19877Y69529D01*
Y70710D01*
X19286Y71300D01*
X16925D01*
X16335Y70710D01*
Y69529D01*
X16925Y68939D01*
X19286Y67758D02*
X19877Y67168D01*
Y65987D01*
X19286Y65396D01*
X18696D01*
X18106Y65987D01*
X17515Y65396D01*
X16925D01*
X16335Y65987D01*
Y67168D01*
X16925Y67758D01*
X17515D01*
X18106Y67168D01*
X18696Y67758D01*
X19286D01*
X18106Y67168D02*
Y65987D01*
X78452Y14939D02*
X79042Y15529D01*
Y16710D01*
X78452Y17300D01*
X76090D01*
X75500Y16710D01*
Y15529D01*
X76090Y14939D01*
X79042Y13758D02*
Y11396D01*
X78452D01*
X76090Y13758D01*
X75500D01*
X60095Y4945D02*
X59504Y5536D01*
X58324D01*
X57733Y4945D01*
Y2584D01*
X58324Y1994D01*
X59504D01*
X60095Y2584D01*
X63637Y5536D02*
X62456Y4945D01*
X61276Y3765D01*
Y2584D01*
X61866Y1994D01*
X63047D01*
X63637Y2584D01*
Y3174D01*
X63047Y3765D01*
X61276D01*
X46952Y38639D02*
X47542Y39229D01*
Y40410D01*
X46952Y41000D01*
X44590D01*
X44000Y40410D01*
Y39229D01*
X44590Y38639D01*
X47542Y35096D02*
Y37458D01*
X45771D01*
X46361Y36277D01*
Y35687D01*
X45771Y35096D01*
X44590D01*
X44000Y35687D01*
Y36867D01*
X44590Y37458D01*
X81048Y57861D02*
X80458Y57271D01*
Y56090D01*
X81048Y55500D01*
X83410D01*
X84000Y56090D01*
Y57271D01*
X83410Y57861D01*
X84000Y60813D02*
X80458D01*
X82229Y59042D01*
Y61404D01*
X70548Y58161D02*
X69958Y57571D01*
Y56390D01*
X70548Y55800D01*
X72910D01*
X73500Y56390D01*
Y57571D01*
X72910Y58161D01*
X70548Y59342D02*
X69958Y59933D01*
Y61113D01*
X70548Y61704D01*
X71139D01*
X71729Y61113D01*
Y60523D01*
Y61113D01*
X72319Y61704D01*
X72910D01*
X73500Y61113D01*
Y59933D01*
X72910Y59342D01*
X54048Y49861D02*
X53458Y49271D01*
Y48090D01*
X54048Y47500D01*
X56410D01*
X57000Y48090D01*
Y49271D01*
X56410Y49861D01*
X57000Y53404D02*
Y51042D01*
X54639Y53404D01*
X54048D01*
X53458Y52813D01*
Y51632D01*
X54048Y51042D01*
X64661Y93102D02*
X64071Y93692D01*
X62890D01*
X62300Y93102D01*
Y90740D01*
X62890Y90150D01*
X64071D01*
X64661Y90740D01*
X65842Y90150D02*
X67023D01*
X66432D01*
Y93692D01*
X65842Y93102D01*
D12*
X145041Y132776D02*
G03*
X145041Y132776I-689J0D01*
G01*
X54180Y27500D02*
G03*
X54180Y27500I-500J0D01*
G01*
X54628Y75953D02*
G03*
X54628Y75953I-707J0D01*
G01*
X105500Y71500D02*
X131500D01*
Y77500D01*
X105500D02*
X131500D01*
X105500Y71500D02*
Y77500D01*
X84000Y186500D02*
Y192500D01*
X58000Y186500D02*
X58500D01*
X58000D02*
Y192500D01*
X84000D01*
X58500Y186500D02*
X84000D01*
X47000Y105500D02*
X53000D01*
X47000Y131000D02*
Y131500D01*
X53000D01*
Y105500D02*
Y131500D01*
X47000Y105500D02*
Y131000D01*
X112000Y124000D02*
X118000D01*
X112000Y149500D02*
Y150000D01*
X118000D01*
Y124000D02*
Y150000D01*
X112000Y124000D02*
Y149500D01*
X52680Y20500D02*
Y28500D01*
Y20500D02*
X60680D01*
Y28500D01*
X52680D02*
X60680D01*
X52921Y76953D02*
X64921D01*
Y64953D02*
Y76953D01*
X52921Y64953D02*
X64921D01*
X52921D02*
Y76953D01*
X162753Y500D02*
Y26500D01*
X86753Y500D02*
X162753D01*
X86753D02*
Y26500D01*
X162753D01*
X0Y3000D02*
Y193500D01*
Y3000D02*
X3000Y0D01*
X193500D01*
X196500Y3000D01*
Y192000D01*
X0Y193500D02*
X2500Y196000D01*
X192500D01*
X196500Y192000D01*
D13*
X21502Y105828D02*
G03*
X29498Y105833I3998J-195D01*
G01*
X22002Y118828D02*
G03*
X29998Y118833I3998J-195D01*
G01*
X185605Y27413D02*
G03*
X185600Y35408I195J3998D01*
G01*
X193571Y133606D02*
X196071Y131105D01*
Y103706D02*
Y131105D01*
X191971Y101206D02*
X193571D01*
X196071Y103706D01*
X192071Y133606D02*
X193571D01*
X175271Y124005D02*
Y133606D01*
Y101206D02*
Y110705D01*
Y133606D02*
X184971D01*
X175271Y101206D02*
X184971D01*
X19100Y151842D02*
X26900Y151843D01*
X19100Y165842D02*
X26900Y165842D01*
X18400Y152542D02*
X19100Y151842D01*
X18400Y153343D02*
X18400Y152542D01*
X26900Y151843D02*
X27500Y152443D01*
X27500Y153342D02*
X27500Y152443D01*
X26900Y165842D02*
X27500Y165243D01*
X27500Y164342D01*
X18500Y165243D02*
X19100Y165842D01*
X18500Y165243D02*
X18500Y164343D01*
D14*
X67886Y165795D02*
G03*
X67886Y165795I-1181J0D01*
G01*
D15*
X94000Y81994D02*
X97700D01*
X94000D02*
Y85994D01*
X97700D01*
X100000D02*
X103700D01*
Y81994D02*
Y85994D01*
X100000Y81994D02*
X103700D01*
X120700Y81951D02*
X124400D01*
X120700D02*
Y85951D01*
X124400D01*
X126700D02*
X130400D01*
Y81951D02*
Y85951D01*
X126700Y81951D02*
X130400D01*
X120350Y93500D02*
X124050D01*
X120350D02*
Y97500D01*
X124050D01*
X126350D02*
X130050D01*
Y93500D02*
Y97500D01*
X126350Y93500D02*
X130050D01*
X141500Y96450D02*
Y100150D01*
X145500D01*
Y96450D02*
Y100150D01*
Y90450D02*
Y94150D01*
X141500Y90450D02*
X145500D01*
X141500D02*
Y94150D01*
X165500Y106450D02*
Y110150D01*
X169500D01*
Y106450D02*
Y110150D01*
Y100450D02*
Y104150D01*
X165500Y100450D02*
X169500D01*
X165500D02*
Y104150D01*
X130500Y120950D02*
Y124650D01*
X134500D01*
Y120950D02*
Y124650D01*
Y114950D02*
Y118650D01*
X130500Y114950D02*
X134500D01*
X130500D02*
Y118650D01*
X10600Y123440D02*
X14300D01*
Y119439D02*
Y123440D01*
X10600Y119439D02*
X14300D01*
X4600D02*
X8300D01*
X4600D02*
Y123440D01*
X8300D01*
X10300Y110440D02*
X14000D01*
Y106439D02*
Y110440D01*
X10300Y106439D02*
X14000D01*
X4300D02*
X8000D01*
X4300D02*
Y110440D01*
X8000D01*
X84494Y115100D02*
Y118800D01*
X88494D01*
Y115100D02*
Y118800D01*
Y109100D02*
Y112800D01*
X84494Y109100D02*
X88494D01*
X84494D02*
Y112800D01*
X68006Y114500D02*
Y118200D01*
X64006Y114500D02*
X68006D01*
X64006D02*
Y118200D01*
Y120500D02*
Y124200D01*
X68006D01*
Y120500D02*
Y124200D01*
X48006Y136550D02*
Y140250D01*
X44006Y136550D02*
X48006D01*
X44006D02*
Y140250D01*
Y142550D02*
Y146250D01*
X48006D01*
Y142550D02*
Y146250D01*
X51994Y179800D02*
Y183500D01*
X55994D01*
Y179800D02*
Y183500D01*
Y173800D02*
Y177500D01*
X51994Y173800D02*
X55994D01*
X51994D02*
Y177500D01*
X106006Y176200D02*
Y179900D01*
X102006Y176200D02*
X106006D01*
X102006D02*
Y179900D01*
Y182200D02*
Y185900D01*
X106006D01*
Y182200D02*
Y185900D01*
X20894Y133800D02*
Y137500D01*
X24894D01*
Y133800D02*
Y137500D01*
Y127800D02*
Y131500D01*
X20894Y127800D02*
X24894D01*
X20894D02*
Y131500D01*
Y145300D02*
Y149000D01*
X24894D01*
Y145300D02*
Y149000D01*
Y139300D02*
Y143000D01*
X20894Y139300D02*
X24894D01*
X20894D02*
Y143000D01*
X126006Y158200D02*
Y161900D01*
X122006Y158200D02*
X126006D01*
X122006D02*
Y161900D01*
Y164200D02*
Y167900D01*
X126006D01*
Y164200D02*
Y167900D01*
X93500Y115450D02*
Y119150D01*
X97500D01*
Y115450D02*
Y119150D01*
Y109450D02*
Y113150D01*
X93500Y109450D02*
X97500D01*
X93500D02*
Y113150D01*
X111494Y164095D02*
Y167795D01*
X115494D01*
Y164095D02*
Y167795D01*
Y158095D02*
Y161795D01*
X111494Y158095D02*
X115494D01*
X111494D02*
Y161795D01*
X147600Y110006D02*
X151300D01*
Y106006D02*
Y110006D01*
X147600Y106006D02*
X151300D01*
X141600D02*
X145300D01*
X141600D02*
Y110006D01*
X145300D01*
X38994Y39100D02*
Y42800D01*
X42994D01*
Y39100D02*
Y42800D01*
Y33100D02*
Y36800D01*
X38994Y33100D02*
X42994D01*
X38994D02*
Y36800D01*
X61450Y10500D02*
X65150D01*
Y6500D02*
Y10500D01*
X61450Y6500D02*
X65150D01*
X55450D02*
X59150D01*
X55450D02*
Y10500D01*
X59150D01*
X69994Y15600D02*
Y19300D01*
X73994D01*
Y15600D02*
Y19300D01*
Y9600D02*
Y13300D01*
X69994Y9600D02*
X73994D01*
X69994D02*
Y13300D01*
X10907Y69600D02*
Y73300D01*
X14907D01*
Y69600D02*
Y73300D01*
Y63600D02*
Y67300D01*
X10907Y63600D02*
X14907D01*
X10907D02*
Y67300D01*
X88500Y53700D02*
Y57400D01*
X84500Y53700D02*
X88500D01*
X84500D02*
Y57400D01*
Y59700D02*
Y63400D01*
X88500D01*
Y59700D02*
Y63400D01*
X78500Y53700D02*
Y57400D01*
X74500Y53700D02*
X78500D01*
X74500D02*
Y57400D01*
Y59700D02*
Y63400D01*
X78500D01*
Y59700D02*
Y63400D01*
X62110Y44850D02*
Y48550D01*
X58110Y44850D02*
X62110D01*
X58110D02*
Y48550D01*
Y50850D02*
Y54550D01*
X62110D01*
Y50850D02*
Y54550D01*
X66100Y89506D02*
X69800D01*
Y85506D02*
Y89506D01*
X66100Y85506D02*
X69800D01*
X60100D02*
X63800D01*
X60100D02*
Y89506D01*
X63800D01*
X12600Y156192D02*
X16300D01*
Y152191D02*
Y156192D01*
X12600Y152191D02*
X16300D01*
X6600D02*
X10300D01*
X6600D02*
Y156192D01*
X10300D01*
X12600Y165573D02*
X16300D01*
Y161573D02*
Y165573D01*
X12600Y161573D02*
X16300D01*
X6600D02*
X10300D01*
X6600D02*
Y165573D01*
X10300D01*
X172100Y40506D02*
X175800D01*
Y36506D02*
Y40506D01*
X172100Y36506D02*
X175800D01*
X166100D02*
X169800D01*
X166100D02*
Y40506D01*
X169800D01*
X175994Y52600D02*
Y56300D01*
X179994D01*
Y52600D02*
Y56300D01*
Y46600D02*
Y50300D01*
X175994Y46600D02*
X179994D01*
X175994D02*
Y50300D01*
X158506Y66700D02*
Y70400D01*
X154506Y66700D02*
X158506D01*
X154506D02*
Y70400D01*
Y72700D02*
Y76400D01*
X158506D01*
Y72700D02*
Y76400D01*
X107753Y35100D02*
Y38800D01*
X111753D01*
Y35100D02*
Y38800D01*
Y29100D02*
Y32800D01*
X107753Y29100D02*
X111753D01*
X107753D02*
Y32800D01*
X97747Y34800D02*
Y38500D01*
X101747D01*
Y34800D02*
Y38500D01*
Y28800D02*
Y32500D01*
X97747Y28800D02*
X101747D01*
X97747D02*
Y32500D01*
X87753Y34600D02*
Y38300D01*
X91753D01*
Y34600D02*
Y38300D01*
Y28600D02*
Y32300D01*
X87753Y28600D02*
X91753D01*
X87753D02*
Y32300D01*
X117747Y35100D02*
Y38800D01*
X121747D01*
Y35100D02*
Y38800D01*
Y29100D02*
Y32800D01*
X117747Y29100D02*
X121747D01*
X117747D02*
Y32800D01*
X127747Y35100D02*
Y38800D01*
X131747D01*
Y35100D02*
Y38800D01*
Y29100D02*
Y32800D01*
X127747Y29100D02*
X131747D01*
X127747D02*
Y32800D01*
X137753Y35100D02*
Y38800D01*
X141753D01*
Y35100D02*
Y38800D01*
Y29100D02*
Y32800D01*
X137753Y29100D02*
X141753D01*
X137753D02*
Y32800D01*
X147747Y35100D02*
Y38800D01*
X151747D01*
Y35100D02*
Y38800D01*
Y29100D02*
Y32800D01*
X147747Y29100D02*
X151747D01*
X147747D02*
Y32800D01*
X157753Y35450D02*
Y39150D01*
X161753D01*
Y35450D02*
Y39150D01*
Y29450D02*
Y33150D01*
X157753Y29450D02*
X161753D01*
X157753D02*
Y33150D01*
D16*
X143407Y133563D02*
X157501D01*
X143171Y133327D02*
X143407Y133563D01*
X143171Y119862D02*
Y133327D01*
Y119862D02*
X143486Y119547D01*
X157147D01*
X157501Y119902D01*
Y133563D01*
D17*
X164276Y150673D02*
Y192012D01*
X143842D02*
X164276D01*
X143842Y150673D02*
Y192012D01*
Y150673D02*
X164276D01*
X166400Y50260D02*
X166500D01*
D18*
X25000Y62400D02*
X26900D01*
Y60400D02*
Y62400D01*
X25000Y40673D02*
X26900D01*
Y42642D01*
X13110Y40673D02*
X15079D01*
X13110D02*
Y42642D01*
Y60400D02*
X15079Y62400D01*
X158500Y62860D02*
X158500Y63692D01*
X164500D01*
X158500Y55360D02*
X158500Y59660D01*
X158500Y52160D02*
X158500Y51260D01*
X164500Y62860D02*
Y63692D01*
Y51260D02*
Y52160D01*
X158500Y51260D02*
X164500D01*
X186794Y58300D02*
X189094D01*
X187994Y57200D02*
Y59300D01*
X189994Y58300D02*
X191294D01*
X184794D02*
X185694D01*
X184794Y72200D02*
X191294D01*
X184794Y67500D02*
Y72200D01*
X191294Y67500D02*
Y72200D01*
Y58300D02*
Y63900D01*
X184794Y58300D02*
Y63800D01*
X144794Y50300D02*
X147094D01*
X145994Y49200D02*
Y51300D01*
X147994Y50300D02*
X149294D01*
X142794D02*
X143694D01*
X142794Y64200D02*
X149294D01*
X142794Y59500D02*
Y64200D01*
X149294Y59500D02*
Y64200D01*
Y50300D02*
Y55900D01*
X142794Y50300D02*
Y55800D01*
D19*
X151677Y159689D02*
X149678D01*
X150678D01*
Y153691D01*
X151677Y154691D01*
X145300Y128998D02*
Y124000D01*
X146300Y123000D01*
X148299D01*
X149299Y124000D01*
Y128998D01*
X155297D02*
X151298D01*
Y125999D01*
X153297Y126999D01*
X154297D01*
X155297Y125999D01*
Y124000D01*
X154297Y123000D01*
X152298D01*
X151298Y124000D01*
X182000Y114500D02*
Y120498D01*
X184999D01*
X185999Y119498D01*
Y117499D01*
X184999Y116499D01*
X182000D01*
X187998Y114500D02*
X189997D01*
X188998D01*
Y120498D01*
X187998Y119498D01*
X168723Y8351D02*
Y9926D01*
Y9139D01*
X164787D01*
X164000Y9926D01*
Y10713D01*
X164787Y11500D01*
X168723Y6777D02*
Y3629D01*
X167936D01*
X164787Y6777D01*
X164000D01*
X147841Y188498D02*
X145842D01*
X146842D01*
Y183500D01*
X145842Y182500D01*
X144842D01*
X143842Y183500D01*
X153839Y188498D02*
X149841D01*
Y185499D01*
X151840Y186499D01*
X152840D01*
X153839Y185499D01*
Y183500D01*
X152840Y182500D01*
X150840D01*
X149841Y183500D01*
M02*
