G04*
G04 #@! TF.GenerationSoftware,Altium Limited,Altium Designer,18.1.8 (232)*
G04*
G04 Layer_Physical_Order=2*
G04 Layer_Color=16711680*
%FSLAX25Y25*%
%MOIN*%
G70*
G01*
G75*
%ADD10C,0.00984*%
%ADD11C,0.00787*%
%ADD32C,0.04724*%
%ADD78C,0.01575*%
%ADD80C,0.13780*%
%ADD81C,0.07874*%
%ADD82C,0.05906*%
%ADD83C,0.02559*%
G36*
X114466Y192313D02*
X114785Y191347D01*
X114905Y191068D01*
X115032Y190811D01*
X115166Y190577D01*
X115307Y190364D01*
X115455Y190173D01*
X115610Y190003D01*
X114783Y188603D01*
X114587Y188779D01*
X114378Y188928D01*
X114155Y189050D01*
X113920Y189145D01*
X113672Y189212D01*
X113411Y189252D01*
X113137Y189265D01*
X112849Y189251D01*
X112549Y189209D01*
X112236Y189140D01*
X114374Y192678D01*
X114466Y192313D01*
D02*
G37*
G36*
X132904Y172711D02*
X133305Y172364D01*
X133362Y172327D01*
X133411Y172300D01*
X133453Y172284D01*
X133487Y172280D01*
X132220Y171013D01*
X132215Y171047D01*
X132200Y171089D01*
X132173Y171138D01*
X132136Y171195D01*
X132088Y171260D01*
X131960Y171413D01*
X131789Y171596D01*
X131687Y171699D01*
X132801Y172813D01*
X132904Y172711D01*
D02*
G37*
G36*
X134784Y170953D02*
X134800Y170911D01*
X134827Y170862D01*
X134864Y170805D01*
X134912Y170740D01*
X135040Y170587D01*
X135211Y170404D01*
X135313Y170301D01*
X134199Y169187D01*
X134096Y169289D01*
X133695Y169636D01*
X133638Y169673D01*
X133589Y169700D01*
X133547Y169715D01*
X133513Y169720D01*
X134780Y170987D01*
X134784Y170953D01*
D02*
G37*
G36*
X89642Y163931D02*
X89671Y163824D01*
X89708Y163719D01*
X89751Y163616D01*
X89801Y163515D01*
X89859Y163416D01*
X89923Y163320D01*
X89994Y163226D01*
X90073Y163134D01*
X90158Y163044D01*
X89598Y162211D01*
X89505Y162298D01*
X89411Y162373D01*
X89315Y162437D01*
X89217Y162490D01*
X89117Y162531D01*
X89017Y162562D01*
X88914Y162581D01*
X88810Y162588D01*
X88705Y162585D01*
X88597Y162570D01*
X89620Y164041D01*
X89642Y163931D01*
D02*
G37*
G36*
X87995Y159319D02*
X88082Y159250D01*
X88173Y159190D01*
X88269Y159137D01*
X88370Y159093D01*
X88476Y159057D01*
X88587Y159028D01*
X88703Y159008D01*
X88823Y158996D01*
X88949Y158992D01*
Y158008D01*
X88823Y158004D01*
X88703Y157992D01*
X88587Y157972D01*
X88476Y157943D01*
X88370Y157907D01*
X88269Y157863D01*
X88173Y157810D01*
X88082Y157750D01*
X87995Y157681D01*
X87914Y157604D01*
Y159396D01*
X87995Y159319D01*
D02*
G37*
G36*
X156188Y153744D02*
X155807Y154118D01*
X155071Y154748D01*
X154717Y155004D01*
X154372Y155220D01*
X154035Y155398D01*
X153708Y155535D01*
X153390Y155634D01*
X153080Y155693D01*
X152780Y155713D01*
Y157287D01*
X153080Y157307D01*
X153390Y157366D01*
X153708Y157465D01*
X154035Y157602D01*
X154372Y157780D01*
X154717Y157996D01*
X155071Y158252D01*
X155435Y158547D01*
X156188Y159256D01*
Y153744D01*
D02*
G37*
G36*
X91783Y154875D02*
X91795Y154766D01*
X91817Y154658D01*
X91848Y154553D01*
X91888Y154450D01*
X91938Y154350D01*
X91996Y154251D01*
X92063Y154155D01*
X92140Y154061D01*
X92226Y153970D01*
X91530Y153274D01*
X91439Y153360D01*
X91345Y153437D01*
X91249Y153504D01*
X91150Y153562D01*
X91050Y153612D01*
X90947Y153652D01*
X90842Y153683D01*
X90734Y153705D01*
X90625Y153717D01*
X90513Y153720D01*
X91780Y154987D01*
X91783Y154875D01*
D02*
G37*
G36*
X162942Y155927D02*
X163017Y154961D01*
X163086Y154529D01*
X163178Y154132D01*
X163290Y153769D01*
X163424Y153440D01*
X163579Y153145D01*
X163756Y152885D01*
X163955Y152659D01*
X162841Y151545D01*
X162615Y151744D01*
X162355Y151920D01*
X162060Y152076D01*
X161731Y152210D01*
X161368Y152322D01*
X160971Y152414D01*
X160539Y152483D01*
X160073Y152531D01*
X159039Y152563D01*
X162937Y156461D01*
X162942Y155927D01*
D02*
G37*
G36*
X196000Y192000D02*
Y3000D01*
X193500Y500D01*
X162188D01*
X162018Y1000D01*
X162151Y1102D01*
X162690Y1804D01*
X163029Y2622D01*
X163079Y3000D01*
X156428D01*
X156478Y2622D01*
X156816Y1804D01*
X157355Y1102D01*
X157488Y1000D01*
X157319Y500D01*
X152188D01*
X152018Y1000D01*
X152151Y1102D01*
X152690Y1804D01*
X153029Y2622D01*
X153079Y3000D01*
X146428D01*
X146478Y2622D01*
X146817Y1804D01*
X147355Y1102D01*
X147488Y1000D01*
X147319Y500D01*
X142188D01*
X142018Y1000D01*
X142151Y1102D01*
X142690Y1804D01*
X143029Y2622D01*
X143079Y3000D01*
X136428D01*
X136478Y2622D01*
X136817Y1804D01*
X137355Y1102D01*
X137488Y1000D01*
X137319Y500D01*
X132188D01*
X132018Y1000D01*
X132151Y1102D01*
X132690Y1804D01*
X133029Y2622D01*
X133079Y3000D01*
X126428D01*
X126478Y2622D01*
X126816Y1804D01*
X127355Y1102D01*
X127488Y1000D01*
X127319Y500D01*
X122188D01*
X122018Y1000D01*
X122151Y1102D01*
X122690Y1804D01*
X123029Y2622D01*
X123079Y3000D01*
X116428D01*
X116478Y2622D01*
X116816Y1804D01*
X117355Y1102D01*
X117488Y1000D01*
X117319Y500D01*
X112188D01*
X112018Y1000D01*
X112151Y1102D01*
X112690Y1804D01*
X113029Y2622D01*
X113079Y3000D01*
X106428D01*
X106478Y2622D01*
X106816Y1804D01*
X107355Y1102D01*
X107488Y1000D01*
X107319Y500D01*
X102188D01*
X102018Y1000D01*
X102151Y1102D01*
X102690Y1804D01*
X103029Y2622D01*
X103079Y3000D01*
X96428D01*
X96478Y2622D01*
X96816Y1804D01*
X97355Y1102D01*
X97488Y1000D01*
X97319Y500D01*
X92188D01*
X92018Y1000D01*
X92151Y1102D01*
X92690Y1804D01*
X93029Y2622D01*
X93079Y3000D01*
X86428D01*
X86478Y2622D01*
X86817Y1804D01*
X87355Y1102D01*
X87488Y1000D01*
X87319Y500D01*
X3000D01*
X500Y3000D01*
Y193500D01*
X2500Y195500D01*
X109096D01*
X109266Y195000D01*
X108833Y194667D01*
X108233Y193886D01*
X107856Y192976D01*
X107728Y192000D01*
X107856Y191024D01*
X108233Y190114D01*
X108833Y189332D01*
X109614Y188733D01*
X110524Y188356D01*
X111500Y188228D01*
X112476Y188356D01*
X112554Y188388D01*
X112690Y188418D01*
X112924Y188451D01*
X113138Y188461D01*
X113331Y188452D01*
X113505Y188425D01*
X113665Y188382D01*
X113812Y188323D01*
X113951Y188247D01*
X114061Y188169D01*
X131409Y170820D01*
X131434Y170790D01*
X131553Y170194D01*
X132010Y169510D01*
X132694Y169053D01*
X133276Y168937D01*
X133397Y168832D01*
X146865Y155365D01*
X146865Y155365D01*
X147386Y155017D01*
X148000Y154894D01*
X148000Y154894D01*
X152982D01*
X153195Y154854D01*
X153433Y154780D01*
X153692Y154671D01*
X153971Y154524D01*
X154268Y154338D01*
X154574Y154117D01*
X155264Y153526D01*
X155518Y153277D01*
X155631Y153130D01*
X156617Y152373D01*
X157767Y151897D01*
X159000Y151735D01*
X159162Y151756D01*
X160020Y151730D01*
X160434Y151687D01*
X160817Y151625D01*
X161159Y151547D01*
X161460Y151453D01*
X161720Y151347D01*
X161940Y151231D01*
X162120Y151109D01*
X189894Y123335D01*
Y95165D01*
X184835Y90106D01*
X164351D01*
X164312Y90109D01*
X163806Y90447D01*
X163000Y90607D01*
X162194Y90447D01*
X161564Y90027D01*
X161064Y90155D01*
Y92746D01*
X160965Y93245D01*
X160682Y93668D01*
X90616Y163735D01*
X90578Y163785D01*
X90540Y163841D01*
X90508Y163896D01*
X90481Y163951D01*
X90458Y164006D01*
X90439Y164061D01*
X90424Y164117D01*
X90407Y164201D01*
X90378Y164270D01*
X90305Y164633D01*
X89848Y165317D01*
X89165Y165774D01*
X88358Y165934D01*
X87552Y165774D01*
X86868Y165317D01*
X86411Y164633D01*
X86251Y163827D01*
X86411Y163020D01*
X86868Y162337D01*
X87552Y161880D01*
X88358Y161719D01*
X88652Y161778D01*
X88708Y161775D01*
X88774Y161784D01*
X88794Y161785D01*
X88811Y161783D01*
X88828Y161780D01*
X88847Y161775D01*
X88871Y161765D01*
X88900Y161748D01*
X88936Y161725D01*
X90394Y160266D01*
X90203Y159805D01*
X88810D01*
X88756Y159814D01*
X88706Y159827D01*
X88662Y159842D01*
X88623Y159859D01*
X88588Y159878D01*
X88554Y159900D01*
X88546Y159907D01*
X88490Y159990D01*
X87806Y160447D01*
X87000Y160607D01*
X86194Y160447D01*
X85510Y159990D01*
X85053Y159307D01*
X84893Y158500D01*
X85053Y157694D01*
X85510Y157010D01*
X86194Y156553D01*
X87000Y156393D01*
X87806Y156553D01*
X88490Y157010D01*
X88546Y157093D01*
X88554Y157099D01*
X88588Y157122D01*
X88623Y157141D01*
X88662Y157158D01*
X88699Y157171D01*
X89169Y157182D01*
X89317Y156695D01*
X89010Y156490D01*
X88553Y155807D01*
X88393Y155000D01*
X88553Y154193D01*
X89010Y153510D01*
X89693Y153053D01*
X90500Y152893D01*
X90598Y152912D01*
X90609Y152911D01*
X90648Y152903D01*
X90687Y152891D01*
X90727Y152876D01*
X90768Y152856D01*
X90812Y152830D01*
X90857Y152798D01*
X130837Y112818D01*
Y77307D01*
X130337Y77060D01*
X130088Y77251D01*
X129322Y77569D01*
X128500Y77677D01*
X127678Y77569D01*
X126912Y77251D01*
X126254Y76746D01*
X125749Y76088D01*
X125432Y75322D01*
X125323Y74500D01*
X125432Y73678D01*
X125749Y72912D01*
X126254Y72254D01*
X126912Y71749D01*
X127678Y71431D01*
X128500Y71323D01*
X129322Y71431D01*
X130088Y71749D01*
X130337Y71940D01*
X130837Y71693D01*
Y47175D01*
X130111Y46449D01*
X130066Y46417D01*
X130022Y46391D01*
X129980Y46371D01*
X129941Y46355D01*
X129902Y46344D01*
X129862Y46336D01*
X129851Y46335D01*
X129753Y46354D01*
X128947Y46194D01*
X128263Y45737D01*
X127806Y45053D01*
X127646Y44247D01*
X127806Y43440D01*
X128263Y42756D01*
X128947Y42300D01*
X129753Y42139D01*
X130560Y42300D01*
X131244Y42756D01*
X131700Y43440D01*
X131861Y44247D01*
X131841Y44344D01*
X131843Y44355D01*
X131851Y44395D01*
X131862Y44434D01*
X131878Y44473D01*
X131898Y44515D01*
X131924Y44559D01*
X131956Y44604D01*
X133064Y45713D01*
X133347Y46136D01*
X133446Y46635D01*
Y113358D01*
X133347Y113857D01*
X133064Y114281D01*
X92868Y154477D01*
X92879Y154569D01*
X93405Y154750D01*
X148449Y99706D01*
Y45174D01*
X148439Y45120D01*
X148427Y45071D01*
X148412Y45027D01*
X148395Y44988D01*
X148375Y44952D01*
X148353Y44919D01*
X148346Y44910D01*
X148263Y44855D01*
X147806Y44171D01*
X147646Y43365D01*
X147806Y42558D01*
X148263Y41875D01*
X148947Y41418D01*
X149753Y41257D01*
X150560Y41418D01*
X151244Y41875D01*
X151700Y42558D01*
X151861Y43365D01*
X151700Y44171D01*
X151244Y44855D01*
X151161Y44910D01*
X151154Y44919D01*
X151131Y44952D01*
X151112Y44988D01*
X151095Y45027D01*
X151080Y45071D01*
X151067Y45120D01*
X151058Y45174D01*
Y98949D01*
X151520Y99141D01*
X158455Y92205D01*
Y45050D01*
X158446Y44996D01*
X158433Y44946D01*
X158418Y44903D01*
X158401Y44864D01*
X158382Y44828D01*
X158359Y44794D01*
X158353Y44786D01*
X158270Y44730D01*
X157813Y44047D01*
X157652Y43240D01*
X157813Y42434D01*
X158270Y41750D01*
X158953Y41293D01*
X159760Y41133D01*
X160566Y41293D01*
X161250Y41750D01*
X161707Y42434D01*
X161867Y43240D01*
X161707Y44047D01*
X161250Y44730D01*
X161167Y44786D01*
X161160Y44794D01*
X161138Y44828D01*
X161118Y44864D01*
X161101Y44903D01*
X161086Y44946D01*
X161074Y44996D01*
X161064Y45050D01*
Y86845D01*
X161564Y86973D01*
X162194Y86553D01*
X163000Y86393D01*
X163806Y86553D01*
X164300Y86883D01*
X164460Y86894D01*
X185500D01*
X185500Y86894D01*
X186115Y87017D01*
X186635Y87365D01*
X192635Y93365D01*
X192983Y93885D01*
X193106Y94500D01*
Y124000D01*
X193106Y124000D01*
X192983Y124615D01*
X192635Y125135D01*
X164391Y153380D01*
X164269Y153560D01*
X164153Y153780D01*
X164047Y154040D01*
X163953Y154341D01*
X163875Y154683D01*
X163815Y155056D01*
X163745Y155961D01*
X163741Y156317D01*
X163765Y156500D01*
X163603Y157733D01*
X163127Y158883D01*
X162370Y159870D01*
X161383Y160627D01*
X160233Y161103D01*
X159356Y161218D01*
X159132Y161248D01*
Y161752D01*
X159356Y161782D01*
X160233Y161897D01*
X161383Y162373D01*
X162370Y163130D01*
X163127Y164117D01*
X163603Y165267D01*
X163765Y166500D01*
X163603Y167733D01*
X163127Y168883D01*
X162370Y169869D01*
X161383Y170627D01*
X160233Y171103D01*
X159356Y171218D01*
X159132Y171248D01*
Y171752D01*
X159356Y171782D01*
X160233Y171897D01*
X161383Y172373D01*
X162370Y173131D01*
X163127Y174117D01*
X163603Y175267D01*
X163765Y176500D01*
X163603Y177733D01*
X163127Y178883D01*
X162370Y179869D01*
X161383Y180627D01*
X160233Y181103D01*
X159946Y181141D01*
Y181645D01*
X160289Y181690D01*
X161490Y182187D01*
X162521Y182979D01*
X163312Y184010D01*
X163810Y185211D01*
X163914Y186000D01*
X159000D01*
X154086D01*
X154190Y185211D01*
X154688Y184010D01*
X155479Y182979D01*
X156510Y182187D01*
X157711Y181690D01*
X158054Y181645D01*
Y181141D01*
X157767Y181103D01*
X156617Y180627D01*
X155631Y179869D01*
X154873Y178883D01*
X154397Y177733D01*
X154235Y176500D01*
X154397Y175267D01*
X154873Y174117D01*
X155631Y173131D01*
X156617Y172373D01*
X157767Y171897D01*
X158644Y171782D01*
X158868Y171752D01*
Y171248D01*
X158644Y171218D01*
X157767Y171103D01*
X156617Y170627D01*
X155631Y169869D01*
X154873Y168883D01*
X154397Y167733D01*
X154235Y166500D01*
X154397Y165267D01*
X154873Y164117D01*
X155631Y163130D01*
X156617Y162373D01*
X157767Y161897D01*
X158644Y161782D01*
X158868Y161752D01*
Y161248D01*
X158644Y161218D01*
X157767Y161103D01*
X156617Y160627D01*
X155631Y159870D01*
X155531Y159740D01*
X154906Y159152D01*
X154583Y158889D01*
X154268Y158662D01*
X153971Y158476D01*
X153692Y158329D01*
X153433Y158220D01*
X153195Y158146D01*
X152982Y158106D01*
X148665D01*
X135591Y171180D01*
X135566Y171210D01*
X135447Y171807D01*
X134990Y172490D01*
X134307Y172947D01*
X133724Y173063D01*
X133603Y173168D01*
X116033Y190737D01*
X115960Y190832D01*
X115850Y190998D01*
X115741Y191189D01*
X115634Y191406D01*
X115536Y191632D01*
X115237Y192537D01*
X115163Y192833D01*
X115144Y192976D01*
X114767Y193886D01*
X114167Y194667D01*
X113734Y195000D01*
X113904Y195500D01*
X192500D01*
X196000Y192000D01*
D02*
G37*
G36*
X163942Y89375D02*
X163982Y89357D01*
X164036Y89340D01*
X164103Y89326D01*
X164182Y89315D01*
X164381Y89297D01*
X164631Y89289D01*
X164776Y89287D01*
Y87713D01*
X164631Y87712D01*
X164103Y87674D01*
X164036Y87660D01*
X163982Y87643D01*
X163942Y87625D01*
X163914Y87604D01*
Y89396D01*
X163942Y89375D01*
D02*
G37*
G36*
X150250Y45188D02*
X150262Y45068D01*
X150282Y44952D01*
X150310Y44841D01*
X150346Y44735D01*
X150391Y44634D01*
X150443Y44538D01*
X150504Y44447D01*
X150572Y44360D01*
X150649Y44278D01*
X148858D01*
X148934Y44360D01*
X149003Y44447D01*
X149064Y44538D01*
X149116Y44634D01*
X149160Y44735D01*
X149197Y44841D01*
X149225Y44952D01*
X149245Y45068D01*
X149257Y45188D01*
X149261Y45314D01*
X150245D01*
X150250Y45188D01*
D02*
G37*
G36*
X131479Y45277D02*
X131394Y45185D01*
X131317Y45091D01*
X131249Y44995D01*
X131191Y44897D01*
X131142Y44796D01*
X131102Y44693D01*
X131071Y44588D01*
X131049Y44481D01*
X131036Y44371D01*
X131033Y44259D01*
X129766Y45526D01*
X129878Y45529D01*
X129988Y45542D01*
X130095Y45564D01*
X130200Y45595D01*
X130303Y45635D01*
X130404Y45684D01*
X130502Y45742D01*
X130598Y45810D01*
X130692Y45887D01*
X130783Y45973D01*
X131479Y45277D01*
D02*
G37*
G36*
X160256Y45064D02*
X160268Y44943D01*
X160288Y44827D01*
X160317Y44716D01*
X160353Y44611D01*
X160397Y44509D01*
X160450Y44413D01*
X160510Y44322D01*
X160579Y44236D01*
X160655Y44154D01*
X158864D01*
X158941Y44236D01*
X159009Y44322D01*
X159070Y44413D01*
X159122Y44509D01*
X159167Y44611D01*
X159203Y44716D01*
X159231Y44827D01*
X159251Y44943D01*
X159264Y45064D01*
X159268Y45189D01*
X160252D01*
X160256Y45064D01*
D02*
G37*
%LPC*%
G36*
X159500Y191414D02*
Y187000D01*
X163914D01*
X163810Y187789D01*
X163312Y188990D01*
X162521Y190021D01*
X161490Y190813D01*
X160289Y191310D01*
X159500Y191414D01*
D02*
G37*
G36*
X158500D02*
X157711Y191310D01*
X156510Y190813D01*
X155479Y190021D01*
X154688Y188990D01*
X154190Y187789D01*
X154086Y187000D01*
X158500D01*
Y191414D01*
D02*
G37*
G36*
X186500Y194214D02*
X184995Y194066D01*
X183548Y193627D01*
X182214Y192914D01*
X181045Y191955D01*
X180086Y190786D01*
X179373Y189452D01*
X178934Y188005D01*
X178786Y186500D01*
X178934Y184995D01*
X179373Y183548D01*
X180086Y182214D01*
X181045Y181045D01*
X182214Y180086D01*
X183548Y179373D01*
X184995Y178934D01*
X186500Y178786D01*
X188005Y178934D01*
X189452Y179373D01*
X190786Y180086D01*
X191955Y181045D01*
X192914Y182214D01*
X193627Y183548D01*
X194066Y184995D01*
X194214Y186500D01*
X194066Y188005D01*
X193627Y189452D01*
X192914Y190786D01*
X191955Y191955D01*
X190786Y192914D01*
X189452Y193627D01*
X188005Y194066D01*
X186500Y194214D01*
D02*
G37*
G36*
X10500Y193714D02*
X8995Y193566D01*
X7548Y193127D01*
X6214Y192414D01*
X5045Y191455D01*
X4086Y190286D01*
X3373Y188952D01*
X2934Y187505D01*
X2786Y186000D01*
X2934Y184495D01*
X3373Y183048D01*
X4086Y181714D01*
X5045Y180545D01*
X6214Y179586D01*
X7548Y178873D01*
X8995Y178434D01*
X10500Y178286D01*
X12005Y178434D01*
X13452Y178873D01*
X14786Y179586D01*
X15955Y180545D01*
X16914Y181714D01*
X17627Y183048D01*
X18066Y184495D01*
X18214Y186000D01*
X18066Y187505D01*
X17627Y188952D01*
X16914Y190286D01*
X15955Y191455D01*
X14786Y192414D01*
X13452Y193127D01*
X12005Y193566D01*
X10500Y193714D01*
D02*
G37*
G36*
X111500Y185772D02*
X110524Y185644D01*
X109614Y185267D01*
X108833Y184668D01*
X108233Y183886D01*
X107856Y182976D01*
X107728Y182000D01*
X107856Y181024D01*
X108233Y180114D01*
X108833Y179332D01*
X109614Y178733D01*
X110524Y178356D01*
X111500Y178228D01*
X112476Y178356D01*
X113386Y178733D01*
X114167Y179332D01*
X114767Y180114D01*
X115144Y181024D01*
X115272Y182000D01*
X115144Y182976D01*
X114767Y183886D01*
X114167Y184668D01*
X113386Y185267D01*
X112476Y185644D01*
X111500Y185772D01*
D02*
G37*
G36*
X44500Y168607D02*
X43694Y168447D01*
X43010Y167990D01*
X42553Y167306D01*
X42393Y166500D01*
X42553Y165693D01*
X43010Y165010D01*
X43093Y164954D01*
X43099Y164946D01*
X43122Y164912D01*
X43141Y164876D01*
X43158Y164838D01*
X43173Y164794D01*
X43186Y164744D01*
X43195Y164690D01*
Y163893D01*
X43056Y163806D01*
X42499Y164046D01*
X42447Y164306D01*
X41990Y164990D01*
X41306Y165447D01*
X40500Y165607D01*
X39693Y165447D01*
X39010Y164990D01*
X38553Y164306D01*
X38393Y163500D01*
X38415Y163386D01*
X38409Y163313D01*
X38398Y163244D01*
X38384Y163183D01*
X38368Y163131D01*
X38349Y163086D01*
X38329Y163046D01*
X38306Y163010D01*
X38303Y163006D01*
X22648Y147352D01*
X22387Y146961D01*
X22296Y146500D01*
X22296Y146500D01*
Y51050D01*
X22296Y51050D01*
X22387Y50589D01*
X22648Y50199D01*
X54022Y18826D01*
X54022Y18826D01*
X54412Y18565D01*
X54873Y18473D01*
X54873Y18473D01*
X57824D01*
X61303Y14994D01*
X61306Y14990D01*
X61329Y14954D01*
X61349Y14914D01*
X61368Y14869D01*
X61384Y14817D01*
X61398Y14756D01*
X61409Y14687D01*
X61415Y14614D01*
X61393Y14500D01*
X61553Y13693D01*
X62010Y13010D01*
X62694Y12553D01*
X63500Y12393D01*
X64306Y12553D01*
X64990Y13010D01*
X65447Y13693D01*
X65607Y14500D01*
X65447Y15306D01*
X64990Y15990D01*
X64306Y16447D01*
X63500Y16607D01*
X63386Y16585D01*
X63313Y16591D01*
X63244Y16602D01*
X63184Y16616D01*
X63131Y16632D01*
X63086Y16651D01*
X63046Y16671D01*
X63010Y16694D01*
X63006Y16697D01*
X59174Y20529D01*
X58784Y20790D01*
X58323Y20881D01*
X58323Y20881D01*
X58069D01*
X57876Y21243D01*
X57849Y21381D01*
X58000Y22138D01*
X57926Y22506D01*
X58113Y22785D01*
X58204Y23246D01*
Y24521D01*
X58312Y24629D01*
X58573Y25020D01*
X58665Y25481D01*
X58665Y25481D01*
Y27519D01*
X58665Y27519D01*
X58573Y27980D01*
X58312Y28371D01*
X58204Y28479D01*
Y38897D01*
X58205Y38902D01*
X58214Y38944D01*
X58228Y38987D01*
X58247Y39032D01*
X58272Y39080D01*
X58305Y39133D01*
X58346Y39189D01*
X58394Y39245D01*
X58490Y39310D01*
X58555Y39406D01*
X58611Y39454D01*
X58667Y39495D01*
X58720Y39528D01*
X58768Y39553D01*
X58814Y39572D01*
X58856Y39586D01*
X58898Y39595D01*
X58903Y39596D01*
X63300D01*
X63300Y39596D01*
X63761Y39687D01*
X64152Y39948D01*
X77399Y53196D01*
X77660Y53586D01*
X77751Y54047D01*
Y65097D01*
X77752Y65102D01*
X77762Y65144D01*
X77775Y65187D01*
X77794Y65232D01*
X77819Y65280D01*
X77852Y65333D01*
X77893Y65389D01*
X77941Y65445D01*
X78037Y65510D01*
X78494Y66193D01*
X78655Y67000D01*
X78494Y67807D01*
X78037Y68490D01*
X77354Y68947D01*
X76547Y69107D01*
X75741Y68947D01*
X75057Y68490D01*
X74600Y67807D01*
X74440Y67000D01*
X74600Y66193D01*
X75057Y65510D01*
X75153Y65445D01*
X75201Y65389D01*
X75242Y65333D01*
X75275Y65280D01*
X75300Y65232D01*
X75319Y65187D01*
X75333Y65144D01*
X75342Y65102D01*
X75343Y65097D01*
Y54546D01*
X62801Y42004D01*
X58903D01*
X58898Y42005D01*
X58856Y42014D01*
X58813Y42028D01*
X58768Y42047D01*
X58720Y42072D01*
X58667Y42105D01*
X58611Y42146D01*
X58555Y42194D01*
X58490Y42290D01*
X57806Y42747D01*
X57000Y42907D01*
X56194Y42747D01*
X55905Y42554D01*
X55842Y42530D01*
X55628Y42395D01*
X55555Y42356D01*
X55479Y42321D01*
X55408Y42292D01*
X55342Y42271D01*
X55280Y42255D01*
X55223Y42244D01*
X55217Y42244D01*
X53677D01*
X53484Y42605D01*
X53457Y42744D01*
X53607Y43500D01*
X53447Y44306D01*
X53385Y44399D01*
X53696Y44834D01*
X54317Y44710D01*
X55124Y44870D01*
X55808Y45327D01*
X56264Y46011D01*
X56425Y46817D01*
X56402Y46931D01*
X56408Y47005D01*
X56419Y47074D01*
X56433Y47134D01*
X56450Y47186D01*
X56468Y47231D01*
X56489Y47271D01*
X56512Y47308D01*
X56515Y47311D01*
X60757Y51554D01*
X61018Y51945D01*
X61110Y52406D01*
X61110Y52406D01*
Y70097D01*
X61110Y70102D01*
X61120Y70144D01*
X61134Y70187D01*
X61152Y70232D01*
X61178Y70280D01*
X61210Y70333D01*
X61252Y70389D01*
X61299Y70445D01*
X61396Y70510D01*
X61853Y71193D01*
X62013Y72000D01*
X61855Y72796D01*
X61838Y72886D01*
X62122Y73296D01*
X83097D01*
X83102Y73295D01*
X83144Y73286D01*
X83187Y73272D01*
X83232Y73253D01*
X83280Y73228D01*
X83333Y73195D01*
X83389Y73154D01*
X83445Y73106D01*
X83510Y73010D01*
X83817Y72805D01*
X83665Y72305D01*
X73500D01*
X73001Y72205D01*
X72578Y71922D01*
X65675Y65019D01*
X65392Y64596D01*
X65292Y64097D01*
Y57917D01*
X65283Y57863D01*
X65270Y57814D01*
X65255Y57770D01*
X65238Y57731D01*
X65219Y57696D01*
X65196Y57662D01*
X65190Y57653D01*
X65107Y57598D01*
X64650Y56914D01*
X64490Y56108D01*
X64650Y55301D01*
X65107Y54618D01*
X65790Y54161D01*
X66597Y54000D01*
X67403Y54161D01*
X68087Y54618D01*
X68544Y55301D01*
X68704Y56108D01*
X68544Y56914D01*
X68087Y57598D01*
X68004Y57653D01*
X67997Y57662D01*
X67975Y57696D01*
X67956Y57731D01*
X67939Y57770D01*
X67924Y57814D01*
X67911Y57863D01*
X67901Y57917D01*
Y63557D01*
X74040Y69695D01*
X89000D01*
X89499Y69795D01*
X89922Y70078D01*
X90205Y70501D01*
X90305Y71000D01*
Y84500D01*
X90205Y84999D01*
X89922Y85422D01*
X79422Y95922D01*
X78999Y96205D01*
X78500Y96305D01*
X28040D01*
X26478Y97867D01*
Y130406D01*
X26978Y130558D01*
X27010Y130510D01*
X27694Y130053D01*
X28500Y129893D01*
X29307Y130053D01*
X29990Y130510D01*
X30447Y131193D01*
X30524Y131578D01*
X30552Y131649D01*
X30568Y131733D01*
X30583Y131789D01*
X30601Y131843D01*
X30623Y131897D01*
X30650Y131950D01*
X30681Y132005D01*
X30718Y132060D01*
X30756Y132111D01*
X40643Y141998D01*
X40688Y142030D01*
X40732Y142056D01*
X40773Y142076D01*
X40813Y142091D01*
X40852Y142103D01*
X40892Y142111D01*
X40902Y142112D01*
X41000Y142093D01*
X41807Y142253D01*
X42490Y142710D01*
X42947Y143394D01*
X43107Y144200D01*
X42947Y145007D01*
X42490Y145690D01*
X41807Y146147D01*
X41000Y146307D01*
X40194Y146147D01*
X39510Y145690D01*
X39053Y145007D01*
X38893Y144200D01*
X38912Y144102D01*
X38911Y144091D01*
X38903Y144052D01*
X38891Y144013D01*
X38876Y143973D01*
X38856Y143932D01*
X38830Y143888D01*
X38798Y143843D01*
X29064Y134109D01*
X29028Y134085D01*
X28998Y134069D01*
X28973Y134058D01*
X28952Y134052D01*
X28934Y134048D01*
X28916Y134047D01*
X28894Y134047D01*
X28827Y134056D01*
X28776Y134053D01*
X28500Y134107D01*
X27694Y133947D01*
X27010Y133490D01*
X26978Y133442D01*
X26478Y133594D01*
Y143133D01*
X45423Y162077D01*
X45705Y162501D01*
X45805Y163000D01*
Y164690D01*
X45814Y164744D01*
X45827Y164794D01*
X45842Y164838D01*
X45859Y164876D01*
X45878Y164912D01*
X45900Y164946D01*
X45907Y164954D01*
X45990Y165010D01*
X46447Y165693D01*
X46607Y166500D01*
X46447Y167306D01*
X45990Y167990D01*
X45307Y168447D01*
X44500Y168607D01*
D02*
G37*
G36*
X81500Y165607D02*
X80694Y165447D01*
X80010Y164990D01*
X79553Y164306D01*
X79393Y163500D01*
X79401Y163459D01*
X78947Y163306D01*
X78490Y163990D01*
X77807Y164447D01*
X77000Y164607D01*
X76193Y164447D01*
X75510Y163990D01*
X75053Y163306D01*
X74893Y162500D01*
X75053Y161694D01*
X75510Y161010D01*
X75593Y160954D01*
X75599Y160946D01*
X75622Y160912D01*
X75641Y160877D01*
X75658Y160838D01*
X75673Y160794D01*
X75686Y160745D01*
X75695Y160690D01*
Y155500D01*
X75795Y155001D01*
X76078Y154578D01*
X111195Y119460D01*
Y77300D01*
X110695Y77053D01*
X110196Y77437D01*
X109378Y77776D01*
X109000Y77825D01*
Y74500D01*
Y71175D01*
X109378Y71224D01*
X110196Y71563D01*
X110695Y71947D01*
X111195Y71700D01*
Y47774D01*
X110117Y46696D01*
X110072Y46664D01*
X110028Y46638D01*
X109987Y46618D01*
X109947Y46602D01*
X109908Y46591D01*
X109868Y46583D01*
X109858Y46582D01*
X109760Y46601D01*
X108953Y46441D01*
X108270Y45984D01*
X107813Y45300D01*
X107652Y44494D01*
X107813Y43687D01*
X108270Y43003D01*
X108953Y42547D01*
X109760Y42386D01*
X110566Y42547D01*
X111250Y43003D01*
X111707Y43687D01*
X111867Y44494D01*
X111848Y44592D01*
X111849Y44602D01*
X111857Y44642D01*
X111869Y44681D01*
X111884Y44721D01*
X111904Y44762D01*
X111930Y44806D01*
X111962Y44851D01*
X113423Y46311D01*
X113705Y46735D01*
X113805Y47234D01*
Y47944D01*
X114267Y48136D01*
X117551Y44851D01*
X117583Y44806D01*
X117609Y44762D01*
X117629Y44721D01*
X117645Y44681D01*
X117656Y44642D01*
X117664Y44602D01*
X117666Y44592D01*
X117646Y44494D01*
X117806Y43687D01*
X118263Y43003D01*
X118947Y42547D01*
X119753Y42386D01*
X120560Y42547D01*
X121244Y43003D01*
X121700Y43687D01*
X121861Y44494D01*
X121700Y45300D01*
X121244Y45984D01*
X120560Y46441D01*
X119753Y46601D01*
X119656Y46582D01*
X119645Y46583D01*
X119605Y46591D01*
X119566Y46602D01*
X119527Y46618D01*
X119485Y46638D01*
X119441Y46664D01*
X119396Y46696D01*
X115805Y50287D01*
Y72101D01*
X115856Y72119D01*
X116305Y72215D01*
X116912Y71749D01*
X117678Y71431D01*
X118500Y71323D01*
X119322Y71431D01*
X120088Y71749D01*
X120746Y72254D01*
X121251Y72912D01*
X121569Y73678D01*
X121677Y74500D01*
X121569Y75322D01*
X121251Y76088D01*
X120746Y76746D01*
X120088Y77251D01*
X119322Y77569D01*
X118500Y77677D01*
X117678Y77569D01*
X116912Y77251D01*
X116305Y76785D01*
X115856Y76881D01*
X115805Y76899D01*
Y120505D01*
X115705Y121005D01*
X115422Y121428D01*
X82805Y154046D01*
Y161690D01*
X82814Y161744D01*
X82827Y161794D01*
X82842Y161838D01*
X82859Y161876D01*
X82878Y161912D01*
X82901Y161946D01*
X82907Y161954D01*
X82990Y162010D01*
X83447Y162694D01*
X83607Y163500D01*
X83447Y164306D01*
X82990Y164990D01*
X82306Y165447D01*
X81500Y165607D01*
D02*
G37*
G36*
X150454Y147607D02*
X149648Y147447D01*
X148964Y146990D01*
X148909Y146907D01*
X148900Y146900D01*
X148866Y146878D01*
X148831Y146859D01*
X148792Y146842D01*
X148748Y146827D01*
X148699Y146814D01*
X148645Y146805D01*
X143310D01*
X143255Y146814D01*
X143206Y146827D01*
X143162Y146842D01*
X143123Y146859D01*
X143088Y146878D01*
X143054Y146900D01*
X143046Y146907D01*
X142990Y146990D01*
X142306Y147447D01*
X141500Y147607D01*
X140693Y147447D01*
X140010Y146990D01*
X139553Y146307D01*
X139393Y145500D01*
X139553Y144694D01*
X140010Y144010D01*
X140693Y143553D01*
X141500Y143393D01*
X142306Y143553D01*
X142990Y144010D01*
X143046Y144093D01*
X143054Y144099D01*
X143088Y144122D01*
X143123Y144141D01*
X143162Y144158D01*
X143206Y144173D01*
X143255Y144186D01*
X143310Y144195D01*
X148645D01*
X148699Y144186D01*
X148748Y144173D01*
X148792Y144158D01*
X148831Y144141D01*
X148866Y144122D01*
X148900Y144099D01*
X148909Y144093D01*
X148964Y144010D01*
X149648Y143553D01*
X150454Y143393D01*
X151261Y143553D01*
X151944Y144010D01*
X152401Y144694D01*
X152562Y145500D01*
X152401Y146307D01*
X151944Y146990D01*
X151261Y147447D01*
X150454Y147607D01*
D02*
G37*
G36*
X180205Y127287D02*
X179437Y127134D01*
X178786Y126699D01*
X178350Y126048D01*
X178198Y125279D01*
X178350Y124512D01*
X178786Y123860D01*
X179437Y123425D01*
X180205Y123273D01*
X180973Y123425D01*
X181624Y123860D01*
X182059Y124512D01*
X182212Y125279D01*
X182059Y126048D01*
X181624Y126699D01*
X180973Y127134D01*
X180205Y127287D01*
D02*
G37*
G36*
X146557Y129607D02*
X145750Y129447D01*
X145066Y128990D01*
X144610Y128306D01*
X144449Y127500D01*
X144610Y126693D01*
X145066Y126010D01*
X145379Y125801D01*
Y125199D01*
X145066Y124990D01*
X144610Y124306D01*
X144449Y123500D01*
X144610Y122694D01*
X145066Y122010D01*
X145750Y121553D01*
X146557Y121393D01*
X146654Y121412D01*
X146665Y121411D01*
X146705Y121403D01*
X146744Y121391D01*
X146783Y121376D01*
X146825Y121356D01*
X146869Y121329D01*
X146914Y121298D01*
X155134Y113077D01*
X155557Y112795D01*
X156057Y112695D01*
X184690D01*
X184745Y112686D01*
X184794Y112673D01*
X184838Y112658D01*
X184877Y112641D01*
X184912Y112622D01*
X184946Y112600D01*
X184954Y112593D01*
X185010Y112510D01*
X185694Y112053D01*
X186500Y111893D01*
X187306Y112053D01*
X187990Y112510D01*
X188447Y113194D01*
X188607Y114000D01*
X188447Y114806D01*
X187990Y115490D01*
X187677Y115699D01*
Y116301D01*
X187990Y116510D01*
X188447Y117193D01*
X188607Y118000D01*
X188447Y118807D01*
X187990Y119490D01*
X187306Y119947D01*
X186500Y120107D01*
X185694Y119947D01*
X185010Y119490D01*
X184954Y119407D01*
X184946Y119401D01*
X184912Y119378D01*
X184877Y119359D01*
X184838Y119342D01*
X184794Y119327D01*
X184745Y119314D01*
X184690Y119305D01*
X156597D01*
X148759Y127143D01*
X148727Y127188D01*
X148701Y127232D01*
X148681Y127273D01*
X148665Y127313D01*
X148654Y127352D01*
X148646Y127392D01*
X148644Y127402D01*
X148664Y127500D01*
X148504Y128306D01*
X148047Y128990D01*
X147363Y129447D01*
X146557Y129607D01*
D02*
G37*
G36*
X180205Y111539D02*
X179437Y111386D01*
X178786Y110951D01*
X178350Y110300D01*
X178198Y109531D01*
X178350Y108763D01*
X178786Y108112D01*
X179437Y107677D01*
X180205Y107524D01*
X180973Y107677D01*
X181624Y108112D01*
X182059Y108763D01*
X182212Y109531D01*
X182059Y110300D01*
X181624Y110951D01*
X180973Y111386D01*
X180205Y111539D01*
D02*
G37*
G36*
X64500Y106607D02*
X63693Y106447D01*
X63010Y105990D01*
X62553Y105306D01*
X62393Y104500D01*
X62553Y103693D01*
X63010Y103010D01*
X63693Y102553D01*
X64500Y102393D01*
X65307Y102553D01*
X65990Y103010D01*
X66002Y103027D01*
X66007Y103030D01*
X66050Y103052D01*
X66097Y103070D01*
X66148Y103086D01*
X66203Y103099D01*
X66262Y103109D01*
X80190D01*
X80244Y103099D01*
X80294Y103087D01*
X80338Y103072D01*
X80376Y103055D01*
X80412Y103035D01*
X80446Y103013D01*
X80454Y103006D01*
X80510Y102923D01*
X81194Y102466D01*
X82000Y102306D01*
X82806Y102466D01*
X83490Y102923D01*
X83947Y103607D01*
X84107Y104413D01*
X83947Y105220D01*
X83490Y105903D01*
X82806Y106360D01*
X82000Y106521D01*
X81194Y106360D01*
X80510Y105903D01*
X80454Y105821D01*
X80446Y105814D01*
X80412Y105791D01*
X80376Y105772D01*
X80338Y105755D01*
X80294Y105740D01*
X80244Y105727D01*
X80190Y105718D01*
X66349D01*
X66299Y105727D01*
X66256Y105739D01*
X66220Y105752D01*
X66189Y105767D01*
X66161Y105784D01*
X66135Y105803D01*
X66109Y105826D01*
X66076Y105861D01*
X65990Y105990D01*
X65307Y106447D01*
X64500Y106607D01*
D02*
G37*
G36*
X108000Y77825D02*
X107622Y77776D01*
X106804Y77437D01*
X106102Y76898D01*
X105563Y76196D01*
X105224Y75378D01*
X105175Y75000D01*
X108000D01*
Y77825D01*
D02*
G37*
G36*
Y74000D02*
X105175D01*
X105224Y73622D01*
X105563Y72804D01*
X106102Y72102D01*
X106804Y71563D01*
X107622Y71224D01*
X108000Y71175D01*
Y74000D01*
D02*
G37*
G36*
X82413Y145194D02*
X81607Y145034D01*
X80923Y144577D01*
X80466Y143893D01*
X80306Y143087D01*
X80466Y142280D01*
X80923Y141596D01*
X81607Y141140D01*
X82413Y140979D01*
X82511Y140999D01*
X82522Y140998D01*
X82562Y140989D01*
X82601Y140978D01*
X82640Y140962D01*
X82682Y140942D01*
X82726Y140916D01*
X82771Y140884D01*
X98449Y125206D01*
Y45921D01*
X98439Y45867D01*
X98427Y45818D01*
X98412Y45774D01*
X98395Y45735D01*
X98375Y45700D01*
X98353Y45666D01*
X98346Y45657D01*
X98263Y45602D01*
X97806Y44918D01*
X97646Y44112D01*
X97806Y43305D01*
X98263Y42621D01*
X98947Y42165D01*
X99753Y42004D01*
X100560Y42165D01*
X101244Y42621D01*
X101700Y43305D01*
X101861Y44112D01*
X101700Y44918D01*
X101244Y45602D01*
X101161Y45657D01*
X101154Y45666D01*
X101131Y45700D01*
X101112Y45735D01*
X101095Y45774D01*
X101080Y45818D01*
X101067Y45867D01*
X101058Y45921D01*
Y125747D01*
X100959Y126246D01*
X100676Y126669D01*
X84615Y142729D01*
X84584Y142774D01*
X84558Y142818D01*
X84538Y142860D01*
X84522Y142899D01*
X84511Y142938D01*
X84503Y142978D01*
X84501Y142989D01*
X84521Y143087D01*
X84360Y143893D01*
X83903Y144577D01*
X83220Y145034D01*
X82413Y145194D01*
D02*
G37*
G36*
X159753Y26677D02*
X158931Y26568D01*
X158165Y26251D01*
X157507Y25746D01*
X157002Y25088D01*
X156685Y24322D01*
X156577Y23500D01*
X156685Y22678D01*
X157002Y21912D01*
X157507Y21254D01*
X158165Y20749D01*
X158931Y20432D01*
X159753Y20323D01*
X160576Y20432D01*
X161342Y20749D01*
X162000Y21254D01*
X162505Y21912D01*
X162822Y22678D01*
X162930Y23500D01*
X162822Y24322D01*
X162505Y25088D01*
X162000Y25746D01*
X161342Y26251D01*
X160576Y26568D01*
X159753Y26677D01*
D02*
G37*
G36*
X149753D02*
X148931Y26568D01*
X148165Y26251D01*
X147507Y25746D01*
X147002Y25088D01*
X146685Y24322D01*
X146577Y23500D01*
X146685Y22678D01*
X147002Y21912D01*
X147507Y21254D01*
X148165Y20749D01*
X148931Y20432D01*
X149753Y20323D01*
X150576Y20432D01*
X151342Y20749D01*
X152000Y21254D01*
X152505Y21912D01*
X152822Y22678D01*
X152930Y23500D01*
X152822Y24322D01*
X152505Y25088D01*
X152000Y25746D01*
X151342Y26251D01*
X150576Y26568D01*
X149753Y26677D01*
D02*
G37*
G36*
X139753D02*
X138931Y26568D01*
X138165Y26251D01*
X137507Y25746D01*
X137002Y25088D01*
X136685Y24322D01*
X136577Y23500D01*
X136685Y22678D01*
X137002Y21912D01*
X137507Y21254D01*
X138165Y20749D01*
X138931Y20432D01*
X139753Y20323D01*
X140576Y20432D01*
X141342Y20749D01*
X142000Y21254D01*
X142505Y21912D01*
X142822Y22678D01*
X142930Y23500D01*
X142822Y24322D01*
X142505Y25088D01*
X142000Y25746D01*
X141342Y26251D01*
X140576Y26568D01*
X139753Y26677D01*
D02*
G37*
G36*
X129753D02*
X128931Y26568D01*
X128165Y26251D01*
X127507Y25746D01*
X127002Y25088D01*
X126685Y24322D01*
X126577Y23500D01*
X126685Y22678D01*
X127002Y21912D01*
X127507Y21254D01*
X128165Y20749D01*
X128931Y20432D01*
X129753Y20323D01*
X130576Y20432D01*
X131342Y20749D01*
X132000Y21254D01*
X132505Y21912D01*
X132822Y22678D01*
X132930Y23500D01*
X132822Y24322D01*
X132505Y25088D01*
X132000Y25746D01*
X131342Y26251D01*
X130576Y26568D01*
X129753Y26677D01*
D02*
G37*
G36*
X119753D02*
X118931Y26568D01*
X118165Y26251D01*
X117507Y25746D01*
X117002Y25088D01*
X116685Y24322D01*
X116577Y23500D01*
X116685Y22678D01*
X117002Y21912D01*
X117507Y21254D01*
X118165Y20749D01*
X118931Y20432D01*
X119753Y20323D01*
X120576Y20432D01*
X121342Y20749D01*
X122000Y21254D01*
X122505Y21912D01*
X122822Y22678D01*
X122930Y23500D01*
X122822Y24322D01*
X122505Y25088D01*
X122000Y25746D01*
X121342Y26251D01*
X120576Y26568D01*
X119753Y26677D01*
D02*
G37*
G36*
X109753D02*
X108931Y26568D01*
X108165Y26251D01*
X107507Y25746D01*
X107002Y25088D01*
X106685Y24322D01*
X106577Y23500D01*
X106685Y22678D01*
X107002Y21912D01*
X107507Y21254D01*
X108165Y20749D01*
X108931Y20432D01*
X109753Y20323D01*
X110576Y20432D01*
X111342Y20749D01*
X112000Y21254D01*
X112505Y21912D01*
X112822Y22678D01*
X112930Y23500D01*
X112822Y24322D01*
X112505Y25088D01*
X112000Y25746D01*
X111342Y26251D01*
X110576Y26568D01*
X109753Y26677D01*
D02*
G37*
G36*
X99753D02*
X98931Y26568D01*
X98165Y26251D01*
X97507Y25746D01*
X97002Y25088D01*
X96685Y24322D01*
X96577Y23500D01*
X96685Y22678D01*
X97002Y21912D01*
X97507Y21254D01*
X98165Y20749D01*
X98931Y20432D01*
X99753Y20323D01*
X100576Y20432D01*
X101342Y20749D01*
X102000Y21254D01*
X102505Y21912D01*
X102822Y22678D01*
X102930Y23500D01*
X102822Y24322D01*
X102505Y25088D01*
X102000Y25746D01*
X101342Y26251D01*
X100576Y26568D01*
X99753Y26677D01*
D02*
G37*
G36*
X89753D02*
X88931Y26568D01*
X88165Y26251D01*
X87507Y25746D01*
X87002Y25088D01*
X86685Y24322D01*
X86577Y23500D01*
X86685Y22678D01*
X87002Y21912D01*
X87507Y21254D01*
X88165Y20749D01*
X88931Y20432D01*
X89753Y20323D01*
X90576Y20432D01*
X91342Y20749D01*
X92000Y21254D01*
X92505Y21912D01*
X92822Y22678D01*
X92930Y23500D01*
X92822Y24322D01*
X92505Y25088D01*
X92000Y25746D01*
X91342Y26251D01*
X90576Y26568D01*
X89753Y26677D01*
D02*
G37*
G36*
X159753Y16677D02*
X158931Y16568D01*
X158165Y16251D01*
X157507Y15746D01*
X157002Y15088D01*
X156685Y14322D01*
X156577Y13500D01*
X156685Y12678D01*
X157002Y11912D01*
X157507Y11254D01*
X158165Y10749D01*
X158931Y10431D01*
X159753Y10323D01*
X160576Y10431D01*
X161342Y10749D01*
X162000Y11254D01*
X162505Y11912D01*
X162822Y12678D01*
X162930Y13500D01*
X162822Y14322D01*
X162505Y15088D01*
X162000Y15746D01*
X161342Y16251D01*
X160576Y16568D01*
X159753Y16677D01*
D02*
G37*
G36*
X149753D02*
X148931Y16568D01*
X148165Y16251D01*
X147507Y15746D01*
X147002Y15088D01*
X146685Y14322D01*
X146577Y13500D01*
X146685Y12678D01*
X147002Y11912D01*
X147507Y11254D01*
X148165Y10749D01*
X148931Y10431D01*
X149753Y10323D01*
X150576Y10431D01*
X151342Y10749D01*
X152000Y11254D01*
X152505Y11912D01*
X152822Y12678D01*
X152930Y13500D01*
X152822Y14322D01*
X152505Y15088D01*
X152000Y15746D01*
X151342Y16251D01*
X150576Y16568D01*
X149753Y16677D01*
D02*
G37*
G36*
X139753D02*
X138931Y16568D01*
X138165Y16251D01*
X137507Y15746D01*
X137002Y15088D01*
X136685Y14322D01*
X136577Y13500D01*
X136685Y12678D01*
X137002Y11912D01*
X137507Y11254D01*
X138165Y10749D01*
X138931Y10431D01*
X139753Y10323D01*
X140576Y10431D01*
X141342Y10749D01*
X142000Y11254D01*
X142505Y11912D01*
X142822Y12678D01*
X142930Y13500D01*
X142822Y14322D01*
X142505Y15088D01*
X142000Y15746D01*
X141342Y16251D01*
X140576Y16568D01*
X139753Y16677D01*
D02*
G37*
G36*
X129753D02*
X128931Y16568D01*
X128165Y16251D01*
X127507Y15746D01*
X127002Y15088D01*
X126685Y14322D01*
X126577Y13500D01*
X126685Y12678D01*
X127002Y11912D01*
X127507Y11254D01*
X128165Y10749D01*
X128931Y10431D01*
X129753Y10323D01*
X130576Y10431D01*
X131342Y10749D01*
X132000Y11254D01*
X132505Y11912D01*
X132822Y12678D01*
X132930Y13500D01*
X132822Y14322D01*
X132505Y15088D01*
X132000Y15746D01*
X131342Y16251D01*
X130576Y16568D01*
X129753Y16677D01*
D02*
G37*
G36*
X119753D02*
X118931Y16568D01*
X118165Y16251D01*
X117507Y15746D01*
X117002Y15088D01*
X116685Y14322D01*
X116577Y13500D01*
X116685Y12678D01*
X117002Y11912D01*
X117507Y11254D01*
X118165Y10749D01*
X118931Y10431D01*
X119753Y10323D01*
X120576Y10431D01*
X121342Y10749D01*
X122000Y11254D01*
X122505Y11912D01*
X122822Y12678D01*
X122930Y13500D01*
X122822Y14322D01*
X122505Y15088D01*
X122000Y15746D01*
X121342Y16251D01*
X120576Y16568D01*
X119753Y16677D01*
D02*
G37*
G36*
X109753D02*
X108931Y16568D01*
X108165Y16251D01*
X107507Y15746D01*
X107002Y15088D01*
X106685Y14322D01*
X106577Y13500D01*
X106685Y12678D01*
X107002Y11912D01*
X107507Y11254D01*
X108165Y10749D01*
X108931Y10431D01*
X109753Y10323D01*
X110576Y10431D01*
X111342Y10749D01*
X112000Y11254D01*
X112505Y11912D01*
X112822Y12678D01*
X112930Y13500D01*
X112822Y14322D01*
X112505Y15088D01*
X112000Y15746D01*
X111342Y16251D01*
X110576Y16568D01*
X109753Y16677D01*
D02*
G37*
G36*
X99753D02*
X98931Y16568D01*
X98165Y16251D01*
X97507Y15746D01*
X97002Y15088D01*
X96685Y14322D01*
X96577Y13500D01*
X96685Y12678D01*
X97002Y11912D01*
X97507Y11254D01*
X98165Y10749D01*
X98931Y10431D01*
X99753Y10323D01*
X100576Y10431D01*
X101342Y10749D01*
X102000Y11254D01*
X102505Y11912D01*
X102822Y12678D01*
X102930Y13500D01*
X102822Y14322D01*
X102505Y15088D01*
X102000Y15746D01*
X101342Y16251D01*
X100576Y16568D01*
X99753Y16677D01*
D02*
G37*
G36*
X89753D02*
X88931Y16568D01*
X88165Y16251D01*
X87507Y15746D01*
X87002Y15088D01*
X86685Y14322D01*
X86577Y13500D01*
X86685Y12678D01*
X87002Y11912D01*
X87507Y11254D01*
X88165Y10749D01*
X88931Y10431D01*
X89753Y10323D01*
X90576Y10431D01*
X91342Y10749D01*
X92000Y11254D01*
X92505Y11912D01*
X92822Y12678D01*
X92930Y13500D01*
X92822Y14322D01*
X92505Y15088D01*
X92000Y15746D01*
X91342Y16251D01*
X90576Y16568D01*
X89753Y16677D01*
D02*
G37*
G36*
X160253Y6825D02*
Y4000D01*
X163079D01*
X163029Y4378D01*
X162690Y5196D01*
X162151Y5898D01*
X161449Y6437D01*
X160631Y6776D01*
X160253Y6825D01*
D02*
G37*
G36*
X159253D02*
X158876Y6776D01*
X158058Y6437D01*
X157355Y5898D01*
X156816Y5196D01*
X156478Y4378D01*
X156428Y4000D01*
X159253D01*
Y6825D01*
D02*
G37*
G36*
X150253D02*
Y4000D01*
X153079D01*
X153029Y4378D01*
X152690Y5196D01*
X152151Y5898D01*
X151449Y6437D01*
X150631Y6776D01*
X150253Y6825D01*
D02*
G37*
G36*
X149253D02*
X148876Y6776D01*
X148058Y6437D01*
X147355Y5898D01*
X146817Y5196D01*
X146478Y4378D01*
X146428Y4000D01*
X149253D01*
Y6825D01*
D02*
G37*
G36*
X140253D02*
Y4000D01*
X143079D01*
X143029Y4378D01*
X142690Y5196D01*
X142151Y5898D01*
X141449Y6437D01*
X140631Y6776D01*
X140253Y6825D01*
D02*
G37*
G36*
X139253D02*
X138876Y6776D01*
X138058Y6437D01*
X137355Y5898D01*
X136817Y5196D01*
X136478Y4378D01*
X136428Y4000D01*
X139253D01*
Y6825D01*
D02*
G37*
G36*
X130253D02*
Y4000D01*
X133079D01*
X133029Y4378D01*
X132690Y5196D01*
X132151Y5898D01*
X131449Y6437D01*
X130631Y6776D01*
X130253Y6825D01*
D02*
G37*
G36*
X129253D02*
X128876Y6776D01*
X128058Y6437D01*
X127355Y5898D01*
X126816Y5196D01*
X126478Y4378D01*
X126428Y4000D01*
X129253D01*
Y6825D01*
D02*
G37*
G36*
X120253D02*
Y4000D01*
X123079D01*
X123029Y4378D01*
X122690Y5196D01*
X122151Y5898D01*
X121449Y6437D01*
X120631Y6776D01*
X120253Y6825D01*
D02*
G37*
G36*
X119253D02*
X118876Y6776D01*
X118058Y6437D01*
X117355Y5898D01*
X116816Y5196D01*
X116478Y4378D01*
X116428Y4000D01*
X119253D01*
Y6825D01*
D02*
G37*
G36*
X110253D02*
Y4000D01*
X113079D01*
X113029Y4378D01*
X112690Y5196D01*
X112151Y5898D01*
X111449Y6437D01*
X110631Y6776D01*
X110253Y6825D01*
D02*
G37*
G36*
X109253D02*
X108876Y6776D01*
X108058Y6437D01*
X107355Y5898D01*
X106816Y5196D01*
X106478Y4378D01*
X106428Y4000D01*
X109253D01*
Y6825D01*
D02*
G37*
G36*
X100253D02*
Y4000D01*
X103079D01*
X103029Y4378D01*
X102690Y5196D01*
X102151Y5898D01*
X101449Y6437D01*
X100631Y6776D01*
X100253Y6825D01*
D02*
G37*
G36*
X99253D02*
X98876Y6776D01*
X98058Y6437D01*
X97355Y5898D01*
X96816Y5196D01*
X96478Y4378D01*
X96428Y4000D01*
X99253D01*
Y6825D01*
D02*
G37*
G36*
X90253D02*
Y4000D01*
X93079D01*
X93029Y4378D01*
X92690Y5196D01*
X92151Y5898D01*
X91449Y6437D01*
X90631Y6776D01*
X90253Y6825D01*
D02*
G37*
G36*
X89253D02*
X88876Y6776D01*
X88058Y6437D01*
X87355Y5898D01*
X86817Y5196D01*
X86478Y4378D01*
X86428Y4000D01*
X89253D01*
Y6825D01*
D02*
G37*
G36*
X185621Y18714D02*
X184116Y18566D01*
X182669Y18127D01*
X181335Y17414D01*
X180166Y16455D01*
X179207Y15286D01*
X178494Y13952D01*
X178055Y12505D01*
X177907Y11000D01*
X178055Y9495D01*
X178494Y8048D01*
X179207Y6714D01*
X180166Y5545D01*
X181335Y4586D01*
X182669Y3873D01*
X184116Y3434D01*
X185621Y3286D01*
X187126Y3434D01*
X188573Y3873D01*
X189907Y4586D01*
X191076Y5545D01*
X192035Y6714D01*
X192748Y8048D01*
X193187Y9495D01*
X193335Y11000D01*
X193187Y12505D01*
X192748Y13952D01*
X192035Y15286D01*
X191076Y16455D01*
X189907Y17414D01*
X188573Y18127D01*
X187126Y18566D01*
X185621Y18714D01*
D02*
G37*
G36*
X10500Y18214D02*
X8995Y18066D01*
X7548Y17627D01*
X6214Y16914D01*
X5045Y15955D01*
X4086Y14786D01*
X3373Y13452D01*
X2934Y12005D01*
X2786Y10500D01*
X2934Y8995D01*
X3373Y7548D01*
X4086Y6214D01*
X5045Y5045D01*
X6214Y4086D01*
X7548Y3373D01*
X8995Y2934D01*
X10500Y2786D01*
X12005Y2934D01*
X13452Y3373D01*
X14786Y4086D01*
X15955Y5045D01*
X16914Y6214D01*
X17627Y7548D01*
X18066Y8995D01*
X18214Y10500D01*
X18066Y12005D01*
X17627Y13452D01*
X16914Y14786D01*
X15955Y15955D01*
X14786Y16914D01*
X13452Y17627D01*
X12005Y18066D01*
X10500Y18214D01*
D02*
G37*
%LPD*%
G36*
X45319Y165505D02*
X45250Y165418D01*
X45190Y165327D01*
X45137Y165231D01*
X45093Y165130D01*
X45057Y165024D01*
X45028Y164913D01*
X45008Y164797D01*
X44996Y164677D01*
X44992Y164551D01*
X44008D01*
X44004Y164677D01*
X43992Y164797D01*
X43972Y164913D01*
X43943Y165024D01*
X43907Y165130D01*
X43863Y165231D01*
X43810Y165327D01*
X43750Y165418D01*
X43681Y165505D01*
X43604Y165586D01*
X45396D01*
X45319Y165505D01*
D02*
G37*
G36*
X40487Y162221D02*
X40350Y162218D01*
X40218Y162207D01*
X40092Y162187D01*
X39972Y162160D01*
X39858Y162123D01*
X39749Y162079D01*
X39647Y162026D01*
X39550Y161965D01*
X39459Y161896D01*
X39375Y161818D01*
X38818Y162375D01*
X38896Y162460D01*
X38965Y162550D01*
X39026Y162647D01*
X39079Y162749D01*
X39123Y162858D01*
X39160Y162972D01*
X39187Y163092D01*
X39207Y163218D01*
X39218Y163350D01*
X39220Y163487D01*
X40487Y162221D01*
D02*
G37*
G36*
X40987Y142920D02*
X40875Y142917D01*
X40766Y142904D01*
X40658Y142883D01*
X40553Y142852D01*
X40450Y142812D01*
X40350Y142762D01*
X40251Y142704D01*
X40155Y142637D01*
X40062Y142560D01*
X39970Y142474D01*
X39274Y143170D01*
X39360Y143262D01*
X39437Y143355D01*
X39504Y143451D01*
X39562Y143550D01*
X39612Y143650D01*
X39652Y143753D01*
X39683Y143858D01*
X39704Y143966D01*
X39717Y144075D01*
X39720Y144187D01*
X40987Y142920D01*
D02*
G37*
G36*
X30296Y132800D02*
X30211Y132710D01*
X30133Y132618D01*
X30062Y132524D01*
X29998Y132427D01*
X29941Y132328D01*
X29891Y132227D01*
X29849Y132124D01*
X29813Y132018D01*
X29785Y131910D01*
X29764Y131800D01*
X28725Y133260D01*
X28832Y133246D01*
X28938Y133243D01*
X29043Y133252D01*
X29146Y133272D01*
X29247Y133302D01*
X29346Y133344D01*
X29444Y133397D01*
X29540Y133462D01*
X29635Y133537D01*
X29728Y133624D01*
X30296Y132800D01*
D02*
G37*
G36*
X78586Y81604D02*
X78505Y81681D01*
X78418Y81750D01*
X78327Y81810D01*
X78231Y81863D01*
X78130Y81907D01*
X78024Y81943D01*
X77913Y81972D01*
X77797Y81992D01*
X77677Y82004D01*
X77551Y82008D01*
Y82992D01*
X77677Y82996D01*
X77797Y83008D01*
X77913Y83028D01*
X78024Y83057D01*
X78130Y83093D01*
X78231Y83137D01*
X78327Y83190D01*
X78418Y83250D01*
X78505Y83319D01*
X78586Y83396D01*
Y81604D01*
D02*
G37*
G36*
X26577Y94077D02*
X27001Y93795D01*
X27500Y93695D01*
X77960D01*
X87695Y83960D01*
Y72305D01*
X86335D01*
X86183Y72805D01*
X86490Y73010D01*
X86947Y73694D01*
X87107Y74500D01*
X86947Y75306D01*
X86490Y75990D01*
X85807Y76447D01*
X85000Y76607D01*
X84193Y76447D01*
X83510Y75990D01*
X83445Y75894D01*
X83389Y75846D01*
X83333Y75805D01*
X83280Y75772D01*
X83232Y75747D01*
X83187Y75728D01*
X83144Y75714D01*
X83102Y75705D01*
X83097Y75704D01*
X57892D01*
X57892Y75704D01*
X57431Y75613D01*
X57041Y75352D01*
X57041Y75352D01*
X56386Y74697D01*
X56383Y74694D01*
X56346Y74671D01*
X56306Y74651D01*
X56261Y74632D01*
X56209Y74616D01*
X56148Y74602D01*
X56079Y74591D01*
X56006Y74585D01*
X55892Y74607D01*
X55086Y74447D01*
X54402Y73990D01*
X53945Y73307D01*
X53785Y72500D01*
X53945Y71693D01*
X54402Y71010D01*
X54498Y70945D01*
X54546Y70889D01*
X54587Y70833D01*
X54620Y70780D01*
X54645Y70732D01*
X54664Y70687D01*
X54678Y70644D01*
X54687Y70602D01*
X54688Y70597D01*
Y54999D01*
X50648Y50959D01*
X50387Y50569D01*
X50296Y50108D01*
X50296Y50108D01*
Y45403D01*
X50295Y45398D01*
X50286Y45356D01*
X50272Y45313D01*
X50253Y45268D01*
X50228Y45220D01*
X50195Y45167D01*
X50154Y45111D01*
X50106Y45055D01*
X50010Y44990D01*
X49581Y44349D01*
X49464Y44270D01*
X49072Y44151D01*
X43332Y49891D01*
X42942Y50152D01*
X42481Y50244D01*
X42481Y50244D01*
X36514D01*
X36509Y50244D01*
X36467Y50254D01*
X36424Y50267D01*
X36379Y50286D01*
X36330Y50311D01*
X36278Y50344D01*
X36222Y50385D01*
X36165Y50433D01*
X36101Y50529D01*
X35417Y50986D01*
X34611Y51147D01*
X33856Y50997D01*
X33712Y51027D01*
X33356Y51217D01*
Y67011D01*
X47540Y81195D01*
X77690D01*
X77745Y81186D01*
X77794Y81173D01*
X77838Y81158D01*
X77877Y81141D01*
X77912Y81122D01*
X77946Y81099D01*
X77954Y81093D01*
X78010Y81010D01*
X78693Y80553D01*
X79500Y80393D01*
X80307Y80553D01*
X80990Y81010D01*
X81447Y81694D01*
X81607Y82500D01*
X81447Y83306D01*
X80990Y83990D01*
X80307Y84447D01*
X79500Y84607D01*
X78693Y84447D01*
X78010Y83990D01*
X77954Y83907D01*
X77946Y83900D01*
X77912Y83878D01*
X77877Y83859D01*
X77838Y83842D01*
X77794Y83827D01*
X77745Y83814D01*
X77690Y83805D01*
X47000D01*
X46501Y83705D01*
X46077Y83422D01*
X31129Y68474D01*
X30846Y68051D01*
X30747Y67552D01*
Y47979D01*
X30846Y47480D01*
X31129Y47057D01*
X52609Y25578D01*
X53032Y25295D01*
X53364Y25229D01*
X53510Y25010D01*
X54194Y24553D01*
X54728Y24447D01*
X54833Y23916D01*
X54402Y23628D01*
X53974Y22987D01*
X53857Y22907D01*
X53465Y22789D01*
X24704Y51549D01*
Y95297D01*
X25166Y95489D01*
X26577Y94077D01*
D02*
G37*
G36*
X84086Y73604D02*
X83987Y73700D01*
X83886Y73785D01*
X83783Y73860D01*
X83679Y73926D01*
X83572Y73981D01*
X83464Y74026D01*
X83355Y74061D01*
X83243Y74086D01*
X83130Y74101D01*
X83015Y74106D01*
Y74894D01*
X83130Y74899D01*
X83243Y74914D01*
X83355Y74939D01*
X83464Y74974D01*
X83572Y75019D01*
X83679Y75074D01*
X83783Y75140D01*
X83886Y75215D01*
X83987Y75300D01*
X84086Y75396D01*
Y73604D01*
D02*
G37*
G36*
X57574Y73625D02*
X57497Y73541D01*
X57427Y73450D01*
X57366Y73353D01*
X57313Y73251D01*
X57269Y73142D01*
X57233Y73028D01*
X57205Y72908D01*
X57186Y72782D01*
X57174Y72650D01*
X57172Y72513D01*
X55905Y73779D01*
X56043Y73782D01*
X56174Y73793D01*
X56300Y73813D01*
X56420Y73840D01*
X56535Y73877D01*
X56643Y73921D01*
X56745Y73974D01*
X56842Y74035D01*
X56933Y74104D01*
X57018Y74182D01*
X57574Y73625D01*
D02*
G37*
G36*
X56692Y71487D02*
X56607Y71386D01*
X56532Y71283D01*
X56467Y71179D01*
X56411Y71072D01*
X56366Y70964D01*
X56331Y70855D01*
X56306Y70743D01*
X56291Y70630D01*
X56286Y70515D01*
X55498D01*
X55493Y70630D01*
X55478Y70743D01*
X55453Y70855D01*
X55418Y70964D01*
X55373Y71072D01*
X55318Y71179D01*
X55253Y71283D01*
X55177Y71386D01*
X55092Y71487D01*
X54997Y71586D01*
X56788D01*
X56692Y71487D01*
D02*
G37*
G36*
X60706Y70987D02*
X60620Y70886D01*
X60545Y70783D01*
X60480Y70679D01*
X60425Y70572D01*
X60379Y70464D01*
X60344Y70355D01*
X60319Y70243D01*
X60304Y70130D01*
X60299Y70015D01*
X59512D01*
X59507Y70130D01*
X59492Y70243D01*
X59467Y70355D01*
X59431Y70464D01*
X59386Y70572D01*
X59331Y70679D01*
X59266Y70783D01*
X59190Y70886D01*
X59105Y70987D01*
X59010Y71086D01*
X60801D01*
X60706Y70987D01*
D02*
G37*
G36*
X77348Y65987D02*
X77262Y65886D01*
X77187Y65783D01*
X77122Y65679D01*
X77066Y65572D01*
X77021Y65464D01*
X76986Y65355D01*
X76961Y65243D01*
X76946Y65130D01*
X76941Y65015D01*
X76153D01*
X76148Y65130D01*
X76134Y65243D01*
X76108Y65355D01*
X76073Y65464D01*
X76028Y65572D01*
X75973Y65679D01*
X75908Y65783D01*
X75832Y65886D01*
X75747Y65987D01*
X75652Y66086D01*
X77443D01*
X77348Y65987D01*
D02*
G37*
G36*
X67093Y57931D02*
X67105Y57811D01*
X67125Y57695D01*
X67154Y57584D01*
X67190Y57478D01*
X67234Y57377D01*
X67287Y57281D01*
X67347Y57190D01*
X67416Y57103D01*
X67493Y57021D01*
X65701D01*
X65778Y57103D01*
X65847Y57190D01*
X65907Y57281D01*
X65960Y57377D01*
X66004Y57478D01*
X66040Y57584D01*
X66069Y57695D01*
X66089Y57811D01*
X66101Y57931D01*
X66105Y58057D01*
X67089D01*
X67093Y57931D01*
D02*
G37*
G36*
X58033Y71083D02*
X58415Y70510D01*
X58512Y70445D01*
X58559Y70389D01*
X58601Y70333D01*
X58633Y70280D01*
X58658Y70232D01*
X58678Y70187D01*
X58691Y70144D01*
X58701Y70102D01*
X58701Y70097D01*
Y52904D01*
X54812Y49015D01*
X54808Y49012D01*
X54771Y48989D01*
X54731Y48968D01*
X54686Y48950D01*
X54634Y48933D01*
X54574Y48919D01*
X54505Y48908D01*
X54431Y48902D01*
X54317Y48925D01*
X53511Y48764D01*
X53204Y48559D01*
X52704Y48827D01*
Y49609D01*
X56744Y53649D01*
X57005Y54039D01*
X57096Y54500D01*
Y70597D01*
X57097Y70602D01*
X57107Y70644D01*
X57120Y70687D01*
X57139Y70732D01*
X57164Y70780D01*
X57197Y70833D01*
X57238Y70889D01*
X57286Y70945D01*
X57382Y71010D01*
X57462Y71128D01*
X57629Y71150D01*
X58033Y71083D01*
D02*
G37*
G36*
X35624Y49840D02*
X35725Y49754D01*
X35827Y49679D01*
X35932Y49614D01*
X36038Y49559D01*
X36146Y49513D01*
X36256Y49478D01*
X36367Y49453D01*
X36481Y49438D01*
X36596Y49433D01*
Y48646D01*
X36481Y48641D01*
X36367Y48626D01*
X36256Y48601D01*
X36146Y48565D01*
X36038Y48520D01*
X35932Y48465D01*
X35827Y48400D01*
X35725Y48324D01*
X35624Y48239D01*
X35524Y48144D01*
Y49935D01*
X35624Y49840D01*
D02*
G37*
G36*
X55999Y47943D02*
X55922Y47858D01*
X55852Y47767D01*
X55791Y47671D01*
X55739Y47568D01*
X55694Y47460D01*
X55658Y47346D01*
X55630Y47226D01*
X55611Y47100D01*
X55600Y46968D01*
X55597Y46830D01*
X54330Y48097D01*
X54468Y48100D01*
X54600Y48111D01*
X54726Y48130D01*
X54846Y48158D01*
X54960Y48194D01*
X55068Y48239D01*
X55171Y48291D01*
X55267Y48352D01*
X55358Y48422D01*
X55443Y48500D01*
X55999Y47943D01*
D02*
G37*
G36*
X51899Y45370D02*
X51914Y45257D01*
X51939Y45145D01*
X51974Y45036D01*
X52019Y44928D01*
X52074Y44821D01*
X52140Y44717D01*
X52215Y44614D01*
X52300Y44513D01*
X52396Y44414D01*
X50604D01*
X50700Y44513D01*
X50785Y44614D01*
X50860Y44717D01*
X50926Y44821D01*
X50981Y44928D01*
X51026Y45036D01*
X51061Y45145D01*
X51086Y45257D01*
X51101Y45370D01*
X51106Y45485D01*
X51894D01*
X51899Y45370D01*
D02*
G37*
G36*
X55935Y40091D02*
X55859Y40196D01*
X55778Y40291D01*
X55692Y40374D01*
X55602Y40446D01*
X55507Y40507D01*
X55408Y40557D01*
X55303Y40596D01*
X55194Y40624D01*
X55080Y40640D01*
X54962Y40646D01*
X55120Y41433D01*
X55230Y41437D01*
X55342Y41450D01*
X55454Y41471D01*
X55568Y41500D01*
X55682Y41537D01*
X55797Y41583D01*
X55914Y41638D01*
X56032Y41700D01*
X56270Y41851D01*
X55935Y40091D01*
D02*
G37*
G36*
X58013Y41600D02*
X58114Y41515D01*
X58217Y41440D01*
X58321Y41374D01*
X58428Y41319D01*
X58536Y41274D01*
X58645Y41239D01*
X58757Y41214D01*
X58870Y41199D01*
X58985Y41194D01*
Y40406D01*
X58870Y40401D01*
X58757Y40386D01*
X58645Y40361D01*
X58536Y40326D01*
X58428Y40281D01*
X58321Y40226D01*
X58217Y40160D01*
X58114Y40085D01*
X58013Y40000D01*
X57914Y39904D01*
Y41696D01*
X58013Y41600D01*
D02*
G37*
G36*
X57800Y39787D02*
X57715Y39686D01*
X57640Y39583D01*
X57574Y39479D01*
X57519Y39372D01*
X57474Y39264D01*
X57439Y39155D01*
X57414Y39043D01*
X57399Y38930D01*
X57394Y38815D01*
X56606D01*
X56601Y38930D01*
X56586Y39043D01*
X56561Y39155D01*
X56526Y39264D01*
X56481Y39372D01*
X56426Y39479D01*
X56360Y39583D01*
X56285Y39686D01*
X56200Y39787D01*
X56104Y39886D01*
X57896D01*
X57800Y39787D01*
D02*
G37*
G36*
X49629Y40188D02*
X50020Y39927D01*
X50481Y39835D01*
X50481Y39835D01*
X55037D01*
X55063Y39828D01*
X55087Y39820D01*
X55109Y39808D01*
X55133Y39793D01*
X55161Y39771D01*
X55192Y39740D01*
X55228Y39699D01*
X55284Y39621D01*
X55331Y39577D01*
X55510Y39310D01*
X55606Y39245D01*
X55654Y39189D01*
X55695Y39133D01*
X55728Y39080D01*
X55753Y39032D01*
X55772Y38987D01*
X55786Y38944D01*
X55795Y38902D01*
X55796Y38897D01*
Y28843D01*
X55409Y28526D01*
X55000Y28607D01*
X54194Y28447D01*
X53735Y28141D01*
X35264Y46612D01*
X35381Y46999D01*
X35461Y47122D01*
X36101Y47549D01*
X36165Y47646D01*
X36222Y47693D01*
X36278Y47734D01*
X36330Y47767D01*
X36379Y47792D01*
X36424Y47811D01*
X36467Y47825D01*
X36509Y47835D01*
X36514Y47835D01*
X41982D01*
X49629Y40188D01*
D02*
G37*
G36*
X62459Y16104D02*
X62550Y16035D01*
X62647Y15974D01*
X62749Y15921D01*
X62858Y15877D01*
X62972Y15841D01*
X63092Y15813D01*
X63218Y15793D01*
X63350Y15782D01*
X63487Y15779D01*
X62221Y14513D01*
X62218Y14650D01*
X62207Y14782D01*
X62187Y14908D01*
X62160Y15028D01*
X62123Y15142D01*
X62079Y15251D01*
X62026Y15353D01*
X61965Y15450D01*
X61896Y15540D01*
X61818Y15625D01*
X62375Y16182D01*
X62459Y16104D01*
D02*
G37*
G36*
X82319Y162505D02*
X82250Y162418D01*
X82190Y162327D01*
X82137Y162231D01*
X82093Y162130D01*
X82057Y162024D01*
X82028Y161913D01*
X82008Y161797D01*
X81996Y161677D01*
X81992Y161551D01*
X81008D01*
X81004Y161677D01*
X80992Y161797D01*
X80972Y161913D01*
X80943Y162024D01*
X80907Y162130D01*
X80863Y162231D01*
X80810Y162327D01*
X80750Y162418D01*
X80681Y162505D01*
X80604Y162586D01*
X82396D01*
X82319Y162505D01*
D02*
G37*
G36*
X77819Y161505D02*
X77750Y161418D01*
X77690Y161327D01*
X77637Y161231D01*
X77593Y161130D01*
X77557Y161024D01*
X77528Y160913D01*
X77508Y160797D01*
X77496Y160677D01*
X77492Y160551D01*
X76508D01*
X76504Y160677D01*
X76492Y160797D01*
X76472Y160913D01*
X76443Y161024D01*
X76407Y161130D01*
X76363Y161231D01*
X76310Y161327D01*
X76250Y161418D01*
X76181Y161505D01*
X76104Y161586D01*
X77896D01*
X77819Y161505D01*
D02*
G37*
G36*
X118815Y46134D02*
X118909Y46057D01*
X119005Y45990D01*
X119103Y45931D01*
X119204Y45882D01*
X119307Y45842D01*
X119412Y45811D01*
X119519Y45789D01*
X119629Y45777D01*
X119741Y45773D01*
X118474Y44506D01*
X118471Y44618D01*
X118458Y44728D01*
X118436Y44835D01*
X118405Y44940D01*
X118365Y45043D01*
X118316Y45144D01*
X118257Y45242D01*
X118190Y45338D01*
X118113Y45432D01*
X118027Y45524D01*
X118723Y46220D01*
X118815Y46134D01*
D02*
G37*
G36*
X111486Y45524D02*
X111400Y45432D01*
X111323Y45338D01*
X111256Y45242D01*
X111197Y45144D01*
X111148Y45043D01*
X111108Y44940D01*
X111077Y44835D01*
X111055Y44728D01*
X111043Y44618D01*
X111039Y44506D01*
X109773Y45773D01*
X109885Y45777D01*
X109994Y45789D01*
X110101Y45811D01*
X110207Y45842D01*
X110309Y45882D01*
X110410Y45931D01*
X110508Y45990D01*
X110604Y46057D01*
X110698Y46134D01*
X110790Y46220D01*
X111486Y45524D01*
D02*
G37*
G36*
X149540Y144604D02*
X149459Y144681D01*
X149372Y144750D01*
X149281Y144810D01*
X149185Y144863D01*
X149084Y144907D01*
X148978Y144943D01*
X148867Y144972D01*
X148751Y144992D01*
X148631Y145004D01*
X148505Y145008D01*
Y145992D01*
X148631Y145996D01*
X148751Y146008D01*
X148867Y146028D01*
X148978Y146057D01*
X149084Y146093D01*
X149185Y146137D01*
X149281Y146190D01*
X149372Y146250D01*
X149459Y146319D01*
X149540Y146396D01*
Y144604D01*
D02*
G37*
G36*
X142495Y146319D02*
X142582Y146250D01*
X142673Y146190D01*
X142769Y146137D01*
X142870Y146093D01*
X142976Y146057D01*
X143087Y146028D01*
X143203Y146008D01*
X143323Y145996D01*
X143449Y145992D01*
Y145008D01*
X143323Y145004D01*
X143203Y144992D01*
X143087Y144972D01*
X142976Y144943D01*
X142870Y144907D01*
X142769Y144863D01*
X142673Y144810D01*
X142582Y144750D01*
X142495Y144681D01*
X142414Y144604D01*
Y146396D01*
X142495Y146319D01*
D02*
G37*
G36*
X147839Y127375D02*
X147852Y127266D01*
X147874Y127158D01*
X147905Y127053D01*
X147945Y126950D01*
X147994Y126850D01*
X148053Y126751D01*
X148120Y126655D01*
X148197Y126561D01*
X148283Y126470D01*
X147587Y125774D01*
X147495Y125860D01*
X147401Y125937D01*
X147305Y126004D01*
X147207Y126063D01*
X147106Y126112D01*
X147003Y126152D01*
X146898Y126183D01*
X146791Y126205D01*
X146681Y126217D01*
X146569Y126221D01*
X147836Y127487D01*
X147839Y127375D01*
D02*
G37*
G36*
Y123375D02*
X147852Y123266D01*
X147874Y123158D01*
X147905Y123053D01*
X147945Y122950D01*
X147994Y122850D01*
X148053Y122751D01*
X148120Y122655D01*
X148197Y122562D01*
X148283Y122470D01*
X147587Y121774D01*
X147495Y121860D01*
X147401Y121937D01*
X147305Y122004D01*
X147207Y122063D01*
X147106Y122112D01*
X147003Y122152D01*
X146898Y122183D01*
X146791Y122204D01*
X146681Y122217D01*
X146569Y122221D01*
X147836Y123487D01*
X147839Y123375D01*
D02*
G37*
G36*
X185586Y117104D02*
X185505Y117181D01*
X185418Y117250D01*
X185327Y117310D01*
X185231Y117363D01*
X185130Y117407D01*
X185024Y117443D01*
X184913Y117472D01*
X184797Y117492D01*
X184677Y117504D01*
X184551Y117508D01*
Y118492D01*
X184677Y118496D01*
X184797Y118508D01*
X184913Y118528D01*
X185024Y118557D01*
X185130Y118593D01*
X185231Y118637D01*
X185327Y118690D01*
X185418Y118750D01*
X185505Y118819D01*
X185586Y118896D01*
Y117104D01*
D02*
G37*
G36*
X156057Y116695D02*
X184690D01*
X184745Y116686D01*
X184794Y116673D01*
X184838Y116658D01*
X184877Y116641D01*
X184912Y116622D01*
X184946Y116600D01*
X184954Y116593D01*
X185010Y116510D01*
X185323Y116301D01*
Y115699D01*
X185010Y115490D01*
X184954Y115407D01*
X184946Y115401D01*
X184912Y115378D01*
X184877Y115359D01*
X184838Y115342D01*
X184794Y115327D01*
X184745Y115314D01*
X184690Y115305D01*
X156597D01*
X155631Y116270D01*
X155878Y116731D01*
X156057Y116695D01*
D02*
G37*
G36*
X185586Y113104D02*
X185505Y113181D01*
X185418Y113250D01*
X185327Y113310D01*
X185231Y113363D01*
X185130Y113407D01*
X185024Y113443D01*
X184913Y113472D01*
X184797Y113492D01*
X184677Y113504D01*
X184551Y113508D01*
Y114492D01*
X184677Y114496D01*
X184797Y114508D01*
X184913Y114528D01*
X185024Y114557D01*
X185130Y114593D01*
X185231Y114637D01*
X185327Y114690D01*
X185418Y114750D01*
X185505Y114819D01*
X185586Y114896D01*
Y113104D01*
D02*
G37*
G36*
X65548Y105251D02*
X65629Y105178D01*
X65716Y105114D01*
X65809Y105059D01*
X65907Y105012D01*
X66011Y104974D01*
X66120Y104944D01*
X66235Y104923D01*
X66355Y104910D01*
X66481Y104905D01*
X66409Y103921D01*
X66284Y103918D01*
X66163Y103906D01*
X66047Y103887D01*
X65935Y103861D01*
X65827Y103827D01*
X65723Y103786D01*
X65624Y103737D01*
X65529Y103680D01*
X65438Y103616D01*
X65351Y103544D01*
X65472Y105332D01*
X65548Y105251D01*
D02*
G37*
G36*
X81086Y103518D02*
X81005Y103594D01*
X80918Y103663D01*
X80827Y103724D01*
X80731Y103776D01*
X80630Y103820D01*
X80524Y103857D01*
X80413Y103885D01*
X80297Y103905D01*
X80177Y103917D01*
X80051Y103921D01*
Y104905D01*
X80177Y104910D01*
X80297Y104922D01*
X80413Y104942D01*
X80524Y104970D01*
X80630Y105006D01*
X80731Y105051D01*
X80827Y105103D01*
X80918Y105164D01*
X81005Y105232D01*
X81086Y105309D01*
Y103518D01*
D02*
G37*
G36*
X83696Y142962D02*
X83709Y142852D01*
X83731Y142745D01*
X83762Y142640D01*
X83802Y142537D01*
X83851Y142436D01*
X83909Y142338D01*
X83977Y142242D01*
X84053Y142148D01*
X84139Y142057D01*
X83443Y141361D01*
X83352Y141446D01*
X83258Y141523D01*
X83162Y141591D01*
X83064Y141649D01*
X82963Y141698D01*
X82860Y141738D01*
X82755Y141769D01*
X82648Y141791D01*
X82538Y141804D01*
X82426Y141807D01*
X83693Y143074D01*
X83696Y142962D01*
D02*
G37*
G36*
X100250Y45935D02*
X100262Y45814D01*
X100282Y45699D01*
X100310Y45588D01*
X100346Y45482D01*
X100391Y45381D01*
X100443Y45285D01*
X100504Y45193D01*
X100572Y45107D01*
X100649Y45026D01*
X98858D01*
X98934Y45107D01*
X99003Y45193D01*
X99063Y45285D01*
X99116Y45381D01*
X99160Y45482D01*
X99197Y45588D01*
X99225Y45699D01*
X99245Y45814D01*
X99257Y45935D01*
X99261Y46060D01*
X100245D01*
X100250Y45935D01*
D02*
G37*
D10*
X88679Y163827D02*
X159760Y92746D01*
X88358Y163827D02*
X88679D01*
X81500Y153506D02*
Y163500D01*
Y153506D02*
X114500Y120505D01*
X77000Y155500D02*
X112500Y120000D01*
X77000Y155500D02*
Y162500D01*
X87000Y158500D02*
X91500D01*
X159760Y43240D02*
Y92746D01*
X132142Y46635D02*
Y113358D01*
X129753Y44247D02*
X132142Y46635D01*
X112500Y47234D02*
Y120000D01*
X109760Y44494D02*
X112500Y47234D01*
X114500Y49747D02*
Y120505D01*
Y49747D02*
X119753Y44494D01*
X91500Y158500D02*
X149753Y100247D01*
Y43365D02*
Y100247D01*
X90500Y155000D02*
X132142Y113358D01*
X82413Y143087D02*
X99753Y125747D01*
Y44112D02*
Y125747D01*
X141500Y145500D02*
X150454D01*
X44500Y163000D02*
Y166500D01*
X25173Y143673D02*
X44500Y163000D01*
X25173Y97327D02*
Y143673D01*
Y97327D02*
X27500Y95000D01*
X78500D01*
X89000Y84500D01*
Y71000D02*
Y84500D01*
X73500Y71000D02*
X89000D01*
X66597Y64097D02*
X73500Y71000D01*
X66597Y56108D02*
Y64097D01*
X53531Y26500D02*
X55000D01*
X32052Y47979D02*
X53531Y26500D01*
X32052Y47979D02*
Y67552D01*
X47000Y82500D01*
X79500D01*
X64500Y104500D02*
X64587Y104413D01*
X82000D01*
X28500Y132000D02*
X28800D01*
X41000Y144200D01*
X156057Y118000D02*
X186500D01*
X146557Y127500D02*
X156057Y118000D01*
Y114000D02*
X186500D01*
X146557Y123500D02*
X156057Y114000D01*
D11*
X23500Y146500D02*
X40500Y163500D01*
X23500Y51050D02*
Y146500D01*
Y51050D02*
X54873Y19677D01*
X58323D01*
X63500Y14500D01*
X55892Y72500D02*
X57892Y74500D01*
X85000D01*
X76547Y54047D02*
Y67000D01*
X57000Y27980D02*
Y40800D01*
Y27980D02*
X57461Y27519D01*
Y25481D02*
Y27519D01*
X57000Y25020D02*
X57461Y25481D01*
X57000Y23246D02*
Y25020D01*
X55892Y22138D02*
X57000Y23246D01*
Y40800D02*
X63300D01*
X76547Y54047D01*
X56761Y41039D02*
X57000Y40800D01*
X50481Y41039D02*
X56761D01*
X42481Y49039D02*
X50481Y41039D01*
X34611Y49039D02*
X42481D01*
X55892Y54500D02*
Y72500D01*
X51500Y50108D02*
X55892Y54500D01*
X51500Y43500D02*
Y50108D01*
X59905Y52406D02*
Y72000D01*
X54317Y46817D02*
X59905Y52406D01*
D32*
X128500Y74500D02*
D03*
X118500D02*
D03*
X108500D02*
D03*
X159753Y13500D02*
D03*
Y23500D02*
D03*
Y3500D02*
D03*
X149753D02*
D03*
X139753D02*
D03*
X129753D02*
D03*
X119753D02*
D03*
X109753D02*
D03*
X99753D02*
D03*
X89753D02*
D03*
X149753Y13500D02*
D03*
X139753D02*
D03*
X129753D02*
D03*
X119753D02*
D03*
X109753D02*
D03*
X99753D02*
D03*
X89753D02*
D03*
X149753Y23500D02*
D03*
X139753D02*
D03*
X129753D02*
D03*
X119753D02*
D03*
X109753D02*
D03*
X99753D02*
D03*
X89753D02*
D03*
D78*
X159000Y156500D02*
X191500Y124000D01*
Y94500D02*
Y124000D01*
X185500Y88500D02*
X191500Y94500D01*
X163000Y88500D02*
X185500D01*
X148000Y156500D02*
X159000D01*
X133500Y171000D02*
X148000Y156500D01*
X111500Y192000D02*
X112500D01*
X133500Y171000D01*
D80*
X10500Y10500D02*
D03*
X186500Y186500D02*
D03*
X185621Y11000D02*
D03*
X10500Y186000D02*
D03*
D81*
X159000Y156500D02*
D03*
Y166500D02*
D03*
Y176500D02*
D03*
Y186500D02*
D03*
D82*
X111500Y182000D02*
D03*
Y192000D02*
D03*
D83*
X88000Y107000D02*
D03*
X95000Y52904D02*
D03*
X94000Y62000D02*
D03*
X105500Y51945D02*
D03*
X105000Y57598D02*
D03*
X162894Y66720D02*
D03*
X163227Y71749D02*
D03*
X163306Y79000D02*
D03*
X156335Y57399D02*
D03*
X153444Y57272D02*
D03*
X172921Y76000D02*
D03*
X183176Y76607D02*
D03*
X189500Y76500D02*
D03*
X185756Y81657D02*
D03*
X191500D02*
D03*
X190000Y151897D02*
D03*
X188447Y169345D02*
D03*
X184995Y158000D02*
D03*
X180628Y152016D02*
D03*
X182000Y161248D02*
D03*
X171000Y188733D02*
D03*
X136500Y184356D02*
D03*
X134500Y190500D02*
D03*
X82000Y3373D02*
D03*
X82453Y8494D02*
D03*
X24000Y19000D02*
D03*
X17836Y24000D02*
D03*
X50694Y6500D02*
D03*
X45631D02*
D03*
X63438Y34697D02*
D03*
X67500Y32500D02*
D03*
X65790Y37723D02*
D03*
X69088Y41300D02*
D03*
X28500Y39007D02*
D03*
X67403Y50311D02*
D03*
X64152Y48559D02*
D03*
X71000Y79129D02*
D03*
X66877D02*
D03*
X49553Y78000D02*
D03*
X39510Y64199D02*
D03*
Y68611D02*
D03*
X31185Y89000D02*
D03*
X4500Y91500D02*
D03*
X30601Y75306D02*
D03*
X32500Y84000D02*
D03*
X5500Y75000D02*
D03*
Y84447D02*
D03*
X19441Y114678D02*
D03*
X15000Y116000D02*
D03*
X10413D02*
D03*
X44840Y123164D02*
D03*
X50000Y149068D02*
D03*
X45500D02*
D03*
X40994D02*
D03*
X44389Y128063D02*
D03*
X45000Y133500D02*
D03*
X72073Y138550D02*
D03*
X76751Y138400D02*
D03*
Y142088D02*
D03*
X12013Y135601D02*
D03*
X6780Y135893D02*
D03*
X11609Y142280D02*
D03*
X6214D02*
D03*
X69279Y151478D02*
D03*
X69702Y157107D02*
D03*
X69437Y162541D02*
D03*
X74000Y167456D02*
D03*
X69088Y167780D02*
D03*
X44500Y179332D02*
D03*
X34962Y179764D02*
D03*
X25400Y180000D02*
D03*
X43719Y187912D02*
D03*
X34962Y188000D02*
D03*
X25500Y188228D02*
D03*
X163000Y88500D02*
D03*
X133500Y171000D02*
D03*
X88358Y163827D02*
D03*
X81500Y163500D02*
D03*
X77000Y162500D02*
D03*
X87000Y158500D02*
D03*
X82413Y143087D02*
D03*
X90500Y155000D02*
D03*
X159760Y43240D02*
D03*
X149753Y43365D02*
D03*
X129753Y44247D02*
D03*
X119753Y44494D02*
D03*
X109760D02*
D03*
X99753Y44112D02*
D03*
X150454Y145500D02*
D03*
X141500D02*
D03*
X44500Y166500D02*
D03*
X40500Y163500D02*
D03*
X63500Y14500D02*
D03*
X66597Y56108D02*
D03*
X85000Y74500D02*
D03*
X76547Y67000D02*
D03*
X79500Y82500D02*
D03*
X55000Y26500D02*
D03*
X64500Y104500D02*
D03*
X82000Y104413D02*
D03*
X34611Y49039D02*
D03*
X59905Y72000D02*
D03*
X55892Y72500D02*
D03*
X51500Y43500D02*
D03*
X54317Y46817D02*
D03*
X57000Y40800D02*
D03*
X55892Y22138D02*
D03*
X41000Y144200D02*
D03*
X28500Y132000D02*
D03*
X186500Y118000D02*
D03*
Y114000D02*
D03*
X146557Y123500D02*
D03*
Y127500D02*
D03*
M02*
