G04*
G04 #@! TF.GenerationSoftware,Altium Limited,Altium Designer,18.1.8 (232)*
G04*
G04 Layer_Physical_Order=1*
G04 Layer_Color=255*
%FSLAX25Y25*%
%MOIN*%
G70*
G01*
G75*
%ADD10C,0.00984*%
%ADD11C,0.00787*%
%ADD20R,0.04724X0.01575*%
%ADD21R,0.03000X0.03000*%
%ADD22R,0.03543X0.03740*%
%ADD23R,0.03543X0.03740*%
%ADD24R,0.03000X0.03000*%
%ADD25R,0.05512X0.05512*%
%ADD26R,0.05906X0.05315*%
%ADD27R,0.03937X0.04331*%
%ADD28R,0.00906X0.05906*%
%ADD29R,0.05906X0.00906*%
%ADD30R,0.05118X0.03937*%
%ADD31R,0.04724X0.03937*%
%ADD32C,0.04724*%
%ADD33O,0.01181X0.07087*%
%ADD34O,0.07087X0.01181*%
G04:AMPARAMS|DCode=35|XSize=7.87mil|YSize=59.06mil|CornerRadius=3.94mil|HoleSize=0mil|Usage=FLASHONLY|Rotation=90.000|XOffset=0mil|YOffset=0mil|HoleType=Round|Shape=RoundedRectangle|*
%AMROUNDEDRECTD35*
21,1,0.00787,0.05118,0,0,90.0*
21,1,0.00000,0.05906,0,0,90.0*
1,1,0.00787,0.02559,0.00000*
1,1,0.00787,0.02559,0.00000*
1,1,0.00787,-0.02559,0.00000*
1,1,0.00787,-0.02559,0.00000*
%
%ADD35ROUNDEDRECTD35*%
%ADD36R,0.05906X0.00787*%
G04:AMPARAMS|DCode=37|XSize=7.87mil|YSize=59.06mil|CornerRadius=3.94mil|HoleSize=0mil|Usage=FLASHONLY|Rotation=0.000|XOffset=0mil|YOffset=0mil|HoleType=Round|Shape=RoundedRectangle|*
%AMROUNDEDRECTD37*
21,1,0.00787,0.05118,0,0,0.0*
21,1,0.00000,0.05906,0,0,0.0*
1,1,0.00787,0.00000,-0.02559*
1,1,0.00787,0.00000,-0.02559*
1,1,0.00787,0.00000,0.02559*
1,1,0.00787,0.00000,0.02559*
%
%ADD37ROUNDEDRECTD37*%
%ADD38R,0.00787X0.05906*%
%ADD39R,0.07087X0.02400*%
%ADD40R,0.05906X0.00984*%
%ADD41R,0.00984X0.05906*%
%ADD42R,0.06000X0.02362*%
%ADD43R,0.03937X0.05118*%
%ADD44R,0.03937X0.04724*%
%ADD45R,0.03937X0.02000*%
%ADD46R,0.05000X0.04000*%
%ADD78C,0.01575*%
%ADD79C,0.01181*%
%ADD80C,0.13780*%
%ADD81C,0.07874*%
%ADD82C,0.05906*%
%ADD83C,0.02559*%
G36*
X196000Y192000D02*
Y126663D01*
X195756Y126264D01*
X195500Y126264D01*
X190244D01*
Y120358D01*
X195500D01*
X195756Y120358D01*
X196000Y119959D01*
Y114852D01*
X195756Y114453D01*
X195500Y114453D01*
X190244D01*
Y108547D01*
X195500D01*
X195756Y108547D01*
X196000Y108148D01*
Y3000D01*
X193500Y500D01*
X162188D01*
X162018Y1000D01*
X162151Y1102D01*
X162690Y1804D01*
X163029Y2622D01*
X163079Y3000D01*
X159753D01*
Y3500D01*
X159253D01*
Y6825D01*
X158876Y6776D01*
X158058Y6437D01*
X157355Y5898D01*
X156863Y5256D01*
X156827Y5239D01*
X156692Y5186D01*
X156554Y5144D01*
X156412Y5115D01*
X156335Y5106D01*
X153172D01*
X153095Y5115D01*
X152953Y5144D01*
X152814Y5186D01*
X152679Y5239D01*
X152644Y5256D01*
X152151Y5898D01*
X151449Y6437D01*
X150631Y6776D01*
X150253Y6825D01*
Y3500D01*
X149253D01*
Y6825D01*
X148876Y6776D01*
X148058Y6437D01*
X147355Y5898D01*
X146863Y5256D01*
X146827Y5239D01*
X146692Y5186D01*
X146554Y5144D01*
X146412Y5115D01*
X146335Y5106D01*
X143172D01*
X143095Y5115D01*
X142953Y5144D01*
X142814Y5186D01*
X142679Y5239D01*
X142644Y5256D01*
X142151Y5898D01*
X141449Y6437D01*
X140631Y6776D01*
X140253Y6825D01*
Y3500D01*
X139253D01*
Y6825D01*
X138876Y6776D01*
X138058Y6437D01*
X137355Y5898D01*
X136863Y5256D01*
X136828Y5239D01*
X136692Y5186D01*
X136554Y5144D01*
X136412Y5115D01*
X136335Y5106D01*
X133172D01*
X133095Y5115D01*
X132953Y5144D01*
X132814Y5186D01*
X132679Y5239D01*
X132644Y5256D01*
X132151Y5898D01*
X131449Y6437D01*
X130631Y6776D01*
X130253Y6825D01*
Y3500D01*
X129253D01*
Y6825D01*
X128876Y6776D01*
X128058Y6437D01*
X127355Y5898D01*
X126863Y5256D01*
X126828Y5239D01*
X126692Y5186D01*
X126554Y5144D01*
X126412Y5115D01*
X126335Y5106D01*
X123172D01*
X123095Y5115D01*
X122953Y5144D01*
X122814Y5186D01*
X122679Y5239D01*
X122644Y5256D01*
X122151Y5898D01*
X121449Y6437D01*
X120631Y6776D01*
X120253Y6825D01*
Y3500D01*
X119253D01*
Y6825D01*
X118876Y6776D01*
X118058Y6437D01*
X117355Y5898D01*
X116863Y5256D01*
X116827Y5239D01*
X116692Y5186D01*
X116554Y5144D01*
X116412Y5115D01*
X116335Y5106D01*
X113172D01*
X113095Y5115D01*
X112953Y5144D01*
X112814Y5186D01*
X112679Y5239D01*
X112644Y5256D01*
X112151Y5898D01*
X111449Y6437D01*
X110631Y6776D01*
X110253Y6825D01*
Y3500D01*
X109253D01*
Y6825D01*
X108876Y6776D01*
X108058Y6437D01*
X107355Y5898D01*
X106863Y5256D01*
X106827Y5239D01*
X106692Y5186D01*
X106554Y5144D01*
X106412Y5115D01*
X106335Y5106D01*
X103172D01*
X103095Y5115D01*
X102953Y5144D01*
X102814Y5186D01*
X102679Y5239D01*
X102644Y5256D01*
X102151Y5898D01*
X101449Y6437D01*
X100631Y6776D01*
X100253Y6825D01*
Y3500D01*
X99253D01*
Y6825D01*
X98876Y6776D01*
X98058Y6437D01*
X97355Y5898D01*
X96863Y5256D01*
X96828Y5239D01*
X96692Y5186D01*
X96554Y5144D01*
X96412Y5115D01*
X96335Y5106D01*
X93172D01*
X93095Y5115D01*
X92953Y5144D01*
X92814Y5186D01*
X92679Y5239D01*
X92644Y5256D01*
X92151Y5898D01*
X91449Y6437D01*
X90631Y6776D01*
X90253Y6825D01*
Y3500D01*
X89753D01*
Y3000D01*
X86428D01*
X86478Y2622D01*
X86817Y1804D01*
X87355Y1102D01*
X87488Y1000D01*
X87319Y500D01*
X3000D01*
Y547D01*
X500Y3047D01*
Y193500D01*
X2500Y195500D01*
X109096D01*
X109266Y195000D01*
X108833Y194667D01*
X108233Y193886D01*
X107856Y192976D01*
X107728Y192000D01*
X107856Y191024D01*
X108233Y190114D01*
X108833Y189332D01*
X109614Y188733D01*
X110524Y188356D01*
X111500Y188228D01*
X112476Y188356D01*
X113386Y188733D01*
X114167Y189332D01*
X114767Y190114D01*
X115144Y191024D01*
X115272Y192000D01*
X115144Y192976D01*
X114767Y193886D01*
X114167Y194667D01*
X113734Y195000D01*
X113904Y195500D01*
X192500D01*
X196000Y192000D01*
D02*
G37*
G36*
X158066Y1846D02*
X157894Y2011D01*
X157717Y2158D01*
X157534Y2288D01*
X157346Y2401D01*
X157153Y2496D01*
X156954Y2574D01*
X156751Y2635D01*
X156542Y2678D01*
X156328Y2704D01*
X156109Y2713D01*
Y4287D01*
X156328Y4296D01*
X156542Y4322D01*
X156751Y4365D01*
X156954Y4426D01*
X157153Y4504D01*
X157346Y4599D01*
X157534Y4712D01*
X157717Y4842D01*
X157894Y4989D01*
X158066Y5153D01*
Y1846D01*
D02*
G37*
G36*
X151613Y4989D02*
X151790Y4842D01*
X151973Y4712D01*
X152161Y4599D01*
X152354Y4504D01*
X152553Y4426D01*
X152756Y4365D01*
X152965Y4322D01*
X153179Y4296D01*
X153398Y4287D01*
Y2713D01*
X153179Y2704D01*
X152965Y2678D01*
X152756Y2635D01*
X152553Y2574D01*
X152354Y2496D01*
X152161Y2401D01*
X151973Y2288D01*
X151790Y2158D01*
X151613Y2011D01*
X151440Y1846D01*
Y5153D01*
X151613Y4989D01*
D02*
G37*
G36*
X148066Y1846D02*
X147894Y2011D01*
X147716Y2158D01*
X147534Y2288D01*
X147346Y2401D01*
X147153Y2496D01*
X146954Y2574D01*
X146751Y2635D01*
X146542Y2678D01*
X146328Y2704D01*
X146109Y2713D01*
Y4287D01*
X146328Y4296D01*
X146542Y4322D01*
X146751Y4365D01*
X146954Y4426D01*
X147153Y4504D01*
X147346Y4599D01*
X147534Y4712D01*
X147716Y4842D01*
X147894Y4989D01*
X148066Y5153D01*
Y1846D01*
D02*
G37*
G36*
X141613Y4989D02*
X141790Y4842D01*
X141973Y4712D01*
X142161Y4599D01*
X142354Y4504D01*
X142553Y4426D01*
X142756Y4365D01*
X142965Y4322D01*
X143179Y4296D01*
X143398Y4287D01*
Y2713D01*
X143179Y2704D01*
X142965Y2678D01*
X142756Y2635D01*
X142553Y2574D01*
X142354Y2496D01*
X142161Y2401D01*
X141973Y2288D01*
X141790Y2158D01*
X141613Y2011D01*
X141440Y1846D01*
Y5153D01*
X141613Y4989D01*
D02*
G37*
G36*
X138066Y1846D02*
X137894Y2011D01*
X137716Y2158D01*
X137534Y2288D01*
X137346Y2401D01*
X137153Y2496D01*
X136954Y2574D01*
X136751Y2635D01*
X136542Y2678D01*
X136328Y2704D01*
X136109Y2713D01*
Y4287D01*
X136328Y4296D01*
X136542Y4322D01*
X136751Y4365D01*
X136954Y4426D01*
X137153Y4504D01*
X137346Y4599D01*
X137534Y4712D01*
X137716Y4842D01*
X137894Y4989D01*
X138066Y5153D01*
Y1846D01*
D02*
G37*
G36*
X131613Y4989D02*
X131790Y4842D01*
X131973Y4712D01*
X132161Y4599D01*
X132354Y4504D01*
X132553Y4426D01*
X132756Y4365D01*
X132965Y4322D01*
X133179Y4296D01*
X133398Y4287D01*
Y2713D01*
X133179Y2704D01*
X132965Y2678D01*
X132756Y2635D01*
X132553Y2574D01*
X132354Y2496D01*
X132161Y2401D01*
X131973Y2288D01*
X131790Y2158D01*
X131613Y2011D01*
X131440Y1846D01*
Y5153D01*
X131613Y4989D01*
D02*
G37*
G36*
X128067Y1846D02*
X127894Y2011D01*
X127717Y2158D01*
X127534Y2288D01*
X127346Y2401D01*
X127153Y2496D01*
X126954Y2574D01*
X126751Y2635D01*
X126542Y2678D01*
X126328Y2704D01*
X126109Y2713D01*
Y4287D01*
X126328Y4296D01*
X126542Y4322D01*
X126751Y4365D01*
X126954Y4426D01*
X127153Y4504D01*
X127346Y4599D01*
X127534Y4712D01*
X127717Y4842D01*
X127894Y4989D01*
X128067Y5153D01*
Y1846D01*
D02*
G37*
G36*
X121613Y4989D02*
X121790Y4842D01*
X121973Y4712D01*
X122161Y4599D01*
X122354Y4504D01*
X122553Y4426D01*
X122756Y4365D01*
X122965Y4322D01*
X123179Y4296D01*
X123398Y4287D01*
Y2713D01*
X123179Y2704D01*
X122965Y2678D01*
X122756Y2635D01*
X122553Y2574D01*
X122354Y2496D01*
X122161Y2401D01*
X121973Y2288D01*
X121790Y2158D01*
X121613Y2011D01*
X121440Y1846D01*
Y5153D01*
X121613Y4989D01*
D02*
G37*
G36*
X118067Y1846D02*
X117894Y2011D01*
X117717Y2158D01*
X117534Y2288D01*
X117346Y2401D01*
X117153Y2496D01*
X116954Y2574D01*
X116751Y2635D01*
X116542Y2678D01*
X116328Y2704D01*
X116109Y2713D01*
Y4287D01*
X116328Y4296D01*
X116542Y4322D01*
X116751Y4365D01*
X116954Y4426D01*
X117153Y4504D01*
X117346Y4599D01*
X117534Y4712D01*
X117717Y4842D01*
X117894Y4989D01*
X118067Y5153D01*
Y1846D01*
D02*
G37*
G36*
X111613Y4989D02*
X111790Y4842D01*
X111973Y4712D01*
X112161Y4599D01*
X112354Y4504D01*
X112553Y4426D01*
X112756Y4365D01*
X112965Y4322D01*
X113179Y4296D01*
X113398Y4287D01*
Y2713D01*
X113179Y2704D01*
X112965Y2678D01*
X112756Y2635D01*
X112553Y2574D01*
X112354Y2496D01*
X112161Y2401D01*
X111973Y2288D01*
X111790Y2158D01*
X111613Y2011D01*
X111440Y1846D01*
Y5153D01*
X111613Y4989D01*
D02*
G37*
G36*
X108066Y1846D02*
X107894Y2011D01*
X107717Y2158D01*
X107534Y2288D01*
X107346Y2401D01*
X107153Y2496D01*
X106954Y2574D01*
X106751Y2635D01*
X106542Y2678D01*
X106328Y2704D01*
X106109Y2713D01*
Y4287D01*
X106328Y4296D01*
X106542Y4322D01*
X106751Y4365D01*
X106954Y4426D01*
X107153Y4504D01*
X107346Y4599D01*
X107534Y4712D01*
X107717Y4842D01*
X107894Y4989D01*
X108066Y5153D01*
Y1846D01*
D02*
G37*
G36*
X101613Y4989D02*
X101790Y4842D01*
X101973Y4712D01*
X102161Y4599D01*
X102354Y4504D01*
X102553Y4426D01*
X102756Y4365D01*
X102965Y4322D01*
X103179Y4296D01*
X103398Y4287D01*
Y2713D01*
X103179Y2704D01*
X102965Y2678D01*
X102756Y2635D01*
X102553Y2574D01*
X102354Y2496D01*
X102161Y2401D01*
X101973Y2288D01*
X101790Y2158D01*
X101613Y2011D01*
X101440Y1846D01*
Y5153D01*
X101613Y4989D01*
D02*
G37*
G36*
X98066Y1846D02*
X97894Y2011D01*
X97716Y2158D01*
X97534Y2288D01*
X97346Y2401D01*
X97153Y2496D01*
X96954Y2574D01*
X96751Y2635D01*
X96542Y2678D01*
X96328Y2704D01*
X96109Y2713D01*
Y4287D01*
X96328Y4296D01*
X96542Y4322D01*
X96751Y4365D01*
X96954Y4426D01*
X97153Y4504D01*
X97346Y4599D01*
X97534Y4712D01*
X97716Y4842D01*
X97894Y4989D01*
X98066Y5153D01*
Y1846D01*
D02*
G37*
G36*
X91613Y4989D02*
X91790Y4842D01*
X91973Y4712D01*
X92161Y4599D01*
X92354Y4504D01*
X92553Y4426D01*
X92756Y4365D01*
X92965Y4322D01*
X93179Y4296D01*
X93398Y4287D01*
Y2713D01*
X93179Y2704D01*
X92965Y2678D01*
X92756Y2635D01*
X92553Y2574D01*
X92354Y2496D01*
X92161Y2401D01*
X91973Y2288D01*
X91790Y2158D01*
X91613Y2011D01*
X91440Y1846D01*
Y5153D01*
X91613Y4989D01*
D02*
G37*
%LPC*%
G36*
X80000Y192825D02*
X79622Y192776D01*
X78804Y192437D01*
X78102Y191898D01*
X77563Y191196D01*
X77406Y190815D01*
X76864Y190815D01*
X76751Y191088D01*
X76246Y191746D01*
X75588Y192251D01*
X74822Y192569D01*
X74000Y192677D01*
X73178Y192569D01*
X72412Y192251D01*
X71754Y191746D01*
X71249Y191088D01*
X71021Y190537D01*
X70479D01*
X70251Y191088D01*
X69746Y191746D01*
X69088Y192251D01*
X68322Y192569D01*
X67500Y192677D01*
X66678Y192569D01*
X65912Y192251D01*
X65254Y191746D01*
X64749Y191088D01*
X64521Y190537D01*
X63979D01*
X63751Y191088D01*
X63246Y191746D01*
X62588Y192251D01*
X61822Y192569D01*
X61000Y192677D01*
X60178Y192569D01*
X59412Y192251D01*
X58754Y191746D01*
X58249Y191088D01*
X57932Y190322D01*
X57823Y189500D01*
X57932Y188678D01*
X58249Y187912D01*
X58754Y187254D01*
X59412Y186749D01*
X59604Y186669D01*
X59625Y186651D01*
X59643Y186641D01*
X59646Y186634D01*
X59661Y186595D01*
X59677Y186531D01*
X59691Y186445D01*
X59695Y186399D01*
Y183397D01*
X56962Y180663D01*
X56500Y180855D01*
Y181000D01*
X54500D01*
Y179000D01*
X54645D01*
X54837Y178538D01*
X54729Y178431D01*
X54564Y178277D01*
X54433Y178171D01*
X54384Y178137D01*
X51706D01*
Y173563D01*
X56281D01*
Y174545D01*
X63196D01*
X63223Y174519D01*
X63310Y174428D01*
X63331Y174404D01*
Y171898D01*
X63391Y171597D01*
X63432Y170782D01*
Y148140D01*
X62616Y147324D01*
X61989Y147397D01*
X61932Y147490D01*
X61912Y147601D01*
X62007Y148079D01*
X61900Y148616D01*
X61602Y149063D01*
X61900Y149510D01*
X62007Y150047D01*
X61900Y150585D01*
X61602Y151031D01*
X61900Y151478D01*
X62007Y152016D01*
X61900Y152553D01*
X61602Y153000D01*
X61900Y153447D01*
X62007Y153984D01*
X61900Y154522D01*
X61602Y154969D01*
X61900Y155415D01*
X62007Y155953D01*
X61900Y156490D01*
X61602Y156937D01*
X61900Y157384D01*
X62007Y157921D01*
X61900Y158459D01*
X61602Y158905D01*
X61900Y159352D01*
X62007Y159890D01*
X61900Y160427D01*
X61602Y160874D01*
X61900Y161321D01*
X62007Y161858D01*
X61900Y162396D01*
X61602Y162843D01*
X61900Y163289D01*
X62007Y163827D01*
X61900Y164364D01*
X61602Y164811D01*
X61900Y165258D01*
X62007Y165795D01*
X61900Y166333D01*
X61602Y166779D01*
X61900Y167226D01*
X62007Y167764D01*
X61900Y168301D01*
X61596Y168757D01*
X61140Y169062D01*
X60602Y169169D01*
X54697D01*
X54159Y169062D01*
X53703Y168757D01*
X53399Y168301D01*
X53292Y167764D01*
X53305Y167698D01*
X52895Y167198D01*
X46468D01*
X46447Y167306D01*
X45990Y167990D01*
X45307Y168447D01*
X44500Y168607D01*
X43694Y168447D01*
X43010Y167990D01*
X42553Y167306D01*
X42393Y166500D01*
X42553Y165693D01*
X42767Y165374D01*
X42541Y164947D01*
X42072Y164935D01*
X42053Y164945D01*
X41998Y164979D01*
X41990Y164990D01*
X41874Y165068D01*
X41816Y165114D01*
X41770Y165137D01*
X41306Y165447D01*
X40500Y165607D01*
X39693Y165447D01*
X39010Y164990D01*
X38553Y164306D01*
X38393Y163500D01*
X38553Y162694D01*
X39010Y162010D01*
X39482Y161694D01*
X39330Y161194D01*
X30710D01*
X27415Y164489D01*
X26991Y164772D01*
X26787Y164813D01*
Y165535D01*
X19213D01*
Y164872D01*
X16587D01*
Y165854D01*
X12013D01*
Y161280D01*
X16587D01*
Y162262D01*
X19213D01*
Y161599D01*
X26180D01*
X26230Y161524D01*
X25963Y161024D01*
X23500D01*
Y158843D01*
Y156661D01*
X25963D01*
X26230Y156161D01*
X26180Y156087D01*
X19213D01*
Y155490D01*
X16587D01*
Y156473D01*
X12013D01*
Y151898D01*
X16587D01*
Y152881D01*
X19171D01*
X19213Y152872D01*
Y152150D01*
X26787D01*
Y152872D01*
X26991Y152913D01*
X27415Y153196D01*
X30836Y156617D01*
X35662D01*
X35853Y156155D01*
X25862Y146163D01*
X25400Y146355D01*
Y146500D01*
X23400D01*
Y144500D01*
X23545D01*
X23737Y144038D01*
X23629Y143931D01*
X23464Y143777D01*
X23333Y143671D01*
X23284Y143637D01*
X20606D01*
Y139063D01*
X21589D01*
Y137787D01*
X20613D01*
Y133213D01*
X25187D01*
Y137787D01*
X24198D01*
Y139063D01*
X25181D01*
Y141741D01*
X25209Y141780D01*
X25434Y142045D01*
X31123Y147735D01*
X31585Y147543D01*
Y124189D01*
X29650D01*
X29543Y124189D01*
X29150Y124446D01*
Y126189D01*
X22850D01*
Y124446D01*
X22457Y124189D01*
X22350Y124189D01*
X15764D01*
Y122738D01*
X14587D01*
Y123721D01*
X11429D01*
X11238Y124182D01*
X15601Y128545D01*
X20606D01*
Y127563D01*
X25181D01*
Y128545D01*
X26350D01*
X26849Y128645D01*
X27272Y128928D01*
X28143Y129798D01*
X28188Y129830D01*
X28232Y129856D01*
X28273Y129876D01*
X28313Y129891D01*
X28352Y129903D01*
X28392Y129911D01*
X28402Y129912D01*
X28500Y129893D01*
X29307Y130053D01*
X29990Y130510D01*
X30447Y131193D01*
X30607Y132000D01*
X30447Y132807D01*
X29990Y133490D01*
X29307Y133947D01*
X28500Y134107D01*
X27694Y133947D01*
X27010Y133490D01*
X26553Y132807D01*
X26393Y132000D01*
X26412Y131902D01*
X26411Y131892D01*
X26403Y131852D01*
X26391Y131813D01*
X26376Y131773D01*
X26356Y131732D01*
X26330Y131688D01*
X26298Y131643D01*
X25810Y131155D01*
X25181D01*
Y132137D01*
X20606D01*
Y131155D01*
X15060D01*
X14561Y131055D01*
X14138Y130772D01*
X7390Y124025D01*
X7224Y123870D01*
X7094Y123766D01*
X7037Y123727D01*
X6763D01*
X6746Y123730D01*
X6729Y123727D01*
X4363D01*
Y119152D01*
X5045D01*
Y110727D01*
X4063D01*
Y106152D01*
X6741D01*
X6780Y106124D01*
X7045Y105899D01*
X14388Y98556D01*
Y73800D01*
X13413D01*
Y71300D01*
Y68800D01*
X14345D01*
Y67937D01*
X10620D01*
Y63363D01*
X11609D01*
Y60887D01*
X8583D01*
Y56913D01*
X17244D01*
Y56913D01*
X17380Y56907D01*
X17473Y56693D01*
X17324Y56383D01*
X17142Y56200D01*
X13413D01*
Y54000D01*
Y51800D01*
X17015D01*
X17176Y51520D01*
X17015Y51239D01*
X13413D01*
Y49039D01*
Y46839D01*
X17185D01*
X17305Y46720D01*
X17513Y46363D01*
X17412Y46112D01*
X17244Y46106D01*
X17236Y46106D01*
X8583D01*
Y42131D01*
X17236D01*
X17244Y42131D01*
X17736Y42112D01*
Y40459D01*
X17836Y39960D01*
X18119Y39537D01*
X23427Y34227D01*
X23851Y33945D01*
X24350Y33845D01*
X38706D01*
Y32863D01*
X39748D01*
Y3047D01*
X39840Y2586D01*
X40101Y2196D01*
X40492Y1935D01*
X40953Y1843D01*
X76547D01*
X77008Y1935D01*
X77399Y2196D01*
X77660Y2586D01*
X77751Y3047D01*
Y12753D01*
X77660Y13214D01*
X77399Y13604D01*
X77399Y13604D01*
X74476Y16526D01*
X74404Y16605D01*
X74413Y16812D01*
X74534Y17134D01*
X74594Y17144D01*
X74712Y17154D01*
X89457D01*
X89475Y17144D01*
X89501Y16644D01*
X89443Y16636D01*
X88931Y16568D01*
X88165Y16251D01*
X87507Y15746D01*
X87002Y15088D01*
X86685Y14322D01*
X86577Y13500D01*
X86685Y12678D01*
X87002Y11912D01*
X87507Y11254D01*
X88165Y10749D01*
X88931Y10431D01*
X89753Y10323D01*
X90576Y10431D01*
X91342Y10749D01*
X92000Y11254D01*
X92048Y11317D01*
X92147Y11411D01*
X92280Y11521D01*
X92413Y11616D01*
X92546Y11695D01*
X92679Y11761D01*
X92814Y11814D01*
X92953Y11856D01*
X93095Y11885D01*
X93172Y11894D01*
X96335D01*
X96412Y11885D01*
X96554Y11856D01*
X96692Y11814D01*
X96828Y11761D01*
X96961Y11695D01*
X97094Y11616D01*
X97227Y11521D01*
X97360Y11411D01*
X97459Y11317D01*
X97507Y11254D01*
X98165Y10749D01*
X98931Y10431D01*
X99753Y10323D01*
X100576Y10431D01*
X101342Y10749D01*
X102000Y11254D01*
X102048Y11317D01*
X102147Y11411D01*
X102280Y11521D01*
X102412Y11616D01*
X102546Y11695D01*
X102679Y11761D01*
X102814Y11814D01*
X102953Y11856D01*
X103095Y11885D01*
X103172Y11894D01*
X106335D01*
X106412Y11885D01*
X106554Y11856D01*
X106692Y11814D01*
X106828Y11761D01*
X106961Y11695D01*
X107094Y11616D01*
X107227Y11521D01*
X107360Y11411D01*
X107459Y11317D01*
X107507Y11254D01*
X108165Y10749D01*
X108931Y10431D01*
X109753Y10323D01*
X110576Y10431D01*
X111342Y10749D01*
X112000Y11254D01*
X112048Y11317D01*
X112147Y11411D01*
X112280Y11521D01*
X112413Y11616D01*
X112546Y11695D01*
X112679Y11761D01*
X112814Y11814D01*
X112953Y11856D01*
X113095Y11885D01*
X113172Y11894D01*
X116335D01*
X116412Y11885D01*
X116554Y11856D01*
X116692Y11814D01*
X116828Y11761D01*
X116961Y11695D01*
X117094Y11616D01*
X117227Y11521D01*
X117360Y11411D01*
X117459Y11317D01*
X117507Y11254D01*
X118165Y10749D01*
X118931Y10431D01*
X119753Y10323D01*
X120576Y10431D01*
X121342Y10749D01*
X122000Y11254D01*
X122048Y11317D01*
X122147Y11411D01*
X122280Y11521D01*
X122413Y11616D01*
X122546Y11695D01*
X122679Y11761D01*
X122814Y11814D01*
X122953Y11856D01*
X123095Y11885D01*
X123172Y11894D01*
X126335D01*
X126412Y11885D01*
X126554Y11856D01*
X126692Y11814D01*
X126828Y11761D01*
X126961Y11695D01*
X127094Y11616D01*
X127227Y11521D01*
X127360Y11411D01*
X127459Y11317D01*
X127507Y11254D01*
X128165Y10749D01*
X128931Y10431D01*
X129753Y10323D01*
X130576Y10431D01*
X131342Y10749D01*
X132000Y11254D01*
X132048Y11317D01*
X132147Y11411D01*
X132280Y11521D01*
X132413Y11616D01*
X132546Y11695D01*
X132679Y11761D01*
X132814Y11814D01*
X132953Y11856D01*
X133095Y11885D01*
X133172Y11894D01*
X136335D01*
X136412Y11885D01*
X136554Y11856D01*
X136692Y11814D01*
X136828Y11761D01*
X136961Y11695D01*
X137094Y11616D01*
X137227Y11521D01*
X137360Y11411D01*
X137459Y11317D01*
X137507Y11254D01*
X138165Y10749D01*
X138931Y10431D01*
X139753Y10323D01*
X140576Y10431D01*
X141342Y10749D01*
X142000Y11254D01*
X142048Y11317D01*
X142147Y11411D01*
X142280Y11521D01*
X142412Y11616D01*
X142546Y11695D01*
X142679Y11761D01*
X142814Y11814D01*
X142953Y11856D01*
X143095Y11885D01*
X143172Y11894D01*
X146335D01*
X146412Y11885D01*
X146554Y11856D01*
X146692Y11814D01*
X146828Y11761D01*
X146961Y11695D01*
X147094Y11616D01*
X147227Y11521D01*
X147360Y11411D01*
X147459Y11317D01*
X147507Y11254D01*
X148165Y10749D01*
X148931Y10431D01*
X149753Y10323D01*
X150576Y10431D01*
X151342Y10749D01*
X152000Y11254D01*
X152048Y11317D01*
X152147Y11411D01*
X152280Y11521D01*
X152412Y11616D01*
X152546Y11695D01*
X152679Y11761D01*
X152814Y11814D01*
X152953Y11856D01*
X153095Y11885D01*
X153172Y11894D01*
X156335D01*
X156412Y11885D01*
X156554Y11856D01*
X156692Y11814D01*
X156828Y11761D01*
X156961Y11695D01*
X157094Y11616D01*
X157227Y11521D01*
X157360Y11411D01*
X157459Y11317D01*
X157507Y11254D01*
X158165Y10749D01*
X158931Y10431D01*
X159753Y10323D01*
X160576Y10431D01*
X161342Y10749D01*
X161432Y10818D01*
X161434Y10819D01*
X161828Y11047D01*
X161991Y11125D01*
X162161Y11196D01*
X162328Y11255D01*
X162492Y11303D01*
X162655Y11339D01*
X162816Y11365D01*
X162873Y11371D01*
X172969D01*
X172969Y11371D01*
X173583Y11493D01*
X174104Y11841D01*
X181044Y18781D01*
X183102D01*
X183176Y18281D01*
X182669Y18127D01*
X181335Y17414D01*
X180166Y16455D01*
X179207Y15286D01*
X178494Y13952D01*
X178055Y12505D01*
X177907Y11000D01*
X178055Y9495D01*
X178494Y8048D01*
X179207Y6714D01*
X180166Y5545D01*
X181335Y4586D01*
X182669Y3873D01*
X184116Y3434D01*
X185621Y3286D01*
X187126Y3434D01*
X188573Y3873D01*
X189907Y4586D01*
X191076Y5545D01*
X192035Y6714D01*
X192748Y8048D01*
X193187Y9495D01*
X193335Y11000D01*
X193187Y12505D01*
X192748Y13952D01*
X192035Y15286D01*
X191076Y16455D01*
X189907Y17414D01*
X188573Y18127D01*
X187126Y18566D01*
X186694Y18609D01*
X186565Y19124D01*
X186756Y19251D01*
X193106Y25601D01*
X193454Y26122D01*
X193577Y26737D01*
Y40329D01*
X193454Y40944D01*
X193106Y41464D01*
X193106Y41464D01*
X180892Y53679D01*
X180628Y53963D01*
X180439Y54198D01*
X180295Y54404D01*
X180287Y54417D01*
Y56587D01*
X176529D01*
X176512Y56591D01*
X176495Y56587D01*
X175713D01*
Y55969D01*
X175588Y55939D01*
X175414Y55914D01*
X175312Y55906D01*
X169468D01*
Y57000D01*
X166500D01*
Y58000D01*
X169468D01*
Y59500D01*
X169256D01*
Y60120D01*
X169273Y60126D01*
X169393Y60158D01*
X169562Y60185D01*
X169675Y60194D01*
X184290D01*
X184408Y60184D01*
X184577Y60156D01*
X184697Y60124D01*
X184713Y60118D01*
Y59013D01*
X191287D01*
Y64587D01*
X184713D01*
Y63482D01*
X184697Y63476D01*
X184577Y63444D01*
X184408Y63416D01*
X184290Y63406D01*
X168110D01*
X168106Y63450D01*
Y94000D01*
X168106Y94000D01*
X167983Y94614D01*
X167635Y95135D01*
X167635Y95135D01*
X164346Y98425D01*
Y101787D01*
X164367Y101975D01*
X164410Y102204D01*
X164471Y102424D01*
X164500Y102503D01*
X165000Y102414D01*
Y100000D01*
X167000D01*
Y102500D01*
X167500D01*
Y103000D01*
X170000D01*
Y105000D01*
X167342D01*
X167146Y105500D01*
X167167Y105519D01*
X167401Y105707D01*
X167606Y105849D01*
X167630Y105863D01*
X168228D01*
X168245Y105859D01*
X168263Y105863D01*
X169794D01*
Y108541D01*
X169822Y108580D01*
X170047Y108845D01*
X172184Y110983D01*
X172921D01*
Y110713D01*
X173703D01*
X173721Y110709D01*
X173738Y110713D01*
X178071D01*
X178333Y110213D01*
X178198Y109531D01*
X178350Y108763D01*
X178555Y108457D01*
X178288Y107957D01*
X174890D01*
Y100870D01*
X181976D01*
Y107957D01*
X181976Y107957D01*
X181976D01*
X181854Y108457D01*
X182059Y108763D01*
X182212Y109531D01*
X182059Y110300D01*
X181624Y110951D01*
X180973Y111386D01*
X180205Y111539D01*
X179720Y111442D01*
X179220Y111797D01*
Y113542D01*
X184484D01*
X184553Y113194D01*
X185010Y112510D01*
X185694Y112053D01*
X186500Y111893D01*
X187306Y112053D01*
X187990Y112510D01*
X188447Y113194D01*
X188607Y114000D01*
X188447Y114806D01*
X187990Y115490D01*
X187677Y115699D01*
Y116301D01*
X187990Y116510D01*
X188447Y117193D01*
X188607Y118000D01*
X188447Y118807D01*
X187990Y119490D01*
X187306Y119947D01*
X186500Y120107D01*
X185694Y119947D01*
X185010Y119490D01*
X184553Y118807D01*
X184534Y118710D01*
X179220D01*
Y120736D01*
X179433D01*
Y122024D01*
X176071D01*
X172709D01*
Y120736D01*
X172921D01*
Y118390D01*
Y113592D01*
X171644D01*
X171145Y113493D01*
X170721Y113210D01*
X168242Y110731D01*
X168077Y110577D01*
X167946Y110471D01*
X167897Y110437D01*
X165219D01*
Y108906D01*
X165216Y108889D01*
X165219Y108872D01*
Y108273D01*
X165205Y108249D01*
X165069Y108054D01*
X164684Y107598D01*
X161605Y104519D01*
X161605Y104519D01*
X156841Y99756D01*
X146194D01*
X146093Y99764D01*
X145919Y99789D01*
X145794Y99819D01*
Y100437D01*
X145012D01*
X144994Y100441D01*
X144811Y100882D01*
Y105719D01*
X145937D01*
Y108864D01*
X146399Y109056D01*
X146715Y108740D01*
X146870Y108574D01*
X146973Y108444D01*
X147013Y108387D01*
Y108113D01*
X147009Y108096D01*
X147013Y108079D01*
Y105713D01*
X151587D01*
Y110287D01*
X149221D01*
X149204Y110291D01*
X149187Y110287D01*
X148913D01*
X148865Y110320D01*
X148601Y110544D01*
X147861Y111284D01*
Y111988D01*
X157679D01*
Y118993D01*
X157679Y119449D01*
X158111Y119449D01*
X165100D01*
Y121417D01*
Y125354D01*
Y129331D01*
Y133780D01*
X158131D01*
X157639Y133799D01*
X157639Y134271D01*
Y141279D01*
X151759D01*
Y143690D01*
X151768Y143745D01*
X151781Y143794D01*
X151796Y143838D01*
X151813Y143877D01*
X151832Y143912D01*
X151855Y143946D01*
X151861Y143954D01*
X151944Y144010D01*
X152401Y144694D01*
X152562Y145500D01*
X152401Y146307D01*
X151944Y146990D01*
X151261Y147447D01*
X150454Y147607D01*
X149648Y147447D01*
X148964Y146990D01*
X148507Y146307D01*
X148464Y146088D01*
X147921Y145924D01*
X136970Y156875D01*
X136547Y157158D01*
X136047Y157257D01*
X126638D01*
X126500Y157700D01*
X126500D01*
Y159700D01*
X124000D01*
Y160700D01*
X126500D01*
Y161711D01*
X155516D01*
X156015Y161811D01*
X156438Y162093D01*
X156553Y162208D01*
X156600Y162246D01*
X156664Y162286D01*
X156710Y162309D01*
X156737Y162319D01*
X156745Y162320D01*
X157767Y161897D01*
X158644Y161782D01*
X158868Y161752D01*
Y161248D01*
X158644Y161218D01*
X157767Y161103D01*
X156617Y160627D01*
X155631Y159870D01*
X154873Y158883D01*
X154397Y157733D01*
X154235Y156500D01*
X154397Y155267D01*
X154873Y154117D01*
X155631Y153130D01*
X156617Y152373D01*
X157767Y151897D01*
X159000Y151735D01*
X160233Y151897D01*
X161383Y152373D01*
X162370Y153130D01*
X163127Y154117D01*
X163603Y155267D01*
X163765Y156500D01*
X163603Y157733D01*
X163127Y158883D01*
X162370Y159870D01*
X161383Y160627D01*
X160233Y161103D01*
X159356Y161218D01*
X159132Y161248D01*
Y161752D01*
X159356Y161782D01*
X160233Y161897D01*
X161383Y162373D01*
X162370Y163130D01*
X163127Y164117D01*
X163603Y165267D01*
X163765Y166500D01*
X163603Y167733D01*
X163127Y168883D01*
X162370Y169869D01*
X161383Y170627D01*
X160233Y171103D01*
X159356Y171218D01*
X159132Y171248D01*
Y171752D01*
X159356Y171782D01*
X160233Y171897D01*
X161383Y172373D01*
X162370Y173131D01*
X163127Y174117D01*
X163603Y175267D01*
X163765Y176500D01*
X163603Y177733D01*
X163127Y178883D01*
X162370Y179869D01*
X161383Y180627D01*
X160233Y181103D01*
X159946Y181141D01*
Y181645D01*
X160289Y181690D01*
X161490Y182187D01*
X162521Y182979D01*
X163312Y184010D01*
X163810Y185211D01*
X163914Y186000D01*
X159000D01*
X154086D01*
X154190Y185211D01*
X154688Y184010D01*
X155479Y182979D01*
X156510Y182187D01*
X157711Y181690D01*
X158054Y181645D01*
Y181141D01*
X157767Y181103D01*
X156617Y180627D01*
X155631Y179869D01*
X154873Y178883D01*
X154576Y178166D01*
X154544Y178116D01*
X154370Y177668D01*
X154197Y177298D01*
X154021Y176984D01*
X153844Y176727D01*
X153670Y176526D01*
X153503Y176376D01*
X153345Y176270D01*
X153193Y176202D01*
X153040Y176162D01*
X152958Y176155D01*
X106500D01*
Y177700D01*
X104000D01*
X101500D01*
Y176155D01*
X95669D01*
Y177803D01*
X95562Y178341D01*
X95257Y178797D01*
X94801Y179101D01*
X94264Y179208D01*
X93726Y179101D01*
X93279Y178803D01*
X92833Y179101D01*
X92295Y179208D01*
X91758Y179101D01*
X91311Y178803D01*
X90864Y179101D01*
X90327Y179208D01*
X89789Y179101D01*
X89342Y178803D01*
X88896Y179101D01*
X88358Y179208D01*
X87821Y179101D01*
X87374Y178803D01*
X86927Y179101D01*
X86390Y179208D01*
X85852Y179101D01*
X85405Y178803D01*
X84959Y179101D01*
X84421Y179208D01*
X83884Y179101D01*
X83437Y178803D01*
X82990Y179101D01*
X82453Y179208D01*
X81915Y179101D01*
X81468Y178803D01*
X81022Y179101D01*
X80484Y179208D01*
X79947Y179101D01*
X79500Y178803D01*
X79053Y179101D01*
X78516Y179208D01*
X77978Y179101D01*
X77531Y178803D01*
X77085Y179101D01*
X76547Y179208D01*
X76010Y179101D01*
X75994Y179091D01*
X75844Y179161D01*
X75740Y179764D01*
X78521Y182545D01*
X101719D01*
Y181563D01*
X104444D01*
X104580Y181431D01*
X104811Y181200D01*
X104644Y180717D01*
X104631Y180700D01*
X104500D01*
Y178700D01*
X106500D01*
Y180420D01*
X107000Y180677D01*
X107036Y180670D01*
X107185Y180619D01*
X107360Y180539D01*
X107558Y180428D01*
X107776Y180284D01*
X108005Y180112D01*
X108541Y179644D01*
X108757Y179431D01*
X108833Y179332D01*
X109614Y178733D01*
X110524Y178356D01*
X111500Y178228D01*
X112476Y178356D01*
X113386Y178733D01*
X114167Y179332D01*
X114767Y180114D01*
X115144Y181024D01*
X115272Y182000D01*
X115144Y182976D01*
X114767Y183886D01*
X114167Y184668D01*
X113386Y185267D01*
X112476Y185644D01*
X111500Y185772D01*
X110524Y185644D01*
X109614Y185267D01*
X108833Y184668D01*
X108757Y184569D01*
X108541Y184356D01*
X108005Y183888D01*
X107776Y183716D01*
X107558Y183572D01*
X107360Y183461D01*
X107185Y183381D01*
X107036Y183330D01*
X106915Y183305D01*
X106397D01*
X106294Y183408D01*
Y186137D01*
X101719D01*
Y185155D01*
X77981D01*
X77482Y185055D01*
X77058Y184773D01*
X75766Y183481D01*
X75305Y183672D01*
Y186399D01*
X75309Y186445D01*
X75323Y186531D01*
X75339Y186595D01*
X75354Y186634D01*
X75357Y186641D01*
X75375Y186651D01*
X75396Y186669D01*
X75588Y186749D01*
X76246Y187254D01*
X76751Y187912D01*
X76864Y188185D01*
X77406Y188185D01*
X77563Y187804D01*
X78102Y187102D01*
X78804Y186563D01*
X79622Y186224D01*
X80000Y186175D01*
Y189500D01*
Y192825D01*
D02*
G37*
G36*
X81000D02*
Y190000D01*
X83825D01*
X83776Y190378D01*
X83437Y191196D01*
X82898Y191898D01*
X82196Y192437D01*
X81378Y192776D01*
X81000Y192825D01*
D02*
G37*
G36*
X159500Y191414D02*
Y187000D01*
X163914D01*
X163810Y187789D01*
X163312Y188990D01*
X162521Y190021D01*
X161490Y190813D01*
X160289Y191310D01*
X159500Y191414D01*
D02*
G37*
G36*
X158500D02*
X157711Y191310D01*
X156510Y190813D01*
X155479Y190021D01*
X154688Y188990D01*
X154190Y187789D01*
X154086Y187000D01*
X158500D01*
Y191414D01*
D02*
G37*
G36*
X83825Y189000D02*
X81000D01*
Y186175D01*
X81378Y186224D01*
X82196Y186563D01*
X82898Y187102D01*
X83437Y187804D01*
X83776Y188622D01*
X83825Y189000D01*
D02*
G37*
G36*
X56500Y184000D02*
X54500D01*
Y182000D01*
X56500D01*
Y184000D01*
D02*
G37*
G36*
X53500D02*
X51500D01*
Y182000D01*
X53500D01*
Y184000D01*
D02*
G37*
G36*
Y181000D02*
X51500D01*
Y179000D01*
X53500D01*
Y181000D01*
D02*
G37*
G36*
X186500Y194214D02*
X184995Y194066D01*
X183548Y193627D01*
X182214Y192914D01*
X181045Y191955D01*
X180086Y190786D01*
X179373Y189452D01*
X178934Y188005D01*
X178786Y186500D01*
X178934Y184995D01*
X179373Y183548D01*
X180086Y182214D01*
X181045Y181045D01*
X182214Y180086D01*
X183548Y179373D01*
X184995Y178934D01*
X186500Y178786D01*
X188005Y178934D01*
X189452Y179373D01*
X190786Y180086D01*
X191955Y181045D01*
X192914Y182214D01*
X193627Y183548D01*
X194066Y184995D01*
X194214Y186500D01*
X194066Y188005D01*
X193627Y189452D01*
X192914Y190786D01*
X191955Y191955D01*
X190786Y192914D01*
X189452Y193627D01*
X188005Y194066D01*
X186500Y194214D01*
D02*
G37*
G36*
X103500Y180700D02*
X101500D01*
Y178700D01*
X103500D01*
Y180700D01*
D02*
G37*
G36*
X10500Y193714D02*
X8995Y193566D01*
X7548Y193127D01*
X6214Y192414D01*
X5045Y191455D01*
X4086Y190286D01*
X3373Y188952D01*
X2934Y187505D01*
X2786Y186000D01*
X2934Y184495D01*
X3373Y183048D01*
X4086Y181714D01*
X5045Y180545D01*
X6214Y179586D01*
X7548Y178873D01*
X8995Y178434D01*
X10500Y178286D01*
X12005Y178434D01*
X13452Y178873D01*
X14786Y179586D01*
X15955Y180545D01*
X16914Y181714D01*
X17627Y183048D01*
X18066Y184495D01*
X18214Y186000D01*
X18066Y187505D01*
X17627Y188952D01*
X16914Y190286D01*
X15955Y191455D01*
X14786Y192414D01*
X13452Y193127D01*
X12005Y193566D01*
X10500Y193714D01*
D02*
G37*
G36*
X11150Y166073D02*
X9150D01*
Y164073D01*
X11150D01*
Y166073D01*
D02*
G37*
G36*
X8150D02*
X6150D01*
Y164073D01*
X8150D01*
Y166073D01*
D02*
G37*
G36*
X11150Y163073D02*
X9150D01*
Y161073D01*
X11150D01*
Y163073D01*
D02*
G37*
G36*
X8150D02*
X6150D01*
Y161073D01*
X8150D01*
Y163073D01*
D02*
G37*
G36*
X22500Y161024D02*
X19000D01*
Y159343D01*
X22500D01*
Y161024D01*
D02*
G37*
G36*
Y158343D02*
X19000D01*
Y156661D01*
X22500D01*
Y158343D01*
D02*
G37*
G36*
X11150Y156692D02*
X9150D01*
Y154691D01*
X11150D01*
Y156692D01*
D02*
G37*
G36*
X8150D02*
X6150D01*
Y154691D01*
X8150D01*
Y156692D01*
D02*
G37*
G36*
X11150Y153691D02*
X9150D01*
Y151691D01*
X11150D01*
Y153691D01*
D02*
G37*
G36*
X8150D02*
X6150D01*
Y151691D01*
X8150D01*
Y153691D01*
D02*
G37*
G36*
X25400Y149500D02*
X23400D01*
Y147500D01*
X25400D01*
Y149500D01*
D02*
G37*
G36*
X22400D02*
X20400D01*
Y147500D01*
X22400D01*
Y149500D01*
D02*
G37*
G36*
Y146500D02*
X20400D01*
Y144500D01*
X22400D01*
Y146500D01*
D02*
G37*
G36*
X192252Y136598D02*
X184772D01*
Y129709D01*
X192252D01*
Y136598D01*
D02*
G37*
G36*
X181976Y133941D02*
X174890D01*
Y126854D01*
X178288D01*
X178555Y126354D01*
X178350Y126048D01*
X178198Y125279D01*
X178291Y124811D01*
X177929Y124311D01*
X176571D01*
Y123024D01*
X179564D01*
X179933Y123327D01*
X180205Y123273D01*
X180973Y123425D01*
X181624Y123860D01*
X182059Y124512D01*
X182212Y125279D01*
X182059Y126048D01*
X181854Y126354D01*
X181976Y126854D01*
X181976D01*
X181976Y126854D01*
Y133941D01*
D02*
G37*
G36*
X175571Y124311D02*
X172709D01*
Y123024D01*
X175571D01*
Y124311D01*
D02*
G37*
G36*
X170000Y102000D02*
X168000D01*
Y100000D01*
X170000D01*
Y102000D01*
D02*
G37*
G36*
X192252Y105102D02*
X184772D01*
Y98213D01*
X192252D01*
Y105102D01*
D02*
G37*
G36*
X12413Y73800D02*
X10413D01*
Y71800D01*
X12413D01*
Y73800D01*
D02*
G37*
G36*
X191500Y72500D02*
X188500D01*
Y70000D01*
X191500D01*
Y72500D01*
D02*
G37*
G36*
X187500D02*
X184500D01*
Y70000D01*
X187500D01*
Y72500D01*
D02*
G37*
G36*
X12413Y70800D02*
X10413D01*
Y68800D01*
X12413D01*
Y70800D01*
D02*
G37*
G36*
X191500Y69000D02*
X188500D01*
Y66500D01*
X191500D01*
Y69000D01*
D02*
G37*
G36*
X187500D02*
X184500D01*
Y66500D01*
X187500D01*
Y69000D01*
D02*
G37*
G36*
X12413Y56200D02*
X8370D01*
Y54500D01*
X12413D01*
Y56200D01*
D02*
G37*
G36*
Y53500D02*
X8370D01*
Y51800D01*
X12413D01*
Y53500D01*
D02*
G37*
G36*
Y51239D02*
X8370D01*
Y49539D01*
X12413D01*
Y51239D01*
D02*
G37*
G36*
Y48539D02*
X8370D01*
Y46839D01*
X12413D01*
Y48539D01*
D02*
G37*
G36*
X160253Y6825D02*
Y4000D01*
X163079D01*
X163029Y4378D01*
X162690Y5196D01*
X162151Y5898D01*
X161449Y6437D01*
X160631Y6776D01*
X160253Y6825D01*
D02*
G37*
G36*
X89253D02*
X88876Y6776D01*
X88058Y6437D01*
X87355Y5898D01*
X86817Y5196D01*
X86478Y4378D01*
X86428Y4000D01*
X89253D01*
Y6825D01*
D02*
G37*
G36*
X10500Y18214D02*
X8995Y18066D01*
X7548Y17627D01*
X6214Y16914D01*
X5045Y15955D01*
X4086Y14786D01*
X3373Y13452D01*
X2934Y12005D01*
X2786Y10500D01*
X2934Y8995D01*
X3373Y7548D01*
X4086Y6214D01*
X5045Y5045D01*
X6214Y4086D01*
X7548Y3373D01*
X8995Y2934D01*
X10500Y2786D01*
X12005Y2934D01*
X13452Y3373D01*
X14786Y4086D01*
X15955Y5045D01*
X16914Y6214D01*
X17627Y7548D01*
X18066Y8995D01*
X18214Y10500D01*
X18066Y12005D01*
X17627Y13452D01*
X16914Y14786D01*
X15955Y15955D01*
X14786Y16914D01*
X13452Y17627D01*
X12005Y18066D01*
X10500Y18214D01*
D02*
G37*
%LPD*%
G36*
X74891Y187301D02*
X74807Y187234D01*
X74733Y187155D01*
X74669Y187061D01*
X74615Y186953D01*
X74571Y186831D01*
X74536Y186696D01*
X74512Y186546D01*
X74497Y186383D01*
X74492Y186205D01*
X73508D01*
X73503Y186383D01*
X73488Y186546D01*
X73464Y186696D01*
X73429Y186831D01*
X73385Y186953D01*
X73331Y187061D01*
X73267Y187155D01*
X73193Y187234D01*
X73109Y187301D01*
X73016Y187353D01*
X74984D01*
X74891Y187301D01*
D02*
G37*
G36*
X68391D02*
X68307Y187234D01*
X68233Y187155D01*
X68169Y187061D01*
X68115Y186953D01*
X68071Y186831D01*
X68036Y186696D01*
X68012Y186546D01*
X67997Y186383D01*
X67992Y186205D01*
X67008D01*
X67003Y186383D01*
X66988Y186546D01*
X66964Y186696D01*
X66929Y186831D01*
X66885Y186953D01*
X66831Y187061D01*
X66767Y187155D01*
X66693Y187234D01*
X66609Y187301D01*
X66516Y187353D01*
X68484D01*
X68391Y187301D01*
D02*
G37*
G36*
X61891D02*
X61807Y187234D01*
X61733Y187155D01*
X61669Y187061D01*
X61615Y186953D01*
X61571Y186831D01*
X61536Y186696D01*
X61512Y186546D01*
X61497Y186383D01*
X61492Y186205D01*
X60508D01*
X60503Y186383D01*
X60488Y186546D01*
X60464Y186696D01*
X60429Y186831D01*
X60385Y186953D01*
X60331Y187061D01*
X60267Y187155D01*
X60193Y187234D01*
X60109Y187301D01*
X60016Y187353D01*
X61984D01*
X61891Y187301D01*
D02*
G37*
G36*
X102530Y182866D02*
X102520Y182959D01*
X102491Y183043D01*
X102441Y183117D01*
X102371Y183181D01*
X102281Y183235D01*
X102172Y183279D01*
X102042Y183314D01*
X101893Y183338D01*
X101723Y183353D01*
X101534Y183358D01*
Y184342D01*
X101723Y184347D01*
X101893Y184362D01*
X102042Y184386D01*
X102172Y184421D01*
X102281Y184465D01*
X102371Y184519D01*
X102441Y184583D01*
X102491Y184657D01*
X102520Y184741D01*
X102530Y184834D01*
Y182866D01*
D02*
G37*
G36*
X105499Y183076D02*
X105518Y183053D01*
X105599Y182963D01*
X106190Y182362D01*
X105494Y181666D01*
X104770Y182362D01*
X105494Y183086D01*
X105499Y183076D01*
D02*
G37*
G36*
X109391Y179933D02*
X109088Y180232D01*
X108511Y180736D01*
X108238Y180941D01*
X107976Y181114D01*
X107724Y181256D01*
X107482Y181366D01*
X107250Y181445D01*
X107028Y181492D01*
X106817Y181508D01*
Y182492D01*
X107028Y182508D01*
X107250Y182555D01*
X107482Y182634D01*
X107724Y182744D01*
X107976Y182886D01*
X108238Y183059D01*
X108511Y183264D01*
X109088Y183768D01*
X109391Y184067D01*
Y179933D01*
D02*
G37*
G36*
X64749Y187912D02*
X65254Y187254D01*
X65912Y186749D01*
X66104Y186669D01*
X66125Y186651D01*
X66143Y186641D01*
X66146Y186634D01*
X66161Y186595D01*
X66177Y186531D01*
X66191Y186445D01*
X66195Y186399D01*
Y179653D01*
X66258Y179336D01*
X66084Y179301D01*
X65558Y178950D01*
X65540Y178923D01*
X65274Y179101D01*
X64736Y179208D01*
X64199Y179101D01*
X63743Y178797D01*
X63438Y178341D01*
X63331Y177803D01*
Y177155D01*
X57796D01*
X57605Y177617D01*
X61923Y181934D01*
X62205Y182357D01*
X62305Y182856D01*
Y186399D01*
X62309Y186445D01*
X62323Y186531D01*
X62339Y186595D01*
X62354Y186634D01*
X62357Y186641D01*
X62375Y186651D01*
X62396Y186669D01*
X62588Y186749D01*
X63246Y187254D01*
X63751Y187912D01*
X63979Y188463D01*
X64521D01*
X64749Y187912D01*
D02*
G37*
G36*
X71232Y178787D02*
X71231Y178631D01*
X71195Y178024D01*
X71187Y178029D01*
X70097D01*
X70126Y178080D01*
X70151Y178145D01*
X70174Y178222D01*
X70194Y178311D01*
X70210Y178414D01*
X70234Y178656D01*
X70246Y178949D01*
X70248Y179115D01*
X71232Y178787D01*
D02*
G37*
G36*
X56178Y177338D02*
X55981Y177135D01*
X55673Y176772D01*
X55560Y176611D01*
X55551Y176595D01*
X55559Y176583D01*
X55629Y176519D01*
X55719Y176465D01*
X55828Y176421D01*
X55958Y176386D01*
X56107Y176362D01*
X56277Y176347D01*
X56466Y176342D01*
Y175358D01*
X56277Y175353D01*
X56107Y175338D01*
X55958Y175314D01*
X55828Y175279D01*
X55719Y175235D01*
X55629Y175181D01*
X55559Y175117D01*
X55510Y175043D01*
X55480Y174959D01*
X55470Y174866D01*
Y176451D01*
X55419Y176333D01*
X55390Y176215D01*
X55388Y176111D01*
X55415Y176022D01*
X55470Y175946D01*
X54090Y177326D01*
X54165Y177271D01*
X54255Y177245D01*
X54359Y177246D01*
X54476Y177275D01*
X54609Y177332D01*
X54755Y177417D01*
X54915Y177529D01*
X55090Y177670D01*
X55482Y178034D01*
X56178Y177338D01*
D02*
G37*
G36*
X64158Y174621D02*
X64151Y174649D01*
X64130Y174689D01*
X64095Y174741D01*
X64045Y174805D01*
X63903Y174969D01*
X63450Y175440D01*
X64085Y176198D01*
X64099Y176185D01*
X64111Y176177D01*
X64122Y176173D01*
X64132Y176172D01*
X64140Y176177D01*
X64147Y176185D01*
X64152Y176197D01*
X64155Y176214D01*
X64158Y176235D01*
X64158Y176260D01*
Y174621D01*
D02*
G37*
G36*
X94852Y175741D02*
X94881Y175657D01*
X94931Y175584D01*
X95001Y175520D01*
X95091Y175466D01*
X95200Y175421D01*
X95330Y175387D01*
X95479Y175362D01*
X95649Y175347D01*
X95838Y175343D01*
Y174358D01*
X95649Y174353D01*
X95479Y174339D01*
X95330Y174314D01*
X95200Y174279D01*
X95091Y174235D01*
X95001Y174181D01*
X94931Y174117D01*
X94881Y174043D01*
X94852Y173960D01*
X94842Y173866D01*
Y175835D01*
X94852Y175741D01*
D02*
G37*
G36*
X157562Y172835D02*
X153334Y174358D01*
X152875Y175343D01*
X153175Y175367D01*
X153462Y175442D01*
X153735Y175566D01*
X153997Y175740D01*
X154245Y175963D01*
X154480Y176236D01*
X154702Y176559D01*
X154912Y176931D01*
X155109Y177353D01*
X155292Y177824D01*
X157562Y172835D01*
D02*
G37*
G36*
X81019Y171647D02*
X81010Y171604D01*
X81002Y171543D01*
X80990Y171367D01*
X80976Y170609D01*
X79992D01*
X79939Y171672D01*
X81029D01*
X81019Y171647D01*
D02*
G37*
G36*
X79051D02*
X79042Y171604D01*
X79034Y171543D01*
X79021Y171367D01*
X79008Y170609D01*
X78024D01*
X77971Y171672D01*
X79061D01*
X79051Y171647D01*
D02*
G37*
G36*
X65271D02*
X65262Y171604D01*
X65254Y171543D01*
X65242Y171367D01*
X65228Y170609D01*
X64244D01*
X64191Y171672D01*
X65281D01*
X65271Y171647D01*
D02*
G37*
G36*
X133487Y169720D02*
X133453Y169715D01*
X133411Y169700D01*
X133362Y169673D01*
X133305Y169636D01*
X133240Y169588D01*
X133087Y169460D01*
X132904Y169289D01*
X132801Y169187D01*
X131687Y170301D01*
X131789Y170404D01*
X132136Y170805D01*
X132173Y170862D01*
X132200Y170911D01*
X132215Y170953D01*
X132220Y170987D01*
X133487Y169720D01*
D02*
G37*
G36*
X103118Y168915D02*
X103019Y168795D01*
X102948Y168689D01*
X102906Y168596D01*
X102892Y168519D01*
X102906Y168455D01*
X102948Y168405D01*
X103019Y168370D01*
X103118Y168349D01*
X103246Y168342D01*
X100462D01*
X100599Y168349D01*
X100736Y168370D01*
X100874Y168405D01*
X101013Y168455D01*
X101152Y168519D01*
X101291Y168596D01*
X101431Y168689D01*
X101571Y168795D01*
X101712Y168915D01*
X101854Y169050D01*
X103246D01*
X103118Y168915D01*
D02*
G37*
G36*
X67205Y170375D02*
X67325Y170399D01*
X67851Y170751D01*
X67869Y170778D01*
X68136Y170600D01*
X68673Y170493D01*
X69211Y170600D01*
X69657Y170898D01*
X70104Y170600D01*
X70642Y170493D01*
X71179Y170600D01*
X71626Y170898D01*
X72073Y170600D01*
X72610Y170493D01*
X73148Y170600D01*
X73594Y170898D01*
X74041Y170600D01*
X74579Y170493D01*
X75116Y170600D01*
X75563Y170898D01*
X76010Y170600D01*
X76547Y170493D01*
X76711Y170525D01*
X77211Y170128D01*
Y166351D01*
X76078Y165218D01*
X75795Y164795D01*
X75695Y164295D01*
Y164114D01*
X75510Y163990D01*
X75053Y163306D01*
X74893Y162500D01*
X75053Y161694D01*
X75510Y161010D01*
X76193Y160553D01*
X77000Y160393D01*
X77807Y160553D01*
X78490Y161010D01*
X78947Y161694D01*
X79107Y162500D01*
X79099Y162541D01*
X79553Y162694D01*
X80010Y162010D01*
X80694Y161553D01*
X81500Y161393D01*
X82306Y161553D01*
X82990Y162010D01*
X83447Y162694D01*
X83607Y163500D01*
X83447Y164306D01*
X82990Y164990D01*
X82907Y165046D01*
X82901Y165054D01*
X82878Y165088D01*
X82859Y165123D01*
X82842Y165162D01*
X82827Y165206D01*
X82814Y165255D01*
X82805Y165310D01*
Y166764D01*
X82705Y167263D01*
X82423Y167686D01*
X81789Y168320D01*
Y170128D01*
X82289Y170525D01*
X82453Y170493D01*
X82990Y170600D01*
X83437Y170898D01*
X83884Y170600D01*
X84421Y170493D01*
X84959Y170600D01*
X85405Y170898D01*
X85852Y170600D01*
X86390Y170493D01*
X86927Y170600D01*
X87374Y170898D01*
X87821Y170600D01*
X88358Y170493D01*
X88896Y170600D01*
X89342Y170898D01*
X89789Y170600D01*
X90327Y170493D01*
X90864Y170600D01*
X91311Y170898D01*
X91758Y170600D01*
X92295Y170493D01*
X92833Y170600D01*
X93279Y170898D01*
X93726Y170600D01*
X94264Y170493D01*
X94801Y170600D01*
X95257Y170904D01*
X95562Y171360D01*
X95669Y171898D01*
Y173546D01*
X133141D01*
X133190Y173046D01*
X132694Y172947D01*
X132010Y172490D01*
X131553Y171807D01*
X131437Y171224D01*
X131332Y171103D01*
X127685Y167456D01*
X126694D01*
X126593Y167464D01*
X126419Y167489D01*
X126294Y167519D01*
Y168137D01*
X125512D01*
X125494Y168141D01*
X125477Y168137D01*
X123616D01*
X123576Y168165D01*
X123311Y168391D01*
X121279Y170422D01*
X120856Y170705D01*
X120356Y170805D01*
X103000D01*
X102501Y170705D01*
X102077Y170422D01*
X101120Y169465D01*
X101068Y169421D01*
X100968Y169345D01*
X100874Y169283D01*
X100788Y169235D01*
X100710Y169199D01*
X100639Y169174D01*
X100619Y169169D01*
X98398D01*
X98087Y169107D01*
X98086Y169107D01*
X98084Y169106D01*
X97860Y169062D01*
X97795Y169019D01*
X97721Y169001D01*
X97677Y168994D01*
X97275Y168970D01*
X96768D01*
X96269Y168871D01*
X95846Y168588D01*
X93341Y166084D01*
X93059Y165660D01*
X92959Y165161D01*
Y155794D01*
X92459Y155745D01*
X92447Y155807D01*
X91990Y156490D01*
X91307Y156947D01*
X90500Y157107D01*
X89693Y156947D01*
X89010Y156490D01*
X88805Y156183D01*
X88318Y156331D01*
X88329Y156801D01*
X88342Y156838D01*
X88359Y156877D01*
X88378Y156912D01*
X88401Y156946D01*
X88407Y156954D01*
X88490Y157010D01*
X88947Y157694D01*
X89107Y158500D01*
X88947Y159307D01*
X88490Y159990D01*
X87806Y160447D01*
X87576Y160493D01*
X87412Y161035D01*
X88001Y161625D01*
X88046Y161656D01*
X88090Y161682D01*
X88131Y161703D01*
X88171Y161718D01*
X88210Y161730D01*
X88250Y161738D01*
X88260Y161739D01*
X88358Y161719D01*
X89165Y161880D01*
X89848Y162337D01*
X90305Y163020D01*
X90466Y163827D01*
X90305Y164633D01*
X89848Y165317D01*
X89165Y165774D01*
X88358Y165934D01*
X87552Y165774D01*
X86868Y165317D01*
X86411Y164633D01*
X86251Y163827D01*
X86270Y163729D01*
X86269Y163718D01*
X86261Y163679D01*
X86250Y163639D01*
X86234Y163600D01*
X86214Y163559D01*
X86188Y163515D01*
X86156Y163470D01*
X66066Y143379D01*
X63015D01*
X62823Y143841D01*
X65659Y146677D01*
X65942Y147100D01*
X66041Y147599D01*
Y169898D01*
X66205Y170033D01*
Y174850D01*
X67205D01*
Y170375D01*
D02*
G37*
G36*
X98172Y167219D02*
X98176Y167210D01*
X98163Y167203D01*
X98132Y167196D01*
X98083Y167190D01*
X97931Y167181D01*
X97413Y167174D01*
X96981Y168157D01*
X97166Y168159D01*
X97761Y168195D01*
X97873Y168212D01*
X98052Y168254D01*
X98119Y168280D01*
X98172Y168309D01*
Y167219D01*
D02*
G37*
G36*
X122721Y167838D02*
X123085Y167529D01*
X123245Y167417D01*
X123391Y167332D01*
X123523Y167275D01*
X123641Y167246D01*
X123745Y167245D01*
X123835Y167271D01*
X123910Y167326D01*
X123599Y167014D01*
X124007Y166637D01*
X123219Y165849D01*
X123208Y165878D01*
X123175Y165927D01*
X123119Y165996D01*
X122863Y166279D01*
X122530Y165946D01*
X122585Y166022D01*
X122611Y166111D01*
X122610Y166215D01*
X122581Y166333D01*
X122524Y166465D01*
X122440Y166611D01*
X122327Y166772D01*
X122187Y166946D01*
X121822Y167338D01*
X122518Y168034D01*
X122721Y167838D01*
D02*
G37*
G36*
X45762Y166767D02*
X45805Y166687D01*
X45859Y166616D01*
X45924Y166555D01*
X46000Y166503D01*
X46087Y166461D01*
X46185Y166428D01*
X46293Y166405D01*
X46412Y166391D01*
X46542Y166386D01*
X45924Y165402D01*
X45790Y165401D01*
X45233Y165362D01*
X45144Y165348D01*
X44988Y165313D01*
X44921Y165292D01*
X45729Y166856D01*
X45762Y166767D01*
D02*
G37*
G36*
X104554Y166330D02*
X104597Y166321D01*
X104658Y166313D01*
X104834Y166301D01*
X105592Y166287D01*
Y165303D01*
X104529Y165250D01*
Y166340D01*
X104554Y166330D01*
D02*
G37*
G36*
X53869Y166385D02*
X54476Y166349D01*
X54471Y166340D01*
Y165250D01*
X54418Y165279D01*
X54351Y165305D01*
X54269Y165328D01*
X54172Y165347D01*
X53934Y165377D01*
X53636Y165395D01*
X53280Y165402D01*
X53713Y166385D01*
X53869Y166385D01*
D02*
G37*
G36*
X112012Y164811D02*
X112002Y164904D01*
X111973Y164988D01*
X111923Y165062D01*
X111855Y165126D01*
X111766Y165180D01*
X111658Y165224D01*
X111530Y165259D01*
X111382Y165284D01*
X111215Y165298D01*
X111028Y165303D01*
Y166287D01*
X111215Y166292D01*
X111382Y166307D01*
X111530Y166332D01*
X111658Y166366D01*
X111766Y166410D01*
X111855Y166465D01*
X111923Y166528D01*
X111973Y166602D01*
X112002Y166686D01*
X112012Y166779D01*
Y164811D01*
D02*
G37*
G36*
X81996Y165323D02*
X82008Y165203D01*
X82028Y165087D01*
X82057Y164976D01*
X82093Y164870D01*
X82137Y164769D01*
X82190Y164673D01*
X82250Y164582D01*
X82319Y164495D01*
X82396Y164414D01*
X80604D01*
X80681Y164495D01*
X80750Y164582D01*
X80810Y164673D01*
X80863Y164769D01*
X80907Y164870D01*
X80943Y164976D01*
X80972Y165087D01*
X80992Y165203D01*
X81004Y165323D01*
X81008Y165449D01*
X81992D01*
X81996Y165323D01*
D02*
G37*
G36*
X125510Y167205D02*
X125557Y167086D01*
X125636Y166981D01*
X125746Y166890D01*
X125888Y166813D01*
X126061Y166750D01*
X126266Y166700D01*
X126502Y166665D01*
X126770Y166644D01*
X127069Y166637D01*
Y165063D01*
X126770Y165056D01*
X126502Y165035D01*
X126266Y164999D01*
X126061Y164951D01*
X125888Y164887D01*
X125746Y164810D01*
X125636Y164719D01*
X125557Y164614D01*
X125510Y164495D01*
X125494Y164362D01*
Y167338D01*
X125510Y167205D01*
D02*
G37*
G36*
X157290Y172080D02*
X157346Y172071D01*
X157767Y171897D01*
X158644Y171782D01*
X158868Y171752D01*
Y171248D01*
X158644Y171218D01*
X157767Y171103D01*
X156617Y170627D01*
X155631Y169869D01*
X154873Y168883D01*
X154397Y167733D01*
X154235Y166500D01*
X154397Y165267D01*
X154617Y164736D01*
X154339Y164320D01*
X129778D01*
X129716Y164404D01*
X129591Y164820D01*
X133680Y168909D01*
X133710Y168934D01*
X134307Y169053D01*
X134990Y169510D01*
X135447Y170194D01*
X135607Y171000D01*
X135447Y171807D01*
X134990Y172490D01*
X134307Y172947D01*
X133810Y173046D01*
X133859Y173546D01*
X153221D01*
X157290Y172080D01*
D02*
G37*
G36*
X77493Y164179D02*
X77520Y163825D01*
X77532Y163764D01*
X77546Y163714D01*
X77562Y163674D01*
X77581Y163646D01*
X77602Y163629D01*
X76398D01*
X76419Y163646D01*
X76438Y163674D01*
X76454Y163714D01*
X76468Y163764D01*
X76481Y163825D01*
X76490Y163897D01*
X76503Y164074D01*
X76508Y164295D01*
X77492D01*
X77493Y164179D01*
D02*
G37*
G36*
X104554Y164362D02*
X104597Y164353D01*
X104658Y164345D01*
X104834Y164332D01*
X105592Y164319D01*
Y163335D01*
X104529Y163282D01*
Y164372D01*
X104554Y164362D01*
D02*
G37*
G36*
X54471Y163282D02*
X54478Y163273D01*
X54470Y163266D01*
X54449Y163259D01*
X54413Y163253D01*
X54364Y163248D01*
X54133Y163239D01*
X53909Y163237D01*
X53359Y164024D01*
X53476Y164027D01*
X53592Y164038D01*
X53707Y164055D01*
X53821Y164079D01*
X53932Y164111D01*
X54043Y164149D01*
X54152Y164194D01*
X54260Y164246D01*
X54366Y164306D01*
X54471Y164372D01*
Y163282D01*
D02*
G37*
G36*
X25993Y164069D02*
X26008Y164067D01*
X26033Y164065D01*
X26396Y164059D01*
X26492Y164059D01*
Y163075D01*
X25988Y163063D01*
Y164071D01*
X25993Y164069D01*
D02*
G37*
G36*
X157156Y163022D02*
X157033Y163077D01*
X156908Y163111D01*
X156782Y163126D01*
X156655Y163121D01*
X156526Y163096D01*
X156396Y163050D01*
X156265Y162985D01*
X156133Y162899D01*
X155999Y162794D01*
X155864Y162668D01*
X155168Y163364D01*
X155294Y163499D01*
X155399Y163633D01*
X155485Y163765D01*
X155550Y163896D01*
X155596Y164026D01*
X155621Y164155D01*
X155626Y164282D01*
X155612Y164408D01*
X155577Y164532D01*
X155522Y164656D01*
X157156Y163022D01*
D02*
G37*
G36*
X41429Y164396D02*
X41540Y164318D01*
X41651Y164249D01*
X41763Y164189D01*
X41874Y164139D01*
X41986Y164097D01*
X42098Y164065D01*
X42210Y164042D01*
X42323Y164028D01*
X42435Y164024D01*
X42520Y163236D01*
X42403Y163231D01*
X42289Y163215D01*
X42179Y163188D01*
X42072Y163151D01*
X41968Y163103D01*
X41868Y163044D01*
X41771Y162974D01*
X41677Y162894D01*
X41587Y162803D01*
X41500Y162702D01*
X41318Y164484D01*
X41429Y164396D01*
D02*
G37*
G36*
X20024Y162583D02*
X20014Y162676D01*
X19984Y162760D01*
X19934Y162834D01*
X19865Y162898D01*
X19775Y162952D01*
X19665Y162996D01*
X19536Y163031D01*
X19386Y163055D01*
X19217Y163070D01*
X19028Y163075D01*
Y164059D01*
X19217Y164064D01*
X19386Y164079D01*
X19536Y164103D01*
X19665Y164138D01*
X19775Y164182D01*
X19865Y164236D01*
X19934Y164300D01*
X19984Y164374D01*
X20014Y164458D01*
X20024Y164551D01*
Y162583D01*
D02*
G37*
G36*
X15786Y164458D02*
X15816Y164374D01*
X15866Y164300D01*
X15935Y164236D01*
X16025Y164182D01*
X16135Y164138D01*
X16264Y164103D01*
X16414Y164079D01*
X16583Y164064D01*
X16772Y164059D01*
Y163075D01*
X16583Y163070D01*
X16414Y163055D01*
X16264Y163031D01*
X16135Y162996D01*
X16025Y162952D01*
X15935Y162898D01*
X15866Y162834D01*
X15816Y162760D01*
X15786Y162676D01*
X15776Y162583D01*
Y164551D01*
X15786Y164458D01*
D02*
G37*
G36*
X88345Y162547D02*
X88234Y162544D01*
X88124Y162531D01*
X88017Y162510D01*
X87911Y162479D01*
X87809Y162438D01*
X87708Y162389D01*
X87610Y162331D01*
X87514Y162263D01*
X87420Y162187D01*
X87328Y162101D01*
X86632Y162797D01*
X86718Y162888D01*
X86795Y162982D01*
X86862Y163078D01*
X86921Y163177D01*
X86970Y163277D01*
X87010Y163380D01*
X87041Y163485D01*
X87063Y163593D01*
X87075Y163702D01*
X87079Y163814D01*
X88345Y162547D01*
D02*
G37*
G36*
X54471Y159345D02*
X54446Y159355D01*
X54403Y159364D01*
X54342Y159372D01*
X54166Y159384D01*
X53408Y159398D01*
Y160382D01*
X54471Y160435D01*
Y159345D01*
D02*
G37*
G36*
X104554Y158456D02*
X104597Y158447D01*
X104658Y158439D01*
X104834Y158427D01*
X105592Y158413D01*
Y157429D01*
X104529Y157376D01*
Y158466D01*
X104554Y158456D01*
D02*
G37*
G36*
X54471Y157376D02*
X54446Y157386D01*
X54403Y157395D01*
X54342Y157403D01*
X54166Y157416D01*
X53408Y157429D01*
Y158413D01*
X54471Y158466D01*
Y157376D01*
D02*
G37*
G36*
X87819Y157505D02*
X87750Y157418D01*
X87690Y157327D01*
X87637Y157231D01*
X87593Y157130D01*
X87557Y157024D01*
X87528Y156913D01*
X87508Y156797D01*
X87496Y156677D01*
X87492Y156551D01*
X86508D01*
X86504Y156677D01*
X86492Y156797D01*
X86472Y156913D01*
X86443Y157024D01*
X86407Y157130D01*
X86363Y157231D01*
X86310Y157327D01*
X86250Y157418D01*
X86181Y157505D01*
X86104Y157586D01*
X87896D01*
X87819Y157505D01*
D02*
G37*
G36*
X104554Y156488D02*
X104597Y156479D01*
X104658Y156471D01*
X104834Y156458D01*
X105592Y156445D01*
Y155461D01*
X104529Y155408D01*
Y156498D01*
X104554Y156488D01*
D02*
G37*
G36*
X25993Y154620D02*
X26008Y154618D01*
X26033Y154616D01*
X26396Y154610D01*
X26492Y154610D01*
Y153626D01*
X25988Y153614D01*
Y154622D01*
X25993Y154620D01*
D02*
G37*
G36*
X20024Y153614D02*
X20019Y153616D01*
X20003Y153618D01*
X19978Y153620D01*
X19606Y153626D01*
X19508Y153626D01*
Y154610D01*
X20024Y154622D01*
Y153614D01*
D02*
G37*
G36*
X15786Y155076D02*
X15816Y154992D01*
X15866Y154918D01*
X15935Y154854D01*
X16025Y154800D01*
X16135Y154756D01*
X16264Y154721D01*
X16414Y154697D01*
X16583Y154682D01*
X16772Y154677D01*
Y153693D01*
X16583Y153688D01*
X16414Y153673D01*
X16264Y153649D01*
X16135Y153614D01*
X16025Y153570D01*
X15935Y153516D01*
X15866Y153452D01*
X15816Y153378D01*
X15786Y153294D01*
X15776Y153201D01*
Y155169D01*
X15786Y155076D01*
D02*
G37*
G36*
X91341Y154035D02*
X91260Y153959D01*
X91188Y153877D01*
X91125Y153789D01*
X91070Y153696D01*
X91023Y153598D01*
X90985Y153494D01*
X90955Y153384D01*
X90934Y153269D01*
X90922Y153149D01*
X90917Y153023D01*
X89933Y153085D01*
X89929Y153210D01*
X89918Y153331D01*
X89899Y153447D01*
X89872Y153559D01*
X89838Y153667D01*
X89796Y153770D01*
X89747Y153869D01*
X89689Y153964D01*
X89625Y154054D01*
X89552Y154140D01*
X91341Y154035D01*
D02*
G37*
G36*
X54471Y151471D02*
X54446Y151481D01*
X54403Y151490D01*
X54342Y151498D01*
X54166Y151510D01*
X53408Y151524D01*
Y152508D01*
X54471Y152561D01*
Y151471D01*
D02*
G37*
G36*
X85007Y157924D02*
X85053Y157694D01*
X85510Y157010D01*
X85593Y156954D01*
X85599Y156946D01*
X85622Y156912D01*
X85641Y156877D01*
X85658Y156838D01*
X85673Y156794D01*
X85686Y156745D01*
X85695Y156690D01*
Y148040D01*
X85460Y147805D01*
X75075D01*
X74842Y147758D01*
X74595Y148219D01*
X84465Y158088D01*
X85007Y157924D01*
D02*
G37*
G36*
X104554Y148614D02*
X104597Y148605D01*
X104658Y148597D01*
X104834Y148584D01*
X105592Y148571D01*
Y147587D01*
X104529Y147534D01*
Y148624D01*
X104554Y148614D01*
D02*
G37*
G36*
X140561Y147140D02*
X140655Y147063D01*
X140751Y146996D01*
X140850Y146938D01*
X140950Y146888D01*
X141053Y146848D01*
X141158Y146817D01*
X141266Y146795D01*
X141375Y146783D01*
X141487Y146780D01*
X140220Y145513D01*
X140217Y145625D01*
X140205Y145734D01*
X140183Y145842D01*
X140152Y145947D01*
X140112Y146050D01*
X140062Y146150D01*
X140004Y146249D01*
X139937Y146345D01*
X139860Y146439D01*
X139774Y146530D01*
X140470Y147226D01*
X140561Y147140D01*
D02*
G37*
G36*
X53325Y150211D02*
X53292Y150047D01*
X53399Y149510D01*
X53697Y149063D01*
X53399Y148616D01*
X53292Y148079D01*
X53399Y147541D01*
X53577Y147275D01*
X53550Y147257D01*
X53199Y146731D01*
X53175Y146610D01*
X57650D01*
Y145610D01*
X52888D01*
X52802Y145505D01*
X48294D01*
Y146487D01*
X43719D01*
Y145505D01*
X42810D01*
X42755Y145514D01*
X42706Y145527D01*
X42662Y145542D01*
X42623Y145559D01*
X42588Y145578D01*
X42554Y145600D01*
X42546Y145607D01*
X42490Y145690D01*
X41807Y146147D01*
X41000Y146307D01*
X40194Y146147D01*
X39510Y145690D01*
X39053Y145007D01*
X38893Y144200D01*
X39053Y143394D01*
X39510Y142710D01*
X39593Y142654D01*
X39599Y142646D01*
X39622Y142612D01*
X39641Y142577D01*
X39658Y142538D01*
X39673Y142494D01*
X39686Y142445D01*
X39695Y142390D01*
Y109630D01*
X39795Y109131D01*
X40077Y108707D01*
X40707Y108078D01*
X41131Y107795D01*
X41630Y107695D01*
X46899D01*
X46945Y107691D01*
X47031Y107677D01*
X47095Y107661D01*
X47134Y107646D01*
X47141Y107643D01*
X47151Y107625D01*
X47169Y107604D01*
X47249Y107412D01*
X47754Y106754D01*
X48412Y106249D01*
X49178Y105931D01*
X50000Y105823D01*
X50822Y105931D01*
X51588Y106249D01*
X52246Y106754D01*
X52751Y107412D01*
X53069Y108178D01*
X53177Y109000D01*
X53069Y109822D01*
X52989Y110015D01*
X52987Y110042D01*
X52981Y110062D01*
X52983Y110069D01*
X53001Y110108D01*
X53035Y110164D01*
X53086Y110235D01*
X53115Y110271D01*
X63219Y120374D01*
X63719Y120167D01*
Y119863D01*
X68294D01*
Y122229D01*
X68297Y122246D01*
X68294Y122263D01*
Y122537D01*
X68327Y122585D01*
X68550Y122849D01*
X68976Y123274D01*
X69437Y123083D01*
Y104141D01*
X44389Y79092D01*
X44128Y78701D01*
X44036Y78240D01*
X44036Y78240D01*
Y65050D01*
X44036Y65050D01*
X44128Y64589D01*
X44389Y64199D01*
X52167Y56420D01*
X52167Y56420D01*
X52558Y56159D01*
X53019Y56067D01*
X53019Y56067D01*
X55796D01*
Y48846D01*
X55355Y48610D01*
X55124Y48764D01*
X54317Y48925D01*
X54204Y48902D01*
X54130Y48908D01*
X54061Y48919D01*
X54001Y48933D01*
X53949Y48950D01*
X53904Y48968D01*
X53863Y48989D01*
X53827Y49012D01*
X53823Y49015D01*
X43086Y59751D01*
X42696Y60013D01*
X42235Y60104D01*
X42235Y60104D01*
X31487D01*
Y60887D01*
X23638D01*
Y61793D01*
X64143Y102298D01*
X64188Y102330D01*
X64232Y102356D01*
X64273Y102376D01*
X64313Y102391D01*
X64352Y102403D01*
X64391Y102411D01*
X64402Y102412D01*
X64500Y102393D01*
X65307Y102553D01*
X65990Y103010D01*
X66447Y103693D01*
X66607Y104500D01*
X66447Y105306D01*
X65990Y105990D01*
X65307Y106447D01*
X64500Y106607D01*
X63693Y106447D01*
X63010Y105990D01*
X62553Y105306D01*
X62393Y104500D01*
X62412Y104402D01*
X62411Y104392D01*
X62403Y104352D01*
X62391Y104313D01*
X62376Y104273D01*
X62356Y104232D01*
X62330Y104188D01*
X62298Y104143D01*
X21411Y63256D01*
X21128Y62832D01*
X21028Y62333D01*
Y47309D01*
X21128Y46810D01*
X21411Y46387D01*
X22160Y45637D01*
X22577Y45359D01*
Y44118D01*
X22677Y43619D01*
X22825Y43396D01*
Y42131D01*
X31487D01*
Y46106D01*
X25186D01*
Y46560D01*
X25166Y46665D01*
X25483Y47052D01*
X31487D01*
Y47835D01*
X32708D01*
X32712Y47835D01*
X32754Y47825D01*
X32797Y47811D01*
X32842Y47792D01*
X32891Y47767D01*
X32943Y47734D01*
X33000Y47693D01*
X33056Y47646D01*
X33121Y47549D01*
X33804Y47092D01*
X34611Y46932D01*
X35417Y47092D01*
X36101Y47549D01*
X36558Y48233D01*
X36718Y49039D01*
X36558Y49846D01*
X36101Y50529D01*
X35417Y50986D01*
X34611Y51147D01*
X33804Y50986D01*
X33121Y50529D01*
X33056Y50433D01*
X33000Y50386D01*
X32943Y50344D01*
X32891Y50311D01*
X32842Y50286D01*
X32797Y50267D01*
X32754Y50254D01*
X32712Y50244D01*
X32708Y50244D01*
X31487D01*
Y51027D01*
X23638D01*
Y52013D01*
X31487D01*
Y52796D01*
X40501D01*
X49303Y43994D01*
X49306Y43990D01*
X49329Y43954D01*
X49349Y43914D01*
X49368Y43869D01*
X49384Y43816D01*
X49398Y43756D01*
X49409Y43687D01*
X49415Y43614D01*
X49393Y43500D01*
X49553Y42693D01*
X50010Y42010D01*
X50694Y41553D01*
X51500Y41393D01*
X51538Y41361D01*
Y34697D01*
Y32138D01*
Y29641D01*
X48303D01*
X48301Y29642D01*
X48253Y29664D01*
X48195Y29696D01*
X48139Y29734D01*
X48001Y29846D01*
X43470Y34377D01*
X43354Y34502D01*
X43281Y34592D01*
Y37437D01*
X38706D01*
Y36455D01*
X24890D01*
X20346Y40999D01*
Y58900D01*
X20246Y59399D01*
X19963Y59822D01*
X19540Y60105D01*
X19041Y60205D01*
X17244D01*
Y60887D01*
X14218D01*
Y63363D01*
X15194D01*
Y64345D01*
X15650D01*
X16149Y64445D01*
X16572Y64727D01*
X16855Y65151D01*
X16955Y65650D01*
Y69054D01*
X16997Y69270D01*
Y99097D01*
X16898Y99596D01*
X16615Y100019D01*
X10951Y105684D01*
X11142Y106146D01*
X14287D01*
Y107129D01*
X15264D01*
Y105677D01*
X21957D01*
Y107421D01*
X22350Y107677D01*
X22457Y107677D01*
X28543D01*
X28650Y107677D01*
X29043Y107421D01*
Y105677D01*
X35736D01*
Y111189D01*
X33694D01*
Y114056D01*
X37651Y118012D01*
X37934Y118435D01*
X38033Y118935D01*
Y149633D01*
X39111Y150711D01*
X52928D01*
X53325Y150211D01*
D02*
G37*
G36*
X114178Y144786D02*
X114075Y144815D01*
X113969Y144827D01*
X113860Y144823D01*
X113749Y144802D01*
X113634Y144764D01*
X113517Y144709D01*
X113396Y144638D01*
X113273Y144549D01*
X113147Y144444D01*
X113018Y144322D01*
X112322Y145018D01*
X112444Y145147D01*
X112549Y145273D01*
X112638Y145396D01*
X112709Y145517D01*
X112764Y145634D01*
X112802Y145748D01*
X112823Y145860D01*
X112827Y145969D01*
X112815Y146075D01*
X112786Y146177D01*
X114178Y144786D01*
D02*
G37*
G36*
X104554Y144677D02*
X104597Y144668D01*
X104658Y144660D01*
X104834Y144647D01*
X105592Y144634D01*
Y143650D01*
X104529Y143597D01*
Y144687D01*
X104554Y144677D01*
D02*
G37*
G36*
X54471Y144687D02*
Y143597D01*
X54430Y143618D01*
X54372Y143637D01*
X54298Y143653D01*
X54207Y143668D01*
X53977Y143690D01*
X53509Y143707D01*
X53321Y143708D01*
X53514Y144692D01*
X54471Y144687D01*
D02*
G37*
G36*
X151273Y144505D02*
X151205Y144418D01*
X151144Y144327D01*
X151092Y144231D01*
X151047Y144130D01*
X151011Y144024D01*
X150983Y143913D01*
X150962Y143797D01*
X150950Y143677D01*
X150946Y143551D01*
X149962D01*
X149958Y143677D01*
X149946Y143797D01*
X149926Y143913D01*
X149898Y144024D01*
X149861Y144130D01*
X149817Y144231D01*
X149764Y144327D01*
X149704Y144418D01*
X149635Y144505D01*
X149559Y144586D01*
X151350D01*
X151273Y144505D01*
D02*
G37*
G36*
X41995Y145019D02*
X42082Y144950D01*
X42173Y144890D01*
X42269Y144837D01*
X42370Y144793D01*
X42476Y144757D01*
X42587Y144728D01*
X42703Y144708D01*
X42823Y144696D01*
X42949Y144692D01*
Y143708D01*
X42823Y143704D01*
X42703Y143692D01*
X42587Y143672D01*
X42476Y143643D01*
X42370Y143607D01*
X42269Y143563D01*
X42173Y143510D01*
X42082Y143450D01*
X41995Y143381D01*
X41914Y143304D01*
Y145096D01*
X41995Y145019D01*
D02*
G37*
G36*
X47504Y145091D02*
X47534Y145007D01*
X47583Y144933D01*
X47652Y144869D01*
X47741Y144815D01*
X47849Y144771D01*
X47977Y144736D01*
X48124Y144712D01*
X48292Y144697D01*
X48479Y144692D01*
Y143708D01*
X48292Y143703D01*
X48124Y143688D01*
X47977Y143664D01*
X47849Y143629D01*
X47741Y143585D01*
X47652Y143531D01*
X47583Y143467D01*
X47534Y143393D01*
X47504Y143309D01*
X47494Y143216D01*
Y145184D01*
X47504Y145091D01*
D02*
G37*
G36*
X44530Y143216D02*
X44520Y143309D01*
X44491Y143393D01*
X44441Y143467D01*
X44371Y143531D01*
X44281Y143585D01*
X44172Y143629D01*
X44042Y143664D01*
X43893Y143688D01*
X43723Y143703D01*
X43534Y143708D01*
Y144692D01*
X43723Y144697D01*
X43893Y144712D01*
X44042Y144736D01*
X44172Y144771D01*
X44281Y144815D01*
X44371Y144869D01*
X44441Y144933D01*
X44491Y145007D01*
X44520Y145091D01*
X44530Y145184D01*
Y143216D01*
D02*
G37*
G36*
X25078Y142838D02*
X24882Y142635D01*
X24573Y142272D01*
X24460Y142111D01*
X24376Y141965D01*
X24319Y141833D01*
X24290Y141715D01*
X24288Y141611D01*
X24315Y141522D01*
X24370Y141446D01*
X22990Y142826D01*
X23065Y142771D01*
X23155Y142745D01*
X23259Y142746D01*
X23377Y142775D01*
X23509Y142832D01*
X23655Y142917D01*
X23815Y143029D01*
X23990Y143170D01*
X24382Y143534D01*
X25078Y142838D01*
D02*
G37*
G36*
X41819Y143205D02*
X41750Y143118D01*
X41690Y143027D01*
X41637Y142931D01*
X41593Y142830D01*
X41557Y142724D01*
X41528Y142613D01*
X41508Y142497D01*
X41496Y142377D01*
X41492Y142251D01*
X40508D01*
X40504Y142377D01*
X40492Y142497D01*
X40472Y142613D01*
X40443Y142724D01*
X40407Y142830D01*
X40363Y142931D01*
X40310Y143027D01*
X40250Y143118D01*
X40181Y143205D01*
X40104Y143286D01*
X41896D01*
X41819Y143205D01*
D02*
G37*
G36*
X53336Y142395D02*
X53292Y142173D01*
X53399Y141636D01*
X53697Y141189D01*
X53399Y140742D01*
X53292Y140205D01*
X53399Y139667D01*
X53697Y139220D01*
X53399Y138774D01*
X53292Y138236D01*
X53399Y137699D01*
X53703Y137243D01*
X54159Y136938D01*
X54697Y136831D01*
X56345D01*
Y130190D01*
X53780Y127625D01*
X53307Y127859D01*
X53325Y128000D01*
X50000D01*
X46675D01*
X46724Y127622D01*
X47063Y126804D01*
X47602Y126102D01*
X48304Y125563D01*
X48685Y125406D01*
X48685Y124864D01*
X48412Y124751D01*
X47754Y124246D01*
X47249Y123588D01*
X46931Y122822D01*
X46823Y122000D01*
X46931Y121178D01*
X47249Y120412D01*
X47754Y119754D01*
X48412Y119249D01*
X48963Y119021D01*
Y118479D01*
X48412Y118251D01*
X47754Y117746D01*
X47249Y117088D01*
X46931Y116322D01*
X46823Y115500D01*
X46931Y114678D01*
X47249Y113912D01*
X47754Y113254D01*
X48412Y112749D01*
X48963Y112521D01*
Y111979D01*
X48412Y111751D01*
X47754Y111246D01*
X47249Y110588D01*
X47169Y110396D01*
X47151Y110375D01*
X47141Y110357D01*
X47134Y110354D01*
X47095Y110339D01*
X47031Y110323D01*
X46945Y110309D01*
X46899Y110305D01*
X42305D01*
Y142390D01*
X42314Y142445D01*
X42327Y142494D01*
X42342Y142538D01*
X42359Y142577D01*
X42378Y142612D01*
X42401Y142646D01*
X42407Y142654D01*
X42490Y142710D01*
X42546Y142793D01*
X42554Y142799D01*
X42588Y142822D01*
X42623Y142841D01*
X42662Y142858D01*
X42706Y142873D01*
X42755Y142886D01*
X42810Y142895D01*
X43719D01*
Y141913D01*
X48294D01*
Y142895D01*
X52967D01*
X53336Y142395D01*
D02*
G37*
G36*
X104554Y142708D02*
X104597Y142699D01*
X104658Y142691D01*
X104834Y142679D01*
X105592Y142665D01*
Y141681D01*
X104529Y141628D01*
Y142718D01*
X104554Y142708D01*
D02*
G37*
G36*
X60881Y142690D02*
X60948Y142664D01*
X61030Y142641D01*
X61127Y142621D01*
X61366Y142591D01*
X61663Y142573D01*
X62019Y142567D01*
X61587Y141583D01*
X61430Y141584D01*
X60824Y141620D01*
X60828Y141628D01*
Y142718D01*
X60881Y142690D01*
D02*
G37*
G36*
X83232Y142091D02*
X83164Y142005D01*
X83103Y141914D01*
X83051Y141817D01*
X83006Y141716D01*
X82970Y141610D01*
X82942Y141499D01*
X82922Y141384D01*
X82910Y141263D01*
X82906Y141138D01*
X81921D01*
X81917Y141263D01*
X81905Y141384D01*
X81885Y141499D01*
X81857Y141610D01*
X81820Y141716D01*
X81776Y141817D01*
X81723Y141914D01*
X81663Y142005D01*
X81594Y142091D01*
X81518Y142173D01*
X83309D01*
X83232Y142091D01*
D02*
G37*
G36*
X104554Y140740D02*
X104597Y140731D01*
X104658Y140723D01*
X104834Y140710D01*
X105592Y140697D01*
Y139713D01*
X104529Y139660D01*
Y140750D01*
X104554Y140740D01*
D02*
G37*
G36*
X60853D02*
X60896Y140731D01*
X60957Y140723D01*
X61133Y140710D01*
X61891Y140697D01*
Y139713D01*
X60828Y139660D01*
Y140750D01*
X60853Y140740D01*
D02*
G37*
G36*
X23784Y139864D02*
X23701Y139834D01*
X23627Y139784D01*
X23563Y139715D01*
X23509Y139625D01*
X23464Y139515D01*
X23430Y139386D01*
X23405Y139236D01*
X23391Y139067D01*
X23386Y138878D01*
X22401D01*
X22397Y139067D01*
X22382Y139236D01*
X22357Y139386D01*
X22323Y139515D01*
X22278Y139625D01*
X22224Y139715D01*
X22160Y139784D01*
X22086Y139834D01*
X22003Y139864D01*
X21909Y139874D01*
X23878D01*
X23784Y139864D01*
D02*
G37*
G36*
X23391Y137783D02*
X23405Y137614D01*
X23430Y137464D01*
X23464Y137335D01*
X23509Y137225D01*
X23563Y137135D01*
X23627Y137066D01*
X23701Y137016D01*
X23784Y136986D01*
X23878Y136976D01*
X21909D01*
X22003Y136986D01*
X22086Y137016D01*
X22160Y137066D01*
X22224Y137135D01*
X22278Y137225D01*
X22323Y137335D01*
X22357Y137464D01*
X22382Y137614D01*
X22397Y137783D01*
X22401Y137972D01*
X23386D01*
X23391Y137783D01*
D02*
G37*
G36*
X104860Y138428D02*
X104886Y138383D01*
X104925Y138327D01*
X104978Y138259D01*
X105215Y137991D01*
X105572Y137624D01*
X104854Y136950D01*
X104667Y137130D01*
X104326Y137417D01*
X104171Y137524D01*
X104026Y137607D01*
X103892Y137665D01*
X103769Y137700D01*
X103656Y137710D01*
X103554Y137697D01*
X103462Y137658D01*
X104848Y138462D01*
X104860Y138428D01*
D02*
G37*
G36*
X58540Y137648D02*
X58457Y137619D01*
X58383Y137569D01*
X58319Y137499D01*
X58265Y137409D01*
X58220Y137300D01*
X58186Y137170D01*
X58161Y137021D01*
X58147Y136851D01*
X58142Y136662D01*
X57157D01*
X57153Y136851D01*
X57138Y137021D01*
X57113Y137170D01*
X57079Y137300D01*
X57034Y137409D01*
X56980Y137499D01*
X56916Y137569D01*
X56842Y137619D01*
X56759Y137648D01*
X56665Y137658D01*
X58634D01*
X58540Y137648D01*
D02*
G37*
G36*
X81101Y144695D02*
X80923Y144577D01*
X80466Y143893D01*
X80306Y143087D01*
X80466Y142280D01*
X80923Y141596D01*
X81006Y141541D01*
X81013Y141533D01*
X81035Y141499D01*
X81055Y141463D01*
X81072Y141424D01*
X81087Y141381D01*
X81099Y141331D01*
X81109Y141277D01*
Y135893D01*
X80609Y135483D01*
X80484Y135507D01*
X79947Y135400D01*
X79500Y135102D01*
X79053Y135400D01*
X78516Y135507D01*
X77978Y135400D01*
X77531Y135102D01*
X77085Y135400D01*
X76547Y135507D01*
X76010Y135400D01*
X75563Y135102D01*
X75116Y135400D01*
X74579Y135507D01*
X74041Y135400D01*
X73594Y135102D01*
X73148Y135400D01*
X72610Y135507D01*
X72073Y135400D01*
X71626Y135102D01*
X71179Y135400D01*
X70642Y135507D01*
X70104Y135400D01*
X69657Y135102D01*
X69211Y135400D01*
X68673Y135507D01*
X68136Y135400D01*
X67869Y135222D01*
X67851Y135249D01*
X67325Y135601D01*
X67205Y135625D01*
Y131150D01*
Y126332D01*
X67369Y126197D01*
Y125357D01*
X66747Y124735D01*
X66580Y124581D01*
X66450Y124477D01*
X66394Y124437D01*
X66120D01*
X66102Y124441D01*
X66085Y124437D01*
X63719D01*
Y123455D01*
X63150D01*
X62651Y123355D01*
X62227Y123073D01*
X53452Y114297D01*
X53028Y114580D01*
X53069Y114678D01*
X53177Y115500D01*
X53069Y116322D01*
X52751Y117088D01*
X52656Y117212D01*
X52670Y117233D01*
X52698Y117266D01*
X62988Y127556D01*
X63582Y127444D01*
X63743Y127203D01*
X64199Y126899D01*
X64736Y126792D01*
X65274Y126899D01*
X65540Y127077D01*
X65558Y127050D01*
X66084Y126699D01*
X66205Y126675D01*
Y131150D01*
Y135625D01*
X66084Y135601D01*
X65558Y135249D01*
X65540Y135222D01*
X65274Y135400D01*
X64736Y135507D01*
X64199Y135400D01*
X63743Y135096D01*
X63438Y134640D01*
X63331Y134102D01*
Y131794D01*
X63326Y131775D01*
X63301Y131704D01*
X63265Y131625D01*
X63217Y131539D01*
X63155Y131446D01*
X63079Y131345D01*
X63035Y131293D01*
X53623Y121882D01*
X53160Y122126D01*
X53069Y122822D01*
X52989Y123015D01*
X52987Y123042D01*
X52981Y123062D01*
X52983Y123069D01*
X53001Y123108D01*
X53035Y123164D01*
X53086Y123235D01*
X53115Y123270D01*
X58572Y128727D01*
X58855Y129150D01*
X58954Y129650D01*
Y136831D01*
X60602D01*
X61140Y136938D01*
X61596Y137243D01*
X61900Y137699D01*
X62007Y138236D01*
X61975Y138400D01*
X62372Y138900D01*
X68779D01*
X69279Y138999D01*
X69702Y139282D01*
X75615Y145195D01*
X80949D01*
X81101Y144695D01*
D02*
G37*
G36*
X89010Y153510D02*
X89036Y153492D01*
X89043Y153482D01*
X89064Y153439D01*
X89082Y153394D01*
X89098Y153344D01*
X89111Y153289D01*
X89121Y153231D01*
Y135806D01*
X88621Y135455D01*
X88358Y135507D01*
X87821Y135400D01*
X87374Y135102D01*
X86927Y135400D01*
X86390Y135507D01*
X85852Y135400D01*
X85405Y135102D01*
X84959Y135400D01*
X84421Y135507D01*
X84218Y135467D01*
X83718Y135845D01*
Y141277D01*
X83727Y141331D01*
X83740Y141381D01*
X83755Y141424D01*
X83772Y141463D01*
X83792Y141499D01*
X83814Y141533D01*
X83821Y141541D01*
X83903Y141596D01*
X84360Y142280D01*
X84521Y143087D01*
X84360Y143893D01*
X83903Y144577D01*
X83726Y144695D01*
X83878Y145195D01*
X86000D01*
X86499Y145295D01*
X86923Y145578D01*
X87923Y146578D01*
X88205Y147001D01*
X88305Y147500D01*
Y153665D01*
X88805Y153817D01*
X89010Y153510D01*
D02*
G37*
G36*
X113147Y136556D02*
X113273Y136451D01*
X113396Y136362D01*
X113517Y136291D01*
X113634Y136236D01*
X113749Y136198D01*
X113860Y136177D01*
X113969Y136173D01*
X114075Y136185D01*
X114178Y136214D01*
X112786Y134822D01*
X112815Y134925D01*
X112827Y135031D01*
X112823Y135140D01*
X112802Y135251D01*
X112764Y135366D01*
X112709Y135483D01*
X112638Y135604D01*
X112549Y135727D01*
X112444Y135853D01*
X112322Y135982D01*
X113018Y136678D01*
X113147Y136556D01*
D02*
G37*
G36*
X94809Y134328D02*
X93719D01*
X93729Y134353D01*
X93738Y134396D01*
X93746Y134457D01*
X93758Y134634D01*
X93772Y135391D01*
X94756D01*
X94809Y134328D01*
D02*
G37*
G36*
X82906Y135262D02*
X82964Y134417D01*
X82980Y134364D01*
X82998Y134328D01*
X81908D01*
X81910Y134342D01*
X81913Y134375D01*
X81920Y134829D01*
X81921Y135333D01*
X82906Y135450D01*
X82906Y135262D01*
D02*
G37*
G36*
X90917Y135087D02*
X90916Y134930D01*
X90880Y134324D01*
X90872Y134328D01*
X89782D01*
X89811Y134381D01*
X89836Y134448D01*
X89859Y134530D01*
X89879Y134627D01*
X89909Y134866D01*
X89927Y135163D01*
X89933Y135519D01*
X90917Y135087D01*
D02*
G37*
G36*
X28487Y130720D02*
X28375Y130717D01*
X28266Y130704D01*
X28158Y130683D01*
X28053Y130652D01*
X27950Y130612D01*
X27850Y130562D01*
X27751Y130504D01*
X27655Y130437D01*
X27562Y130360D01*
X27470Y130274D01*
X26774Y130970D01*
X26860Y131061D01*
X26937Y131155D01*
X27004Y131251D01*
X27062Y131350D01*
X27112Y131450D01*
X27152Y131553D01*
X27183Y131658D01*
X27204Y131766D01*
X27217Y131875D01*
X27220Y131987D01*
X28487Y130720D01*
D02*
G37*
G36*
X64158Y129168D02*
X64151Y129295D01*
X64130Y129394D01*
X64095Y129465D01*
X64045Y129508D01*
X63981Y129522D01*
X63903Y129508D01*
X63811Y129465D01*
X63705Y129394D01*
X63585Y129295D01*
X63450Y129168D01*
Y130560D01*
X63585Y130701D01*
X63705Y130842D01*
X63811Y130982D01*
X63903Y131122D01*
X63981Y131262D01*
X64045Y131401D01*
X64095Y131539D01*
X64130Y131677D01*
X64151Y131815D01*
X64158Y131952D01*
Y129168D01*
D02*
G37*
G36*
X24380Y130741D02*
X24409Y130657D01*
X24459Y130583D01*
X24529Y130519D01*
X24619Y130465D01*
X24728Y130421D01*
X24858Y130386D01*
X25007Y130362D01*
X25177Y130347D01*
X25366Y130342D01*
Y129358D01*
X25177Y129353D01*
X25007Y129338D01*
X24858Y129314D01*
X24728Y129279D01*
X24619Y129235D01*
X24529Y129181D01*
X24459Y129117D01*
X24409Y129043D01*
X24380Y128959D01*
X24370Y128866D01*
Y130834D01*
X24380Y130741D01*
D02*
G37*
G36*
X21406Y128866D02*
X21396Y128959D01*
X21366Y129043D01*
X21317Y129117D01*
X21248Y129181D01*
X21159Y129235D01*
X21051Y129279D01*
X20923Y129314D01*
X20776Y129338D01*
X20608Y129353D01*
X20421Y129358D01*
Y130342D01*
X20608Y130347D01*
X20776Y130362D01*
X20923Y130386D01*
X21051Y130421D01*
X21159Y130465D01*
X21248Y130519D01*
X21317Y130583D01*
X21366Y130657D01*
X21396Y130741D01*
X21406Y130834D01*
Y128866D01*
D02*
G37*
G36*
X113147Y130056D02*
X113273Y129951D01*
X113396Y129862D01*
X113517Y129791D01*
X113634Y129736D01*
X113749Y129698D01*
X113860Y129677D01*
X113969Y129673D01*
X114075Y129685D01*
X114178Y129714D01*
X112786Y128323D01*
X112815Y128425D01*
X112827Y128531D01*
X112823Y128640D01*
X112802Y128752D01*
X112764Y128866D01*
X112709Y128983D01*
X112638Y129104D01*
X112549Y129227D01*
X112444Y129353D01*
X112322Y129482D01*
X113018Y130178D01*
X113147Y130056D01*
D02*
G37*
G36*
X77064Y127920D02*
X77038Y127859D01*
X77015Y127787D01*
X76995Y127703D01*
X76979Y127609D01*
X76955Y127389D01*
X76942Y127125D01*
X76941Y126977D01*
X76153D01*
X76152Y127125D01*
X76116Y127609D01*
X76099Y127703D01*
X76079Y127787D01*
X76057Y127859D01*
X76031Y127920D01*
X76002Y127971D01*
X77092D01*
X77064Y127920D01*
D02*
G37*
G36*
X71158D02*
X71132Y127859D01*
X71110Y127787D01*
X71090Y127703D01*
X71073Y127609D01*
X71049Y127389D01*
X71037Y127125D01*
X71035Y126977D01*
X70248D01*
X70246Y127125D01*
X70210Y127609D01*
X70194Y127703D01*
X70174Y127787D01*
X70151Y127859D01*
X70126Y127920D01*
X70097Y127971D01*
X71187D01*
X71158Y127920D01*
D02*
G37*
G36*
X92830Y127946D02*
X92821Y127903D01*
X92813Y127842D01*
X92801Y127666D01*
X92787Y126908D01*
X91803D01*
X91750Y127971D01*
X92840D01*
X92830Y127946D01*
D02*
G37*
G36*
X88893D02*
X88884Y127903D01*
X88876Y127842D01*
X88864Y127666D01*
X88850Y126908D01*
X87866D01*
X87813Y127971D01*
X88903D01*
X88893Y127946D01*
D02*
G37*
G36*
X86925D02*
X86916Y127903D01*
X86908Y127842D01*
X86895Y127666D01*
X86882Y126908D01*
X85898D01*
X85845Y127971D01*
X86935D01*
X86925Y127946D01*
D02*
G37*
G36*
X84956D02*
X84947Y127903D01*
X84939Y127842D01*
X84927Y127666D01*
X84913Y126908D01*
X83929D01*
X83876Y127971D01*
X84966D01*
X84956Y127946D01*
D02*
G37*
G36*
X81019D02*
X81010Y127903D01*
X81002Y127842D01*
X80990Y127666D01*
X80976Y126908D01*
X79992D01*
X79939Y127971D01*
X81029D01*
X81019Y127946D01*
D02*
G37*
G36*
X79051D02*
X79042Y127903D01*
X79034Y127842D01*
X79021Y127666D01*
X79008Y126908D01*
X78024D01*
X77971Y127971D01*
X79061D01*
X79051Y127946D01*
D02*
G37*
G36*
X73145D02*
X73136Y127903D01*
X73128Y127842D01*
X73116Y127666D01*
X73102Y126908D01*
X72118D01*
X72065Y127971D01*
X73155D01*
X73145Y127946D01*
D02*
G37*
G36*
X69208D02*
X69199Y127903D01*
X69191Y127842D01*
X69179Y127666D01*
X69165Y126908D01*
X68181D01*
X68128Y127971D01*
X69218D01*
X69208Y127946D01*
D02*
G37*
G36*
X75140Y127970D02*
X75147Y127949D01*
X75152Y127913D01*
X75157Y127864D01*
X75167Y127633D01*
X75169Y127410D01*
X74382Y126859D01*
X74378Y126976D01*
X74368Y127093D01*
X74351Y127207D01*
X74326Y127321D01*
X74295Y127433D01*
X74257Y127543D01*
X74211Y127652D01*
X74159Y127760D01*
X74100Y127866D01*
X74034Y127971D01*
X75124D01*
X75132Y127978D01*
X75140Y127970D01*
D02*
G37*
G36*
X35424Y148876D02*
Y124189D01*
X34194D01*
Y148300D01*
X34962Y149068D01*
X35424Y148876D01*
D02*
G37*
G36*
X52678Y123982D02*
X52556Y123853D01*
X52451Y123727D01*
X52362Y123604D01*
X52291Y123483D01*
X52236Y123366D01*
X52198Y123251D01*
X52177Y123140D01*
X52173Y123031D01*
X52185Y122925D01*
X52214Y122822D01*
X50823Y124214D01*
X50925Y124185D01*
X51031Y124173D01*
X51140Y124177D01*
X51252Y124198D01*
X51366Y124236D01*
X51483Y124291D01*
X51604Y124362D01*
X51727Y124451D01*
X51853Y124556D01*
X51982Y124678D01*
X52678Y123982D01*
D02*
G37*
G36*
X68190Y123638D02*
X67996Y123436D01*
X67689Y123074D01*
X67578Y122914D01*
X67494Y122768D01*
X67439Y122636D01*
X67411Y122518D01*
Y122413D01*
X67439Y122323D01*
X67494Y122246D01*
X66102Y123638D01*
X66179Y123582D01*
X66269Y123555D01*
X66374D01*
X66492Y123582D01*
X66624Y123638D01*
X66771Y123722D01*
X66931Y123833D01*
X67105Y123972D01*
X67494Y124334D01*
X68190Y123638D01*
D02*
G37*
G36*
X33387Y124187D02*
X33402Y124020D01*
X33426Y123872D01*
X33461Y123744D01*
X33505Y123636D01*
X33559Y123547D01*
X33623Y123478D01*
X33697Y123429D01*
X33781Y123399D01*
X33874Y123390D01*
X31905D01*
X31999Y123399D01*
X32083Y123429D01*
X32157Y123478D01*
X32221Y123547D01*
X32275Y123636D01*
X32319Y123744D01*
X32353Y123872D01*
X32378Y124020D01*
X32393Y124187D01*
X32398Y124374D01*
X33382D01*
X33387Y124187D01*
D02*
G37*
G36*
X8834Y122927D02*
X8639Y122726D01*
X8333Y122364D01*
X8222Y122204D01*
X8138Y122057D01*
X8082Y121925D01*
X8055Y121807D01*
Y121703D01*
X8082Y121612D01*
X8138Y121536D01*
X6746Y122927D01*
X6823Y122872D01*
X6913Y122844D01*
X7017D01*
X7136Y122872D01*
X7268Y122927D01*
X7414Y123011D01*
X7574Y123122D01*
X7748Y123261D01*
X8138Y123623D01*
X8834Y122927D01*
D02*
G37*
G36*
X133992Y123509D02*
X134022Y123425D01*
X134072Y123351D01*
X134142Y123287D01*
X134231Y123233D01*
X134341Y123189D01*
X134471Y123154D01*
X134620Y123130D01*
X134789Y123115D01*
X134979Y123110D01*
Y122126D01*
X134789Y122121D01*
X134620Y122106D01*
X134471Y122082D01*
X134341Y122047D01*
X134231Y122003D01*
X134142Y121949D01*
X134072Y121885D01*
X134022Y121811D01*
X133992Y121727D01*
X133982Y121634D01*
Y123602D01*
X133992Y123509D01*
D02*
G37*
G36*
X97069Y165414D02*
X97100Y165258D01*
X97398Y164811D01*
X97100Y164364D01*
X96993Y163827D01*
X97100Y163289D01*
X97398Y162843D01*
X97100Y162396D01*
X96993Y161858D01*
X97100Y161321D01*
X97398Y160874D01*
X97100Y160427D01*
X96993Y159890D01*
X97100Y159352D01*
X97398Y158905D01*
X97100Y158459D01*
X96993Y157921D01*
X97100Y157384D01*
X97398Y156937D01*
X97100Y156490D01*
X96993Y155953D01*
X97100Y155415D01*
X97398Y154969D01*
X97100Y154522D01*
X96993Y153984D01*
X97100Y153447D01*
X97398Y153000D01*
X97100Y152553D01*
X96993Y152016D01*
X97100Y151478D01*
X97398Y151031D01*
X97100Y150585D01*
X96993Y150047D01*
X97100Y149510D01*
X97398Y149063D01*
X97100Y148616D01*
X96993Y148079D01*
X97100Y147541D01*
X97398Y147095D01*
X97100Y146648D01*
X96993Y146110D01*
X97100Y145573D01*
X97398Y145126D01*
X97100Y144679D01*
X96993Y144142D01*
X97100Y143604D01*
X97398Y143157D01*
X97100Y142711D01*
X96993Y142173D01*
X97100Y141636D01*
X97398Y141189D01*
X97100Y140742D01*
X96993Y140205D01*
X97100Y139667D01*
X97398Y139220D01*
X97100Y138774D01*
X96993Y138236D01*
X97100Y137699D01*
X97404Y137243D01*
X97860Y136938D01*
X98398Y136831D01*
X103761D01*
X103838Y136778D01*
X104082Y136573D01*
X111885Y128770D01*
X111914Y128735D01*
X111965Y128664D01*
X111999Y128608D01*
X112017Y128569D01*
X112019Y128562D01*
X112013Y128542D01*
X112011Y128515D01*
X111932Y128322D01*
X111823Y127500D01*
X111932Y126678D01*
X112249Y125912D01*
X112754Y125254D01*
X113412Y124749D01*
X114178Y124432D01*
X115000Y124323D01*
X115822Y124432D01*
X116588Y124749D01*
X117246Y125254D01*
X117751Y125912D01*
X118069Y126678D01*
X118177Y127500D01*
X118069Y128322D01*
X117751Y129088D01*
X117246Y129746D01*
X116588Y130251D01*
X116037Y130479D01*
Y131021D01*
X116588Y131249D01*
X117246Y131754D01*
X117751Y132412D01*
X118069Y133178D01*
X118177Y134000D01*
X118069Y134822D01*
X117751Y135588D01*
X117246Y136246D01*
X116588Y136751D01*
X116037Y136979D01*
Y137521D01*
X116588Y137749D01*
X117246Y138254D01*
X117751Y138912D01*
X118069Y139678D01*
X118177Y140500D01*
X118069Y141322D01*
X117751Y142088D01*
X117246Y142746D01*
X116588Y143251D01*
X116037Y143479D01*
Y144021D01*
X116588Y144249D01*
X117246Y144754D01*
X117751Y145412D01*
X118069Y146178D01*
X118177Y147000D01*
X118069Y147822D01*
X117751Y148588D01*
X117246Y149246D01*
X116588Y149751D01*
X115822Y150068D01*
X115000Y150177D01*
X114178Y150068D01*
X113758Y149894D01*
X113474Y150318D01*
X113867Y150711D01*
X117561D01*
X119695Y148576D01*
Y102562D01*
X113563Y96429D01*
X113563Y96429D01*
X113101Y95968D01*
X112932Y95810D01*
X112798Y95702D01*
X112765Y95679D01*
X109441D01*
Y90364D01*
X114559D01*
Y93679D01*
X114598Y93735D01*
X114751Y93915D01*
X114760Y93923D01*
X114861Y93991D01*
X114964Y94049D01*
X115068Y94098D01*
X115177Y94138D01*
X115291Y94169D01*
X115411Y94192D01*
X115499Y94202D01*
X120063D01*
Y93219D01*
X124637D01*
Y97794D01*
X120063D01*
Y96811D01*
X118288D01*
X118097Y97273D01*
X121923Y101099D01*
X122205Y101522D01*
X122305Y102021D01*
Y149117D01*
X122205Y149616D01*
X121923Y150039D01*
X119547Y152415D01*
X119738Y152876D01*
X132279D01*
X139298Y145857D01*
X139330Y145812D01*
X139356Y145768D01*
X139376Y145727D01*
X139391Y145687D01*
X139403Y145648D01*
X139411Y145608D01*
X139412Y145598D01*
X139393Y145500D01*
X139553Y144694D01*
X140010Y144010D01*
X140693Y143553D01*
X141500Y143393D01*
X142306Y143553D01*
X142990Y144010D01*
X143447Y144694D01*
X143607Y145500D01*
X143523Y145925D01*
X143984Y146171D01*
X147181Y142974D01*
Y141240D01*
X143151D01*
Y134151D01*
X143151Y133760D01*
X142659Y133740D01*
X135887D01*
Y130016D01*
X135675D01*
Y129063D01*
X139627D01*
X143580D01*
Y130016D01*
X143368D01*
Y133350D01*
X143368Y133740D01*
X143859Y133760D01*
X147679D01*
Y133799D01*
X157128D01*
X157620Y133780D01*
X157620Y133307D01*
Y131299D01*
Y127323D01*
Y123346D01*
Y119924D01*
X157620Y119468D01*
X157187Y119468D01*
X147285D01*
Y119429D01*
X145316D01*
Y119390D01*
X143686D01*
X143348Y119390D01*
X143210Y119833D01*
Y123321D01*
X144485D01*
X144610Y122694D01*
X145066Y122010D01*
X145750Y121553D01*
X146557Y121393D01*
X147363Y121553D01*
X148047Y122010D01*
X148504Y122694D01*
X148664Y123500D01*
X148504Y124306D01*
X148047Y124990D01*
X147734Y125199D01*
Y125801D01*
X148047Y126010D01*
X148504Y126693D01*
X148664Y127500D01*
X148504Y128306D01*
X148047Y128990D01*
X147363Y129447D01*
X146557Y129607D01*
X145750Y129447D01*
X145066Y128990D01*
X144610Y128306D01*
X144528Y127899D01*
X143580D01*
Y128063D01*
X139627D01*
X135675D01*
Y127110D01*
X135809D01*
Y125866D01*
X135769D01*
Y123923D01*
X134794D01*
Y124937D01*
X130219D01*
Y120363D01*
X134794D01*
Y121314D01*
X135730D01*
Y119331D01*
X138604D01*
X138632Y119326D01*
X138696Y119310D01*
X138767Y119285D01*
X138845Y119249D01*
X138931Y119201D01*
X139025Y119139D01*
X139125Y119063D01*
X139177Y119018D01*
X142757Y115439D01*
X143014Y115140D01*
X143120Y114997D01*
X143208Y114863D01*
X143273Y114746D01*
X143283Y114723D01*
Y111040D01*
X142727Y110484D01*
X142600Y110294D01*
X141363D01*
Y105719D01*
X142202D01*
Y100437D01*
X141219D01*
Y98906D01*
X141216Y98889D01*
X141219Y98872D01*
Y98273D01*
X141205Y98249D01*
X141069Y98054D01*
X140684Y97598D01*
X140191Y97106D01*
X130688D01*
X130586Y97114D01*
X130412Y97139D01*
X130287Y97169D01*
Y97787D01*
X129505D01*
X129488Y97791D01*
X129471Y97787D01*
X125713D01*
Y93213D01*
X127244D01*
X127261Y93209D01*
X127278Y93213D01*
X127877D01*
X127901Y93199D01*
X128096Y93063D01*
X128552Y92678D01*
X131894Y89335D01*
Y75842D01*
X131394Y75743D01*
X131251Y76088D01*
X130746Y76746D01*
X130687Y76792D01*
X130341Y77160D01*
X130201Y77335D01*
X130079Y77505D01*
X129981Y77663D01*
X129907Y77807D01*
X129854Y77935D01*
X129820Y78047D01*
X129805Y78130D01*
Y81664D01*
X130637D01*
Y86238D01*
X126063D01*
Y81664D01*
X127195D01*
Y78130D01*
X127180Y78047D01*
X127146Y77935D01*
X127093Y77807D01*
X127019Y77663D01*
X126921Y77505D01*
X126805Y77343D01*
X126474Y76954D01*
X126322Y76798D01*
X126254Y76746D01*
X125749Y76088D01*
X125432Y75322D01*
X125323Y74500D01*
X125432Y73678D01*
X125749Y72912D01*
X125984Y72606D01*
X125737Y72106D01*
X123165D01*
X122052Y73218D01*
X122005Y73279D01*
X121925Y73401D01*
X121856Y73527D01*
X121798Y73661D01*
X121750Y73802D01*
X121713Y73952D01*
X121686Y74113D01*
X121670Y74285D01*
X121666Y74421D01*
X121677Y74500D01*
X121569Y75322D01*
X121251Y76088D01*
X120746Y76746D01*
X120088Y77251D01*
X119322Y77569D01*
X118500Y77677D01*
X117678Y77569D01*
X116912Y77251D01*
X116254Y76746D01*
X115749Y76088D01*
X115431Y75322D01*
X115323Y74500D01*
X115431Y73678D01*
X115749Y72912D01*
X116254Y72254D01*
X116912Y71749D01*
X117678Y71431D01*
X118500Y71323D01*
X118579Y71334D01*
X118715Y71330D01*
X118887Y71314D01*
X119048Y71287D01*
X119198Y71250D01*
X119339Y71202D01*
X119473Y71144D01*
X119599Y71075D01*
X119721Y70995D01*
X119782Y70948D01*
X121365Y69365D01*
X121365Y69365D01*
X121886Y69017D01*
X122500Y68894D01*
X131000D01*
X131000Y68894D01*
X131614Y69017D01*
X132135Y69365D01*
X134635Y71865D01*
X134635Y71865D01*
X134983Y72386D01*
X135106Y73000D01*
Y90000D01*
X134983Y90614D01*
X134635Y91135D01*
X134635Y91135D01*
X132338Y93432D01*
X132530Y93894D01*
X140856D01*
X140856Y93894D01*
X141000Y93777D01*
Y93000D01*
X143500D01*
X146000D01*
Y95000D01*
X143342D01*
X143146Y95500D01*
X143167Y95519D01*
X143401Y95706D01*
X143606Y95849D01*
X143630Y95863D01*
X144228D01*
X144246Y95859D01*
X144263Y95863D01*
X144977D01*
X144994Y95859D01*
X145012Y95863D01*
X145794D01*
Y96481D01*
X145919Y96511D01*
X146093Y96536D01*
X146194Y96544D01*
X157506D01*
X157506Y96544D01*
X158121Y96667D01*
X158642Y97015D01*
X160673Y99045D01*
X161135Y98854D01*
Y97760D01*
X161135Y97760D01*
X161257Y97145D01*
X161605Y96624D01*
X164894Y93335D01*
Y90217D01*
X164394Y90054D01*
X163806Y90447D01*
X163000Y90607D01*
X162194Y90447D01*
X161510Y89990D01*
X161053Y89306D01*
X160893Y88500D01*
X161053Y87694D01*
X161383Y87200D01*
X161394Y87040D01*
Y86665D01*
X153432Y78702D01*
X153219Y78560D01*
X140565Y65906D01*
X140217Y65385D01*
X140094Y64771D01*
X140094Y64771D01*
Y53800D01*
X140217Y53185D01*
X140565Y52665D01*
X141086Y52317D01*
X141700Y52194D01*
X142290D01*
X142408Y52184D01*
X142577Y52156D01*
X142697Y52124D01*
X142713Y52118D01*
Y51013D01*
X146338D01*
X146459Y50943D01*
X146648Y50812D01*
X147076Y50453D01*
X149165Y48365D01*
X149165Y48365D01*
X149686Y48017D01*
X150300Y47894D01*
X150300Y47894D01*
X158335D01*
X160524Y45705D01*
X160277Y45245D01*
X159760Y45348D01*
X158953Y45187D01*
X158270Y44730D01*
X157813Y44047D01*
X157652Y43240D01*
X157813Y42434D01*
X158270Y41750D01*
X158353Y41695D01*
X158359Y41686D01*
X158382Y41652D01*
X158401Y41617D01*
X158418Y41578D01*
X158433Y41534D01*
X158446Y41485D01*
X158455Y41431D01*
Y39437D01*
X157472D01*
Y34863D01*
X161894D01*
X162047Y34863D01*
X162394Y34506D01*
Y34141D01*
X162041Y33787D01*
X157466D01*
Y29213D01*
X158449D01*
Y27130D01*
X158433Y27047D01*
X158400Y26935D01*
X158347Y26807D01*
X158272Y26663D01*
X158175Y26505D01*
X158059Y26343D01*
X157727Y25954D01*
X157575Y25798D01*
X157507Y25746D01*
X157002Y25088D01*
X156685Y24322D01*
X156577Y23500D01*
X156685Y22678D01*
X157002Y21912D01*
X157507Y21254D01*
X158013Y20865D01*
X157843Y20366D01*
X151663D01*
X151494Y20865D01*
X152000Y21254D01*
X152505Y21912D01*
X152822Y22678D01*
X152930Y23500D01*
X152822Y24322D01*
X152505Y25088D01*
X152000Y25746D01*
X151940Y25792D01*
X151595Y26160D01*
X151454Y26335D01*
X151332Y26505D01*
X151235Y26663D01*
X151160Y26807D01*
X151107Y26935D01*
X151073Y27047D01*
X151058Y27130D01*
Y28863D01*
X152034D01*
Y33437D01*
X147460D01*
Y28863D01*
X148449D01*
Y27130D01*
X148433Y27047D01*
X148400Y26935D01*
X148347Y26807D01*
X148272Y26663D01*
X148175Y26505D01*
X148059Y26343D01*
X147727Y25954D01*
X147575Y25798D01*
X147507Y25746D01*
X147002Y25088D01*
X146685Y24322D01*
X146577Y23500D01*
X146685Y22678D01*
X147002Y21912D01*
X147507Y21254D01*
X148013Y20865D01*
X147843Y20366D01*
X141664D01*
X141494Y20865D01*
X142000Y21254D01*
X142505Y21912D01*
X142822Y22678D01*
X142930Y23500D01*
X142822Y24322D01*
X142505Y25088D01*
X142000Y25746D01*
X141940Y25792D01*
X141595Y26160D01*
X141454Y26335D01*
X141332Y26505D01*
X141235Y26663D01*
X141160Y26807D01*
X141107Y26935D01*
X141073Y27047D01*
X141058Y27130D01*
Y28863D01*
X142041D01*
Y33437D01*
X137466D01*
Y28863D01*
X138449D01*
Y27130D01*
X138434Y27047D01*
X138400Y26935D01*
X138347Y26807D01*
X138272Y26663D01*
X138174Y26505D01*
X138059Y26343D01*
X137727Y25954D01*
X137575Y25798D01*
X137507Y25746D01*
X137002Y25088D01*
X136685Y24322D01*
X136577Y23500D01*
X136685Y22678D01*
X137002Y21912D01*
X137507Y21254D01*
X138013Y20865D01*
X137843Y20366D01*
X131664D01*
X131494Y20865D01*
X132000Y21254D01*
X132505Y21912D01*
X132822Y22678D01*
X132930Y23500D01*
X132822Y24322D01*
X132505Y25088D01*
X132000Y25746D01*
X131940Y25792D01*
X131595Y26160D01*
X131454Y26335D01*
X131332Y26505D01*
X131235Y26663D01*
X131160Y26807D01*
X131107Y26935D01*
X131073Y27047D01*
X131058Y27130D01*
Y28863D01*
X132034D01*
Y33437D01*
X127460D01*
Y28863D01*
X128449D01*
Y27130D01*
X128434Y27047D01*
X128400Y26935D01*
X128347Y26807D01*
X128272Y26663D01*
X128174Y26505D01*
X128059Y26343D01*
X127727Y25954D01*
X127575Y25798D01*
X127507Y25746D01*
X127002Y25088D01*
X126685Y24322D01*
X126577Y23500D01*
X126685Y22678D01*
X127002Y21912D01*
X127507Y21254D01*
X128013Y20865D01*
X127843Y20366D01*
X121663D01*
X121494Y20865D01*
X122000Y21254D01*
X122505Y21912D01*
X122822Y22678D01*
X122930Y23500D01*
X122822Y24322D01*
X122505Y25088D01*
X122000Y25746D01*
X121940Y25792D01*
X121595Y26160D01*
X121454Y26335D01*
X121332Y26505D01*
X121235Y26663D01*
X121160Y26807D01*
X121107Y26935D01*
X121073Y27047D01*
X121058Y27130D01*
Y28863D01*
X122034D01*
Y33437D01*
X117460D01*
Y28863D01*
X118449D01*
Y27130D01*
X118433Y27047D01*
X118400Y26935D01*
X118347Y26807D01*
X118272Y26663D01*
X118175Y26505D01*
X118059Y26343D01*
X117727Y25954D01*
X117575Y25798D01*
X117507Y25746D01*
X117002Y25088D01*
X116685Y24322D01*
X116577Y23500D01*
X116685Y22678D01*
X117002Y21912D01*
X117507Y21254D01*
X118013Y20865D01*
X117843Y20366D01*
X111663D01*
X111494Y20865D01*
X112000Y21254D01*
X112505Y21912D01*
X112822Y22678D01*
X112930Y23500D01*
X112822Y24322D01*
X112505Y25088D01*
X112000Y25746D01*
X111940Y25792D01*
X111595Y26160D01*
X111454Y26335D01*
X111332Y26505D01*
X111235Y26663D01*
X111160Y26807D01*
X111107Y26935D01*
X111073Y27047D01*
X111058Y27130D01*
Y28863D01*
X112041D01*
Y33437D01*
X107466D01*
Y28863D01*
X108449D01*
Y27130D01*
X108433Y27047D01*
X108400Y26935D01*
X108347Y26807D01*
X108272Y26663D01*
X108175Y26505D01*
X108059Y26343D01*
X107727Y25954D01*
X107575Y25798D01*
X107507Y25746D01*
X107002Y25088D01*
X106685Y24322D01*
X106577Y23500D01*
X106685Y22678D01*
X107002Y21912D01*
X107507Y21254D01*
X108013Y20865D01*
X107843Y20366D01*
X101663D01*
X101494Y20865D01*
X102000Y21254D01*
X102505Y21912D01*
X102822Y22678D01*
X102930Y23500D01*
X102822Y24322D01*
X102505Y25088D01*
X102000Y25746D01*
X101940Y25792D01*
X101595Y26160D01*
X101454Y26335D01*
X101332Y26505D01*
X101235Y26663D01*
X101160Y26807D01*
X101107Y26935D01*
X101073Y27047D01*
X101058Y27130D01*
Y28563D01*
X102034D01*
Y33137D01*
X97460D01*
Y28563D01*
X98449D01*
Y27130D01*
X98434Y27047D01*
X98400Y26935D01*
X98347Y26807D01*
X98272Y26663D01*
X98175Y26505D01*
X98059Y26343D01*
X97727Y25954D01*
X97575Y25798D01*
X97507Y25746D01*
X97002Y25088D01*
X96685Y24322D01*
X96577Y23500D01*
X96685Y22678D01*
X97002Y21912D01*
X97507Y21254D01*
X98013Y20865D01*
X97843Y20366D01*
X91663D01*
X91494Y20865D01*
X92000Y21254D01*
X92505Y21912D01*
X92822Y22678D01*
X92930Y23500D01*
X92822Y24322D01*
X92505Y25088D01*
X92000Y25746D01*
X91940Y25792D01*
X91595Y26160D01*
X91454Y26335D01*
X91332Y26505D01*
X91235Y26663D01*
X91160Y26807D01*
X91107Y26935D01*
X91073Y27047D01*
X91058Y27130D01*
Y28363D01*
X92041D01*
Y32937D01*
X87466D01*
Y28363D01*
X88449D01*
Y27130D01*
X88433Y27047D01*
X88400Y26935D01*
X88347Y26807D01*
X88272Y26663D01*
X88174Y26505D01*
X88059Y26343D01*
X87727Y25954D01*
X87575Y25798D01*
X87507Y25746D01*
X87002Y25088D01*
X86685Y24322D01*
X86577Y23500D01*
X86685Y22678D01*
X87002Y21912D01*
X87507Y21254D01*
X88013Y20865D01*
X87843Y20366D01*
X73460D01*
X73460Y20366D01*
X73405Y20411D01*
Y55906D01*
X73494Y55965D01*
X73994Y55698D01*
Y53200D01*
X75994D01*
Y55700D01*
Y58200D01*
X75990D01*
X75851Y58535D01*
X75840Y58700D01*
X76007Y58856D01*
X76173Y58989D01*
X76278Y59063D01*
X78787D01*
Y60045D01*
X84213D01*
Y59063D01*
X88455D01*
Y58200D01*
X86994D01*
Y55700D01*
Y53200D01*
X88455D01*
Y38587D01*
X87472D01*
Y34013D01*
X92047D01*
Y38587D01*
X91064D01*
Y78937D01*
X91526Y79129D01*
X117578Y53078D01*
X118001Y52795D01*
X118500Y52695D01*
X135460D01*
X138455Y49700D01*
Y39087D01*
X137472D01*
Y38008D01*
X137458Y38005D01*
X137035Y37723D01*
X136752Y37299D01*
X136653Y36800D01*
X136752Y36301D01*
X137035Y35877D01*
X137458Y35595D01*
X137472Y35592D01*
Y34513D01*
X142047D01*
Y39087D01*
X141064D01*
Y50240D01*
X140965Y50739D01*
X140682Y51163D01*
X136923Y54922D01*
X136499Y55205D01*
X136000Y55305D01*
X119040D01*
X93235Y81110D01*
X93496Y81431D01*
X93755Y81500D01*
X93978Y81500D01*
X95500D01*
Y83500D01*
X93500D01*
Y81997D01*
X93500Y81826D01*
X93000Y81552D01*
X92836Y81657D01*
Y108568D01*
X93000Y109000D01*
X93336Y109000D01*
X95000D01*
Y111500D01*
Y114000D01*
X93000Y114000D01*
X92836Y114432D01*
Y114580D01*
X93219Y114863D01*
X97794D01*
Y119437D01*
X95428D01*
X95410Y119441D01*
X95393Y119437D01*
X95119D01*
X95072Y119470D01*
X94808Y119694D01*
X93600Y120902D01*
Y126428D01*
X94100Y126824D01*
X94264Y126792D01*
X94801Y126899D01*
X95257Y127203D01*
X95562Y127659D01*
X95669Y128197D01*
Y134102D01*
X95609Y134404D01*
X95568Y135217D01*
Y164621D01*
X96526Y165578D01*
X97069Y165414D01*
D02*
G37*
G36*
X64530Y121166D02*
X64520Y121259D01*
X64490Y121343D01*
X64441Y121417D01*
X64371Y121481D01*
X64281Y121535D01*
X64172Y121579D01*
X64042Y121614D01*
X63893Y121638D01*
X63723Y121653D01*
X63534Y121658D01*
Y122642D01*
X63723Y122647D01*
X63893Y122662D01*
X64042Y122686D01*
X64172Y122721D01*
X64281Y122765D01*
X64371Y122819D01*
X64441Y122883D01*
X64490Y122957D01*
X64520Y123041D01*
X64530Y123134D01*
Y121166D01*
D02*
G37*
G36*
X16575Y120449D02*
X16565Y120542D01*
X16535Y120626D01*
X16486Y120700D01*
X16416Y120764D01*
X16326Y120818D01*
X16217Y120862D01*
X16087Y120897D01*
X15938Y120921D01*
X15768Y120936D01*
X15579Y120941D01*
Y121925D01*
X15768Y121930D01*
X15938Y121945D01*
X16087Y121969D01*
X16217Y122004D01*
X16326Y122048D01*
X16416Y122102D01*
X16486Y122166D01*
X16535Y122240D01*
X16565Y122324D01*
X16575Y122417D01*
Y120449D01*
D02*
G37*
G36*
X13786Y122324D02*
X13816Y122240D01*
X13866Y122166D01*
X13935Y122102D01*
X14025Y122048D01*
X14135Y122004D01*
X14264Y121969D01*
X14414Y121945D01*
X14583Y121930D01*
X14772Y121925D01*
Y120941D01*
X14583Y120936D01*
X14414Y120921D01*
X14264Y120897D01*
X14135Y120862D01*
X14025Y120818D01*
X13935Y120764D01*
X13866Y120700D01*
X13816Y120626D01*
X13786Y120542D01*
X13776Y120449D01*
Y122417D01*
X13786Y122324D01*
D02*
G37*
G36*
X141175Y120135D02*
X141076Y120114D01*
X141005Y120078D01*
X140963Y120029D01*
X140949Y119965D01*
X140963Y119887D01*
X141005Y119795D01*
X141076Y119689D01*
X141175Y119569D01*
X141303Y119434D01*
X139911D01*
X139769Y119569D01*
X139629Y119689D01*
X139488Y119795D01*
X139348Y119887D01*
X139209Y119965D01*
X139070Y120029D01*
X138931Y120078D01*
X138793Y120114D01*
X138656Y120135D01*
X138519Y120142D01*
X141303D01*
X141175Y120135D01*
D02*
G37*
G36*
X7241Y119954D02*
X7157Y119924D01*
X7083Y119874D01*
X7019Y119804D01*
X6965Y119714D01*
X6921Y119605D01*
X6886Y119475D01*
X6862Y119326D01*
X6847Y119157D01*
X6842Y118967D01*
X5858D01*
X5853Y119157D01*
X5838Y119326D01*
X5814Y119475D01*
X5779Y119605D01*
X5735Y119714D01*
X5681Y119804D01*
X5617Y119874D01*
X5543Y119924D01*
X5459Y119954D01*
X5366Y119964D01*
X7334D01*
X7241Y119954D01*
D02*
G37*
G36*
X86887Y119083D02*
X86902Y118914D01*
X86926Y118764D01*
X86961Y118635D01*
X87005Y118525D01*
X87059Y118435D01*
X87123Y118366D01*
X87197Y118316D01*
X87280Y118286D01*
X87374Y118276D01*
X85405D01*
X85499Y118286D01*
X85583Y118316D01*
X85656Y118366D01*
X85720Y118435D01*
X85775Y118525D01*
X85819Y118635D01*
X85853Y118764D01*
X85878Y118914D01*
X85893Y119083D01*
X85898Y119272D01*
X86882D01*
X86887Y119083D01*
D02*
G37*
G36*
X52254Y117972D02*
X52132Y117843D01*
X52030Y117719D01*
X51947Y117599D01*
X51883Y117485D01*
X51839Y117375D01*
X51814Y117270D01*
X51808Y117169D01*
X51821Y117074D01*
X51853Y116983D01*
X51905Y116897D01*
X50186Y117855D01*
X50291Y117854D01*
X50398Y117866D01*
X50509Y117893D01*
X50622Y117933D01*
X50738Y117987D01*
X50856Y118055D01*
X50977Y118136D01*
X51100Y118232D01*
X51226Y118341D01*
X51355Y118464D01*
X52254Y117972D01*
D02*
G37*
G36*
X94220Y119139D02*
X94582Y118833D01*
X94742Y118721D01*
X94888Y118638D01*
X95021Y118582D01*
X95139Y118554D01*
X95243D01*
X95334Y118582D01*
X95410Y118638D01*
X94018Y117246D01*
X94074Y117323D01*
X94102Y117413D01*
Y117517D01*
X94074Y117636D01*
X94018Y117768D01*
X93935Y117914D01*
X93823Y118074D01*
X93684Y118248D01*
X93322Y118638D01*
X94018Y119334D01*
X94220Y119139D01*
D02*
G37*
G36*
X144159Y114502D02*
X144149Y114642D01*
X144117Y114790D01*
X144064Y114945D01*
X143990Y115108D01*
X143895Y115278D01*
X143779Y115456D01*
X143642Y115641D01*
X143304Y116034D01*
X143103Y116242D01*
X143451Y117285D01*
X143586Y117158D01*
X143706Y117059D01*
X143812Y116988D01*
X143904Y116946D01*
X143982Y116931D01*
X144046Y116946D01*
X144096Y116988D01*
X144131Y117059D01*
X144152Y117158D01*
X144159Y117285D01*
Y114502D01*
D02*
G37*
G36*
X186071Y116795D02*
X186001Y116817D01*
X185924Y116837D01*
X185748Y116871D01*
X185651Y116884D01*
X185315Y116909D01*
X185057Y116913D01*
X184457Y117898D01*
X184587Y117902D01*
X184706Y117917D01*
X184815Y117940D01*
X184912Y117973D01*
X184999Y118015D01*
X185076Y118067D01*
X185142Y118128D01*
X185197Y118199D01*
X185241Y118279D01*
X185275Y118369D01*
X186071Y116795D01*
D02*
G37*
G36*
X178431Y118127D02*
X178460Y118079D01*
X178510Y118036D01*
X178578Y118000D01*
X178667Y117968D01*
X178775Y117943D01*
X178903Y117923D01*
X179051Y117909D01*
X179405Y117898D01*
Y116913D01*
X179218Y116911D01*
X178903Y116888D01*
X178775Y116868D01*
X178667Y116843D01*
X178578Y116811D01*
X178510Y116775D01*
X178460Y116732D01*
X178431Y116684D01*
X178421Y116630D01*
Y118181D01*
X178431Y118127D01*
D02*
G37*
G36*
Y115568D02*
X178460Y115520D01*
X178510Y115477D01*
X178578Y115441D01*
X178667Y115409D01*
X178775Y115384D01*
X178903Y115364D01*
X179051Y115350D01*
X179405Y115339D01*
Y114354D01*
X179218Y114351D01*
X178903Y114329D01*
X178775Y114309D01*
X178667Y114284D01*
X178578Y114252D01*
X178510Y114216D01*
X178460Y114173D01*
X178431Y114125D01*
X178421Y114071D01*
Y115622D01*
X178431Y115568D01*
D02*
G37*
G36*
X186256Y115256D02*
X185222Y113933D01*
X185211Y114013D01*
X185186Y114084D01*
X185148Y114148D01*
X185097Y114203D01*
X185031Y114249D01*
X184953Y114287D01*
X184860Y114316D01*
X184755Y114338D01*
X184635Y114350D01*
X184503Y114354D01*
X184773Y115339D01*
X186256Y115256D01*
D02*
G37*
G36*
X173721Y111512D02*
X173711Y111566D01*
X173681Y111614D01*
X173632Y111656D01*
X173563Y111693D01*
X173475Y111724D01*
X173366Y111750D01*
X173238Y111770D01*
X173091Y111784D01*
X172736Y111795D01*
Y112779D01*
X172923Y112782D01*
X173238Y112805D01*
X173366Y112825D01*
X173475Y112850D01*
X173563Y112882D01*
X173632Y112918D01*
X173681Y112961D01*
X173711Y113009D01*
X173721Y113063D01*
Y111512D01*
D02*
G37*
G36*
X10013Y122304D02*
Y119146D01*
X14587D01*
Y120129D01*
X15764D01*
Y118677D01*
X22457D01*
Y120421D01*
X22850Y120677D01*
X22957Y120677D01*
X29043D01*
X29150Y120677D01*
X29543Y120421D01*
Y118677D01*
X33973D01*
X34164Y118215D01*
X31467Y115518D01*
X31185Y115095D01*
X31085Y114596D01*
Y111189D01*
X29150D01*
X29043Y111189D01*
X28650Y111446D01*
Y113189D01*
X22350D01*
Y111446D01*
X21957Y111189D01*
X21850Y111189D01*
X15264D01*
Y109738D01*
X14287D01*
Y110721D01*
X9713D01*
Y107575D01*
X9251Y107384D01*
X8931Y107704D01*
X8777Y107869D01*
X8671Y108000D01*
X8637Y108049D01*
Y110727D01*
X7655D01*
Y119152D01*
X8937D01*
Y121518D01*
X8941Y121536D01*
X8937Y121553D01*
Y121827D01*
X8970Y121874D01*
X9194Y122138D01*
X9551Y122495D01*
X10013Y122304D01*
D02*
G37*
G36*
X52678Y110982D02*
X52556Y110853D01*
X52451Y110727D01*
X52362Y110604D01*
X52291Y110483D01*
X52236Y110366D01*
X52198Y110251D01*
X52177Y110140D01*
X52173Y110031D01*
X52185Y109925D01*
X52214Y109822D01*
X50823Y111214D01*
X50925Y111185D01*
X51031Y111173D01*
X51140Y111177D01*
X51252Y111198D01*
X51366Y111236D01*
X51483Y111291D01*
X51604Y111362D01*
X51727Y111451D01*
X51853Y111556D01*
X51982Y111678D01*
X52678Y110982D01*
D02*
G37*
G36*
X32887Y111187D02*
X32902Y111020D01*
X32926Y110872D01*
X32961Y110744D01*
X33005Y110636D01*
X33059Y110547D01*
X33123Y110478D01*
X33197Y110429D01*
X33281Y110399D01*
X33374Y110390D01*
X31405D01*
X31499Y110399D01*
X31583Y110429D01*
X31657Y110478D01*
X31721Y110547D01*
X31775Y110636D01*
X31819Y110744D01*
X31853Y110872D01*
X31878Y111020D01*
X31893Y111187D01*
X31898Y111374D01*
X32882D01*
X32887Y111187D01*
D02*
G37*
G36*
X6847Y110725D02*
X6862Y110557D01*
X6886Y110410D01*
X6921Y110282D01*
X6965Y110173D01*
X7019Y110085D01*
X7083Y110016D01*
X7157Y109967D01*
X7241Y109937D01*
X7334Y109927D01*
X5366D01*
X5459Y109937D01*
X5543Y109967D01*
X5617Y110016D01*
X5681Y110085D01*
X5735Y110173D01*
X5779Y110282D01*
X5814Y110410D01*
X5838Y110557D01*
X5853Y110725D01*
X5858Y110912D01*
X6842D01*
X6847Y110725D01*
D02*
G37*
G36*
X169690Y109638D02*
X169494Y109435D01*
X169186Y109072D01*
X169073Y108911D01*
X168988Y108765D01*
X168931Y108633D01*
X168903Y108515D01*
X168901Y108411D01*
X168928Y108321D01*
X168982Y108246D01*
X168671Y108558D01*
X168294Y108150D01*
X167506Y108937D01*
X167534Y108949D01*
X167583Y108982D01*
X167653Y109037D01*
X167935Y109294D01*
X167603Y109626D01*
X167678Y109572D01*
X167768Y109545D01*
X167871Y109546D01*
X167989Y109575D01*
X168121Y109632D01*
X168268Y109717D01*
X168428Y109829D01*
X168603Y109970D01*
X168994Y110334D01*
X169690Y109638D01*
D02*
G37*
G36*
X148014Y109989D02*
X148376Y109683D01*
X148536Y109572D01*
X148682Y109488D01*
X148814Y109432D01*
X148933Y109405D01*
X149037D01*
X149127Y109432D01*
X149204Y109488D01*
X147812Y108096D01*
X147868Y108173D01*
X147896Y108263D01*
Y108368D01*
X147868Y108486D01*
X147812Y108618D01*
X147729Y108764D01*
X147617Y108924D01*
X147478Y109098D01*
X147116Y109488D01*
X147812Y110184D01*
X148014Y109989D01*
D02*
G37*
G36*
X47853Y108016D02*
X47800Y108109D01*
X47734Y108193D01*
X47655Y108267D01*
X47561Y108331D01*
X47453Y108385D01*
X47331Y108429D01*
X47196Y108464D01*
X47046Y108488D01*
X46883Y108503D01*
X46705Y108508D01*
Y109492D01*
X46883Y109497D01*
X47046Y109512D01*
X47196Y109536D01*
X47331Y109571D01*
X47453Y109615D01*
X47561Y109669D01*
X47655Y109733D01*
X47734Y109807D01*
X47800Y109891D01*
X47853Y109984D01*
Y108016D01*
D02*
G37*
G36*
X16075Y107449D02*
X16065Y107542D01*
X16035Y107626D01*
X15985Y107700D01*
X15916Y107764D01*
X15826Y107818D01*
X15717Y107862D01*
X15587Y107897D01*
X15438Y107921D01*
X15268Y107936D01*
X15079Y107941D01*
Y108925D01*
X15268Y108930D01*
X15438Y108945D01*
X15587Y108969D01*
X15717Y109004D01*
X15826Y109048D01*
X15916Y109102D01*
X15985Y109166D01*
X16035Y109240D01*
X16065Y109324D01*
X16075Y109417D01*
Y107449D01*
D02*
G37*
G36*
X13486Y109324D02*
X13516Y109240D01*
X13566Y109166D01*
X13635Y109102D01*
X13725Y109048D01*
X13835Y109004D01*
X13964Y108969D01*
X14114Y108945D01*
X14283Y108930D01*
X14472Y108925D01*
Y107941D01*
X14283Y107936D01*
X14114Y107921D01*
X13964Y107897D01*
X13835Y107862D01*
X13725Y107818D01*
X13635Y107764D01*
X13566Y107700D01*
X13516Y107626D01*
X13486Y107542D01*
X13476Y107449D01*
Y109417D01*
X13486Y109324D01*
D02*
G37*
G36*
X168245Y106662D02*
X168123Y106751D01*
X167978Y106796D01*
X167811D01*
X167622Y106751D01*
X167410Y106662D01*
X167176Y106528D01*
X166920Y106350D01*
X166642Y106128D01*
X166018Y105549D01*
X164905Y106662D01*
X165217Y106985D01*
X165707Y107564D01*
X165885Y107820D01*
X166018Y108054D01*
X166107Y108265D01*
X166152Y108455D01*
Y108622D01*
X166107Y108767D01*
X166018Y108889D01*
X168245Y106662D01*
D02*
G37*
G36*
X7772Y108268D02*
X7745Y108178D01*
X7746Y108074D01*
X7775Y107957D01*
X7832Y107824D01*
X7917Y107678D01*
X8029Y107518D01*
X8170Y107343D01*
X8534Y106951D01*
X7838Y106255D01*
X7635Y106452D01*
X7272Y106760D01*
X7111Y106873D01*
X6965Y106957D01*
X6833Y107014D01*
X6715Y107043D01*
X6611Y107045D01*
X6521Y107018D01*
X6446Y106964D01*
X7826Y108343D01*
X7772Y108268D01*
D02*
G37*
G36*
X144397Y106520D02*
X144314Y106491D01*
X144240Y106441D01*
X144176Y106371D01*
X144122Y106281D01*
X144077Y106172D01*
X144043Y106042D01*
X144018Y105893D01*
X144003Y105723D01*
X143999Y105534D01*
X143014D01*
X143009Y105723D01*
X142995Y105893D01*
X142970Y106042D01*
X142936Y106172D01*
X142891Y106281D01*
X142837Y106371D01*
X142773Y106441D01*
X142699Y106491D01*
X142616Y106520D01*
X142522Y106530D01*
X144491D01*
X144397Y106520D01*
D02*
G37*
G36*
X81062Y106053D02*
X81155Y105977D01*
X81251Y105909D01*
X81350Y105851D01*
X81450Y105802D01*
X81553Y105762D01*
X81658Y105731D01*
X81766Y105709D01*
X81875Y105696D01*
X81987Y105693D01*
X80721Y104426D01*
X80717Y104538D01*
X80704Y104648D01*
X80683Y104755D01*
X80652Y104860D01*
X80612Y104963D01*
X80563Y105064D01*
X80504Y105162D01*
X80436Y105258D01*
X80360Y105352D01*
X80274Y105443D01*
X80970Y106139D01*
X81062Y106053D01*
D02*
G37*
G36*
X64487Y103220D02*
X64375Y103217D01*
X64266Y103205D01*
X64158Y103183D01*
X64053Y103152D01*
X63950Y103112D01*
X63850Y103062D01*
X63751Y103004D01*
X63655Y102937D01*
X63561Y102860D01*
X63470Y102774D01*
X62774Y103470D01*
X62860Y103561D01*
X62937Y103655D01*
X63004Y103751D01*
X63063Y103850D01*
X63112Y103950D01*
X63152Y104053D01*
X63183Y104158D01*
X63204Y104266D01*
X63217Y104375D01*
X63221Y104487D01*
X64487Y103220D01*
D02*
G37*
G36*
X90227Y117755D02*
Y102655D01*
X89765Y102464D01*
X84305Y107924D01*
Y108650D01*
X85994D01*
Y111150D01*
Y113650D01*
X84305D01*
Y114513D01*
X88787D01*
Y118487D01*
X89287Y118694D01*
X90227Y117755D01*
D02*
G37*
G36*
X88455Y100084D02*
Y63637D01*
X84213D01*
Y62655D01*
X78787D01*
Y63637D01*
X74213D01*
Y62655D01*
X73690D01*
X72028Y64317D01*
X72209Y64752D01*
X72209D01*
Y66720D01*
Y70657D01*
Y74382D01*
X72421D01*
Y75374D01*
X68468D01*
X64516D01*
Y74382D01*
X64728D01*
Y72626D01*
Y68689D01*
Y65146D01*
X53114D01*
Y70657D01*
Y74382D01*
X53327D01*
Y75003D01*
X53827Y75210D01*
X54509Y74528D01*
X54402Y73990D01*
X53945Y73307D01*
X53785Y72500D01*
X53945Y71693D01*
X54402Y71010D01*
X55086Y70553D01*
X55892Y70393D01*
X56699Y70553D01*
X57382Y71010D01*
X57462Y71128D01*
X57629Y71150D01*
X58033Y71083D01*
X58415Y70510D01*
X59099Y70053D01*
X59905Y69893D01*
X60712Y70053D01*
X61396Y70510D01*
X61853Y71193D01*
X62013Y72000D01*
X61853Y72807D01*
X61396Y73490D01*
X61049Y73722D01*
X60999Y73771D01*
X60992Y73774D01*
X60987Y73779D01*
X60970Y73790D01*
X60222Y74448D01*
X58372Y76298D01*
X58564Y76760D01*
X64516D01*
Y76374D01*
X67968D01*
Y77366D01*
X65122D01*
Y84240D01*
X63078D01*
Y85219D01*
X64437D01*
Y89794D01*
X62126D01*
X61935Y90256D01*
X73071Y101392D01*
X73571Y101185D01*
Y74497D01*
X73571Y74497D01*
X73663Y74037D01*
X73924Y73646D01*
X75343Y72227D01*
Y68903D01*
X75342Y68898D01*
X75333Y68856D01*
X75319Y68813D01*
X75300Y68768D01*
X75275Y68720D01*
X75242Y68667D01*
X75201Y68611D01*
X75153Y68555D01*
X75057Y68490D01*
X74600Y67807D01*
X74440Y67000D01*
X74600Y66193D01*
X75057Y65510D01*
X75741Y65053D01*
X76547Y64893D01*
X77354Y65053D01*
X78037Y65510D01*
X78494Y66193D01*
X78655Y67000D01*
X78494Y67807D01*
X78037Y68490D01*
X77941Y68555D01*
X77894Y68611D01*
X77852Y68667D01*
X77819Y68720D01*
X77794Y68768D01*
X77775Y68814D01*
X77762Y68856D01*
X77752Y68898D01*
X77751Y68903D01*
Y72726D01*
X77745Y72759D01*
X78062Y73146D01*
X83164D01*
X83171Y73145D01*
X83222Y73135D01*
X83277Y73119D01*
X83335Y73098D01*
X83398Y73070D01*
X83466Y73035D01*
X83538Y72991D01*
X83538Y72991D01*
X83614Y72939D01*
X83710Y72866D01*
X83769Y72837D01*
X84193Y72553D01*
X85000Y72393D01*
X85807Y72553D01*
X86490Y73010D01*
X86947Y73694D01*
X87107Y74500D01*
X86947Y75306D01*
X86490Y75990D01*
X85807Y76447D01*
X85000Y76607D01*
X84193Y76447D01*
X83510Y75990D01*
X83391Y75813D01*
X83370Y75796D01*
X83305Y75717D01*
X83260Y75670D01*
X83219Y75635D01*
X83182Y75608D01*
X83149Y75588D01*
X83118Y75573D01*
X83087Y75562D01*
X83055Y75555D01*
X83053Y75554D01*
X77751D01*
Y80581D01*
X78251Y80848D01*
X78693Y80553D01*
X79500Y80393D01*
X80307Y80553D01*
X80990Y81010D01*
X81447Y81694D01*
X81607Y82500D01*
X81447Y83306D01*
X80990Y83990D01*
X80307Y84447D01*
X79820Y84544D01*
Y103055D01*
X80320Y103207D01*
X80510Y102923D01*
X81194Y102466D01*
X82000Y102306D01*
X82806Y102466D01*
X83490Y102923D01*
X83947Y103607D01*
X83993Y103839D01*
X84536Y104003D01*
X88455Y100084D01*
D02*
G37*
G36*
X164430Y103944D02*
X164240Y103707D01*
X164073Y103462D01*
X163928Y103207D01*
X163806Y102942D01*
X163706Y102669D01*
X163628Y102386D01*
X163572Y102094D01*
X163539Y101793D01*
X163528Y101483D01*
X161953Y99908D01*
X161942Y100196D01*
X161908Y100430D01*
X161853Y100611D01*
X161775Y100738D01*
X161674Y100811D01*
X161552Y100830D01*
X161407Y100795D01*
X161240Y100707D01*
X161051Y100565D01*
X160839Y100369D01*
X162740Y103384D01*
X164641Y104171D01*
X164430Y103944D01*
D02*
G37*
G36*
X144003Y100433D02*
X144018Y100264D01*
X144043Y100114D01*
X144077Y99985D01*
X144122Y99875D01*
X144176Y99785D01*
X144240Y99716D01*
X144314Y99666D01*
X144397Y99636D01*
X144491Y99626D01*
X144027D01*
X144063Y98706D01*
X142949D01*
X142962Y98734D01*
X142973Y98793D01*
X142982Y98881D01*
X143004Y99326D01*
X143007Y99626D01*
X142522D01*
X142616Y99636D01*
X142699Y99666D01*
X142773Y99716D01*
X142837Y99785D01*
X142891Y99875D01*
X142936Y99985D01*
X142970Y100114D01*
X142995Y100264D01*
X143009Y100433D01*
X143014Y100622D01*
X143999D01*
X144003Y100433D01*
D02*
G37*
G36*
X145010Y99505D02*
X145057Y99386D01*
X145136Y99281D01*
X145246Y99190D01*
X145388Y99112D01*
X145561Y99050D01*
X145766Y99001D01*
X146002Y98965D01*
X146270Y98944D01*
X146569Y98937D01*
Y97363D01*
X146270Y97356D01*
X146002Y97335D01*
X145766Y97299D01*
X145561Y97250D01*
X145388Y97188D01*
X145246Y97110D01*
X145136Y97019D01*
X145057Y96914D01*
X145010Y96795D01*
X144994Y96662D01*
Y99638D01*
X145010Y99505D01*
D02*
G37*
G36*
X144246Y96662D02*
X144123Y96751D01*
X143978Y96796D01*
X143811D01*
X143622Y96751D01*
X143410Y96662D01*
X143176Y96528D01*
X142920Y96350D01*
X142642Y96127D01*
X142018Y95548D01*
X140905Y96662D01*
X141217Y96985D01*
X141707Y97564D01*
X141885Y97820D01*
X142018Y98054D01*
X142107Y98265D01*
X142152Y98455D01*
Y98622D01*
X142107Y98767D01*
X142018Y98889D01*
X144246Y96662D01*
D02*
G37*
G36*
X129504Y96855D02*
X129551Y96736D01*
X129630Y96631D01*
X129740Y96540D01*
X129882Y96463D01*
X130055Y96399D01*
X130260Y96351D01*
X130496Y96315D01*
X130764Y96294D01*
X131063Y96287D01*
Y94713D01*
X130764Y94706D01*
X130496Y94685D01*
X130260Y94649D01*
X130055Y94600D01*
X130602Y94012D01*
X129488Y92898D01*
X129165Y93210D01*
X128586Y93700D01*
X128330Y93878D01*
X128096Y94012D01*
X127884Y94101D01*
X127695Y94146D01*
X127528D01*
X127383Y94101D01*
X127261Y94012D01*
X129488Y96239D01*
X129399Y96117D01*
X129354Y95972D01*
Y95805D01*
X129399Y95616D01*
X129488Y95404D01*
Y96988D01*
X129504Y96855D01*
D02*
G37*
G36*
X116247Y96562D02*
X116158Y96444D01*
X116103Y96339D01*
X116081Y96249D01*
X116093Y96172D01*
X116139Y96110D01*
X116218Y96061D01*
X116331Y96026D01*
X116478Y96005D01*
X116657Y95999D01*
X115673Y95014D01*
X115479Y95007D01*
X115291Y94986D01*
X115109Y94952D01*
X114932Y94903D01*
X114761Y94840D01*
X114596Y94764D01*
X114437Y94673D01*
X114283Y94569D01*
X114188Y94493D01*
X113961Y94225D01*
X113850Y94066D01*
X113766Y93920D01*
X113708Y93787D01*
X113678Y93668D01*
X113674Y93562D01*
X113698Y93469D01*
X113748Y93389D01*
X112466Y94867D01*
X112537Y94809D01*
X112624Y94778D01*
X112725Y94777D01*
X112841Y94805D01*
X112973Y94861D01*
X113120Y94946D01*
X113282Y95060D01*
X113459Y95203D01*
X113858Y95575D01*
X114281Y95013D01*
X114485Y95506D01*
X116369Y96694D01*
X116247Y96562D01*
D02*
G37*
G36*
X120874Y94522D02*
X120864Y94616D01*
X120834Y94699D01*
X120784Y94773D01*
X120715Y94837D01*
X120625Y94891D01*
X120515Y94936D01*
X120386Y94970D01*
X120236Y94995D01*
X120067Y95009D01*
X119878Y95014D01*
Y95999D01*
X120067Y96003D01*
X120236Y96018D01*
X120386Y96043D01*
X120515Y96077D01*
X120625Y96122D01*
X120715Y96176D01*
X120784Y96240D01*
X120834Y96314D01*
X120864Y96397D01*
X120874Y96491D01*
Y94522D01*
D02*
G37*
G36*
X163875Y87559D02*
X163857Y87518D01*
X163840Y87464D01*
X163826Y87397D01*
X163814Y87318D01*
X163797Y87119D01*
X163788Y86869D01*
X163787Y86724D01*
X162213D01*
X162212Y86869D01*
X162174Y87397D01*
X162160Y87464D01*
X162143Y87518D01*
X162125Y87559D01*
X162104Y87586D01*
X163896D01*
X163875Y87559D01*
D02*
G37*
G36*
X62587Y86022D02*
X62520Y85998D01*
X62461Y85958D01*
X62410Y85903D01*
X62366Y85831D01*
X62331Y85743D01*
X62303Y85639D01*
X62283Y85519D01*
X62272Y85383D01*
X62268Y85231D01*
X61480D01*
X61476Y85383D01*
X61465Y85519D01*
X61445Y85639D01*
X61417Y85743D01*
X61382Y85831D01*
X61339Y85903D01*
X61287Y85958D01*
X61228Y85998D01*
X61161Y86022D01*
X61087Y86030D01*
X62661D01*
X62587Y86022D01*
D02*
G37*
G36*
X62269Y84079D02*
X62299Y83567D01*
X62310Y83512D01*
X62323Y83472D01*
X62338Y83449D01*
X62354Y83441D01*
X61394D01*
X61410Y83449D01*
X61425Y83472D01*
X61438Y83512D01*
X61449Y83567D01*
X61459Y83638D01*
X61472Y83827D01*
X61480Y84228D01*
X62268D01*
X62269Y84079D01*
D02*
G37*
G36*
X79011Y84314D02*
X79022Y84194D01*
X79040Y84088D01*
X79066Y83998D01*
X79098Y83923D01*
X79138Y83863D01*
X79185Y83818D01*
X79239Y83788D01*
X79301Y83773D01*
X79369Y83773D01*
X78226Y82621D01*
X78024Y84085D01*
X79008Y84449D01*
X79011Y84314D01*
D02*
G37*
G36*
X129391Y82453D02*
X129307Y82424D01*
X129233Y82375D01*
X129169Y82306D01*
X129115Y82217D01*
X129071Y82109D01*
X129036Y81981D01*
X129012Y81833D01*
X128997Y81666D01*
X128992Y81479D01*
X128008D01*
X128003Y81666D01*
X127988Y81833D01*
X127964Y81981D01*
X127929Y82109D01*
X127885Y82217D01*
X127831Y82306D01*
X127767Y82375D01*
X127693Y82424D01*
X127609Y82453D01*
X127516Y82463D01*
X129484D01*
X129391Y82453D01*
D02*
G37*
G36*
X56432Y77554D02*
X56418Y77537D01*
X56405Y77509D01*
X56393Y77469D01*
X56384Y77419D01*
X56376Y77357D01*
X56366Y77200D01*
X56362Y76999D01*
X55575D01*
X55574Y77105D01*
X55553Y77419D01*
X55544Y77469D01*
X55532Y77509D01*
X55519Y77537D01*
X55505Y77554D01*
X55488Y77559D01*
X56449D01*
X56432Y77554D01*
D02*
G37*
G36*
X129004Y78045D02*
X129039Y77857D01*
X129097Y77665D01*
X129178Y77468D01*
X129282Y77266D01*
X129410Y77060D01*
X129561Y76849D01*
X129735Y76633D01*
X130154Y76187D01*
X126847D01*
X127067Y76412D01*
X127439Y76849D01*
X127590Y77060D01*
X127717Y77266D01*
X127822Y77468D01*
X127903Y77665D01*
X127961Y77857D01*
X127996Y78045D01*
X128008Y78228D01*
X128992D01*
X129004Y78045D01*
D02*
G37*
G36*
X84197Y73503D02*
X84085Y73589D01*
X83973Y73666D01*
X83860Y73734D01*
X83748Y73793D01*
X83635Y73843D01*
X83523Y73884D01*
X83411Y73915D01*
X83298Y73938D01*
X83186Y73952D01*
X83074Y73956D01*
X82976Y74744D01*
X83093Y74749D01*
X83207Y74765D01*
X83317Y74792D01*
X83424Y74830D01*
X83527Y74878D01*
X83626Y74938D01*
X83722Y75008D01*
X83814Y75089D01*
X83903Y75180D01*
X83987Y75282D01*
X84197Y73503D01*
D02*
G37*
G36*
X59592Y73933D02*
X60486Y73146D01*
X60556Y73102D01*
X58877Y72761D01*
X58935Y72850D01*
X58977Y72939D01*
X59003Y73029D01*
X59014Y73119D01*
X59008Y73209D01*
X58987Y73299D01*
X58951Y73390D01*
X58898Y73481D01*
X58830Y73572D01*
X58746Y73664D01*
X59439Y74085D01*
X59592Y73933D01*
D02*
G37*
G36*
X164894Y85101D02*
Y63450D01*
X164884Y63332D01*
X164856Y63163D01*
X164824Y63043D01*
X164818Y63028D01*
X163744D01*
Y61680D01*
X162000D01*
X161386Y61558D01*
X160865Y61210D01*
X160517Y60689D01*
X160394Y60075D01*
Y54500D01*
X160394Y54500D01*
X160517Y53886D01*
X160865Y53365D01*
X161605Y52624D01*
X161605Y52624D01*
X162126Y52276D01*
X162740Y52154D01*
X163677D01*
X163725Y52153D01*
X163744Y52151D01*
Y51972D01*
X164526D01*
X164543Y51969D01*
X164543Y51969D01*
X164543Y51969D01*
X164561Y51972D01*
X168439D01*
X168456Y51969D01*
X168474Y51972D01*
X169256D01*
Y52623D01*
X169267Y52628D01*
X169389Y52659D01*
X169560Y52685D01*
X169669Y52694D01*
X175312D01*
X175414Y52686D01*
X175588Y52661D01*
X175713Y52631D01*
Y52013D01*
X176495D01*
X176512Y52009D01*
X176529Y52013D01*
X177883D01*
X177896Y52005D01*
X178093Y51867D01*
X178349Y51650D01*
X178165Y51150D01*
X175494D01*
Y49150D01*
X177994D01*
Y48650D01*
X178494D01*
Y46150D01*
X180494D01*
Y48882D01*
X180956Y49074D01*
X190365Y39664D01*
Y27402D01*
X186218Y23254D01*
X185756Y23446D01*
Y27867D01*
X184012D01*
X183756Y28261D01*
Y34241D01*
X183756Y34560D01*
X184181Y34741D01*
X185968D01*
Y37800D01*
X183000D01*
X180032D01*
Y35060D01*
X180032Y34741D01*
X179606Y34560D01*
X178244D01*
Y29200D01*
X177782Y29009D01*
X175406Y31386D01*
Y35812D01*
X175414Y35914D01*
X175439Y36088D01*
X175469Y36213D01*
X176087D01*
Y36995D01*
X176091Y37012D01*
X176087Y37029D01*
Y40787D01*
X171513D01*
Y37029D01*
X171509Y37012D01*
X171513Y36995D01*
Y36213D01*
X172131D01*
X172161Y36088D01*
X172186Y35914D01*
X172194Y35812D01*
Y30720D01*
X172194Y30720D01*
X172317Y30106D01*
X172665Y29585D01*
X178865Y23385D01*
X178865Y23385D01*
X179385Y23037D01*
X180000Y22915D01*
X180244D01*
Y21965D01*
X179765Y21870D01*
X179244Y21522D01*
X179244Y21522D01*
X172304Y14582D01*
X163306D01*
X163227Y14593D01*
X163105Y14622D01*
X162995Y14661D01*
X162894Y14710D01*
X162800Y14770D01*
X162709Y14842D01*
X162621Y14930D01*
X162534Y15035D01*
X162515Y15062D01*
X162505Y15088D01*
X162445Y15166D01*
X162429Y15189D01*
X162421Y15197D01*
X162000Y15746D01*
X161342Y16251D01*
X160576Y16568D01*
X159925Y16654D01*
X159958Y17154D01*
X164000D01*
X164614Y17276D01*
X165135Y17624D01*
X165483Y18145D01*
X165606Y18760D01*
Y35825D01*
X165863Y36219D01*
X170437D01*
Y40794D01*
X169354D01*
Y42110D01*
X169354Y42110D01*
X169263Y42571D01*
X169001Y42961D01*
X169001Y42961D01*
X159256Y52707D01*
Y52751D01*
X159259Y52767D01*
X159256Y52785D01*
Y52824D01*
X159257Y52833D01*
X159256Y52837D01*
Y55547D01*
X154613D01*
X154611Y55548D01*
X154606Y55547D01*
X154561D01*
X154543Y55551D01*
X154526Y55547D01*
X153744D01*
Y55426D01*
X153444Y55406D01*
X149713D01*
X149597Y55416D01*
X149430Y55444D01*
X149312Y55475D01*
X149287Y55486D01*
Y56587D01*
X143306D01*
Y58500D01*
X145500D01*
Y61500D01*
Y64500D01*
X144353D01*
X144162Y64962D01*
X153544Y74344D01*
X154006Y74153D01*
Y71850D01*
X156006D01*
Y74350D01*
X156506D01*
Y74850D01*
X159006D01*
Y76850D01*
X156774D01*
X156583Y77312D01*
X164135Y84865D01*
X164135Y84865D01*
X164394Y85252D01*
X164894Y85101D01*
D02*
G37*
G36*
X120868Y74238D02*
X120889Y74008D01*
X120926Y73787D01*
X120980Y73575D01*
X121049Y73371D01*
X121134Y73176D01*
X121235Y72989D01*
X121352Y72811D01*
X121485Y72641D01*
X121634Y72480D01*
X120520Y71366D01*
X120359Y71515D01*
X120189Y71648D01*
X120011Y71765D01*
X119825Y71866D01*
X119629Y71951D01*
X119425Y72020D01*
X119213Y72074D01*
X118992Y72111D01*
X118762Y72132D01*
X118524Y72138D01*
X120862Y74476D01*
X120868Y74238D01*
D02*
G37*
G36*
X76946Y68870D02*
X76961Y68757D01*
X76986Y68645D01*
X77021Y68536D01*
X77066Y68428D01*
X77122Y68321D01*
X77187Y68217D01*
X77262Y68114D01*
X77348Y68013D01*
X77443Y67914D01*
X75652D01*
X75747Y68013D01*
X75832Y68114D01*
X75908Y68217D01*
X75973Y68321D01*
X76028Y68428D01*
X76073Y68536D01*
X76108Y68645D01*
X76134Y68757D01*
X76148Y68870D01*
X76153Y68985D01*
X76941D01*
X76946Y68870D01*
D02*
G37*
G36*
X70213Y65556D02*
X70114Y65535D01*
X70043Y65500D01*
X70001Y65450D01*
X69987Y65386D01*
X70001Y65308D01*
X70043Y65216D01*
X70114Y65110D01*
X70213Y64990D01*
X70341Y64855D01*
X68949D01*
X68807Y64990D01*
X68666Y65110D01*
X68526Y65216D01*
X68386Y65308D01*
X68247Y65386D01*
X68108Y65450D01*
X67969Y65500D01*
X67831Y65535D01*
X67694Y65556D01*
X67557Y65563D01*
X70341D01*
X70213Y65556D01*
D02*
G37*
G36*
X14393Y66541D02*
X14423Y66457D01*
X14473Y66383D01*
X14542Y66319D01*
X14632Y66265D01*
X14742Y66221D01*
X14871Y66186D01*
X15021Y66162D01*
X15190Y66147D01*
X15379Y66142D01*
Y65158D01*
X15190Y65153D01*
X15021Y65138D01*
X14871Y65114D01*
X14742Y65079D01*
X14632Y65035D01*
X14542Y64981D01*
X14473Y64917D01*
X14423Y64843D01*
X14393Y64759D01*
X14383Y64666D01*
Y66634D01*
X14393Y66541D01*
D02*
G37*
G36*
X13804Y64164D02*
X13721Y64134D01*
X13647Y64084D01*
X13583Y64015D01*
X13529Y63925D01*
X13484Y63815D01*
X13450Y63686D01*
X13425Y63536D01*
X13410Y63367D01*
X13406Y63178D01*
X12421D01*
X12416Y63367D01*
X12402Y63536D01*
X12377Y63686D01*
X12342Y63815D01*
X12298Y63925D01*
X12244Y64015D01*
X12180Y64084D01*
X12106Y64134D01*
X12023Y64164D01*
X11929Y64174D01*
X13898D01*
X13804Y64164D01*
D02*
G37*
G36*
X167295Y63501D02*
X167319Y63232D01*
X167358Y62994D01*
X167413Y62787D01*
X167484Y62613D01*
X167571Y62470D01*
X167673Y62359D01*
X167791Y62280D01*
X167925Y62232D01*
X168075Y62216D01*
X164925D01*
X165075Y62232D01*
X165209Y62280D01*
X165327Y62359D01*
X165429Y62470D01*
X165516Y62613D01*
X165587Y62787D01*
X165642Y62994D01*
X165681Y63232D01*
X165705Y63501D01*
X165713Y63803D01*
X167287D01*
X167295Y63501D01*
D02*
G37*
G36*
X85024Y60366D02*
X85014Y60459D01*
X84984Y60543D01*
X84934Y60617D01*
X84865Y60681D01*
X84775Y60735D01*
X84665Y60779D01*
X84536Y60814D01*
X84386Y60838D01*
X84217Y60853D01*
X84028Y60858D01*
Y61842D01*
X84217Y61847D01*
X84386Y61862D01*
X84536Y61886D01*
X84665Y61921D01*
X84775Y61965D01*
X84865Y62019D01*
X84934Y62083D01*
X84984Y62157D01*
X85014Y62241D01*
X85024Y62334D01*
Y60366D01*
D02*
G37*
G36*
X77998Y62241D02*
X78027Y62157D01*
X78077Y62083D01*
X78145Y62019D01*
X78234Y61965D01*
X78342Y61921D01*
X78470Y61886D01*
X78618Y61862D01*
X78785Y61847D01*
X78972Y61842D01*
Y60858D01*
X78785Y60853D01*
X78618Y60838D01*
X78470Y60814D01*
X78342Y60779D01*
X78234Y60735D01*
X78145Y60681D01*
X78077Y60617D01*
X78027Y60543D01*
X77998Y60459D01*
X77988Y60366D01*
Y62334D01*
X77998Y62241D01*
D02*
G37*
G36*
X170031Y61013D02*
X169732Y61005D01*
X169464Y60982D01*
X169228Y60944D01*
X169023Y60891D01*
X168850Y60822D01*
X168709Y60739D01*
X168598Y60640D01*
X168519Y60526D01*
X168472Y60397D01*
X168456Y60252D01*
Y62228D01*
X168472Y62296D01*
X168519Y62357D01*
X168598Y62411D01*
X168709Y62458D01*
X168850Y62498D01*
X169023Y62530D01*
X169228Y62555D01*
X169732Y62584D01*
X170031Y62587D01*
Y61013D01*
D02*
G37*
G36*
X185524Y60225D02*
X185508Y60375D01*
X185460Y60509D01*
X185381Y60627D01*
X185270Y60729D01*
X185127Y60816D01*
X184953Y60887D01*
X184747Y60942D01*
X184508Y60981D01*
X184239Y61005D01*
X183937Y61013D01*
Y62587D01*
X184239Y62595D01*
X184508Y62619D01*
X184747Y62658D01*
X184953Y62713D01*
X185127Y62784D01*
X185270Y62871D01*
X185381Y62973D01*
X185460Y63091D01*
X185508Y63225D01*
X185524Y63375D01*
Y60225D01*
D02*
G37*
G36*
X13410Y60883D02*
X13425Y60714D01*
X13450Y60564D01*
X13484Y60435D01*
X13529Y60325D01*
X13583Y60235D01*
X13647Y60166D01*
X13721Y60116D01*
X13804Y60086D01*
X13898Y60076D01*
X11929D01*
X12023Y60086D01*
X12106Y60116D01*
X12180Y60166D01*
X12244Y60235D01*
X12298Y60325D01*
X12342Y60435D01*
X12377Y60564D01*
X12402Y60714D01*
X12416Y60883D01*
X12421Y61072D01*
X13406D01*
X13410Y60883D01*
D02*
G37*
G36*
X75024Y60923D02*
X75086Y61067D01*
X75121Y61209D01*
X75122Y61334D01*
X75090Y61441D01*
X75024Y61532D01*
X76682Y59874D01*
X76591Y59940D01*
X76484Y59972D01*
X76359Y59971D01*
X76218Y59936D01*
X76059Y59868D01*
X75884Y59767D01*
X75691Y59632D01*
X75482Y59464D01*
X75012Y59027D01*
X74177Y59862D01*
X74412Y60105D01*
X74782Y60541D01*
X74874Y60672D01*
X74865Y60681D01*
X74775Y60735D01*
X74665Y60779D01*
X74536Y60814D01*
X74386Y60838D01*
X74217Y60853D01*
X74028Y60858D01*
Y61842D01*
X74217Y61847D01*
X74386Y61862D01*
X74536Y61886D01*
X74665Y61921D01*
X74775Y61965D01*
X74865Y62019D01*
X74934Y62083D01*
X74984Y62157D01*
X75014Y62241D01*
X75024Y62334D01*
Y60923D01*
D02*
G37*
G36*
X30683Y59613D02*
X30707Y59546D01*
X30747Y59487D01*
X30803Y59435D01*
X30875Y59392D01*
X30963Y59357D01*
X31067Y59329D01*
X31187Y59310D01*
X31323Y59298D01*
X31475Y59294D01*
Y58506D01*
X31323Y58502D01*
X31187Y58491D01*
X31067Y58471D01*
X30963Y58443D01*
X30875Y58408D01*
X30803Y58365D01*
X30747Y58313D01*
X30707Y58254D01*
X30683Y58187D01*
X30675Y58113D01*
Y59687D01*
X30683Y59613D01*
D02*
G37*
G36*
X16443Y59791D02*
X16473Y59707D01*
X16522Y59633D01*
X16592Y59569D01*
X16682Y59515D01*
X16791Y59471D01*
X16921Y59436D01*
X17070Y59412D01*
X17240Y59397D01*
X17429Y59392D01*
Y58408D01*
X17240Y58403D01*
X17070Y58388D01*
X16921Y58364D01*
X16791Y58329D01*
X16682Y58285D01*
X16592Y58231D01*
X16522Y58167D01*
X16473Y58093D01*
X16443Y58009D01*
X16433Y57916D01*
Y59884D01*
X16443Y59791D01*
D02*
G37*
G36*
X64266Y59689D02*
X64247Y59591D01*
X64254Y59482D01*
X64286Y59361D01*
X64344Y59228D01*
X64428Y59083D01*
X64537Y58925D01*
X64672Y58756D01*
X65019Y58382D01*
X64240Y57769D01*
X64106Y57901D01*
X63590Y58353D01*
X63518Y58402D01*
X63456Y58437D01*
X63404Y58458D01*
X63362Y58465D01*
X64311Y59774D01*
X64266Y59689D01*
D02*
G37*
G36*
X58401Y58457D02*
X58386Y58433D01*
X58373Y58394D01*
X58362Y58339D01*
X58352Y58268D01*
X58338Y58079D01*
X58331Y57677D01*
X57543D01*
X57542Y57827D01*
X57512Y58339D01*
X57501Y58394D01*
X57488Y58433D01*
X57473Y58457D01*
X57457Y58465D01*
X58417D01*
X58401Y58457D01*
D02*
G37*
G36*
X56432D02*
X56418Y58433D01*
X56405Y58394D01*
X56393Y58339D01*
X56384Y58268D01*
X56370Y58079D01*
X56362Y57677D01*
X55575D01*
X55574Y57827D01*
X55544Y58339D01*
X55532Y58394D01*
X55519Y58433D01*
X55505Y58457D01*
X55488Y58465D01*
X56449D01*
X56432Y58457D01*
D02*
G37*
G36*
X65658Y57748D02*
X65752Y57671D01*
X65848Y57604D01*
X65947Y57545D01*
X66047Y57496D01*
X66150Y57456D01*
X66255Y57425D01*
X66363Y57403D01*
X66472Y57391D01*
X66584Y57387D01*
X65317Y56121D01*
X65314Y56232D01*
X65301Y56342D01*
X65280Y56449D01*
X65249Y56555D01*
X65209Y56657D01*
X65159Y56758D01*
X65101Y56856D01*
X65034Y56952D01*
X64957Y57046D01*
X64871Y57138D01*
X65567Y57834D01*
X65658Y57748D01*
D02*
G37*
G36*
X67670Y64748D02*
X67734Y64731D01*
X67804Y64706D01*
X67883Y64670D01*
X67969Y64622D01*
X68063Y64560D01*
X68163Y64485D01*
X68215Y64440D01*
X72228Y60427D01*
X72621Y60165D01*
X72661Y60121D01*
X72751Y59900D01*
X72774Y59610D01*
X71007Y57843D01*
X70702Y57388D01*
X70595Y56850D01*
Y21061D01*
X70133Y20870D01*
X69589Y21415D01*
X69198Y21676D01*
X68737Y21767D01*
X68737Y21767D01*
X68058D01*
Y24106D01*
Y27696D01*
X68189Y27893D01*
X68198Y27937D01*
X68058D01*
Y28043D01*
X64317D01*
Y28437D01*
X63817D01*
Y29858D01*
X61821D01*
Y34697D01*
X61729Y35158D01*
X61468Y35548D01*
X61077Y35809D01*
X60617Y35901D01*
X60435Y36050D01*
Y36090D01*
X59542D01*
Y35215D01*
X59504Y35158D01*
X59412Y34697D01*
Y32138D01*
X58648D01*
Y35878D01*
X58542D01*
Y36090D01*
X57648D01*
Y35878D01*
X55522D01*
Y38772D01*
X55963Y39007D01*
X56194Y38853D01*
X57000Y38693D01*
X57806Y38853D01*
X58490Y39310D01*
X58947Y39994D01*
X59107Y40800D01*
X58947Y41607D01*
X58490Y42290D01*
X58394Y42355D01*
X58346Y42411D01*
X58305Y42467D01*
X58272Y42520D01*
X58247Y42568D01*
X58228Y42614D01*
X58214Y42656D01*
X58205Y42698D01*
X58204Y42703D01*
Y44350D01*
X59604D01*
Y46850D01*
Y49350D01*
X58204D01*
Y50213D01*
X62398D01*
Y54787D01*
X61210D01*
Y57665D01*
X63157D01*
X63461Y57399D01*
X64395Y56465D01*
X64426Y56420D01*
X64453Y56376D01*
X64473Y56335D01*
X64488Y56295D01*
X64500Y56256D01*
X64508Y56216D01*
X64509Y56206D01*
X64490Y56108D01*
X64650Y55301D01*
X65107Y54618D01*
X65790Y54161D01*
X66597Y54000D01*
X67403Y54161D01*
X68087Y54618D01*
X68544Y55301D01*
X68704Y56108D01*
X68544Y56914D01*
X68087Y57598D01*
X67403Y58055D01*
X66597Y58215D01*
X66499Y58196D01*
X66488Y58197D01*
X66449Y58205D01*
X66410Y58217D01*
X66370Y58232D01*
X66329Y58252D01*
X66285Y58278D01*
X66240Y58310D01*
X65424Y59125D01*
X65281Y59280D01*
X65181Y59405D01*
X65147Y59454D01*
Y61405D01*
X65122Y61532D01*
Y64752D01*
X67642D01*
X67670Y64748D01*
D02*
G37*
G36*
X60403Y54783D02*
X60417Y54614D01*
X60442Y54464D01*
X60476Y54335D01*
X60521Y54225D01*
X60575Y54135D01*
X60639Y54066D01*
X60713Y54016D01*
X60796Y53986D01*
X60890Y53976D01*
X58921D01*
X59015Y53986D01*
X59098Y54016D01*
X59172Y54066D01*
X59236Y54135D01*
X59290Y54225D01*
X59335Y54335D01*
X59369Y54464D01*
X59394Y54614D01*
X59408Y54783D01*
X59413Y54972D01*
X60398D01*
X60403Y54783D01*
D02*
G37*
G36*
X30683Y54713D02*
X30707Y54646D01*
X30747Y54587D01*
X30803Y54535D01*
X30875Y54492D01*
X30963Y54457D01*
X31067Y54429D01*
X31187Y54409D01*
X31323Y54398D01*
X31475Y54394D01*
Y53606D01*
X31323Y53602D01*
X31187Y53591D01*
X31067Y53571D01*
X30963Y53543D01*
X30875Y53508D01*
X30803Y53465D01*
X30747Y53413D01*
X30707Y53354D01*
X30683Y53287D01*
X30675Y53213D01*
Y54787D01*
X30683Y54713D01*
D02*
G37*
G36*
X176512Y52812D02*
X176496Y52945D01*
X176449Y53064D01*
X176370Y53169D01*
X176260Y53260D01*
X176118Y53338D01*
X175945Y53400D01*
X175740Y53449D01*
X175504Y53485D01*
X175236Y53506D01*
X174937Y53513D01*
Y55087D01*
X175236Y55094D01*
X175504Y55115D01*
X175740Y55151D01*
X175945Y55199D01*
X176118Y55263D01*
X176260Y55340D01*
X176370Y55431D01*
X176449Y55536D01*
X176496Y55655D01*
X176512Y55788D01*
Y52812D01*
D02*
G37*
G36*
X157298Y53706D02*
X157331Y53634D01*
X157385Y53545D01*
X157461Y53439D01*
X157679Y53175D01*
X158053Y52774D01*
X158457Y52772D01*
X158384Y52766D01*
X158331Y52750D01*
X158297Y52722D01*
X158282Y52683D01*
X158287Y52633D01*
X158311Y52571D01*
X158355Y52499D01*
X158418Y52416D01*
X158500Y52321D01*
X158601Y52215D01*
X158147D01*
X157817Y51886D01*
X157609Y52092D01*
X157103Y52535D01*
X157038Y52578D01*
X156927Y52640D01*
X156816Y52691D01*
X156705Y52731D01*
X156594Y52760D01*
X156484Y52778D01*
X156375Y52784D01*
X156822Y52781D01*
X156715Y52875D01*
X156626Y52929D01*
X156554Y52961D01*
X156500Y52972D01*
X157287Y53760D01*
X157298Y53706D01*
D02*
G37*
G36*
X154543Y52772D02*
X154528Y52818D01*
X154481Y52859D01*
X154402Y52895D01*
X154291Y52926D01*
X154150Y52952D01*
X153977Y52974D01*
X153536Y53003D01*
X152969Y53013D01*
Y54587D01*
X153268Y54589D01*
X154402Y54666D01*
X154481Y54690D01*
X154528Y54717D01*
X154543Y54748D01*
Y52772D01*
D02*
G37*
G36*
X170031Y53513D02*
X169732Y53505D01*
X169464Y53483D01*
X169228Y53446D01*
X169023Y53394D01*
X168850Y53327D01*
X168709Y53246D01*
X168598Y53150D01*
X168519Y53039D01*
X168472Y52913D01*
X168456Y52772D01*
Y54748D01*
X168472Y54812D01*
X168519Y54870D01*
X168598Y54921D01*
X168709Y54965D01*
X168850Y55002D01*
X169023Y55033D01*
X169228Y55057D01*
X169732Y55084D01*
X170031Y55087D01*
Y53513D01*
D02*
G37*
G36*
X164543Y52772D02*
X164528Y52810D01*
X164480Y52844D01*
X164402Y52874D01*
X164292Y52900D01*
X164150Y52922D01*
X163772Y52954D01*
X163268Y52970D01*
X162969Y52972D01*
Y54547D01*
X163268Y54549D01*
X164292Y54619D01*
X164402Y54646D01*
X164480Y54676D01*
X164528Y54710D01*
X164543Y54748D01*
Y52772D01*
D02*
G37*
G36*
X148504Y55225D02*
X148551Y55091D01*
X148630Y54973D01*
X148740Y54871D01*
X148882Y54784D01*
X149055Y54713D01*
X149260Y54658D01*
X149496Y54619D01*
X149764Y54595D01*
X150063Y54587D01*
Y53013D01*
X149764Y53005D01*
X149496Y52981D01*
X149260Y52942D01*
X149055Y52887D01*
X148882Y52816D01*
X148740Y52729D01*
X148630Y52627D01*
X148562Y52526D01*
X148744Y52269D01*
X148980Y51977D01*
X149601Y51312D01*
X147988Y50699D01*
X147686Y50989D01*
X147136Y51452D01*
X146887Y51623D01*
X146655Y51756D01*
X146441Y51849D01*
X146245Y51902D01*
X146066Y51915D01*
X145905Y51889D01*
X145761Y51824D01*
X148476Y53539D01*
X148366Y53440D01*
X148305Y53313D01*
X148294Y53160D01*
X148332Y52978D01*
X148420Y52769D01*
X148488Y52652D01*
Y55375D01*
X148504Y55225D01*
D02*
G37*
G36*
X143524Y52225D02*
X143508Y52375D01*
X143461Y52509D01*
X143381Y52627D01*
X143270Y52729D01*
X143127Y52816D01*
X142953Y52887D01*
X142746Y52942D01*
X142508Y52981D01*
X142239Y53005D01*
X141937Y53013D01*
Y54587D01*
X142239Y54595D01*
X142508Y54619D01*
X142746Y54658D01*
X142953Y54713D01*
X143127Y54784D01*
X143270Y54871D01*
X143381Y54973D01*
X143461Y55091D01*
X143508Y55225D01*
X143524Y55375D01*
Y52225D01*
D02*
G37*
G36*
X179388Y54918D02*
X179345Y54774D01*
X179346Y54607D01*
X179392Y54418D01*
X179482Y54207D01*
X179617Y53973D01*
X179796Y53716D01*
X180020Y53438D01*
X180602Y52812D01*
X179488Y51698D01*
X179164Y52011D01*
X178584Y52504D01*
X178327Y52683D01*
X178093Y52818D01*
X177882Y52908D01*
X177693Y52954D01*
X177526Y52955D01*
X177382Y52912D01*
X177261Y52824D01*
X179476Y55039D01*
X179388Y54918D01*
D02*
G37*
G36*
X30683Y49752D02*
X30707Y49685D01*
X30747Y49626D01*
X30803Y49575D01*
X30875Y49531D01*
X30963Y49496D01*
X31067Y49468D01*
X31187Y49449D01*
X31323Y49437D01*
X31475Y49433D01*
Y48646D01*
X31323Y48642D01*
X31187Y48630D01*
X31067Y48610D01*
X30963Y48583D01*
X30875Y48547D01*
X30803Y48504D01*
X30747Y48453D01*
X30707Y48394D01*
X30683Y48327D01*
X30675Y48252D01*
Y49827D01*
X30683Y49752D01*
D02*
G37*
G36*
X33697Y48144D02*
X33598Y48239D01*
X33497Y48324D01*
X33394Y48400D01*
X33289Y48465D01*
X33183Y48520D01*
X33075Y48565D01*
X32965Y48601D01*
X32854Y48626D01*
X32741Y48641D01*
X32625Y48646D01*
Y49433D01*
X32741Y49438D01*
X32854Y49453D01*
X32965Y49478D01*
X33075Y49513D01*
X33183Y49559D01*
X33289Y49614D01*
X33394Y49679D01*
X33497Y49754D01*
X33598Y49840D01*
X33697Y49935D01*
Y48144D01*
D02*
G37*
G36*
X53277Y48422D02*
X53368Y48352D01*
X53464Y48291D01*
X53567Y48239D01*
X53675Y48194D01*
X53789Y48158D01*
X53909Y48130D01*
X54035Y48111D01*
X54167Y48100D01*
X54305Y48097D01*
X53038Y46830D01*
X53035Y46968D01*
X53024Y47100D01*
X53005Y47226D01*
X52977Y47346D01*
X52941Y47460D01*
X52896Y47568D01*
X52844Y47671D01*
X52782Y47767D01*
X52713Y47858D01*
X52635Y47943D01*
X53192Y48500D01*
X53277Y48422D01*
D02*
G37*
G36*
X52120Y47312D02*
X52123Y47308D01*
X52146Y47271D01*
X52167Y47231D01*
X52185Y47186D01*
X52202Y47134D01*
X52216Y47074D01*
X52226Y47005D01*
X52233Y46931D01*
X52210Y46817D01*
X52370Y46011D01*
X52432Y45919D01*
X52121Y45484D01*
X51500Y45607D01*
X51386Y45585D01*
X51313Y45591D01*
X51244Y45602D01*
X51184Y45616D01*
X51131Y45632D01*
X51086Y45651D01*
X51046Y45671D01*
X51010Y45694D01*
X51006Y45697D01*
X41851Y54852D01*
X41461Y55113D01*
X41000Y55204D01*
X41000Y55204D01*
X31487D01*
Y55987D01*
X23638D01*
Y56913D01*
X31487D01*
Y57696D01*
X41736D01*
X52120Y47312D01*
D02*
G37*
G36*
X24379Y46103D02*
X24394Y45936D01*
X24418Y45788D01*
X24453Y45660D01*
X24497Y45552D01*
X24551Y45464D01*
X24615Y45395D01*
X24689Y45346D01*
X24773Y45316D01*
X24866Y45306D01*
X23625D01*
X23580Y45316D01*
X23540Y45346D01*
X23505Y45395D01*
X23474Y45464D01*
X23449Y45552D01*
X23427Y45660D01*
X23411Y45788D01*
X23392Y46103D01*
X23390Y46290D01*
X24374D01*
X24379Y46103D01*
D02*
G37*
G36*
X55118Y45804D02*
X55032Y45703D01*
X54957Y45601D01*
X54892Y45496D01*
X54837Y45390D01*
X54791Y45282D01*
X54756Y45172D01*
X54731Y45061D01*
X54716Y44947D01*
X54711Y44832D01*
X53924D01*
X53919Y44947D01*
X53904Y45061D01*
X53878Y45172D01*
X53843Y45282D01*
X53798Y45390D01*
X53743Y45496D01*
X53678Y45601D01*
X53602Y45703D01*
X53517Y45804D01*
X53422Y45904D01*
X55213D01*
X55118Y45804D01*
D02*
G37*
G36*
X50459Y45104D02*
X50550Y45035D01*
X50647Y44974D01*
X50749Y44921D01*
X50858Y44877D01*
X50972Y44840D01*
X51092Y44813D01*
X51218Y44793D01*
X51350Y44782D01*
X51487Y44780D01*
X50221Y43513D01*
X50218Y43650D01*
X50207Y43782D01*
X50187Y43908D01*
X50160Y44028D01*
X50123Y44142D01*
X50079Y44251D01*
X50026Y44353D01*
X49965Y44450D01*
X49896Y44541D01*
X49818Y44625D01*
X50375Y45182D01*
X50459Y45104D01*
D02*
G37*
G36*
X52701Y43043D02*
X52702Y43003D01*
X52712Y42959D01*
X52730Y42910D01*
X52757Y42858D01*
X52792Y42801D01*
X52837Y42741D01*
X52889Y42677D01*
X53021Y42536D01*
X52464Y41979D01*
X52392Y42049D01*
X52259Y42163D01*
X52198Y42208D01*
X52142Y42243D01*
X52090Y42270D01*
X52041Y42288D01*
X51997Y42298D01*
X51957Y42299D01*
X51920Y42291D01*
X52709Y43080D01*
X52701Y43043D01*
D02*
G37*
G36*
X57399Y42670D02*
X57414Y42557D01*
X57439Y42445D01*
X57474Y42336D01*
X57519Y42228D01*
X57574Y42121D01*
X57640Y42017D01*
X57715Y41914D01*
X57800Y41813D01*
X57896Y41714D01*
X56104D01*
X56200Y41813D01*
X56285Y41914D01*
X56360Y42017D01*
X56426Y42121D01*
X56481Y42228D01*
X56526Y42336D01*
X56561Y42445D01*
X56586Y42557D01*
X56601Y42670D01*
X56606Y42785D01*
X57394D01*
X57399Y42670D01*
D02*
G37*
G36*
X160579Y42245D02*
X160510Y42158D01*
X160450Y42067D01*
X160397Y41971D01*
X160353Y41870D01*
X160317Y41764D01*
X160288Y41653D01*
X160268Y41537D01*
X160256Y41417D01*
X160252Y41291D01*
X159268D01*
X159264Y41417D01*
X159251Y41537D01*
X159231Y41653D01*
X159203Y41764D01*
X159167Y41870D01*
X159122Y41971D01*
X159070Y42067D01*
X159009Y42158D01*
X158941Y42245D01*
X158864Y42326D01*
X160655D01*
X160579Y42245D01*
D02*
G37*
G36*
X168548Y40632D02*
X168559Y40498D01*
X168579Y40380D01*
X168607Y40278D01*
X168642Y40191D01*
X168685Y40120D01*
X168737Y40065D01*
X168796Y40026D01*
X168863Y40002D01*
X168937Y39994D01*
X167363D01*
X167437Y40002D01*
X167504Y40026D01*
X167563Y40065D01*
X167615Y40120D01*
X167658Y40191D01*
X167693Y40278D01*
X167721Y40380D01*
X167741Y40498D01*
X167752Y40632D01*
X167756Y40782D01*
X168544D01*
X168548Y40632D01*
D02*
G37*
G36*
X160257Y39433D02*
X160272Y39264D01*
X160296Y39114D01*
X160331Y38985D01*
X160375Y38875D01*
X160429Y38785D01*
X160493Y38716D01*
X160567Y38666D01*
X160651Y38636D01*
X160744Y38626D01*
X158775D01*
X158869Y38636D01*
X158953Y38666D01*
X159027Y38716D01*
X159090Y38785D01*
X159145Y38875D01*
X159189Y38985D01*
X159223Y39114D01*
X159248Y39264D01*
X159263Y39433D01*
X159268Y39622D01*
X160252D01*
X160257Y39433D01*
D02*
G37*
G36*
X140257Y39083D02*
X140272Y38914D01*
X140296Y38764D01*
X140331Y38635D01*
X140375Y38525D01*
X140429Y38435D01*
X140493Y38366D01*
X140567Y38316D01*
X140650Y38286D01*
X140744Y38276D01*
X138776D01*
X138869Y38286D01*
X138953Y38316D01*
X139026Y38366D01*
X139091Y38435D01*
X139145Y38525D01*
X139189Y38635D01*
X139223Y38764D01*
X139248Y38914D01*
X139263Y39083D01*
X139268Y39272D01*
X140252D01*
X140257Y39083D01*
D02*
G37*
G36*
X90257Y38583D02*
X90272Y38414D01*
X90296Y38264D01*
X90331Y38135D01*
X90375Y38025D01*
X90429Y37935D01*
X90493Y37866D01*
X90567Y37816D01*
X90650Y37786D01*
X90744Y37776D01*
X88775D01*
X88869Y37786D01*
X88953Y37816D01*
X89026Y37866D01*
X89091Y37935D01*
X89145Y38025D01*
X89189Y38135D01*
X89223Y38264D01*
X89248Y38414D01*
X89263Y38583D01*
X89268Y38772D01*
X90252D01*
X90257Y38583D01*
D02*
G37*
G36*
X175155Y36996D02*
X175036Y36949D01*
X174931Y36870D01*
X174840Y36760D01*
X174763Y36618D01*
X174699Y36445D01*
X174651Y36240D01*
X174615Y36004D01*
X174594Y35736D01*
X174587Y35437D01*
X173013D01*
X173006Y35736D01*
X172985Y36004D01*
X172950Y36240D01*
X172900Y36445D01*
X172837Y36618D01*
X172760Y36760D01*
X172669Y36870D01*
X172564Y36949D01*
X172445Y36996D01*
X172312Y37012D01*
X175288D01*
X175155Y36996D01*
D02*
G37*
G36*
X39506Y34166D02*
X39496Y34259D01*
X39466Y34343D01*
X39417Y34417D01*
X39348Y34481D01*
X39259Y34535D01*
X39151Y34579D01*
X39023Y34614D01*
X38876Y34638D01*
X38708Y34653D01*
X38521Y34658D01*
Y35642D01*
X38708Y35647D01*
X38876Y35662D01*
X39023Y35686D01*
X39151Y35721D01*
X39259Y35765D01*
X39348Y35819D01*
X39417Y35883D01*
X39466Y35957D01*
X39496Y36041D01*
X39506Y36134D01*
Y34166D01*
D02*
G37*
G36*
X42426Y34715D02*
X42405Y34644D01*
X42406Y34561D01*
X42430Y34467D01*
X42476Y34361D01*
X42544Y34244D01*
X42634Y34115D01*
X42746Y33976D01*
X43038Y33662D01*
X42482Y33105D01*
X42319Y33262D01*
X42028Y33510D01*
X41900Y33600D01*
X41783Y33668D01*
X41677Y33714D01*
X41583Y33737D01*
X41500Y33738D01*
X41428Y33717D01*
X41368Y33674D01*
X41740D01*
X41665Y33666D01*
X41598Y33642D01*
X41539Y33602D01*
X41488Y33546D01*
X41445Y33474D01*
X41409Y33386D01*
X41382Y33282D01*
X41362Y33162D01*
X41350Y33026D01*
X41346Y32875D01*
X40559D01*
X40555Y33026D01*
X40543Y33162D01*
X40524Y33282D01*
X40496Y33386D01*
X40461Y33474D01*
X40417Y33546D01*
X40366Y33602D01*
X40307Y33642D01*
X40240Y33666D01*
X40165Y33674D01*
X41368D01*
X42470Y34776D01*
X42426Y34715D01*
D02*
G37*
G36*
X160644Y30014D02*
X160561Y29984D01*
X160487Y29934D01*
X160423Y29865D01*
X160369Y29775D01*
X160324Y29665D01*
X160290Y29536D01*
X160265Y29386D01*
X160250Y29217D01*
X160246Y29028D01*
X159261D01*
X159256Y29217D01*
X159242Y29386D01*
X159217Y29536D01*
X159183Y29665D01*
X159138Y29775D01*
X159084Y29865D01*
X159020Y29934D01*
X158946Y29984D01*
X158863Y30014D01*
X158769Y30024D01*
X160738D01*
X160644Y30014D01*
D02*
G37*
G36*
X47434Y29272D02*
X47664Y29086D01*
X47777Y29011D01*
X47888Y28948D01*
X47999Y28897D01*
X48109Y28858D01*
X48217Y28832D01*
X48325Y28817D01*
X48431Y28814D01*
X46280Y28746D01*
X46377Y28756D01*
X46451Y28777D01*
X46501Y28811D01*
X46529Y28857D01*
X46533Y28914D01*
X46513Y28984D01*
X46471Y29065D01*
X46405Y29159D01*
X46316Y29265D01*
X46204Y29383D01*
X47317D01*
X47434Y29272D01*
D02*
G37*
G36*
X150644Y29664D02*
X150560Y29634D01*
X150487Y29584D01*
X150423Y29515D01*
X150369Y29425D01*
X150324Y29315D01*
X150290Y29186D01*
X150265Y29036D01*
X150250Y28867D01*
X150245Y28678D01*
X149261D01*
X149256Y28867D01*
X149242Y29036D01*
X149217Y29186D01*
X149182Y29315D01*
X149138Y29425D01*
X149084Y29515D01*
X149020Y29584D01*
X148946Y29634D01*
X148863Y29664D01*
X148769Y29674D01*
X150738D01*
X150644Y29664D01*
D02*
G37*
G36*
X140644D02*
X140560Y29634D01*
X140487Y29584D01*
X140423Y29515D01*
X140369Y29425D01*
X140324Y29315D01*
X140290Y29186D01*
X140265Y29036D01*
X140251Y28867D01*
X140245Y28678D01*
X139261D01*
X139256Y28867D01*
X139242Y29036D01*
X139217Y29186D01*
X139182Y29315D01*
X139138Y29425D01*
X139084Y29515D01*
X139020Y29584D01*
X138946Y29634D01*
X138863Y29664D01*
X138769Y29674D01*
X140738D01*
X140644Y29664D01*
D02*
G37*
G36*
X130644D02*
X130561Y29634D01*
X130487Y29584D01*
X130423Y29515D01*
X130369Y29425D01*
X130324Y29315D01*
X130290Y29186D01*
X130265Y29036D01*
X130251Y28867D01*
X130245Y28678D01*
X129261D01*
X129256Y28867D01*
X129242Y29036D01*
X129217Y29186D01*
X129183Y29315D01*
X129138Y29425D01*
X129084Y29515D01*
X129020Y29584D01*
X128946Y29634D01*
X128863Y29664D01*
X128769Y29674D01*
X130738D01*
X130644Y29664D01*
D02*
G37*
G36*
X120644D02*
X120561Y29634D01*
X120487Y29584D01*
X120423Y29515D01*
X120369Y29425D01*
X120324Y29315D01*
X120290Y29186D01*
X120265Y29036D01*
X120250Y28867D01*
X120246Y28678D01*
X119261D01*
X119256Y28867D01*
X119242Y29036D01*
X119217Y29186D01*
X119183Y29315D01*
X119138Y29425D01*
X119084Y29515D01*
X119020Y29584D01*
X118946Y29634D01*
X118863Y29664D01*
X118769Y29674D01*
X120738D01*
X120644Y29664D01*
D02*
G37*
G36*
X110644D02*
X110561Y29634D01*
X110487Y29584D01*
X110423Y29515D01*
X110369Y29425D01*
X110324Y29315D01*
X110290Y29186D01*
X110265Y29036D01*
X110250Y28867D01*
X110246Y28678D01*
X109261D01*
X109256Y28867D01*
X109242Y29036D01*
X109217Y29186D01*
X109183Y29315D01*
X109138Y29425D01*
X109084Y29515D01*
X109020Y29584D01*
X108946Y29634D01*
X108863Y29664D01*
X108769Y29674D01*
X110738D01*
X110644Y29664D01*
D02*
G37*
G36*
X100644Y29364D02*
X100560Y29334D01*
X100487Y29284D01*
X100423Y29215D01*
X100369Y29125D01*
X100324Y29015D01*
X100290Y28886D01*
X100265Y28736D01*
X100250Y28567D01*
X100245Y28378D01*
X99261D01*
X99256Y28567D01*
X99242Y28736D01*
X99217Y28886D01*
X99182Y29015D01*
X99138Y29125D01*
X99084Y29215D01*
X99020Y29284D01*
X98946Y29334D01*
X98863Y29364D01*
X98769Y29374D01*
X100738D01*
X100644Y29364D01*
D02*
G37*
G36*
X90644Y29164D02*
X90561Y29134D01*
X90487Y29084D01*
X90423Y29015D01*
X90369Y28925D01*
X90324Y28815D01*
X90290Y28686D01*
X90265Y28536D01*
X90250Y28367D01*
X90245Y28178D01*
X89261D01*
X89256Y28367D01*
X89242Y28536D01*
X89217Y28686D01*
X89183Y28815D01*
X89138Y28925D01*
X89084Y29015D01*
X89020Y29084D01*
X88946Y29134D01*
X88863Y29164D01*
X88769Y29174D01*
X90738D01*
X90644Y29164D01*
D02*
G37*
G36*
X56286Y28185D02*
X56263Y26705D01*
X54995Y27779D01*
X55091Y27786D01*
X55176Y27807D01*
X55252Y27840D01*
X55317Y27887D01*
X55373Y27947D01*
X55418Y28020D01*
X55453Y28107D01*
X55478Y28207D01*
X55493Y28320D01*
X55498Y28446D01*
X56286Y28185D01*
D02*
G37*
G36*
X160257Y27045D02*
X160292Y26857D01*
X160350Y26665D01*
X160431Y26468D01*
X160536Y26266D01*
X160664Y26060D01*
X160815Y25849D01*
X160989Y25633D01*
X161407Y25187D01*
X158100D01*
X158320Y25412D01*
X158692Y25849D01*
X158843Y26060D01*
X158971Y26266D01*
X159075Y26468D01*
X159157Y26665D01*
X159215Y26857D01*
X159250Y27045D01*
X159261Y27228D01*
X160246D01*
X160257Y27045D01*
D02*
G37*
G36*
X150257D02*
X150292Y26857D01*
X150350Y26665D01*
X150431Y26468D01*
X150536Y26266D01*
X150664Y26060D01*
X150815Y25849D01*
X150989Y25633D01*
X151407Y25187D01*
X148100D01*
X148320Y25412D01*
X148692Y25849D01*
X148843Y26060D01*
X148971Y26266D01*
X149075Y26468D01*
X149157Y26665D01*
X149215Y26857D01*
X149250Y27045D01*
X149261Y27228D01*
X150245D01*
X150257Y27045D01*
D02*
G37*
G36*
X140257D02*
X140292Y26857D01*
X140350Y26665D01*
X140431Y26468D01*
X140536Y26266D01*
X140664Y26060D01*
X140815Y25849D01*
X140989Y25633D01*
X141407Y25187D01*
X138100D01*
X138321Y25412D01*
X138692Y25849D01*
X138843Y26060D01*
X138971Y26266D01*
X139076Y26468D01*
X139157Y26665D01*
X139215Y26857D01*
X139250Y27045D01*
X139261Y27228D01*
X140245D01*
X140257Y27045D01*
D02*
G37*
G36*
X130257D02*
X130292Y26857D01*
X130350Y26665D01*
X130431Y26468D01*
X130536Y26266D01*
X130664Y26060D01*
X130815Y25849D01*
X130989Y25633D01*
X131407Y25187D01*
X128100D01*
X128321Y25412D01*
X128692Y25849D01*
X128843Y26060D01*
X128971Y26266D01*
X129076Y26468D01*
X129157Y26665D01*
X129215Y26857D01*
X129250Y27045D01*
X129261Y27228D01*
X130245D01*
X130257Y27045D01*
D02*
G37*
G36*
X120257D02*
X120292Y26857D01*
X120350Y26665D01*
X120431Y26468D01*
X120536Y26266D01*
X120664Y26060D01*
X120815Y25849D01*
X120989Y25633D01*
X121407Y25187D01*
X118100D01*
X118321Y25412D01*
X118692Y25849D01*
X118843Y26060D01*
X118971Y26266D01*
X119076Y26468D01*
X119157Y26665D01*
X119215Y26857D01*
X119250Y27045D01*
X119261Y27228D01*
X120246D01*
X120257Y27045D01*
D02*
G37*
G36*
X110257D02*
X110292Y26857D01*
X110350Y26665D01*
X110431Y26468D01*
X110536Y26266D01*
X110664Y26060D01*
X110815Y25849D01*
X110989Y25633D01*
X111407Y25187D01*
X108100D01*
X108320Y25412D01*
X108692Y25849D01*
X108843Y26060D01*
X108971Y26266D01*
X109075Y26468D01*
X109157Y26665D01*
X109215Y26857D01*
X109250Y27045D01*
X109261Y27228D01*
X110246D01*
X110257Y27045D01*
D02*
G37*
G36*
X100257D02*
X100292Y26857D01*
X100350Y26665D01*
X100431Y26468D01*
X100536Y26266D01*
X100664Y26060D01*
X100815Y25849D01*
X100989Y25633D01*
X101407Y25187D01*
X98100D01*
X98321Y25412D01*
X98692Y25849D01*
X98843Y26060D01*
X98971Y26266D01*
X99076Y26468D01*
X99157Y26665D01*
X99215Y26857D01*
X99250Y27045D01*
X99261Y27228D01*
X100245D01*
X100257Y27045D01*
D02*
G37*
G36*
X90257D02*
X90292Y26857D01*
X90350Y26665D01*
X90431Y26468D01*
X90536Y26266D01*
X90664Y26060D01*
X90815Y25849D01*
X90989Y25633D01*
X91407Y25187D01*
X88100D01*
X88320Y25412D01*
X88692Y25849D01*
X88843Y26060D01*
X88971Y26266D01*
X89075Y26468D01*
X89157Y26665D01*
X89215Y26857D01*
X89250Y27045D01*
X89261Y27228D01*
X90245D01*
X90257Y27045D01*
D02*
G37*
G36*
X181044Y23477D02*
X181033Y23526D01*
X181002Y23569D01*
X180950Y23608D01*
X180877Y23641D01*
X180783Y23669D01*
X180668Y23692D01*
X180532Y23710D01*
X180198Y23731D01*
X180000Y23733D01*
Y25308D01*
X180198Y25310D01*
X180668Y25349D01*
X180783Y25372D01*
X180877Y25400D01*
X180950Y25433D01*
X181002Y25472D01*
X181033Y25515D01*
X181044Y25564D01*
Y23477D01*
D02*
G37*
G36*
X56692Y21125D02*
X56607Y21024D01*
X56532Y20921D01*
X56467Y20816D01*
X56411Y20710D01*
X56366Y20602D01*
X56331Y20492D01*
X56306Y20381D01*
X56291Y20268D01*
X56286Y20153D01*
X55498D01*
X55493Y20268D01*
X55478Y20381D01*
X55453Y20492D01*
X55418Y20602D01*
X55373Y20710D01*
X55318Y20816D01*
X55253Y20921D01*
X55177Y21024D01*
X55092Y21125D01*
X54997Y21224D01*
X56788D01*
X56692Y21125D01*
D02*
G37*
G36*
X72597Y19742D02*
X72614Y19540D01*
X72644Y19361D01*
X72685Y19206D01*
X72738Y19074D01*
X72803Y18967D01*
X72880Y18883D01*
X72969Y18824D01*
X73069Y18788D01*
X73181Y18776D01*
X71614D01*
X71379Y18541D01*
X71785Y18185D01*
X71874Y18131D01*
X71946Y18098D01*
X72000Y18087D01*
X71900Y17987D01*
X72000Y17890D01*
X71409Y17300D01*
X71401Y17314D01*
X71376Y17345D01*
X71320Y17407D01*
X71213Y17300D01*
X71202Y17354D01*
X71169Y17426D01*
X71115Y17515D01*
X71039Y17621D01*
X70821Y17885D01*
X70774Y17936D01*
X70512Y17674D01*
X70556Y17736D01*
X70579Y17808D01*
Y17892D01*
X70556Y17986D01*
X70512Y18092D01*
X70445Y18209D01*
X70356Y18337D01*
X70245Y18476D01*
X69955Y18788D01*
X70512Y19345D01*
X70674Y19189D01*
X70963Y18944D01*
X71084Y18859D01*
X71120Y18883D01*
X71197Y18967D01*
X71262Y19074D01*
X71315Y19206D01*
X71356Y19361D01*
X71386Y19540D01*
X71403Y19742D01*
X71409Y19969D01*
X72591D01*
X72597Y19742D01*
D02*
G37*
G36*
X72798Y17246D02*
X72831Y17174D01*
X72885Y17085D01*
X72961Y16979D01*
X73179Y16715D01*
X73221Y16670D01*
X73476Y16926D01*
X73433Y16865D01*
X73412Y16794D01*
X73413Y16711D01*
X73436Y16617D01*
X73482Y16511D01*
X73550Y16394D01*
X73640Y16265D01*
X73753Y16126D01*
X74045Y15812D01*
X73488Y15255D01*
X73326Y15412D01*
X73035Y15660D01*
X72906Y15750D01*
X72789Y15818D01*
X72683Y15864D01*
X72589Y15887D01*
X72506Y15888D01*
X72435Y15867D01*
X72374Y15824D01*
X72615Y16065D01*
X72215Y16415D01*
X72126Y16469D01*
X72054Y16502D01*
X72000Y16513D01*
X72100Y16613D01*
X72000Y16710D01*
X72591Y17300D01*
X72599Y17286D01*
X72624Y17255D01*
X72680Y17193D01*
X72787Y17300D01*
X72798Y17246D01*
D02*
G37*
G36*
X75063Y17972D02*
X74762Y17965D01*
X74493Y17941D01*
X74256Y17902D01*
X74050Y17846D01*
X73876Y17776D01*
X73733Y17689D01*
X73621Y17587D01*
X73541Y17469D01*
X73493Y17335D01*
X73476Y17185D01*
X73488Y18788D01*
X73504Y18932D01*
X73551Y19061D01*
X73630Y19175D01*
X73740Y19274D01*
X73882Y19357D01*
X74055Y19426D01*
X74260Y19479D01*
X74496Y19517D01*
X74764Y19540D01*
X75063Y19547D01*
Y17972D01*
D02*
G37*
G36*
X61000Y17477D02*
X61017Y17368D01*
X61045Y17258D01*
X61085Y17147D01*
X61136Y17036D01*
X61199Y16924D01*
X61273Y16812D01*
X61358Y16700D01*
X61454Y16587D01*
X61563Y16473D01*
Y15360D01*
X61454Y15462D01*
X61358Y15541D01*
X61273Y15598D01*
X61199Y15632D01*
X61136Y15644D01*
X61085Y15632D01*
X61045Y15598D01*
X61017Y15541D01*
X61000Y15462D01*
X60994Y15360D01*
Y17587D01*
X61000Y17477D01*
D02*
G37*
G36*
X62159Y15885D02*
X62252Y15816D01*
X62348Y15761D01*
X62447Y15718D01*
X62550Y15687D01*
X62657Y15669D01*
X62767Y15663D01*
X62881Y15670D01*
X62998Y15690D01*
X63119Y15722D01*
X62271Y14144D01*
X62228Y14283D01*
X62132Y14542D01*
X62079Y14660D01*
X61963Y14878D01*
X61900Y14976D01*
X61834Y15068D01*
X61764Y15153D01*
X61691Y15231D01*
X62070Y15965D01*
X62159Y15885D01*
D02*
G37*
G36*
X69519Y18078D02*
X69636Y17952D01*
X69712Y17856D01*
X69713Y17856D01*
Y17692D01*
X69709Y17674D01*
X69713Y17657D01*
Y15013D01*
X72556D01*
X72744Y14853D01*
X72985Y14612D01*
X72794Y14150D01*
X72494D01*
Y12150D01*
X74494D01*
Y12450D01*
X74955Y12641D01*
X75343Y12254D01*
Y4251D01*
X42157D01*
Y9980D01*
X42438Y10097D01*
X42657Y10138D01*
X43033Y9887D01*
X43494Y9796D01*
X43494Y9796D01*
X52500D01*
X52500Y9796D01*
X52961Y9887D01*
X53351Y10148D01*
X55169Y11966D01*
X55430Y12357D01*
X55489Y12653D01*
X55964Y12962D01*
X56263Y12867D01*
Y10787D01*
X55213D01*
Y6213D01*
X59787D01*
Y10787D01*
X58671D01*
Y12910D01*
X60435D01*
Y12950D01*
X60617Y13099D01*
X61077Y13191D01*
X61468Y13452D01*
X61715D01*
X62010Y13010D01*
X62694Y12553D01*
X63500Y12393D01*
X64306Y12553D01*
X64990Y13010D01*
X65447Y13693D01*
X65607Y14500D01*
X65447Y15306D01*
X64990Y15990D01*
X64306Y16447D01*
X63500Y16607D01*
X62964Y16501D01*
X62914Y16498D01*
X62830Y16475D01*
X62791Y16469D01*
X62763Y16467D01*
X62745Y16468D01*
X62732Y16470D01*
X62722Y16473D01*
X62710Y16478D01*
X62694Y16488D01*
X62012Y17170D01*
X61983Y17203D01*
X61928Y17276D01*
X61885Y17342D01*
X61852Y17401D01*
X61829Y17451D01*
X61821Y17472D01*
Y19359D01*
X68238D01*
X69519Y18078D01*
D02*
G37*
G36*
X45302Y26013D02*
Y20957D01*
X45302D01*
X45278Y20563D01*
X45297Y20469D01*
X45370Y20102D01*
X45631Y19712D01*
X46022Y19450D01*
X46483Y19359D01*
X51538D01*
Y14303D01*
X51630Y13842D01*
X51891Y13452D01*
X52282Y13191D01*
X52445Y12648D01*
X52001Y12204D01*
X43992D01*
X43204Y12992D01*
Y24569D01*
X44840Y26204D01*
X45302Y26013D01*
D02*
G37*
G36*
X158066Y11846D02*
X157894Y12011D01*
X157717Y12158D01*
X157534Y12288D01*
X157346Y12401D01*
X157153Y12496D01*
X156954Y12574D01*
X156751Y12635D01*
X156542Y12678D01*
X156328Y12704D01*
X156109Y12713D01*
Y14287D01*
X156328Y14296D01*
X156542Y14322D01*
X156751Y14365D01*
X156954Y14426D01*
X157153Y14504D01*
X157346Y14599D01*
X157534Y14712D01*
X157717Y14842D01*
X157894Y14989D01*
X158066Y15154D01*
Y11846D01*
D02*
G37*
G36*
X151613Y14989D02*
X151790Y14842D01*
X151973Y14712D01*
X152161Y14599D01*
X152354Y14504D01*
X152553Y14426D01*
X152756Y14365D01*
X152965Y14322D01*
X153179Y14296D01*
X153398Y14287D01*
Y12713D01*
X153179Y12704D01*
X152965Y12678D01*
X152756Y12635D01*
X152553Y12574D01*
X152354Y12496D01*
X152161Y12401D01*
X151973Y12288D01*
X151790Y12158D01*
X151613Y12011D01*
X151440Y11846D01*
Y15154D01*
X151613Y14989D01*
D02*
G37*
G36*
X148066Y11846D02*
X147894Y12011D01*
X147716Y12158D01*
X147534Y12288D01*
X147346Y12401D01*
X147153Y12496D01*
X146954Y12574D01*
X146751Y12635D01*
X146542Y12678D01*
X146328Y12704D01*
X146109Y12713D01*
Y14287D01*
X146328Y14296D01*
X146542Y14322D01*
X146751Y14365D01*
X146954Y14426D01*
X147153Y14504D01*
X147346Y14599D01*
X147534Y14712D01*
X147716Y14842D01*
X147894Y14989D01*
X148066Y15154D01*
Y11846D01*
D02*
G37*
G36*
X141613Y14989D02*
X141790Y14842D01*
X141973Y14712D01*
X142161Y14599D01*
X142354Y14504D01*
X142553Y14426D01*
X142756Y14365D01*
X142965Y14322D01*
X143179Y14296D01*
X143398Y14287D01*
Y12713D01*
X143179Y12704D01*
X142965Y12678D01*
X142756Y12635D01*
X142553Y12574D01*
X142354Y12496D01*
X142161Y12401D01*
X141973Y12288D01*
X141790Y12158D01*
X141613Y12011D01*
X141440Y11846D01*
Y15154D01*
X141613Y14989D01*
D02*
G37*
G36*
X138066Y11846D02*
X137894Y12011D01*
X137716Y12158D01*
X137534Y12288D01*
X137346Y12401D01*
X137153Y12496D01*
X136954Y12574D01*
X136751Y12635D01*
X136542Y12678D01*
X136328Y12704D01*
X136109Y12713D01*
Y14287D01*
X136328Y14296D01*
X136542Y14322D01*
X136751Y14365D01*
X136954Y14426D01*
X137153Y14504D01*
X137346Y14599D01*
X137534Y14712D01*
X137716Y14842D01*
X137894Y14989D01*
X138066Y15154D01*
Y11846D01*
D02*
G37*
G36*
X131613Y14989D02*
X131790Y14842D01*
X131973Y14712D01*
X132161Y14599D01*
X132354Y14504D01*
X132553Y14426D01*
X132756Y14365D01*
X132965Y14322D01*
X133179Y14296D01*
X133398Y14287D01*
Y12713D01*
X133179Y12704D01*
X132965Y12678D01*
X132756Y12635D01*
X132553Y12574D01*
X132354Y12496D01*
X132161Y12401D01*
X131973Y12288D01*
X131790Y12158D01*
X131613Y12011D01*
X131440Y11846D01*
Y15154D01*
X131613Y14989D01*
D02*
G37*
G36*
X128067Y11846D02*
X127894Y12011D01*
X127717Y12158D01*
X127534Y12288D01*
X127346Y12401D01*
X127153Y12496D01*
X126954Y12574D01*
X126751Y12635D01*
X126542Y12678D01*
X126328Y12704D01*
X126109Y12713D01*
Y14287D01*
X126328Y14296D01*
X126542Y14322D01*
X126751Y14365D01*
X126954Y14426D01*
X127153Y14504D01*
X127346Y14599D01*
X127534Y14712D01*
X127717Y14842D01*
X127894Y14989D01*
X128067Y15154D01*
Y11846D01*
D02*
G37*
G36*
X121613Y14989D02*
X121790Y14842D01*
X121973Y14712D01*
X122161Y14599D01*
X122354Y14504D01*
X122553Y14426D01*
X122756Y14365D01*
X122965Y14322D01*
X123179Y14296D01*
X123398Y14287D01*
Y12713D01*
X123179Y12704D01*
X122965Y12678D01*
X122756Y12635D01*
X122553Y12574D01*
X122354Y12496D01*
X122161Y12401D01*
X121973Y12288D01*
X121790Y12158D01*
X121613Y12011D01*
X121440Y11846D01*
Y15154D01*
X121613Y14989D01*
D02*
G37*
G36*
X118067Y11846D02*
X117894Y12011D01*
X117717Y12158D01*
X117534Y12288D01*
X117346Y12401D01*
X117153Y12496D01*
X116954Y12574D01*
X116751Y12635D01*
X116542Y12678D01*
X116328Y12704D01*
X116109Y12713D01*
Y14287D01*
X116328Y14296D01*
X116542Y14322D01*
X116751Y14365D01*
X116954Y14426D01*
X117153Y14504D01*
X117346Y14599D01*
X117534Y14712D01*
X117717Y14842D01*
X117894Y14989D01*
X118067Y15154D01*
Y11846D01*
D02*
G37*
G36*
X111613Y14989D02*
X111790Y14842D01*
X111973Y14712D01*
X112161Y14599D01*
X112354Y14504D01*
X112553Y14426D01*
X112756Y14365D01*
X112965Y14322D01*
X113179Y14296D01*
X113398Y14287D01*
Y12713D01*
X113179Y12704D01*
X112965Y12678D01*
X112756Y12635D01*
X112553Y12574D01*
X112354Y12496D01*
X112161Y12401D01*
X111973Y12288D01*
X111790Y12158D01*
X111613Y12011D01*
X111440Y11846D01*
Y15154D01*
X111613Y14989D01*
D02*
G37*
G36*
X108066Y11846D02*
X107894Y12011D01*
X107717Y12158D01*
X107534Y12288D01*
X107346Y12401D01*
X107153Y12496D01*
X106954Y12574D01*
X106751Y12635D01*
X106542Y12678D01*
X106328Y12704D01*
X106109Y12713D01*
Y14287D01*
X106328Y14296D01*
X106542Y14322D01*
X106751Y14365D01*
X106954Y14426D01*
X107153Y14504D01*
X107346Y14599D01*
X107534Y14712D01*
X107717Y14842D01*
X107894Y14989D01*
X108066Y15154D01*
Y11846D01*
D02*
G37*
G36*
X101613Y14989D02*
X101790Y14842D01*
X101973Y14712D01*
X102161Y14599D01*
X102354Y14504D01*
X102553Y14426D01*
X102756Y14365D01*
X102965Y14322D01*
X103179Y14296D01*
X103398Y14287D01*
Y12713D01*
X103179Y12704D01*
X102965Y12678D01*
X102756Y12635D01*
X102553Y12574D01*
X102354Y12496D01*
X102161Y12401D01*
X101973Y12288D01*
X101790Y12158D01*
X101613Y12011D01*
X101440Y11846D01*
Y15154D01*
X101613Y14989D01*
D02*
G37*
G36*
X98066Y11846D02*
X97894Y12011D01*
X97716Y12158D01*
X97534Y12288D01*
X97346Y12401D01*
X97153Y12496D01*
X96954Y12574D01*
X96751Y12635D01*
X96542Y12678D01*
X96328Y12704D01*
X96109Y12713D01*
Y14287D01*
X96328Y14296D01*
X96542Y14322D01*
X96751Y14365D01*
X96954Y14426D01*
X97153Y14504D01*
X97346Y14599D01*
X97534Y14712D01*
X97716Y14842D01*
X97894Y14989D01*
X98066Y15154D01*
Y11846D01*
D02*
G37*
G36*
X91613Y14989D02*
X91790Y14842D01*
X91973Y14712D01*
X92161Y14599D01*
X92354Y14504D01*
X92553Y14426D01*
X92756Y14365D01*
X92965Y14322D01*
X93179Y14296D01*
X93398Y14287D01*
Y12713D01*
X93179Y12704D01*
X92965Y12678D01*
X92756Y12635D01*
X92553Y12574D01*
X92354Y12496D01*
X92161Y12401D01*
X91973Y12288D01*
X91790Y12158D01*
X91613Y12011D01*
X91440Y11846D01*
Y15154D01*
X91613Y14989D01*
D02*
G37*
G36*
X161890Y14553D02*
X162027Y14388D01*
X162175Y14241D01*
X162334Y14115D01*
X162503Y14007D01*
X162684Y13920D01*
X162876Y13851D01*
X163079Y13803D01*
X163293Y13773D01*
X163518Y13764D01*
X163136Y12189D01*
X162925Y12182D01*
X162714Y12162D01*
X162503Y12128D01*
X162293Y12081D01*
X162082Y12020D01*
X161872Y11946D01*
X161662Y11858D01*
X161452Y11757D01*
X161032Y11514D01*
X161765Y14739D01*
X161890Y14553D01*
D02*
G37*
G36*
X57865Y10626D02*
X57876Y10492D01*
X57896Y10374D01*
X57924Y10272D01*
X57959Y10185D01*
X58003Y10114D01*
X58054Y10059D01*
X58113Y10019D01*
X58180Y9996D01*
X58254Y9988D01*
X56680D01*
X56754Y9996D01*
X56821Y10019D01*
X56880Y10059D01*
X56932Y10114D01*
X56975Y10185D01*
X57010Y10272D01*
X57038Y10374D01*
X57058Y10492D01*
X57069Y10626D01*
X57073Y10775D01*
X57861D01*
X57865Y10626D01*
D02*
G37*
%LPC*%
G36*
X68500Y119000D02*
X66500D01*
Y117000D01*
X68500D01*
Y119000D01*
D02*
G37*
G36*
X65500D02*
X63500D01*
Y117000D01*
X65500D01*
Y119000D01*
D02*
G37*
G36*
X68500Y116000D02*
X66500D01*
Y114000D01*
X68500D01*
Y116000D01*
D02*
G37*
G36*
X65500D02*
X63500D01*
Y114000D01*
X65500D01*
Y116000D01*
D02*
G37*
G36*
X43500Y43300D02*
X41500D01*
Y41300D01*
X43500D01*
Y43300D01*
D02*
G37*
G36*
X40500D02*
X38500D01*
Y41300D01*
X40500D01*
Y43300D01*
D02*
G37*
G36*
X43500Y40300D02*
X41500D01*
Y38300D01*
X43500D01*
Y40300D01*
D02*
G37*
G36*
X40500D02*
X38500D01*
Y38300D01*
X40500D01*
Y40300D01*
D02*
G37*
G36*
X48500Y141050D02*
X46500D01*
Y139050D01*
X48500D01*
Y141050D01*
D02*
G37*
G36*
X45500D02*
X43500D01*
Y139050D01*
X45500D01*
Y141050D01*
D02*
G37*
G36*
X48500Y138050D02*
X46500D01*
Y136050D01*
X48500D01*
Y138050D01*
D02*
G37*
G36*
X45500D02*
X43500D01*
Y136050D01*
X45500D01*
Y138050D01*
D02*
G37*
G36*
X50500Y131825D02*
Y129000D01*
X53325D01*
X53276Y129378D01*
X52937Y130196D01*
X52398Y130898D01*
X51696Y131437D01*
X50878Y131776D01*
X50500Y131825D01*
D02*
G37*
G36*
X49500D02*
X49122Y131776D01*
X48304Y131437D01*
X47602Y130898D01*
X47063Y130196D01*
X46724Y129378D01*
X46675Y129000D01*
X49500D01*
Y131825D01*
D02*
G37*
G36*
X135000Y119500D02*
X133000D01*
Y117500D01*
X135000D01*
Y119500D01*
D02*
G37*
G36*
X132000D02*
X130000D01*
Y117500D01*
X132000D01*
Y119500D01*
D02*
G37*
G36*
X135000Y116500D02*
X133000D01*
Y114500D01*
X135000D01*
Y116500D01*
D02*
G37*
G36*
X132000D02*
X130000D01*
Y114500D01*
X132000D01*
Y116500D01*
D02*
G37*
G36*
X96000Y114000D02*
Y112000D01*
X98000D01*
Y114000D01*
X96000D01*
D02*
G37*
G36*
X98000Y111000D02*
X96000D01*
Y109000D01*
X98000D01*
Y111000D01*
D02*
G37*
G36*
X146000Y92000D02*
X144000D01*
Y90000D01*
X146000D01*
Y92000D01*
D02*
G37*
G36*
X143000D02*
X141000D01*
Y90000D01*
X143000D01*
Y92000D01*
D02*
G37*
G36*
X98500Y86500D02*
X96500D01*
Y84500D01*
X98500D01*
Y86500D01*
D02*
G37*
G36*
X95500D02*
X93500D01*
Y84500D01*
X95500D01*
Y86500D01*
D02*
G37*
G36*
X118658Y89305D02*
X112281D01*
X111782Y89205D01*
X111359Y88923D01*
X109361Y86925D01*
X109192Y86768D01*
X109058Y86659D01*
X109025Y86636D01*
X105701D01*
Y85298D01*
X103937D01*
Y86281D01*
X99363D01*
Y81706D01*
X103937D01*
Y82689D01*
X105701D01*
Y81321D01*
X110819D01*
Y84636D01*
X110858Y84692D01*
X111077Y84951D01*
X112469Y86342D01*
X112969Y86135D01*
Y84479D01*
X118512D01*
Y85647D01*
X118974Y85839D01*
X120120Y84693D01*
X120273Y84528D01*
X120379Y84397D01*
X120413Y84348D01*
Y81670D01*
X124987D01*
Y86245D01*
X122309D01*
X122270Y86273D01*
X122004Y86498D01*
X119580Y88923D01*
X119157Y89205D01*
X119074Y89222D01*
X118658Y89305D01*
D02*
G37*
G36*
X98500Y83500D02*
X96500D01*
Y81500D01*
X98500D01*
Y83500D01*
D02*
G37*
G36*
X118512Y83479D02*
X116240D01*
Y81109D01*
X118512D01*
Y83479D01*
D02*
G37*
G36*
X115240D02*
X112969D01*
Y81109D01*
X115240D01*
Y83479D01*
D02*
G37*
G36*
X109000Y77825D02*
Y75000D01*
X111825D01*
X111776Y75378D01*
X111437Y76196D01*
X110898Y76898D01*
X110196Y77437D01*
X109378Y77776D01*
X109000Y77825D01*
D02*
G37*
G36*
X108000D02*
X107622Y77776D01*
X106804Y77437D01*
X106102Y76898D01*
X105563Y76196D01*
X105224Y75378D01*
X105175Y75000D01*
X108000D01*
Y77825D01*
D02*
G37*
G36*
X111825Y74000D02*
X109000D01*
Y71175D01*
X109378Y71224D01*
X110196Y71563D01*
X110898Y72102D01*
X111437Y72804D01*
X111776Y73622D01*
X111825Y74000D01*
D02*
G37*
G36*
X108000D02*
X105175D01*
X105224Y73622D01*
X105563Y72804D01*
X106102Y72102D01*
X106804Y71563D01*
X107622Y71224D01*
X108000Y71175D01*
Y74000D01*
D02*
G37*
G36*
X78994Y58200D02*
X76994D01*
Y56200D01*
X78994D01*
Y58200D01*
D02*
G37*
G36*
X85994D02*
X83994D01*
Y56200D01*
X85994D01*
Y58200D01*
D02*
G37*
G36*
Y55200D02*
X83994D01*
Y53200D01*
X85994D01*
Y55200D01*
D02*
G37*
G36*
X78994D02*
X76994D01*
Y53200D01*
X78994D01*
Y55200D01*
D02*
G37*
G36*
X149753Y45472D02*
X148947Y45312D01*
X148263Y44855D01*
X147806Y44171D01*
X147646Y43365D01*
X147806Y42558D01*
X148263Y41875D01*
X148346Y41819D01*
X148353Y41811D01*
X148375Y41777D01*
X148395Y41741D01*
X148412Y41702D01*
X148427Y41659D01*
X148439Y41609D01*
X148449Y41555D01*
Y39087D01*
X147466D01*
Y34513D01*
X152041D01*
Y39087D01*
X151058D01*
Y41555D01*
X151067Y41609D01*
X151080Y41659D01*
X151095Y41702D01*
X151112Y41741D01*
X151131Y41777D01*
X151154Y41811D01*
X151161Y41819D01*
X151244Y41875D01*
X151700Y42558D01*
X151861Y43365D01*
X151700Y44171D01*
X151244Y44855D01*
X150560Y45312D01*
X149753Y45472D01*
D02*
G37*
G36*
X129753Y46354D02*
X128947Y46194D01*
X128263Y45737D01*
X127806Y45053D01*
X127646Y44247D01*
X127806Y43440D01*
X128263Y42756D01*
X128346Y42701D01*
X128353Y42693D01*
X128375Y42659D01*
X128395Y42623D01*
X128412Y42584D01*
X128427Y42541D01*
X128439Y42491D01*
X128449Y42437D01*
Y39087D01*
X127466D01*
Y34513D01*
X132041D01*
Y39087D01*
X131058D01*
Y42437D01*
X131067Y42491D01*
X131080Y42541D01*
X131095Y42584D01*
X131112Y42623D01*
X131131Y42659D01*
X131154Y42693D01*
X131161Y42701D01*
X131244Y42756D01*
X131700Y43440D01*
X131861Y44247D01*
X131700Y45053D01*
X131244Y45737D01*
X130560Y46194D01*
X129753Y46354D01*
D02*
G37*
G36*
X119753Y46601D02*
X118947Y46441D01*
X118263Y45984D01*
X117806Y45300D01*
X117646Y44494D01*
X117806Y43687D01*
X118263Y43003D01*
X118346Y42948D01*
X118353Y42940D01*
X118375Y42906D01*
X118395Y42870D01*
X118412Y42831D01*
X118427Y42788D01*
X118439Y42738D01*
X118449Y42684D01*
Y39087D01*
X117466D01*
Y34513D01*
X122041D01*
Y39087D01*
X121058D01*
Y42684D01*
X121067Y42738D01*
X121080Y42788D01*
X121095Y42831D01*
X121112Y42870D01*
X121132Y42906D01*
X121154Y42940D01*
X121161Y42948D01*
X121244Y43003D01*
X121700Y43687D01*
X121861Y44494D01*
X121700Y45300D01*
X121244Y45984D01*
X120560Y46441D01*
X119753Y46601D01*
D02*
G37*
G36*
X109760D02*
X108953Y46441D01*
X108270Y45984D01*
X107813Y45300D01*
X107652Y44494D01*
X107813Y43687D01*
X108270Y43003D01*
X108353Y42948D01*
X108359Y42940D01*
X108382Y42906D01*
X108401Y42870D01*
X108418Y42831D01*
X108433Y42788D01*
X108446Y42738D01*
X108455Y42684D01*
Y39087D01*
X107472D01*
Y34513D01*
X112047D01*
Y39087D01*
X111064D01*
Y42684D01*
X111074Y42738D01*
X111086Y42788D01*
X111101Y42831D01*
X111118Y42870D01*
X111138Y42906D01*
X111160Y42940D01*
X111167Y42948D01*
X111250Y43003D01*
X111707Y43687D01*
X111867Y44494D01*
X111707Y45300D01*
X111250Y45984D01*
X110566Y46441D01*
X109760Y46601D01*
D02*
G37*
G36*
X99753Y46219D02*
X98947Y46059D01*
X98263Y45602D01*
X97806Y44918D01*
X97646Y44112D01*
X97806Y43305D01*
X98263Y42621D01*
X98346Y42566D01*
X98353Y42558D01*
X98375Y42524D01*
X98395Y42488D01*
X98412Y42449D01*
X98427Y42406D01*
X98439Y42356D01*
X98449Y42302D01*
Y38787D01*
X97466D01*
Y34213D01*
X102041D01*
Y38787D01*
X101058D01*
Y42302D01*
X101067Y42356D01*
X101080Y42406D01*
X101095Y42449D01*
X101112Y42488D01*
X101131Y42524D01*
X101154Y42558D01*
X101161Y42566D01*
X101244Y42621D01*
X101700Y43305D01*
X101861Y44112D01*
X101700Y44918D01*
X101244Y45602D01*
X100560Y46059D01*
X99753Y46219D01*
D02*
G37*
%LPD*%
G36*
X110715Y85738D02*
X110524Y85540D01*
X110221Y85182D01*
X110110Y85023D01*
X110026Y84878D01*
X109968Y84745D01*
X109938Y84626D01*
X109934Y84519D01*
X109957Y84426D01*
X110008Y84346D01*
X108726Y85825D01*
X108797Y85766D01*
X108883Y85736D01*
X108985Y85735D01*
X109101Y85762D01*
X109233Y85819D01*
X109379Y85904D01*
X109541Y86018D01*
X109719Y86161D01*
X110118Y86533D01*
X110715Y85738D01*
D02*
G37*
G36*
X121415Y85945D02*
X121778Y85637D01*
X121939Y85524D01*
X122085Y85439D01*
X122217Y85383D01*
X122335Y85354D01*
X122439Y85352D01*
X122529Y85379D01*
X122604Y85434D01*
X121224Y84054D01*
X121279Y84129D01*
X121305Y84219D01*
X121304Y84323D01*
X121275Y84440D01*
X121218Y84573D01*
X121133Y84719D01*
X121021Y84879D01*
X120880Y85054D01*
X120516Y85445D01*
X121212Y86142D01*
X121415Y85945D01*
D02*
G37*
G36*
X106512Y83009D02*
X106502Y83103D01*
X106472Y83187D01*
X106422Y83260D01*
X106353Y83324D01*
X106263Y83378D01*
X106154Y83423D01*
X106024Y83457D01*
X105875Y83482D01*
X105705Y83497D01*
X105516Y83501D01*
Y84486D01*
X105705Y84491D01*
X105875Y84505D01*
X106024Y84530D01*
X106154Y84565D01*
X106263Y84609D01*
X106353Y84663D01*
X106422Y84727D01*
X106472Y84801D01*
X106502Y84884D01*
X106512Y84978D01*
Y83009D01*
D02*
G37*
G36*
X103136Y84884D02*
X103166Y84801D01*
X103216Y84727D01*
X103285Y84663D01*
X103375Y84609D01*
X103485Y84565D01*
X103614Y84530D01*
X103764Y84505D01*
X103933Y84491D01*
X104122Y84486D01*
Y83501D01*
X103933Y83497D01*
X103764Y83482D01*
X103614Y83457D01*
X103485Y83423D01*
X103375Y83378D01*
X103285Y83324D01*
X103216Y83260D01*
X103166Y83187D01*
X103136Y83103D01*
X103126Y83009D01*
Y84978D01*
X103136Y84884D01*
D02*
G37*
G36*
X150572Y42369D02*
X150504Y42283D01*
X150443Y42192D01*
X150391Y42096D01*
X150346Y41994D01*
X150310Y41888D01*
X150282Y41778D01*
X150262Y41662D01*
X150250Y41541D01*
X150245Y41416D01*
X149261D01*
X149257Y41541D01*
X149245Y41662D01*
X149225Y41778D01*
X149197Y41888D01*
X149160Y41994D01*
X149116Y42096D01*
X149064Y42192D01*
X149003Y42283D01*
X148934Y42369D01*
X148858Y42451D01*
X150649D01*
X150572Y42369D01*
D02*
G37*
G36*
X150250Y39083D02*
X150265Y38914D01*
X150290Y38764D01*
X150324Y38635D01*
X150369Y38525D01*
X150423Y38435D01*
X150487Y38366D01*
X150560Y38316D01*
X150644Y38286D01*
X150738Y38276D01*
X148769D01*
X148863Y38286D01*
X148946Y38316D01*
X149020Y38366D01*
X149084Y38435D01*
X149138Y38525D01*
X149182Y38635D01*
X149217Y38764D01*
X149242Y38914D01*
X149256Y39083D01*
X149261Y39272D01*
X150245D01*
X150250Y39083D01*
D02*
G37*
G36*
X130572Y43251D02*
X130504Y43165D01*
X130443Y43073D01*
X130391Y42977D01*
X130346Y42876D01*
X130310Y42770D01*
X130282Y42660D01*
X130262Y42544D01*
X130250Y42423D01*
X130245Y42298D01*
X129261D01*
X129257Y42423D01*
X129245Y42544D01*
X129225Y42660D01*
X129197Y42770D01*
X129160Y42876D01*
X129116Y42977D01*
X129063Y43073D01*
X129003Y43165D01*
X128934Y43251D01*
X128858Y43333D01*
X130649D01*
X130572Y43251D01*
D02*
G37*
G36*
X130251Y39083D02*
X130265Y38914D01*
X130290Y38764D01*
X130324Y38635D01*
X130369Y38525D01*
X130423Y38435D01*
X130487Y38366D01*
X130561Y38316D01*
X130644Y38286D01*
X130738Y38276D01*
X128769D01*
X128863Y38286D01*
X128946Y38316D01*
X129020Y38366D01*
X129084Y38435D01*
X129138Y38525D01*
X129183Y38635D01*
X129217Y38764D01*
X129242Y38914D01*
X129256Y39083D01*
X129261Y39272D01*
X130245D01*
X130251Y39083D01*
D02*
G37*
G36*
X120572Y43498D02*
X120504Y43412D01*
X120443Y43321D01*
X120391Y43224D01*
X120346Y43123D01*
X120310Y43017D01*
X120282Y42906D01*
X120262Y42791D01*
X120250Y42670D01*
X120246Y42545D01*
X119261D01*
X119257Y42670D01*
X119245Y42791D01*
X119225Y42906D01*
X119197Y43017D01*
X119160Y43123D01*
X119116Y43224D01*
X119063Y43321D01*
X119003Y43412D01*
X118934Y43498D01*
X118858Y43580D01*
X120649D01*
X120572Y43498D01*
D02*
G37*
G36*
X120250Y39083D02*
X120265Y38914D01*
X120290Y38764D01*
X120324Y38635D01*
X120369Y38525D01*
X120423Y38435D01*
X120487Y38366D01*
X120561Y38316D01*
X120644Y38286D01*
X120738Y38276D01*
X118769D01*
X118863Y38286D01*
X118946Y38316D01*
X119020Y38366D01*
X119084Y38435D01*
X119138Y38525D01*
X119183Y38635D01*
X119217Y38764D01*
X119242Y38914D01*
X119256Y39083D01*
X119261Y39272D01*
X120246D01*
X120250Y39083D01*
D02*
G37*
G36*
X110579Y43498D02*
X110510Y43412D01*
X110450Y43321D01*
X110397Y43224D01*
X110353Y43123D01*
X110317Y43017D01*
X110288Y42906D01*
X110268Y42791D01*
X110256Y42670D01*
X110252Y42545D01*
X109268D01*
X109264Y42670D01*
X109251Y42791D01*
X109231Y42906D01*
X109203Y43017D01*
X109167Y43123D01*
X109122Y43224D01*
X109070Y43321D01*
X109009Y43412D01*
X108941Y43498D01*
X108864Y43580D01*
X110655D01*
X110579Y43498D01*
D02*
G37*
G36*
X110257Y39083D02*
X110272Y38914D01*
X110296Y38764D01*
X110331Y38635D01*
X110375Y38525D01*
X110429Y38435D01*
X110493Y38366D01*
X110567Y38316D01*
X110651Y38286D01*
X110744Y38276D01*
X108775D01*
X108869Y38286D01*
X108953Y38316D01*
X109027Y38366D01*
X109090Y38435D01*
X109145Y38525D01*
X109189Y38635D01*
X109223Y38764D01*
X109248Y38914D01*
X109263Y39083D01*
X109268Y39272D01*
X110252D01*
X110257Y39083D01*
D02*
G37*
G36*
X100572Y43116D02*
X100504Y43030D01*
X100443Y42939D01*
X100391Y42843D01*
X100346Y42741D01*
X100310Y42636D01*
X100282Y42525D01*
X100262Y42409D01*
X100250Y42288D01*
X100245Y42163D01*
X99261D01*
X99257Y42288D01*
X99245Y42409D01*
X99225Y42525D01*
X99197Y42636D01*
X99160Y42741D01*
X99116Y42843D01*
X99063Y42939D01*
X99003Y43030D01*
X98934Y43116D01*
X98858Y43198D01*
X100649D01*
X100572Y43116D01*
D02*
G37*
G36*
X100250Y38783D02*
X100265Y38614D01*
X100290Y38464D01*
X100324Y38335D01*
X100369Y38225D01*
X100423Y38135D01*
X100487Y38066D01*
X100560Y38016D01*
X100644Y37986D01*
X100738Y37976D01*
X98769D01*
X98863Y37986D01*
X98946Y38016D01*
X99020Y38066D01*
X99084Y38135D01*
X99138Y38225D01*
X99182Y38335D01*
X99217Y38464D01*
X99242Y38614D01*
X99256Y38783D01*
X99261Y38972D01*
X100245D01*
X100250Y38783D01*
D02*
G37*
%LPC*%
G36*
X88994Y113650D02*
X86994D01*
Y111650D01*
X88994D01*
Y113650D01*
D02*
G37*
G36*
Y110650D02*
X86994D01*
Y108650D01*
X88994D01*
Y110650D01*
D02*
G37*
G36*
X70300Y90000D02*
X68300D01*
Y88000D01*
X70300D01*
Y90000D01*
D02*
G37*
G36*
X67300D02*
X65300D01*
Y88000D01*
X67300D01*
Y90000D01*
D02*
G37*
G36*
X70300Y87000D02*
X68300D01*
Y85000D01*
X70300D01*
Y87000D01*
D02*
G37*
G36*
X67300D02*
X65300D01*
Y85000D01*
X67300D01*
Y87000D01*
D02*
G37*
G36*
X72421Y77366D02*
X68968D01*
Y76374D01*
X72421D01*
Y77366D01*
D02*
G37*
G36*
X159006Y73850D02*
X157006D01*
Y71850D01*
X159006D01*
Y73850D01*
D02*
G37*
G36*
X149500Y64500D02*
X146500D01*
Y62000D01*
X149500D01*
Y64500D01*
D02*
G37*
G36*
X158787Y70987D02*
X154213D01*
Y66413D01*
X155195D01*
Y63028D01*
X153744D01*
Y59453D01*
X159256D01*
Y63028D01*
X157805D01*
Y66413D01*
X158787D01*
Y70987D01*
D02*
G37*
G36*
X149500Y61000D02*
X146500D01*
Y58500D01*
X149500D01*
Y61000D01*
D02*
G37*
G36*
X177494Y48150D02*
X175494D01*
Y46150D01*
X177494D01*
Y48150D01*
D02*
G37*
G36*
X185968Y41859D02*
X183500D01*
Y38800D01*
X185968D01*
Y41859D01*
D02*
G37*
G36*
X182500D02*
X180032D01*
Y38800D01*
X182500D01*
Y41859D01*
D02*
G37*
%LPD*%
G36*
X157391Y67214D02*
X157307Y67184D01*
X157233Y67134D01*
X157169Y67065D01*
X157115Y66975D01*
X157071Y66865D01*
X157036Y66736D01*
X157012Y66586D01*
X156997Y66417D01*
X156992Y66228D01*
X156008D01*
X156003Y66417D01*
X155988Y66586D01*
X155964Y66736D01*
X155929Y66865D01*
X155885Y66975D01*
X155831Y67065D01*
X155767Y67134D01*
X155693Y67184D01*
X155609Y67214D01*
X155516Y67224D01*
X157484D01*
X157391Y67214D01*
D02*
G37*
G36*
X156997Y63023D02*
X157012Y62854D01*
X157036Y62704D01*
X157071Y62575D01*
X157115Y62465D01*
X157169Y62375D01*
X157233Y62306D01*
X157307Y62256D01*
X157391Y62226D01*
X157484Y62216D01*
X155516D01*
X155609Y62226D01*
X155693Y62256D01*
X155767Y62306D01*
X155831Y62375D01*
X155885Y62465D01*
X155929Y62575D01*
X155964Y62704D01*
X155988Y62854D01*
X156003Y63023D01*
X156008Y63212D01*
X156992D01*
X156997Y63023D01*
D02*
G37*
%LPC*%
G36*
X62604Y49350D02*
X60604D01*
Y47350D01*
X62604D01*
Y49350D01*
D02*
G37*
G36*
Y46350D02*
X60604D01*
Y44350D01*
X62604D01*
Y46350D01*
D02*
G37*
G36*
X66877Y29858D02*
X64817D01*
Y28937D01*
X68198D01*
X68189Y28981D01*
X67881Y29442D01*
X67420Y29750D01*
X66877Y29858D01*
D02*
G37*
G36*
X71609Y18776D02*
X71236D01*
X71314Y18744D01*
X71408Y18721D01*
X71492D01*
X71564Y18744D01*
X71609Y18776D01*
D02*
G37*
G36*
X71494Y14150D02*
X69494D01*
Y12150D01*
X71494D01*
Y14150D01*
D02*
G37*
G36*
X74494Y11150D02*
X72494D01*
Y9150D01*
X74494D01*
Y11150D01*
D02*
G37*
G36*
X71494D02*
X69494D01*
Y9150D01*
X71494D01*
Y11150D01*
D02*
G37*
G36*
X65650Y10994D02*
X63650D01*
Y8994D01*
X65650D01*
Y10994D01*
D02*
G37*
G36*
X62650D02*
X60650D01*
Y8994D01*
X62650D01*
Y10994D01*
D02*
G37*
G36*
X65650Y7994D02*
X63650D01*
Y5994D01*
X65650D01*
Y7994D01*
D02*
G37*
G36*
X62650D02*
X60650D01*
Y5994D01*
X62650D01*
Y7994D01*
D02*
G37*
%LPD*%
D10*
X89760Y36300D02*
Y100624D01*
X6350Y108440D02*
X15693Y99097D01*
Y69270D02*
Y99097D01*
X15650Y69227D02*
X15693Y69270D01*
X15650Y65650D02*
Y69227D01*
X12907Y65650D02*
X15650D01*
X41000Y109630D02*
Y144200D01*
Y109630D02*
X41630Y109000D01*
X50000D01*
X101252Y167665D02*
X101350Y167764D01*
X96768Y167665D02*
X101252D01*
X94264Y165161D02*
X96768Y167665D01*
X94264Y131150D02*
Y165161D01*
X64736Y147599D02*
Y174850D01*
X61377Y144240D02*
X64736Y147599D01*
X57748Y144240D02*
X61377D01*
X57650Y144142D02*
X57748Y144240D01*
X66606Y142075D02*
X88358Y163827D01*
X57748Y142075D02*
X66606D01*
X57650Y142173D02*
X57748Y142075D01*
X78516Y165811D02*
Y174850D01*
X77000Y164295D02*
X78516Y165811D01*
X77000Y162500D02*
Y164295D01*
X80484Y167780D02*
Y174850D01*
Y167780D02*
X81500Y166764D01*
Y163500D02*
Y166764D01*
X57650Y140205D02*
X68779D01*
X75075Y146500D01*
X86000D01*
X87000Y147500D01*
Y158500D01*
X90327Y131150D02*
X90425Y131248D01*
Y154925D01*
X90500Y155000D01*
X82413Y131189D02*
X82453Y131150D01*
X82413Y131189D02*
Y143087D01*
X129753Y36800D02*
Y44247D01*
X139760Y36800D02*
Y50240D01*
X136000Y54000D02*
X139760Y50240D01*
X118500Y54000D02*
X136000D01*
X91531Y80969D02*
X118500Y54000D01*
X91531Y80969D02*
Y118295D01*
X137957Y36800D02*
X139760D01*
X119753D02*
Y44494D01*
X159760Y37150D02*
Y43240D01*
X149753Y36800D02*
Y43365D01*
X109760Y36800D02*
Y44494D01*
X99753Y36500D02*
Y44112D01*
X50000Y109000D02*
X63150Y122150D01*
X66006D01*
X50000Y115500D02*
Y116413D01*
X64736Y131150D01*
X50000Y122000D02*
X57650Y129650D01*
Y138236D01*
X150454Y137539D02*
Y145500D01*
X136047Y155953D02*
X148486Y143514D01*
Y137539D02*
Y143514D01*
X132819Y154181D02*
X141500Y145500D01*
X107735Y154181D02*
X132819D01*
X105963Y155953D02*
X107735Y154181D01*
X101350Y155953D02*
X105963D01*
X101350Y157921D02*
X106500D01*
X108468Y155953D01*
X136047D01*
X114485Y95506D02*
X121000Y102021D01*
X112000Y93021D02*
X114485Y95506D01*
X121000Y102021D02*
Y149117D01*
X118101Y152016D02*
X121000Y149117D01*
X113327Y152016D02*
X118101D01*
X109390Y148079D02*
X113327Y152016D01*
X101350Y148079D02*
X109390D01*
X88358Y121468D02*
X91531Y118295D01*
X88358Y121468D02*
Y131150D01*
X84421Y120421D02*
Y131150D01*
X83000Y119000D02*
X84421Y120421D01*
X83000Y107384D02*
Y119000D01*
Y107384D02*
X89760Y100624D01*
X86390Y116800D02*
Y131150D01*
X44500Y166500D02*
X45106Y165894D01*
X57551D02*
X57650Y165795D01*
X45106Y165894D02*
X57551D01*
X63842Y58862D02*
X66597Y56108D01*
X63842Y58862D02*
Y61405D01*
X78516Y82984D02*
X79500Y82000D01*
X22333Y62333D02*
X64500Y104500D01*
X80484Y105929D02*
X82000Y104413D01*
X80484Y105929D02*
Y131150D01*
X78516Y82984D02*
Y131150D01*
X23882Y44118D02*
Y46560D01*
X22333Y47309D02*
Y62333D01*
Y47309D02*
X23083Y46560D01*
X23882D01*
Y44118D02*
X27156D01*
X68673Y124817D02*
Y131150D01*
X66006Y122150D02*
X68673Y124817D01*
X72610Y102776D02*
Y131150D01*
X55968Y80500D02*
Y86134D01*
X68468Y66031D02*
X73150Y61350D01*
X76500D01*
X59905Y52705D02*
Y61405D01*
X55968Y86134D02*
X72610Y102776D01*
X24350Y35150D02*
X40994D01*
X19041Y40459D02*
X24350Y35150D01*
X19041Y40459D02*
Y58900D01*
X12913D02*
X19041D01*
X70642Y174850D02*
X70740Y174949D01*
Y179115D01*
X74000Y182375D01*
Y189500D01*
X68575Y174949D02*
X68673Y174850D01*
X68575Y174949D02*
Y178578D01*
X67500Y179653D02*
X68575Y178578D01*
X67500Y179653D02*
Y189500D01*
X53994Y175850D02*
X61000Y182856D01*
Y189500D01*
X41000Y144200D02*
X46006D01*
X26350Y129850D02*
X28500Y132000D01*
X22894Y129850D02*
X26350D01*
X38570Y152016D02*
X57650D01*
X36728Y150174D02*
X38570Y152016D01*
X38230Y154181D02*
X53824D01*
X37496Y155953D02*
X57650D01*
X30295Y157921D02*
X57650D01*
X30169Y159890D02*
X57650D01*
X36728Y118935D02*
Y150174D01*
X32390Y114596D02*
X36728Y118935D01*
X32390Y108433D02*
Y114596D01*
X57551Y154083D02*
X57650Y153984D01*
X53824Y154083D02*
X57551D01*
X53824D02*
Y154181D01*
X32890Y148841D02*
X38230Y154181D01*
X32890Y121433D02*
Y148841D01*
X12300Y121433D02*
X19110D01*
X12000Y108433D02*
X18610D01*
X6350Y121140D02*
X6650Y121440D01*
X6350Y108440D02*
Y121140D01*
X15060Y129850D02*
X22894D01*
X6650Y121440D02*
X15060Y129850D01*
X22894Y141350D02*
X37496Y155953D01*
X22894Y135506D02*
X22900Y135500D01*
X22894Y135506D02*
Y141350D01*
X128500Y74500D02*
Y83801D01*
X118658Y88000D02*
X122700Y83957D01*
X112281Y88000D02*
X118658D01*
X114485Y95506D02*
X122350D01*
X128350Y83951D02*
X128500Y83801D01*
X108260Y83979D02*
X112281Y88000D01*
X108245Y83994D02*
X108260Y83979D01*
X101650Y83994D02*
X108245D01*
X156500Y61240D02*
Y68700D01*
X12907Y65650D02*
X12913Y65644D01*
Y58900D02*
Y65644D01*
X76500Y61350D02*
X86500D01*
X59905Y52705D02*
X60110Y52500D01*
X159753Y23500D02*
Y31500D01*
X149747Y31150D02*
X149753Y31144D01*
Y23500D02*
Y31144D01*
X139753Y23500D02*
Y31150D01*
X129747D02*
X129753Y31144D01*
Y23500D02*
Y31144D01*
X119747Y31150D02*
X119753Y31144D01*
Y23500D02*
Y31144D01*
X109753Y23500D02*
Y31150D01*
X99747Y30850D02*
X99753Y30844D01*
Y23500D02*
Y30844D01*
X89753Y23500D02*
Y30650D01*
X57591Y144200D02*
X57650Y144142D01*
X46006Y144200D02*
X57591D01*
X63737Y175850D02*
X64736Y174850D01*
X53994Y175850D02*
X63737D01*
X72610Y174850D02*
X72709Y174949D01*
Y178578D01*
X77981Y183850D01*
X104006D01*
X105856Y182000D01*
X111500D01*
X94264Y174850D02*
X157350D01*
X159000Y176500D01*
X155516Y163016D02*
X159000Y166500D01*
X111470Y163016D02*
X155516D01*
X110659Y163827D02*
X111470Y163016D01*
X101350Y163827D02*
X110659D01*
X120356Y169500D02*
X124006Y165850D01*
X103000Y169500D02*
X120356D01*
X101350Y167850D02*
X103000Y169500D01*
X101350Y167764D02*
Y167850D01*
Y165795D02*
X113500D01*
X101350D02*
X101405Y165850D01*
X104264Y138236D02*
X115000Y127500D01*
X101350Y138236D02*
X104264D01*
X108795Y140205D02*
X115000Y134000D01*
X101350Y140205D02*
X108795D01*
X113327Y142173D02*
X115000Y140500D01*
X101350Y142173D02*
X113327D01*
X112142Y144142D02*
X115000Y147000D01*
X101350Y144142D02*
X112142D01*
X92295Y120361D02*
X95506Y117150D01*
X92295Y120361D02*
Y131150D01*
X26492Y163567D02*
X30169Y159890D01*
X23000Y163567D02*
X26492D01*
X26492Y154118D02*
X30295Y157921D01*
X23000Y154118D02*
X26492D01*
X14300Y163567D02*
X23000D01*
X14300Y154185D02*
X19441D01*
X19508Y154118D01*
X23000D01*
X167506Y108150D02*
X171644Y112287D01*
X176071D01*
X143506Y107863D02*
X143650Y108006D01*
X143506Y98150D02*
Y107863D01*
X143650Y108006D02*
Y109562D01*
X144588Y110500D01*
Y115650D01*
X144391D02*
X144588D01*
X139470Y120571D02*
X144391Y115650D01*
X146557Y110743D02*
X149300Y108000D01*
X146557Y110743D02*
Y115689D01*
X185906Y117405D02*
X186500Y118000D01*
X176071Y117405D02*
X185906D01*
X176071Y114847D02*
X185653D01*
X186500Y114000D01*
X139549Y126594D02*
X145651D01*
X146557Y127500D01*
X139509Y124626D02*
X145431D01*
X146557Y123500D01*
X132506Y122650D02*
X132538Y122618D01*
X139470D01*
D11*
X59042Y16862D02*
Y32138D01*
Y12507D02*
Y16862D01*
X49374Y75579D02*
X52816D01*
X49553Y76053D02*
Y78000D01*
X49374Y75874D02*
X49553Y76053D01*
X53508Y74622D02*
Y74887D01*
X52816Y75579D02*
X53508Y74887D01*
X49374Y75579D02*
Y75874D01*
X77150Y74350D02*
X85000D01*
X54295Y76445D02*
X55892Y74848D01*
X54295Y76445D02*
Y80205D01*
X55968Y76999D02*
Y80500D01*
X40630Y163630D02*
X57453D01*
X57650Y163827D01*
X40500Y163500D02*
X40630Y163630D01*
X62979Y14500D02*
X63500D01*
X60617Y16862D02*
X62979Y14500D01*
X85000Y74350D02*
Y74500D01*
X74776Y74497D02*
X76547Y72726D01*
Y67000D02*
Y72726D01*
X74776Y74497D02*
Y130953D01*
X55000Y26500D02*
X55892Y27392D01*
Y32138D01*
X70642Y103642D02*
Y131150D01*
X45240Y78240D02*
X70642Y103642D01*
X45240Y65050D02*
Y78240D01*
Y65050D02*
X53019Y57272D01*
X55836D01*
X55968Y57404D01*
Y61405D01*
X76547Y74953D02*
Y131150D01*
X74579D02*
X74776Y130953D01*
X76547Y74953D02*
X77150Y74350D01*
X61874Y80500D02*
Y87230D01*
X57937Y57045D02*
Y61405D01*
X57000Y56108D02*
X57937Y57045D01*
X57000Y40800D02*
Y56108D01*
X27156Y49039D02*
X34611D01*
X41000Y54000D02*
X51500Y43500D01*
X27156Y54000D02*
X41000D01*
X42235Y58900D02*
X54317Y46817D01*
X27156Y58900D02*
X42235D01*
X55968Y76999D02*
X59905Y73062D01*
Y72000D02*
Y73062D01*
X54000Y80500D02*
X54295Y80205D01*
X55892Y72500D02*
Y74848D01*
X51500Y43500D02*
X52743Y42257D01*
Y32138D02*
Y42257D01*
X54317Y32138D02*
Y46817D01*
X55892Y16862D02*
Y22138D01*
X40953Y35109D02*
X40994Y35150D01*
X40953Y3047D02*
Y35109D01*
Y3047D02*
X76547D01*
Y12753D01*
X72000Y17300D02*
X76547Y12753D01*
X47707Y28437D02*
X49042D01*
X45369D02*
X47707D01*
X42000Y25068D02*
X45369Y28437D01*
X42000Y12494D02*
Y25068D01*
Y12494D02*
X43494Y11000D01*
X52500D01*
X54317Y12817D01*
Y16862D01*
X54317Y16862D01*
X168150Y38506D02*
Y42110D01*
X156500Y53760D02*
X168150Y42110D01*
X61874Y87230D02*
X62150Y87506D01*
X40994Y35150D02*
X47707Y28437D01*
X68737Y20563D02*
X72000Y17300D01*
X64317Y20563D02*
X68737D01*
X57467Y8533D02*
X57500Y8500D01*
X57467Y8533D02*
Y16862D01*
D20*
X176071Y114847D02*
D03*
Y117405D02*
D03*
Y122524D02*
D03*
Y119965D02*
D03*
Y112287D02*
D03*
D21*
X101650Y83994D02*
D03*
X96000Y84000D02*
D03*
X128350Y83951D02*
D03*
X122700Y83957D02*
D03*
X128000Y95500D02*
D03*
X122350Y95506D02*
D03*
X6650Y121440D02*
D03*
X12300Y121433D02*
D03*
X6350Y108440D02*
D03*
X12000Y108433D02*
D03*
X143650Y108006D02*
D03*
X149300Y108000D02*
D03*
X57500Y8500D02*
D03*
X63150Y8494D02*
D03*
X62150Y87506D02*
D03*
X67800Y87500D02*
D03*
X8650Y154192D02*
D03*
X14300Y154185D02*
D03*
X8650Y163573D02*
D03*
X14300Y163567D02*
D03*
X168150Y38506D02*
D03*
X173800Y38500D02*
D03*
D22*
X112000Y93021D02*
D03*
D23*
X115740Y83979D02*
D03*
X108260Y83979D02*
D03*
D24*
X143500Y92500D02*
D03*
X143506Y98150D02*
D03*
X167500Y102500D02*
D03*
X167506Y108150D02*
D03*
X132500Y117000D02*
D03*
X132506Y122650D02*
D03*
X86494Y111150D02*
D03*
X86500Y116800D02*
D03*
X66006Y122150D02*
D03*
X66000Y116500D02*
D03*
X46006Y144200D02*
D03*
X46000Y138550D02*
D03*
X53994Y175850D02*
D03*
X54000Y181500D02*
D03*
X104006Y183850D02*
D03*
X104000Y178200D02*
D03*
X22894Y129850D02*
D03*
X22900Y135500D02*
D03*
X22894Y141350D02*
D03*
X22900Y147000D02*
D03*
X124006Y165850D02*
D03*
X124000Y160200D02*
D03*
X95500Y111500D02*
D03*
X95506Y117150D02*
D03*
X113494Y160145D02*
D03*
X113500Y165795D02*
D03*
X40994Y35150D02*
D03*
X41000Y40800D02*
D03*
X71994Y11650D02*
D03*
X72000Y17300D02*
D03*
X12907Y65650D02*
D03*
X12913Y71300D02*
D03*
X86500Y61350D02*
D03*
X86494Y55700D02*
D03*
X76500Y61350D02*
D03*
X76494Y55700D02*
D03*
X60110Y52500D02*
D03*
X60104Y46850D02*
D03*
X177994Y48650D02*
D03*
X178000Y54300D02*
D03*
X156506Y74350D02*
D03*
X156500Y68700D02*
D03*
X109753Y31150D02*
D03*
X109760Y36800D02*
D03*
X99747Y30850D02*
D03*
X99753Y36500D02*
D03*
X89753Y30650D02*
D03*
X89760Y36300D02*
D03*
X119747Y31150D02*
D03*
X119753Y36800D02*
D03*
X129747Y31150D02*
D03*
X129753Y36800D02*
D03*
X139753Y31150D02*
D03*
X139760Y36800D02*
D03*
X149747Y31150D02*
D03*
X149753Y36800D02*
D03*
X159753Y31500D02*
D03*
X159760Y37150D02*
D03*
D25*
X178433Y130398D02*
D03*
Y104413D02*
D03*
D26*
X188512Y133153D02*
D03*
Y101657D02*
D03*
D27*
X193000Y123311D02*
D03*
Y111500D02*
D03*
D28*
X144588Y115650D02*
D03*
X146557Y115689D02*
D03*
X148525Y115728D02*
D03*
X156439D02*
D03*
X154431D02*
D03*
X152462D02*
D03*
X150454D02*
D03*
X144391Y137500D02*
D03*
X146439D02*
D03*
X148486Y137539D02*
D03*
X156399D02*
D03*
X154391D02*
D03*
X152423D02*
D03*
X150454D02*
D03*
D29*
X139470Y120571D02*
D03*
Y122618D02*
D03*
X139509Y124626D02*
D03*
X139628Y132500D02*
D03*
Y130532D02*
D03*
Y128563D02*
D03*
X139549Y126594D02*
D03*
X161360Y120689D02*
D03*
Y122658D02*
D03*
Y124587D02*
D03*
Y132539D02*
D03*
Y130571D02*
D03*
Y128563D02*
D03*
Y126594D02*
D03*
D30*
X18610Y108433D02*
D03*
X32390D02*
D03*
X19110Y121433D02*
D03*
X32890D02*
D03*
D31*
X25500Y110433D02*
D03*
X26000Y123433D02*
D03*
D32*
X80500Y189500D02*
D03*
X74000D02*
D03*
X67500D02*
D03*
X61000D02*
D03*
X50000Y109000D02*
D03*
Y115500D02*
D03*
Y122000D02*
D03*
Y128500D02*
D03*
X115000Y127500D02*
D03*
Y134000D02*
D03*
Y140500D02*
D03*
Y147000D02*
D03*
X128500Y74500D02*
D03*
X118500D02*
D03*
X108500D02*
D03*
X159753Y13500D02*
D03*
Y23500D02*
D03*
Y3500D02*
D03*
X149753D02*
D03*
X139753D02*
D03*
X129753D02*
D03*
X119753D02*
D03*
X109753D02*
D03*
X99753D02*
D03*
X89753D02*
D03*
X149753Y13500D02*
D03*
X139753D02*
D03*
X129753D02*
D03*
X119753D02*
D03*
X109753D02*
D03*
X99753D02*
D03*
X89753D02*
D03*
X149753Y23500D02*
D03*
X139753D02*
D03*
X129753D02*
D03*
X119753D02*
D03*
X109753D02*
D03*
X99753D02*
D03*
X89753D02*
D03*
D33*
X64736Y174850D02*
D03*
X66705D02*
D03*
X68673D02*
D03*
X70642D02*
D03*
X72610D02*
D03*
X74579D02*
D03*
X76547D02*
D03*
X78516D02*
D03*
X80484D02*
D03*
X82453D02*
D03*
X84421D02*
D03*
X86390D02*
D03*
X88358D02*
D03*
X90327D02*
D03*
X92295D02*
D03*
X94264D02*
D03*
Y131150D02*
D03*
X92295D02*
D03*
X90327D02*
D03*
X88358D02*
D03*
X86390D02*
D03*
X84421D02*
D03*
X82453D02*
D03*
X80484D02*
D03*
X78516D02*
D03*
X76547D02*
D03*
X74579D02*
D03*
X72610D02*
D03*
X70642D02*
D03*
X68673D02*
D03*
X66705D02*
D03*
X64736D02*
D03*
D34*
X101350Y167764D02*
D03*
Y165795D02*
D03*
Y163827D02*
D03*
Y161858D02*
D03*
Y159890D02*
D03*
Y157921D02*
D03*
Y155953D02*
D03*
Y153984D02*
D03*
Y152016D02*
D03*
Y150047D02*
D03*
Y148079D02*
D03*
Y146110D02*
D03*
Y144142D02*
D03*
Y142173D02*
D03*
Y140205D02*
D03*
Y138236D02*
D03*
X57650D02*
D03*
Y140205D02*
D03*
Y142173D02*
D03*
Y144142D02*
D03*
Y146110D02*
D03*
Y148079D02*
D03*
Y150047D02*
D03*
Y152016D02*
D03*
Y153984D02*
D03*
Y155953D02*
D03*
Y157921D02*
D03*
Y159890D02*
D03*
Y161858D02*
D03*
Y163827D02*
D03*
Y165795D02*
D03*
Y167764D02*
D03*
D35*
X49042Y28437D02*
D03*
Y20563D02*
D03*
X64317D02*
D03*
Y28437D02*
D03*
D36*
X49042Y26862D02*
D03*
Y25287D02*
D03*
Y23713D02*
D03*
Y22138D02*
D03*
X64317D02*
D03*
Y23713D02*
D03*
Y25287D02*
D03*
Y26862D02*
D03*
D37*
X52743Y32138D02*
D03*
X60617D02*
D03*
Y16862D02*
D03*
X52743D02*
D03*
D38*
X54317Y32138D02*
D03*
X55892D02*
D03*
X57467D02*
D03*
X59042D02*
D03*
Y16862D02*
D03*
X57467D02*
D03*
X55892D02*
D03*
X54317D02*
D03*
D39*
X12913Y58900D02*
D03*
Y54000D02*
D03*
Y49039D02*
D03*
Y44118D02*
D03*
X27156D02*
D03*
Y49039D02*
D03*
Y54000D02*
D03*
Y58900D02*
D03*
D40*
X49374Y75874D02*
D03*
Y73905D02*
D03*
Y71937D02*
D03*
Y69968D02*
D03*
Y68000D02*
D03*
Y66031D02*
D03*
X68468D02*
D03*
Y68000D02*
D03*
Y69968D02*
D03*
Y71937D02*
D03*
Y73905D02*
D03*
Y75874D02*
D03*
D41*
X63842Y61405D02*
D03*
X61874D02*
D03*
X59905D02*
D03*
X57937D02*
D03*
X55968D02*
D03*
X54000D02*
D03*
X63842Y80500D02*
D03*
X61874D02*
D03*
X59905D02*
D03*
X57937D02*
D03*
X55968D02*
D03*
X54000D02*
D03*
D42*
X23000Y163567D02*
D03*
X23000Y154118D02*
D03*
X23000Y158843D02*
D03*
D43*
X183000Y24521D02*
D03*
Y38300D02*
D03*
D44*
X181000Y31410D02*
D03*
D45*
X156500Y61240D02*
D03*
Y53760D02*
D03*
X166500Y57500D02*
D03*
Y61240D02*
D03*
Y53760D02*
D03*
D46*
X188000Y69500D02*
D03*
Y61800D02*
D03*
X146000Y61500D02*
D03*
Y53800D02*
D03*
D78*
X163000Y86000D02*
Y88500D01*
X154425Y77425D02*
X163000Y86000D01*
X154354Y77425D02*
X154425D01*
X141700Y64771D02*
X154354Y77425D01*
X141700Y53800D02*
Y64771D01*
X140856Y95500D02*
X143506Y98150D01*
X128000Y95500D02*
X140856D01*
X143506Y98150D02*
X157506D01*
X141700Y53800D02*
X146000D01*
X159753Y12976D02*
X172969D01*
X180379Y20387D01*
X185621D01*
X191971Y26737D02*
Y40329D01*
X185621Y20387D02*
X191971Y26737D01*
X180000Y24521D02*
X183000D01*
X173800Y30720D02*
X180000Y24521D01*
X173800Y30720D02*
Y38500D01*
X178000Y54300D02*
X191971Y40329D01*
X72000Y17300D02*
X73460Y18760D01*
X164000D01*
Y44500D01*
X159000Y49500D02*
X164000Y44500D01*
X150300Y49500D02*
X159000D01*
X146000Y53800D02*
X150300Y49500D01*
X128350Y165850D02*
X133000Y170500D01*
X124006Y165850D02*
X128350D01*
X149753Y3500D02*
X159753D01*
X139753D02*
X149753D01*
X129753D02*
X139753D01*
X119753D02*
X129753D01*
X109753D02*
X119753D01*
X99753D02*
X109753D01*
X89753D02*
X99753D01*
X162740Y103384D02*
X167506Y108150D01*
X157506Y98150D02*
X162740Y103384D01*
X128000Y95500D02*
X133500Y90000D01*
Y73000D02*
Y90000D01*
X131000Y70500D02*
X133500Y73000D01*
X122500Y70500D02*
X131000D01*
X118500Y74500D02*
X122500Y70500D01*
X156460Y53800D02*
X156500Y53760D01*
X146000Y53800D02*
X156460D01*
X162740Y97760D02*
Y103384D01*
Y97760D02*
X166500Y94000D01*
Y61240D02*
Y94000D01*
Y61240D02*
X167060Y61800D01*
X188000D01*
X165335Y60075D02*
X166500Y61240D01*
X162000Y60075D02*
X165335D01*
X162000Y54500D02*
Y60075D01*
Y54500D02*
X162740Y53760D01*
X166500D01*
X167040Y54300D01*
X178000D01*
X159753Y12976D02*
Y13500D01*
X149753D02*
X159753D01*
X139753D02*
X149753D01*
X129753D02*
X139753D01*
X119753D02*
X129753D01*
X109753D02*
X119753D01*
X99753D02*
X109753D01*
X89753D02*
X99753D01*
D79*
X72000Y56850D02*
X76500Y61350D01*
X72000Y17300D02*
Y56850D01*
D80*
X10500Y10500D02*
D03*
X186500Y186500D02*
D03*
X185621Y11000D02*
D03*
X10500Y186000D02*
D03*
D81*
X159000Y156500D02*
D03*
Y166500D02*
D03*
Y176500D02*
D03*
Y186500D02*
D03*
D82*
X111500Y182000D02*
D03*
Y192000D02*
D03*
D83*
X88000Y107000D02*
D03*
X95000Y52904D02*
D03*
X94000Y62000D02*
D03*
X105500Y51945D02*
D03*
X105000Y57598D02*
D03*
X162894Y66720D02*
D03*
X163227Y71749D02*
D03*
X163306Y79000D02*
D03*
X156335Y57399D02*
D03*
X153444Y57272D02*
D03*
X172921Y76000D02*
D03*
X183176Y76607D02*
D03*
X189500Y76500D02*
D03*
X185756Y81657D02*
D03*
X191500D02*
D03*
X190000Y151897D02*
D03*
X188447Y169345D02*
D03*
X184995Y158000D02*
D03*
X180628Y152016D02*
D03*
X182000Y161248D02*
D03*
X171000Y188733D02*
D03*
X136500Y184356D02*
D03*
X134500Y190500D02*
D03*
X82000Y3373D02*
D03*
X82453Y8494D02*
D03*
X24000Y19000D02*
D03*
X17836Y24000D02*
D03*
X50694Y6500D02*
D03*
X45631D02*
D03*
X63438Y34697D02*
D03*
X67500Y32500D02*
D03*
X65790Y37723D02*
D03*
X69088Y41300D02*
D03*
X28500Y39007D02*
D03*
X67403Y50311D02*
D03*
X64152Y48559D02*
D03*
X71000Y79129D02*
D03*
X66877D02*
D03*
X49553Y78000D02*
D03*
X39510Y64199D02*
D03*
Y68611D02*
D03*
X31185Y89000D02*
D03*
X4500Y91500D02*
D03*
X30601Y75306D02*
D03*
X32500Y84000D02*
D03*
X5500Y75000D02*
D03*
Y84447D02*
D03*
X19441Y114678D02*
D03*
X15000Y116000D02*
D03*
X10413D02*
D03*
X44840Y123164D02*
D03*
X50000Y149068D02*
D03*
X45500D02*
D03*
X40994D02*
D03*
X44389Y128063D02*
D03*
X45000Y133500D02*
D03*
X72073Y138550D02*
D03*
X76751Y138400D02*
D03*
Y142088D02*
D03*
X12013Y135601D02*
D03*
X6780Y135893D02*
D03*
X11609Y142280D02*
D03*
X6214D02*
D03*
X69279Y151478D02*
D03*
X69702Y157107D02*
D03*
X69437Y162541D02*
D03*
X74000Y167456D02*
D03*
X69088Y167780D02*
D03*
X44500Y179332D02*
D03*
X34962Y179764D02*
D03*
X25400Y180000D02*
D03*
X43719Y187912D02*
D03*
X34962Y188000D02*
D03*
X25500Y188228D02*
D03*
X163000Y88500D02*
D03*
X133500Y171000D02*
D03*
X88358Y163827D02*
D03*
X81500Y163500D02*
D03*
X77000Y162500D02*
D03*
X87000Y158500D02*
D03*
X82413Y143087D02*
D03*
X90500Y155000D02*
D03*
X159760Y43240D02*
D03*
X149753Y43365D02*
D03*
X129753Y44247D02*
D03*
X119753Y44494D02*
D03*
X109760D02*
D03*
X99753Y44112D02*
D03*
X150454Y145500D02*
D03*
X141500D02*
D03*
X44500Y166500D02*
D03*
X40500Y163500D02*
D03*
X63500Y14500D02*
D03*
X66597Y56108D02*
D03*
X85000Y74500D02*
D03*
X76547Y67000D02*
D03*
X79500Y82500D02*
D03*
X55000Y26500D02*
D03*
X64500Y104500D02*
D03*
X82000Y104413D02*
D03*
X34611Y49039D02*
D03*
X59905Y72000D02*
D03*
X55892Y72500D02*
D03*
X51500Y43500D02*
D03*
X54317Y46817D02*
D03*
X57000Y40800D02*
D03*
X55892Y22138D02*
D03*
X41000Y144200D02*
D03*
X28500Y132000D02*
D03*
X186500Y118000D02*
D03*
Y114000D02*
D03*
X146557Y123500D02*
D03*
Y127500D02*
D03*
M02*
